<svg width="66" height="74" viewBox="0 0 66 74" fill="none" xmlns="http://www.w3.org/2000/svg">
<path d="M24.3886 73.9999H3.30092C1.47941 73.9999 0 72.5374 0 70.7434V35.8186C0 34.0216 1.48249 32.5591 3.30092 32.5591H24.3855C26.2071 32.5591 27.6865 34.0216 27.6865 35.8186V70.7434C27.6865 72.5404 26.204 73.9999 24.3855 73.9999H24.3886ZM3.30092 34.6875C2.6691 34.6875 2.15747 35.1953 2.15747 35.8186V70.7434C2.15747 71.3667 2.67218 71.8715 3.30092 71.8715H24.3855C25.0174 71.8715 25.529 71.3637 25.529 70.7434V35.8186C25.529 35.1953 25.0143 34.6875 24.3855 34.6875H3.30092Z" fill="#494A52"/>
<path d="M21.186 48.5772H6.5553C5.96045 48.5772 5.47656 48.0998 5.47656 47.5129V39.0296C5.47656 38.4427 5.96045 37.9653 6.5553 37.9653H21.186C21.7808 37.9653 22.2647 38.4427 22.2647 39.0296V47.5129C22.2647 48.0998 21.7808 48.5772 21.186 48.5772ZM7.63403 46.4487H20.1073V40.0938H7.63403V46.4487Z" fill="#494A52"/>
<path d="M9.90241 55.6104H5.86487C5.27002 55.6104 4.78613 55.133 4.78613 54.5462C4.78613 53.9593 5.27002 53.4819 5.86487 53.4819H9.90241C10.4973 53.4819 10.9811 53.9593 10.9811 54.5462C10.9811 55.133 10.4973 55.6104 9.90241 55.6104Z" fill="#494A52"/>
<path d="M20.9087 55.6104H17.1793C16.5845 55.6104 16.1006 55.133 16.1006 54.5462C16.1006 53.9593 16.5845 53.4819 17.1793 53.4819H20.9087C21.5035 53.4819 21.9874 53.9593 21.9874 54.5462C21.9874 55.133 21.5035 55.6104 20.9087 55.6104Z" fill="#494A52"/>
<path d="M9.90241 62.5337H5.86487C5.27002 62.5337 4.78613 62.0563 4.78613 61.4695C4.78613 60.8827 5.27002 60.4053 5.86487 60.4053H9.90241C10.4973 60.4053 10.9811 60.8827 10.9811 61.4695C10.9811 62.0563 10.4973 62.5337 9.90241 62.5337Z" fill="#494A52"/>
<path d="M20.9087 62.5337H17.1793C16.5845 62.5337 16.1006 62.0563 16.1006 61.4695C16.1006 60.8827 16.5845 60.4053 17.1793 60.4053H20.9087C21.5035 60.4053 21.9874 60.8827 21.9874 61.4695C21.9874 62.0563 21.5035 62.5337 20.9087 62.5337Z" fill="#494A52"/>
<path d="M9.90241 69.4605H5.86487C5.27002 69.4605 4.78613 68.9831 4.78613 68.3963C4.78613 67.8094 5.27002 67.332 5.86487 67.332H9.90241C10.4973 67.332 10.9811 67.8094 10.9811 68.3963C10.9811 68.9831 10.4973 69.4605 9.90241 69.4605Z" fill="#494A52"/>
<path d="M20.9087 69.4605H17.1793C16.5845 69.4605 16.1006 68.9831 16.1006 68.3963C16.1006 67.8094 16.5845 67.332 17.1793 67.332H20.9087C21.5035 67.332 21.9874 67.8094 21.9874 68.3963C21.9874 68.9831 21.5035 69.4605 20.9087 69.4605Z" fill="#494A52"/>
<path d="M63.0317 74H32.6114C32.0166 74 31.5327 73.5226 31.5327 72.9358C31.5327 72.3489 32.0166 71.8716 32.6114 71.8716H63.0317C63.4786 71.8716 63.8423 71.5128 63.8423 71.0719V2.92813C63.8423 2.48724 63.4786 2.12845 63.0317 2.12845H14.6243C14.1774 2.12845 13.8137 2.48724 13.8137 2.92813V27.685C13.8137 28.2719 13.3298 28.7492 12.735 28.7492C12.1401 28.7492 11.6562 28.2719 11.6562 27.685V2.92813C11.6562 1.31356 12.9877 0 14.6243 0H63.0317C64.6683 0 65.9998 1.31356 65.9998 2.92813V71.0749C65.9998 72.6895 64.6683 74.003 63.0317 74.003V74Z" fill="#494A52"/>
<path d="M38.8279 32.4132C31.1535 32.4132 24.9092 26.2529 24.9092 18.6817C24.9092 11.1105 31.1535 4.9502 38.8279 4.9502C39.4228 4.9502 39.9067 5.42758 39.9067 6.01442C39.9067 6.60126 39.4228 7.07864 38.8279 7.07864C32.3432 7.07864 27.0666 12.2842 27.0666 18.6817C27.0666 25.0792 32.3432 30.2848 38.8279 30.2848C45.3127 30.2848 50.5892 25.0792 50.5892 18.6817C50.5892 14.2211 48.065 10.2287 44.0028 8.26145C43.4665 8.003 43.2476 7.36446 43.5096 6.83843C43.7716 6.3124 44.4188 6.09347 44.952 6.35193C49.7601 8.68106 52.7436 13.4062 52.7436 18.6848C52.7436 26.2559 46.4993 32.4163 38.8248 32.4163L38.8279 32.4132Z" fill="#494A52"/>
<path d="M33.567 25.374C33.305 25.374 33.043 25.2798 32.8365 25.0913C32.3988 24.6929 32.3711 24.021 32.7749 23.5862L37.7494 18.265V6.01735C37.7494 5.43051 38.2332 4.95312 38.8281 4.95312C39.4229 4.95312 39.9068 5.43051 39.9068 6.01735V18.6816C39.9068 18.9492 39.8051 19.2076 39.6202 19.4022L34.3591 25.0305C34.1464 25.2585 33.8567 25.374 33.567 25.374Z" fill="#494A52"/>
<path d="M38.8278 19.7461H25.9908C25.396 19.7461 24.9121 19.2687 24.9121 18.6819C24.9121 18.0951 25.396 17.6177 25.9908 17.6177H38.8278C39.4226 17.6177 39.9065 18.0951 39.9065 18.6819C39.9065 19.2687 39.4226 19.7461 38.8278 19.7461Z" fill="#494A52"/>
<path d="M57.7682 40.0816H38.8287C38.2339 40.0816 37.75 39.6042 37.75 39.0174C37.75 38.4305 38.2339 37.9531 38.8287 37.9531H57.7682C58.3631 37.9531 58.8469 38.4305 58.8469 39.0174C58.8469 39.6042 58.3631 40.0816 57.7682 40.0816Z" fill="#494A52"/>
<path d="M57.7682 46.6919H38.8287C38.2339 46.6919 37.75 46.2145 37.75 45.6277C37.75 45.0409 38.2339 44.5635 38.8287 44.5635H57.7682C58.3631 44.5635 58.8469 45.0409 58.8469 45.6277C58.8469 46.2145 58.3631 46.6919 57.7682 46.6919Z" fill="#494A52"/>
<path d="M48.3795 66.4929C46.6566 66.4929 45.0601 65.7631 44.1139 64.5408C43.7533 64.0725 43.8427 63.4066 44.3142 63.0478C44.7889 62.689 45.4638 62.7803 45.8275 63.2455C46.3638 63.9357 47.3408 64.3644 48.3826 64.3644C50.013 64.3644 51.3383 63.361 51.3383 62.1296C51.3383 61.0136 50.3705 60.2565 48.4627 59.8825C45.8645 59.3717 44.3111 57.8666 44.3111 55.8567C44.3111 53.6188 46.4378 51.7944 49.0545 51.7944C50.6233 51.7944 52.0873 52.4543 52.9718 53.561C53.3417 54.0232 53.2585 54.6922 52.7931 55.057C52.3246 55.4189 51.6465 55.3398 51.2767 54.8807C50.8082 54.2908 49.9545 53.9259 49.0545 53.9259C47.6521 53.9259 46.4686 54.8107 46.4686 55.8598C46.4686 57.1338 47.9819 57.6203 48.8819 57.7997C52.8948 58.5872 53.4927 60.8525 53.4927 62.1326C53.4927 64.5408 51.1996 66.4959 48.3795 66.4959V66.4929Z" fill="#494A52"/>
<path d="M48.691 68.7853C48.0962 68.7853 47.6123 68.3079 47.6123 67.7211V65.4163C47.6123 64.8294 48.0962 64.3521 48.691 64.3521C49.2859 64.3521 49.7698 64.8294 49.7698 65.4163V67.7211C49.7698 68.3079 49.2859 68.7853 48.691 68.7853Z" fill="#494A52"/>
<path d="M48.691 53.8985C48.0962 53.8985 47.6123 53.4211 47.6123 52.8342V50.3987C47.6123 49.8119 48.0962 49.3345 48.691 49.3345C49.2859 49.3345 49.7698 49.8119 49.7698 50.3987V52.8342C49.7698 53.4211 49.2859 53.8985 48.691 53.8985Z" fill="#494A52"/>
</svg>
