<svg width="40" height="40" viewBox="0 0 40 40" fill="none" xmlns="http://www.w3.org/2000/svg">
<path d="M21.6667 3.33325C20.4721 3.33325 19.0234 3.33349 18.5737 3.64821C18.124 3.96293 17.9352 4.51315 17.5574 5.6136L16.9828 7.27655C16.7198 7.94112 16.2446 8.5065 15.6269 8.88995L15.0473 9.21404C14.3269 9.57276 13.4991 9.67278 12.7101 9.49645L10.6107 8.92341C9.3749 8.58354 8.75698 8.4136 8.21062 8.62896C7.66425 8.84432 7.34314 9.38438 6.70091 10.4645L5.85172 11.8927C5.24973 12.9052 4.94874 13.4114 5.00715 13.9503C5.06557 14.4892 5.46852 14.9235 6.27443 15.7921L8.04826 17.714C8.4818 18.2459 8.7896 19.1729 8.7896 20.0062C8.7896 20.8402 8.48191 21.7669 8.0483 22.2989L6.27443 24.2208C5.46853 25.0894 5.06558 25.5237 5.00716 26.0626C4.94874 26.6015 5.24974 27.1077 5.85173 28.1202L6.70088 29.5483C7.3431 30.6284 7.66425 31.1686 8.21062 31.3839C8.75699 31.5993 9.37492 31.4293 10.6108 31.0894L12.71 30.5164C13.4991 30.34 14.3271 30.4401 15.0476 30.7989L15.6271 31.1231C16.2447 31.5065 16.7198 32.0718 16.9828 32.7363L17.5574 34.3994C17.9352 35.4999 18.124 36.0501 18.5737 36.3648C19.0234 36.6795 20.4721 36.6665 21.6667 36.6665" stroke="#494A52" stroke-width="2.5" stroke-linecap="round"/>
<path d="M21.6673 25.8332C18.4457 25.8332 15.834 23.2215 15.834 19.9998C15.834 16.7782 18.4457 14.1665 21.6673 14.1665" stroke="#494A52" stroke-width="2.5" stroke-linecap="round"/>
<path d="M33.7493 7.9165L29.9993 11.6665H26.666M32.4993 7.9165C32.4993 8.60686 33.059 9.1665 33.7493 9.1665C34.4397 9.1665 34.9993 8.60686 34.9993 7.9165C34.9993 7.22615 34.4397 6.6665 33.7493 6.6665C33.059 6.6665 32.4993 7.22615 32.4993 7.9165Z" stroke="#7ACCC5" stroke-width="2.5" stroke-linecap="round" stroke-linejoin="round"/>
<path d="M33.7493 32.0833L29.9993 28.3333H26.666M32.4993 32.0833C32.4993 31.3929 33.059 30.8333 33.7493 30.8333C34.4397 30.8333 34.9993 31.3929 34.9993 32.0833C34.9993 32.7736 34.4397 33.3333 33.7493 33.3333C33.059 33.3333 32.4993 32.7736 32.4993 32.0833Z" stroke="#7ACCC5" stroke-width="2.5" stroke-linecap="round" stroke-linejoin="round"/>
<path d="M33.7493 20H26.666M32.4993 20C32.4993 20.6904 33.059 21.25 33.7493 21.25C34.4397 21.25 34.9993 20.6904 34.9993 20C34.9993 19.3096 34.4397 18.75 33.7493 18.75C33.059 18.75 32.4993 19.3096 32.4993 20Z" stroke="#7ACCC5" stroke-width="2.5" stroke-linecap="round" stroke-linejoin="round"/>
</svg>
