<svg width="40" height="40" viewBox="0 0 40 40" fill="none" xmlns="http://www.w3.org/2000/svg">
<path d="M25.3296 27.5054C24.6636 27.3233 23.9762 27.7156 23.7942 28.3816C23.6122 29.0475 24.0045 29.7349 24.6704 29.9169L25.3296 27.5054ZM27.5 30.8333L26.382 31.3924C26.5991 31.8266 27.048 32.0958 27.5333 32.0829C28.0186 32.0699 28.4526 31.7772 28.6462 31.332L27.5 30.8333ZM32.0829 27.0116C32.7336 26.7811 33.0743 26.0668 32.8438 25.416C32.6134 24.7653 31.899 24.4246 31.2482 24.655L32.0829 27.0116ZM35.4167 28.3333C35.4167 32.2454 32.2454 35.4167 28.3333 35.4167V37.9167C33.6261 37.9167 37.9167 33.6261 37.9167 28.3333H35.4167ZM28.3333 35.4167C24.4213 35.4167 21.25 32.2454 21.25 28.3333H18.75C18.75 33.6261 23.0406 37.9167 28.3333 37.9167V35.4167ZM21.25 28.3333C21.25 24.4213 24.4213 21.25 28.3333 21.25V18.75C23.0406 18.75 18.75 23.0406 18.75 28.3333H21.25ZM28.3333 21.25C32.2454 21.25 35.4167 24.4213 35.4167 28.3333H37.9167C37.9167 23.0406 33.6261 18.75 28.3333 18.75V21.25ZM25 28.7111C24.6704 29.9169 24.67 29.9168 24.6695 29.9166C24.6694 29.9166 24.6689 29.9165 24.6686 29.9164C24.668 29.9162 24.6675 29.9161 24.6669 29.9159C24.6659 29.9156 24.6649 29.9154 24.664 29.9151C24.6622 29.9146 24.6609 29.9142 24.6598 29.9139C24.6578 29.9134 24.6572 29.9132 24.6579 29.9134C24.6595 29.9139 24.6665 29.916 24.6785 29.92C24.7024 29.9279 24.7454 29.9431 24.8031 29.9665C24.9194 30.0137 25.0892 30.0923 25.2799 30.2102C25.6641 30.448 26.0969 30.8222 26.382 31.3924L28.618 30.2743C28.0698 29.1778 27.2526 28.4909 26.5951 28.0842C26.265 27.88 25.966 27.7405 25.7438 27.6502C25.6322 27.6049 25.5385 27.5714 25.468 27.5479C25.4327 27.5362 25.4032 27.5269 25.3799 27.5199C25.3683 27.5164 25.3582 27.5135 25.3498 27.511C25.3456 27.5098 25.3418 27.5088 25.3384 27.5078C25.3367 27.5073 25.3351 27.5069 25.3337 27.5065C25.3329 27.5063 25.3322 27.5061 25.3315 27.5059C25.3312 27.5058 25.3307 27.5057 25.3305 27.5056C25.33 27.5055 25.3296 27.5054 25 28.7111ZM27.5 30.8333C28.6462 31.332 28.6461 31.3322 28.6461 31.3324C28.646 31.3324 28.646 31.3326 28.6459 31.3327C28.6458 31.3329 28.6458 31.333 28.6458 31.333C28.6457 31.3331 28.6458 31.333 28.646 31.3326C28.6463 31.3318 28.6471 31.3301 28.6483 31.3274C28.6507 31.322 28.6547 31.3128 28.6605 31.3001C28.6719 31.2747 28.69 31.2351 28.7143 31.1831C28.7631 31.0792 28.8367 30.9264 28.9326 30.739C29.1254 30.3625 29.4038 29.8555 29.7474 29.3287C30.0934 28.7981 30.4893 28.2725 30.912 27.8439C31.3432 27.4067 31.7418 27.1324 32.0829 27.0116L31.2482 24.655C30.4129 24.9509 29.7025 25.51 29.132 26.0884C28.5531 26.6754 28.0547 27.3477 27.6534 27.963C27.2497 28.582 26.928 29.1687 26.7074 29.5995C26.5966 29.8158 26.5102 29.995 26.4506 30.1222C26.4208 30.1858 26.3976 30.2366 26.3814 30.2726C26.3733 30.2906 26.3669 30.3049 26.3623 30.3153C26.36 30.3206 26.3581 30.3248 26.3567 30.328C26.356 30.3296 26.3554 30.331 26.3549 30.3321C26.3546 30.3327 26.3544 30.3332 26.3542 30.3336C26.3541 30.3338 26.354 30.3341 26.354 30.3342C26.3539 30.3345 26.3538 30.3347 27.5 30.8333Z" fill="#7ACCC5"/>
<path d="M23.744 16.2058C24.1431 16.7691 24.9232 16.9023 25.4866 16.5032C26.0499 16.1042 26.1831 15.324 25.7841 14.7607L23.744 16.2058ZM15.2019 24.0614C15.7096 24.5292 16.5004 24.4969 16.9682 23.9892C17.436 23.4815 17.4037 22.6907 16.896 22.2229L15.2019 24.0614ZM26.8757 3.82599L27.4898 2.73724V2.73724L26.8757 3.82599ZM29.7502 5.44737L29.1361 6.53611V6.53611L29.7502 5.44737ZM13.1256 33.674L13.7397 32.5853L13.7397 32.5853L13.1256 33.674ZM10.2511 32.0526L10.8652 30.9639L10.8652 30.9639L10.2511 32.0526ZM10.2537 5.44721L9.6396 4.35847V4.35847L10.2537 5.44721ZM13.1282 3.82583L12.5141 2.73708L13.1282 3.82583ZM9.43106 7.82313L8.22168 8.13922L9.43106 7.82313ZM4.98235 15.2787L4.65892 14.0713H4.65892L4.98235 15.2787ZM4.98235 22.2213L4.65885 23.4287H4.65885L4.98235 22.2213ZM9.42852 29.6767L10.6379 29.993L9.42852 29.6767ZM15.5579 4.30933L14.678 5.19715V5.19715L15.5579 4.30933ZM24.4461 4.30948L25.326 5.19731L24.4461 4.30948ZM30.5728 7.82326L31.7821 8.13949V8.13949L30.5728 7.82326ZM35.019 15.2787L35.3425 14.0713L35.019 15.2787ZM9.19528 6.24081L8.04519 5.7511L8.04519 5.75111L9.19528 6.24081ZM14.3347 34.1616L14.1688 32.9227L14.1687 32.9227L14.3347 34.1616ZM15.5552 33.1904L14.6751 32.3027L14.6751 32.3027L15.5552 33.1904ZM3.50579 15.851L2.51592 15.0877L2.51592 15.0877L3.50579 15.851ZM35.4173 17.5157C35.4173 18.2061 35.977 18.7657 36.6673 18.7657C37.3577 18.7657 37.9173 18.2061 37.9173 17.5157H35.4173ZM16.7639 33.7803C17.2958 33.3403 17.3703 32.5523 16.9302 32.0204C16.4901 31.4885 15.7022 31.414 15.1703 31.8541L16.7639 33.7803ZM15.4173 18.8512C15.4173 16.3199 17.4693 14.2679 20.0007 14.2679V11.7679C16.0886 11.7679 12.9173 14.9392 12.9173 18.8512H15.4173ZM20.0007 14.2679C21.5452 14.2679 22.9117 15.0307 23.744 16.2058L25.7841 14.7607C24.5031 12.9524 22.3903 11.7679 20.0007 11.7679V14.2679ZM16.896 22.2229C15.9852 21.3837 15.4173 20.1847 15.4173 18.8512H12.9173C12.9173 20.912 13.799 22.7687 15.2019 24.0614L16.896 22.2229ZM4.58398 20.3508V17.1492H2.08398V20.3508H4.58398ZM26.2616 4.91473L29.1361 6.53611L30.3643 4.35863L27.4898 2.73724L26.2616 4.91473ZM13.7397 32.5853L10.8652 30.9639L9.63696 33.1414L12.5115 34.7627L13.7397 32.5853ZM10.8678 6.53596L13.7423 4.91457L12.5141 2.73708L9.6396 4.35847L10.8678 6.53596ZM8.22168 8.13922C8.8789 10.6538 7.27518 13.3705 4.65892 14.0713L5.30579 16.4862C9.19186 15.4452 11.6603 11.4092 10.6404 7.50705L8.22168 8.13922ZM4.65885 23.4287C7.27413 24.1294 8.8768 26.8456 8.21918 29.3605L10.6379 29.993C11.6581 26.0913 9.19182 22.055 5.30584 21.0139L4.65885 23.4287ZM14.678 5.19715C17.5972 8.09047 22.4066 8.09062 25.326 5.19731L23.5661 3.42164C21.6213 5.34912 18.3827 5.34907 16.4378 3.4215L14.678 5.19715ZM29.3634 7.50703C28.3432 11.4087 30.8095 15.445 34.6955 16.4861L35.3425 14.0713C32.7272 13.3706 31.1245 10.6544 31.7821 8.13949L29.3634 7.50703ZM13.7423 4.91457C13.9005 4.82534 14.0248 4.75529 14.1327 4.69715C14.241 4.63876 14.3119 4.60383 14.3607 4.58257C14.4685 4.53553 14.3648 4.60302 14.1714 4.57714L14.503 2.09923C14.0312 2.03609 13.6332 2.17243 13.3612 2.29105C13.0987 2.40555 12.8007 2.57541 12.5141 2.73708L13.7423 4.91457ZM16.4378 3.4215C16.1404 3.12669 15.8603 2.84764 15.6179 2.64505C15.3976 2.46101 15.0163 2.16793 14.503 2.09923L14.1714 4.57714C14.0419 4.5598 13.9614 4.51724 13.9438 4.5073C13.9298 4.49946 13.9494 4.50878 14.0149 4.56347C14.1561 4.68149 14.3472 4.86937 14.678 5.19715L16.4378 3.4215ZM9.6396 4.35847C9.3471 4.52346 9.04336 4.69301 8.80707 4.86008C8.5646 5.03152 8.23483 5.30575 8.04519 5.7511L10.3454 6.73051C10.2659 6.91716 10.1492 6.97288 10.2504 6.90135C10.2952 6.86964 10.3637 6.82591 10.472 6.76204C10.5798 6.69848 10.7067 6.62684 10.8678 6.53596L9.6396 4.35847ZM10.6404 7.50705C10.5192 7.04332 10.4497 6.7731 10.417 6.58439C10.4017 6.49628 10.4033 6.47265 10.4031 6.4878C10.4029 6.50664 10.3997 6.60282 10.3454 6.73051L8.04519 5.75111C7.83766 6.2385 7.90482 6.72959 7.95378 7.01177C8.00881 7.32895 8.11226 7.72053 8.22168 8.13922L10.6404 7.50705ZM10.8652 30.9639C10.7041 30.873 10.5771 30.8013 10.4693 30.7378C10.361 30.6739 10.2926 30.6302 10.2477 30.5985C10.1466 30.5269 10.2632 30.5827 10.3427 30.7693L8.04248 31.7486C8.2321 32.194 8.56189 32.4682 8.80438 32.6397C9.04068 32.8068 9.34444 32.9764 9.63696 33.1414L10.8652 30.9639ZM8.21918 29.3605C8.10971 29.7791 8.00622 30.1707 7.95115 30.4879C7.90216 30.7701 7.83497 31.2612 8.04248 31.7486L10.3427 30.7693C10.3971 30.897 10.4002 30.9932 10.4005 31.012C10.4006 31.0272 10.399 31.0036 10.4143 30.9155C10.4471 30.7268 10.5166 30.4566 10.6379 29.993L8.21918 29.3605ZM12.5115 34.7627C12.7981 34.9244 13.0961 35.0943 13.3586 35.2088C13.6306 35.3274 14.0287 35.4638 14.5006 35.4006L14.1687 32.9227C14.3621 32.8968 14.4659 32.9643 14.3581 32.9173C14.3093 32.896 14.2384 32.8611 14.1301 32.8027C14.0222 32.7445 13.8979 32.6745 13.7397 32.5853L12.5115 34.7627ZM14.6751 32.3027C14.3445 32.6305 14.1534 32.8184 14.0122 32.9364C13.9468 32.9911 13.9272 33.0004 13.9411 32.9926C13.9588 32.9826 14.0393 32.94 14.1688 32.9227L14.5005 35.4006C15.0139 35.3319 15.3952 35.0387 15.6154 34.8547C15.8579 34.652 16.1378 34.373 16.4352 34.0781L14.6751 32.3027ZM29.1361 6.53611C29.2972 6.627 29.4242 6.69864 29.532 6.76221C29.6403 6.82608 29.7087 6.86982 29.7536 6.90153C29.8547 6.97305 29.7381 6.91732 29.6586 6.73066L31.9588 5.7514C31.7692 5.30599 31.4394 5.03174 31.1969 4.86027C30.9606 4.69318 30.6569 4.52362 30.3643 4.35863L29.1361 6.53611ZM31.7821 8.13949C31.8916 7.72085 31.9951 7.32929 32.0502 7.01212C32.0991 6.72991 32.1663 6.23883 31.9588 5.7514L29.6586 6.73066C29.6042 6.60299 29.6011 6.5068 29.6008 6.48795C29.6007 6.47278 29.6023 6.49639 29.587 6.58448C29.5542 6.77316 29.4847 7.04334 29.3634 7.50703L31.7821 8.13949ZM27.4898 2.73724C27.2032 2.57557 26.9053 2.40571 26.6427 2.29121C26.3708 2.17259 25.9727 2.03625 25.5009 2.09939L25.8326 4.5773C25.6392 4.60318 25.5354 4.53569 25.6433 4.58273C25.692 4.60399 25.7629 4.63892 25.8713 4.69731C25.9791 4.75545 26.1034 4.8255 26.2616 4.91473L27.4898 2.73724ZM25.326 5.19731C25.6567 4.86954 25.8478 4.68165 25.9891 4.56363C26.0545 4.50894 26.0741 4.49962 26.0602 4.50746C26.0425 4.5174 25.9621 4.55997 25.8326 4.5773L25.5009 2.09939C24.9876 2.16809 24.6063 2.46117 24.3861 2.6452C24.1436 2.84779 23.8636 3.12684 23.5661 3.42164L25.326 5.19731ZM4.58398 17.1492C4.58398 16.9664 4.58403 16.8228 4.58643 16.6996C4.58884 16.5758 4.59331 16.4966 4.59879 16.4438C4.611 16.3261 4.61863 16.4549 4.49567 16.6144L2.51592 15.0877C2.22115 15.47 2.14288 15.8894 2.11213 16.1859C2.08239 16.4726 2.08398 16.8181 2.08398 17.1492H4.58398ZM4.65892 14.0713C4.24651 14.1818 3.85902 14.2845 3.55855 14.3927C3.28861 14.49 2.83572 14.673 2.51592 15.0877L4.49567 16.6144C4.41346 16.721 4.33391 16.77 4.3174 16.7796C4.30429 16.7873 4.3235 16.7745 4.40608 16.7447C4.58348 16.6808 4.84837 16.6087 5.30579 16.4862L4.65892 14.0713ZM2.08398 20.3508C2.08398 20.6818 2.08239 21.0274 2.11213 21.3141C2.14287 21.6105 2.22114 22.0299 2.51588 22.4122L4.49567 20.8856C4.61863 21.0451 4.61099 21.1739 4.59879 21.0562C4.59331 21.0033 4.58884 20.9242 4.58643 20.8004C4.58403 20.6772 4.58398 20.5336 4.58398 20.3508H2.08398ZM5.30584 21.0139C4.84842 20.8913 4.58352 20.8192 4.40611 20.7553C4.32352 20.7255 4.30431 20.7127 4.31742 20.7204C4.33392 20.73 4.41347 20.779 4.49567 20.8856L2.51588 22.4122C2.83566 22.8269 3.28855 23.0099 3.55847 23.1072C3.85894 23.2155 4.24643 23.3182 4.65885 23.4287L5.30584 21.0139ZM37.9173 17.1492C37.9173 16.8181 37.9189 16.4726 37.8892 16.1859C37.8584 15.8895 37.7802 15.4701 37.4854 15.0878L35.5056 16.6144C35.3827 16.4549 35.3903 16.3261 35.4025 16.4438C35.408 16.4967 35.4125 16.5758 35.4149 16.6996C35.4173 16.8228 35.4173 16.9664 35.4173 17.1492H37.9173ZM34.6955 16.4861C35.1529 16.6087 35.4178 16.6808 35.5952 16.7447C35.6778 16.7745 35.697 16.7873 35.6839 16.7796C35.6674 16.77 35.5878 16.721 35.5056 16.6144L37.4854 15.0878C37.1656 14.6731 36.7128 14.4901 36.4428 14.3928C36.1424 14.2845 35.7549 14.1818 35.3425 14.0713L34.6955 16.4861ZM35.4173 17.1492V17.5157H37.9173V17.1492H35.4173ZM16.4352 34.0781C16.5412 33.973 16.6509 33.8738 16.7639 33.7803L15.1703 31.8541C14.9998 31.9951 14.8346 32.1446 14.6751 32.3027L16.4352 34.0781Z" fill="#494A52"/>
</svg>
