<svg width="40" height="40" viewBox="0 0 40 40" fill="none" xmlns="http://www.w3.org/2000/svg">
<path d="M20 21.667L20 30.0003" stroke="#494A52" stroke-width="2.5" stroke-linecap="round" stroke-linejoin="round"/>
<path d="M13.334 35C13.334 32.643 13.334 31.4645 14.0662 30.7322C14.7985 30 15.977 30 18.334 30H21.6673C24.0243 30 25.2029 30 25.9351 30.7322C26.6673 31.4645 26.6673 32.643 26.6673 35V36.6667H13.334V35Z" fill="#7ACCC5" stroke="#7ACCC5" stroke-width="3" stroke-linecap="round" stroke-linejoin="round"/>
<path d="M10 36.667H30" stroke="#494A52" stroke-width="2.5" stroke-linecap="round" stroke-linejoin="round"/>
<path d="M21.7276 4.77767L23.4874 8.32637C23.7274 8.82037 24.3673 9.2942 24.9073 9.38493L28.0969 9.91925C30.1367 10.262 30.6167 11.7541 29.1468 13.226L26.6671 15.7262C26.2471 16.1496 26.0172 16.9662 26.1471 17.551L26.8571 20.646C27.417 23.0958 26.1271 24.0435 23.9774 22.7631L20.9877 20.9787C20.4478 20.6561 19.5579 20.6561 19.0079 20.9787L16.0183 22.7631C13.8785 24.0435 12.5786 23.0857 13.1386 20.646L13.8485 17.551C13.9785 16.9662 13.7485 16.1496 13.3286 15.7262L10.8488 13.226C9.389 11.7541 9.85895 10.262 11.8987 9.91925L15.0884 9.38493C15.6183 9.2942 16.2582 8.82037 16.4982 8.32637L18.258 4.77767C19.2179 2.8521 20.7777 2.8521 21.7276 4.77767Z" stroke="#494A52" stroke-width="2.5" stroke-linecap="round" stroke-linejoin="round"/>
</svg>
