<svg width="127" height="100" viewBox="0 0 127 100" fill="none" xmlns="http://www.w3.org/2000/svg">
<g clip-path="url(#clip0_29246_14975)">
<path d="M78.3664 14.2504C77.6251 14.7048 76.8427 15.2004 76.1015 15.6548C74.5366 16.5635 73.013 17.4722 71.4481 18.3809C70.9951 18.6288 70.748 19.0005 70.7892 19.5375C70.9539 21.9332 71.1187 24.2876 71.3246 26.6833C71.4893 28.2942 71.654 29.9051 71.9423 31.516C72.3129 33.7878 72.6835 36.0596 73.1365 38.2901C73.7542 41.4706 74.4131 44.6511 75.1543 47.8316C75.5661 49.649 76.225 51.3838 76.7604 53.16C76.8015 53.3665 76.9663 53.5317 77.1722 53.8621C77.584 53.0773 77.9546 52.4165 78.2429 51.7143C79.3135 49.112 79.8901 46.4272 80.1371 43.6184C80.3019 41.8423 80.5901 40.0662 80.7548 38.3314C80.7548 38.0009 80.7548 37.6292 80.6313 37.2574C79.9724 34.6139 80.1371 31.9704 81.1255 29.4507C82.0726 27.055 83.8846 25.4854 86.2318 24.4528C86.8907 24.1637 87.632 24.0398 88.332 23.9985C89.1556 23.9571 89.7733 24.3702 90.3499 24.9898C91.6264 26.3115 91.8735 27.8398 91.7088 29.6573C91.4617 32.0117 90.3087 33.7878 88.5379 35.1922C87.6731 35.8531 86.6024 36.1009 85.4906 35.5226C85.367 35.44 85.2435 35.3987 85.12 35.3574C85.12 35.3574 85.0376 35.3574 84.8729 35.3574C84.9552 36.39 84.9964 37.4227 85.1611 38.4553C85.367 39.4879 85.6965 40.5206 85.9847 41.5532C86.1906 42.2967 86.6848 42.5445 87.4261 42.4619C89.6086 42.2141 91.1735 41.0162 92.3677 39.2814C93.5619 37.5053 94.4267 35.5639 94.962 33.4987C95.2091 32.5486 95.0444 31.6399 94.962 30.6899C94.8797 29.9464 94.7973 29.1616 94.5091 28.5007C94.1796 27.7159 94.5091 26.7659 93.809 26.0224C93.6443 25.8572 93.7678 25.3615 93.809 25.0311C93.8502 24.205 93.9325 23.3789 93.9737 22.5528C93.9737 22.1397 94.3032 21.8093 94.5502 21.8506C95.0032 21.8919 95.4974 22.0571 95.7857 22.3875C96.1975 22.8006 96.5269 23.3376 96.774 23.9158C97.0622 24.5767 97.7211 24.5354 98.1329 24.8659C98.3388 25.0311 98.5447 25.2376 98.6683 25.4854C99.1624 26.7659 99.6154 28.0877 100.233 29.4094C100.398 28.7486 100.604 28.0877 100.727 27.4268C101.139 25.1137 102.004 22.9658 103.116 20.9006C103.404 20.3636 103.775 19.8266 104.145 19.3723C104.598 18.794 105.175 18.8766 105.587 19.4962C105.834 19.8679 106.204 20.1571 106.451 20.5288C106.946 21.2723 107.563 21.9745 107.893 22.8006C108.552 24.5354 109.499 26.0637 110.899 27.3029C110.981 27.3855 111.022 27.4681 111.105 27.5507L111.022 27.7572C110.734 27.6333 110.363 27.6333 110.158 27.4268C108.799 26.1463 107.481 24.8659 106.163 23.5854C105.875 23.2963 105.628 23.0071 105.298 22.6354C104.928 23.7093 104.516 24.6593 104.269 25.6507C103.239 29.4094 102.622 33.2921 102.498 37.1748C102.498 38.3727 102.704 39.5705 102.827 40.7684C102.869 41.388 102.622 41.6358 102.045 41.4293C101.51 41.2227 100.974 40.9749 100.563 40.6445C99.5742 39.8597 98.5447 39.1162 97.7211 38.2075C97.0622 37.464 96.6504 36.4726 96.1563 35.6052C96.0739 35.4813 96.0327 35.3161 95.8268 35.1509C95.7445 35.4813 95.6621 35.8118 95.5797 36.1422C95.0032 38.414 94.3032 40.6445 93.0266 42.6271C92.6559 43.2054 92.203 43.7424 91.75 44.1967C90.2675 45.6424 88.4556 45.725 86.8083 44.4859C86.0259 43.9076 85.2847 43.2054 84.5434 42.5858C83.8022 41.9662 83.1021 41.3053 82.3197 40.6445C82.2785 41.2227 82.2373 41.7184 82.1962 42.2554C81.9903 45.312 81.8667 48.3272 81.5373 51.3838C81.4137 52.4578 81.0843 53.573 80.6313 54.6056C80.096 55.8035 79.3135 56.0926 78.037 55.7209C76.4721 55.2665 74.9072 54.6882 73.6307 53.6556C72.6011 52.7882 71.654 51.8382 70.9128 50.6816C70.3774 49.8142 69.6773 49.0294 69.1832 48.162C68.689 47.2946 68.3596 46.3033 67.8242 45.3533C67.8242 45.6837 67.7419 45.9728 67.7419 46.3033C67.536 49.3599 67.3713 52.3752 67.083 55.4317C67.0006 56.5057 66.63 57.5796 66.2182 58.5709C65.6829 59.8514 64.9004 60.1405 63.5827 59.7275C61.8119 59.1905 60.0412 58.5709 58.7234 57.2492C57.8586 56.3818 57.1174 55.3904 56.2938 54.4817C54.0288 51.8795 53.2876 48.5751 52.1757 45.4359C51.8463 46.4685 51.5168 47.5011 51.1462 48.4925C50.8168 49.4838 50.4462 50.5164 50.0755 51.5077C49.8696 52.0034 49.6225 52.4578 49.3755 52.9121C49.3343 52.9947 49.3755 53.16 49.3755 53.4078C49.8696 52.7056 50.405 52.1686 50.6521 51.5077C51.1874 50.186 51.5992 48.7816 52.0934 47.4598C52.1345 47.2946 52.2169 47.1707 52.3816 47.0468C52.3816 47.1707 52.3816 47.2946 52.3404 47.4185C51.7639 49.9381 51.0639 52.3752 49.6637 54.6056C49.2931 55.1839 48.8401 55.7622 48.346 56.2579C46.8223 57.7448 45.0104 57.9101 43.3631 56.6296C41.963 55.5144 40.6041 54.3165 39.2863 53.0773C37.9273 51.8382 37.4744 50.1447 37.1449 48.4099C36.7331 46.0968 36.939 43.7837 37.7626 41.5945C38.7098 39.1575 40.5629 37.5053 42.9102 36.4726C43.569 36.1835 44.3103 36.0596 45.0104 36.0183C45.834 35.977 46.4105 36.4313 47.0282 37.0096C48.3871 38.3727 48.5519 39.9423 48.346 41.7184C48.0989 44.0315 46.9458 45.8076 45.1339 47.1707C44.2691 47.8316 43.1984 48.0794 42.0866 47.5011C41.9218 47.4185 41.7571 47.3772 41.51 47.2533C41.6336 49.5664 41.7571 51.7556 42.7043 53.8208C42.9102 54.2752 43.2808 54.4817 43.8161 54.4404C46.1222 54.3165 47.7283 53.0773 49.0048 51.2599C50.2814 49.4012 51.105 47.3359 51.7227 45.1467C52.011 44.0728 51.7227 43.0815 51.4757 42.0901C51.2286 40.7271 50.8991 39.364 50.7344 38.0009C50.405 35.5226 50.1167 33.0443 49.8285 30.5247C49.7461 29.6986 49.6225 28.9138 49.5402 28.0464C48.8401 28.4181 48.1812 28.7899 47.4812 29.079C45.5045 29.8225 43.4867 30.3182 41.4277 29.5334C40.2746 29.079 39.4922 28.2116 38.7098 27.3029C38.0921 26.6007 37.4744 25.9811 36.8978 25.2789C36.6919 25.0724 36.486 24.6593 36.5684 24.4528C36.6919 24.1224 37.5155 24.1224 37.845 24.4941C38.5451 25.3615 39.4922 25.4441 40.3982 25.2789C41.5924 25.0311 42.8278 24.7419 43.9397 24.2876C45.5869 23.6267 47.1929 22.8006 48.8401 21.9745C49.0048 21.8919 49.2107 21.6441 49.2107 21.4375C49.2931 20.6527 49.3343 19.8679 49.3343 19.0418C49.3343 17.1831 49.7461 15.4483 50.1991 13.6721C50.2814 13.3417 50.4873 13.0113 50.7756 12.7634C51.3933 12.1851 52.0934 12.3091 52.5464 13.0113C52.7934 13.383 53.0817 13.7547 53.2876 14.1678C53.4935 14.6222 53.5759 15.1591 53.7406 15.6961C53.7406 15.283 53.8229 14.87 53.8641 14.2917C55.3466 15.6135 55.6761 17.2657 56.129 18.9592C57.488 18.3809 58.7646 17.8027 60.0823 17.2657C61.153 16.8113 62.1825 16.3983 63.2532 15.9852C63.6238 15.8613 63.8297 15.6961 63.7886 15.283C63.7062 13.383 64.1592 11.5243 64.6534 9.70683C64.7357 9.37639 64.9416 9.04595 65.1887 8.79812C65.8476 8.17854 66.63 8.34376 67.0418 9.12856C67.2065 9.459 67.4536 9.74814 67.6183 10.0786C67.8242 10.6156 67.989 11.1525 68.1537 11.6895C68.1537 11.3177 68.236 10.9047 68.2772 10.4916C69.4303 10.7395 69.3891 11.8134 69.8009 12.4743C70.2127 13.1765 70.2951 14.0852 70.5421 14.9526C71.3657 14.6222 72.107 14.2917 72.8482 14.0026C75.5661 12.9699 78.2428 11.9373 80.9607 10.9047C81.6608 10.6569 82.3197 10.7395 82.9374 11.2351C82.608 11.5656 82.3197 11.8134 82.0314 12.1025V12.1851C82.2785 12.0612 82.5256 11.9373 82.855 11.7721C82.4432 12.7634 81.4549 12.6395 80.6725 12.9699C80.8372 13.0113 80.8784 13.0526 81.1255 13.1765C80.1371 13.5895 79.3135 13.92 78.4899 14.2504C78.284 14.1678 78.1193 14.0439 77.9134 13.9613C78.2429 13.7961 78.5723 13.5895 78.9017 13.4243C78.9017 13.4243 78.9429 13.6721 79.0253 14.0026C79.5194 13.5895 79.9312 13.2591 80.3842 12.9286C80.0273 13.0113 79.643 13.0113 79.2312 12.9286C79.2312 12.9286 77.8722 13.7547 77.831 13.9613C77.4192 14.2091 77.0074 14.4569 76.5956 14.7048C76.3897 14.7461 76.1838 14.8287 75.8956 14.9113C76.0191 14.7461 76.0603 14.7048 76.1427 14.6222C76.1427 14.5809 76.0603 14.5395 76.0191 14.4982C75.6485 14.8287 75.2779 15.1178 74.8249 15.5309C75.525 15.283 76.0603 15.0765 76.5956 14.9113C76.5956 14.9113 76.5956 14.7874 76.5956 14.7461C77.0624 14.9113 77.3506 14.8562 77.4604 14.5809C77.9134 14.4569 78.2017 14.3743 78.5311 14.2917L78.3664 14.2504ZM47.7283 41.4706C47.7283 41.4706 47.3988 41.7597 47.3165 41.9662C47.0282 42.5445 46.7811 43.1228 46.4928 43.7011C46.3693 43.9489 46.2046 44.1554 46.0399 44.4032C47.1655 43.2192 47.7557 42.2691 47.8106 41.5532C47.8106 40.9336 47.893 40.3553 47.893 39.7357C47.8106 39.7357 47.6871 39.7357 47.6047 39.7357C47.6047 40.314 47.6871 40.9336 47.7283 41.5119V41.4706ZM62.5943 57.7861C62.5943 57.7861 62.8414 57.5383 62.8826 57.4557C63.0061 57.2905 63.1297 57.1253 63.212 56.9187C64.3239 54.8122 64.9828 52.5404 65.3534 50.2273C65.8476 47.2946 66.0947 44.3206 66.4653 41.3467C66.4653 41.2227 66.4653 41.0988 66.4653 41.0162C66.1358 39.4879 65.6829 38.0009 65.477 36.4313C65.024 33.6226 64.7357 30.7725 64.3651 27.9638C64.2004 26.6833 64.0357 25.3615 63.8298 23.9985C61.5237 25.4854 59.0528 26.1463 56.3349 25.7746C56.4173 26.3115 56.4585 26.8072 56.5408 27.3029C56.8703 30.029 57.1585 32.7965 57.5292 35.5226C57.8174 37.5466 58.2292 39.6118 58.5999 41.6358C59.4646 46.3446 60.3294 51.0534 61.7707 55.597C61.9766 56.2992 62.3061 56.96 62.5943 57.7448V57.7861ZM41.4689 45.6424C41.4689 45.6424 41.5924 45.8076 41.6748 45.8489C42.5395 45.5598 43.4455 45.3946 44.1867 44.8989C46.4105 43.4119 47.3165 41.2227 46.987 38.6618C46.8635 37.6292 46.6164 37.5466 45.7104 38.0422C45.7104 38.0422 45.6281 38.0835 45.5869 38.1248C42.7454 39.8184 42.1689 42.751 41.4689 45.6424ZM84.8729 33.6226C84.8729 33.6226 84.9964 33.7878 85.0788 33.8704C85.9436 33.5813 86.8495 33.416 87.5908 32.9204C89.8145 31.4334 90.7205 29.2029 90.391 26.6833C90.2263 25.6094 90.0204 25.5267 89.0733 26.105C86.1906 27.7985 85.5729 30.7312 84.9141 33.6639L84.8729 33.6226ZM81.5373 39.5292H81.3314C80.9196 43.3293 80.5078 47.0881 80.0548 50.9295C79.9724 50.8469 79.9724 50.8882 80.0136 50.8882C80.1371 50.8882 80.2607 50.8882 80.4666 50.8469C80.3842 52.4165 79.7253 53.7382 79.0253 55.1839C79.2312 55.0187 79.4371 54.8948 79.5194 54.7296C79.7665 54.2339 80.0548 53.7382 80.1783 53.2013C80.5078 51.8795 80.796 50.5164 80.9607 49.1533C81.2902 46.3859 81.4961 43.5771 81.7432 40.8097C81.7432 40.3966 81.5785 39.9423 81.4961 39.5292H81.5373ZM64.6534 58.984C64.6534 58.984 64.7357 59.0666 64.7769 59.1492C65.024 58.8188 65.3534 58.5709 65.477 58.1992C65.8476 57.084 66.2182 55.9687 66.3829 54.8535C66.7947 51.4251 67.1242 48.0381 67.4124 44.6098C67.4124 44.1554 67.1654 43.6597 67.0006 42.9989C66.5476 47.0881 66.0947 50.9708 65.6829 54.8948C65.724 54.8948 65.8888 54.8948 66.0947 54.8122C65.9711 56.3818 65.4358 57.7035 64.7357 58.984H64.6534ZM56.7056 44.4859C55.7996 37.9596 54.9348 31.4334 54.0288 24.9072C54.4818 31.516 55.3054 38.0422 56.7056 44.4859ZM71.1187 40.4792C70.2127 33.953 69.3067 27.4268 68.4419 20.8593C68.8949 27.4681 69.7185 33.9943 71.1187 40.4792ZM92.5736 41.4706C92.5736 41.4706 92.656 41.4706 92.6971 41.5119C92.903 41.1401 93.0678 40.7684 93.2737 40.4379C93.4384 40.1901 93.6855 40.0249 93.809 39.7771C94.3032 38.5379 94.7973 37.34 95.1679 36.0596C95.3739 35.3987 95.868 34.6965 95.3738 33.953C94.4267 36.4313 93.4796 38.9509 92.5736 41.4293V41.4706ZM91.1323 27.6333C91.1323 29.4094 90.5558 30.979 89.6086 32.4247C89.8145 32.1769 90.0204 31.9704 90.2263 31.7225C90.2263 31.7225 90.3087 31.7638 90.3087 31.8051C90.1851 32.0943 90.0616 32.3421 89.8557 32.7552C91.0087 31.516 91.5853 29.1616 91.1323 27.6333ZM59.2176 23.4615C59.2176 23.4615 59.2176 23.5854 59.2587 23.6267C59.6294 23.5441 60 23.5028 60.2882 23.4202C60.4941 23.2137 60.6589 23.0484 60.8648 22.8419C60.9471 23.0071 61.0295 23.0897 61.153 23.2963C61.2354 23.0071 61.2766 22.8419 61.3589 22.6767C62.0178 23.0071 61.7296 22.3462 61.8943 22.2223C60.9883 22.6354 60.1235 23.0484 59.2176 23.4615ZM45.7516 27.4268C46.0399 27.179 46.2458 27.0137 46.4928 26.8072C46.5752 26.9724 46.6164 27.055 46.7399 27.2616C46.8223 26.9724 46.8635 26.8072 46.9458 26.642C47.1929 26.6971 47.3851 26.5318 47.5224 26.1463C46.6164 26.5594 45.7516 26.9724 44.8456 27.3855C44.8456 27.4681 44.8868 27.5094 44.928 27.592C45.0927 27.5507 45.2163 27.4681 45.381 27.4268C45.5869 27.4268 45.7928 27.4268 45.834 27.3855L45.7516 27.4268ZM45.381 45.3533C44.3515 45.8489 43.3631 46.3033 42.2925 46.7989C44.0632 46.5098 44.3927 46.3859 45.381 45.3533ZM85.6553 34.7378C86.9319 34.7378 87.9202 34.2422 88.785 33.2921C87.7143 33.7878 86.726 34.2422 85.6553 34.7378ZM53.9465 16.77C53.9465 16.77 53.8229 16.77 53.7406 16.77C53.7406 17.7614 53.7406 18.7527 53.7406 19.7853C53.8229 19.7853 53.9053 19.7853 53.9877 19.7853C53.9877 18.794 53.9465 17.7614 53.9053 16.77H53.9465ZM84.0905 29.1616C84.3787 29.079 84.6258 29.079 84.7493 28.9551C84.9141 28.7486 84.9964 28.4181 85.1611 28.0877C84.3375 28.0877 84.3787 28.7486 84.1316 29.1616H84.0905ZM68.3184 12.8047C68.3184 12.8047 68.1949 12.8047 68.1125 12.8047C68.1125 13.6308 68.1949 14.4569 68.236 15.2417C68.3184 15.2417 68.3596 15.2417 68.4419 15.2417C68.4008 14.4156 68.3596 13.5895 68.3184 12.8047ZM41.0571 41.1814C41.0571 41.1814 41.1806 41.1814 41.2218 41.1814C41.3865 40.851 41.5512 40.4792 41.7159 40.1488C41.6748 40.1075 41.5924 40.0662 41.5512 39.9836C41.3453 40.1901 41.0982 40.3966 40.9335 40.6858C40.8511 40.8097 41.0159 41.0162 41.0571 41.1814ZM104.475 21.0658C104.475 21.0658 104.31 21.0658 104.228 21.0658C103.61 22.0571 103.569 22.181 104.022 22.4702C104.145 22.0158 104.31 21.5614 104.434 21.1071L104.475 21.0658Z" fill="#546E7A" fill-opacity="0.68"/>
<path d="M125.765 56.8772C126.135 56.5467 126.465 56.2576 126.835 55.9272C126.876 55.9272 126.959 55.9685 127 56.0098C126.918 56.2576 126.876 56.5054 126.753 56.712C125.518 58.8598 124.241 61.049 122.964 63.1556C122.553 63.8165 122.553 64.5187 122.676 65.2622C122.964 66.8731 123.294 68.5253 123.5 70.1775C123.747 72.4493 123.994 74.7624 124.035 77.0755C124.076 78.8103 123.953 80.5864 123.706 82.3212C123.376 84.5517 122.635 86.6583 121.276 88.517C120.535 89.5496 119.67 90.3757 118.27 90.4171C118.105 90.4171 117.899 90.4171 117.734 90.3344C116.128 89.7975 114.646 88.7235 114.317 86.7409C113.905 84.3039 114.193 81.9082 114.852 79.5951C115.717 76.4972 116.829 73.4406 117.858 70.3427C118.311 69.0622 118.805 67.8231 118.517 66.3361C118.187 64.6013 118.064 62.8251 117.817 61.0903C117.817 60.9664 117.776 60.8838 117.693 60.6773C117.158 62.7425 116.746 64.6839 116.17 66.6252C115.634 68.3187 114.934 69.971 114.275 71.6232C114.234 71.7471 114.152 71.8297 114.111 71.9123C113.246 73.1928 112.546 73.3167 111.352 72.408C110.446 71.7058 109.54 70.9623 108.716 70.1775C107.645 69.1862 107.563 67.7405 107.233 66.4187C107.233 66.2535 107.192 66.1296 107.11 65.9643C106.945 66.7078 106.863 67.4513 106.657 68.1948C106.41 69.1448 106.122 70.1362 105.751 71.0449C105.339 72.0775 104.557 72.3667 103.568 71.9536C102.498 71.4992 101.386 71.0449 100.398 70.4253C99.2857 69.7231 98.7915 68.5666 98.215 67.4513C97.2679 65.6339 96.6913 63.6926 96.2795 61.7099C96.0325 60.512 95.9089 59.2729 95.6207 58.0337C95.5795 58.199 95.5383 58.3229 95.4971 58.4881C94.4676 62.7425 94.1793 67.0796 94.097 71.4166C94.0558 73.5232 94.2617 75.6711 94.3441 77.819C94.3441 78.5211 94.1382 78.7277 93.4793 78.4798C92.3674 78.0668 91.2967 77.695 90.1849 77.2407C90.0613 77.1994 89.8966 77.0342 89.8554 76.8689C89.4848 76.0428 89.1553 75.1754 88.7847 74.3493C88.7024 74.1841 88.5788 74.0189 88.4553 73.8123C88.1258 75.3819 87.8376 76.9102 87.5081 78.3972C87.3846 78.9755 87.0552 79.5125 86.7669 80.0494C86.5198 80.5038 86.0668 80.6277 85.6139 80.3799C83.5137 79.182 81.3311 78.0668 80.3016 75.6711C79.8074 74.4732 79.4368 73.2341 79.1074 71.9949C78.7779 70.7558 78.6132 69.5166 78.4073 68.2361C78.2838 67.3274 78.119 66.3361 79.025 65.6752C79.2721 65.4687 79.5192 65.2622 79.8486 65.51C80.1369 65.7165 80.4663 65.8404 80.5487 66.2948C80.631 66.6252 81.0428 66.9557 81.4135 67.0796C81.8253 67.2035 82.1959 67.2448 82.3606 67.7818C82.5253 68.3187 82.8959 68.8144 83.0607 69.3514C83.2666 70.0123 83.3489 70.7145 83.5137 71.4166C83.6372 72.0362 83.8019 72.6558 83.9666 73.2754C84.2961 74.5558 84.6667 75.8363 85.0373 77.2407C85.202 77.0342 85.4079 76.9102 85.4903 76.7037C86.1904 75.0102 86.8904 73.3167 87.5493 71.6232C87.5905 71.4992 87.5493 71.2927 87.5081 71.1275C87.3022 70.2601 87.014 69.434 86.8081 68.5666C86.6845 67.8644 86.6434 67.1622 86.561 66.46C86.561 66.2122 86.3963 65.9643 86.3551 65.6752C86.3551 65.3448 86.3551 64.973 86.3551 64.6426C86.3551 64.5187 86.3551 64.3947 86.3139 64.3121C86.108 63.2795 85.9021 62.2469 85.6962 61.2142C85.4491 59.6446 85.202 58.075 85.0373 56.5054C84.955 55.638 84.955 54.7293 85.0373 53.8619C85.0373 53.6141 85.3256 53.3249 85.5727 53.1597C85.9021 52.9119 86.1904 53.1597 86.4375 53.4489C86.8081 53.8619 87.1375 54.275 87.467 54.7293C87.467 54.6467 87.5081 54.6054 87.5493 54.5228C87.8376 54.6054 88.167 54.6467 88.4141 54.8119C89.2377 55.5141 89.6495 56.5054 89.8966 57.4968C90.4319 59.4381 90.8849 61.4208 91.3379 63.4034C91.3379 63.5273 91.4203 63.6926 91.5026 63.8578C91.9968 61.9164 92.4086 60.099 92.9028 58.2403C93.3969 56.5881 93.9734 54.9358 94.5088 53.3249C94.7147 52.7054 95.2089 52.6641 95.7854 53.0771C96.1972 53.3662 96.6502 53.6141 97.1031 53.9032C97.3914 54.1097 97.6797 54.3163 97.8856 54.6054C98.668 55.638 99.0798 56.7946 99.4504 58.0337C100.48 61.5034 101.468 64.973 102.457 68.484C102.539 68.7731 102.662 69.0209 102.786 69.4753C103.115 69.0209 103.363 68.6905 103.568 68.3187C104.186 67.2861 104.804 66.2948 105.298 65.2208C105.71 64.3121 105.957 63.3208 106.245 62.3708C106.533 61.4208 106.781 60.4294 107.069 59.4381C107.151 59.1903 107.316 59.0251 107.439 58.7772C107.481 58.7772 107.522 58.8185 107.604 58.8598C107.11 61.1729 106.575 63.4447 106.08 65.7578H106.286C106.492 65.1795 106.781 64.56 106.863 63.8991C107.069 62.3295 107.398 60.7186 107.975 59.2729C108.51 57.9098 109.004 56.5054 110.034 55.3902C110.693 54.688 111.434 54.3163 112.34 54.2337C113.163 54.151 113.781 54.688 114.275 55.2663C114.893 55.9685 115.511 56.6707 116.17 57.3729C116.417 57.6207 116.746 57.8272 117.034 58.075C117.076 58.075 117.117 58.0337 117.199 57.9924C117.076 56.8772 116.952 55.7619 116.87 54.6467C116.87 54.2337 116.952 53.8206 117.076 53.4489C117.158 53.2423 117.446 53.0358 117.652 52.9945C117.858 52.9945 118.064 53.2423 118.229 53.4075C118.435 53.6141 118.517 53.9445 118.764 54.1097C119.67 54.8119 119.917 55.8033 120.246 56.7946C120.658 58.1577 121.07 59.5207 121.482 60.8838C121.482 61.0077 121.605 61.1316 121.729 61.2969C122.347 60.4294 122.923 59.6033 123.541 58.8185C124.364 57.7859 125.188 56.7533 126.053 55.7619C126.135 55.638 126.382 55.638 126.588 55.5967C126.588 55.638 126.629 55.7206 126.671 55.7619C126.424 56.0098 126.176 56.2576 125.971 56.5054C125.888 56.6294 125.888 56.8772 125.847 57.0424C125.229 57.0424 125.106 57.6207 124.859 57.9924C124.241 58.9011 123.664 59.8512 123.047 60.7599C123.088 60.7599 123.129 60.8425 123.211 60.8838C123.417 60.7186 123.664 60.5947 123.788 60.4294C123.994 60.099 124.076 59.7273 124.282 59.3968C124.776 58.612 125.312 57.8272 125.847 57.0424L125.765 56.8772ZM119.093 72.5319C119.093 72.5319 118.97 72.5319 118.888 72.5319C118.805 72.6971 118.723 72.821 118.64 72.9862C118.064 74.9689 117.487 76.9515 116.87 78.9342C116.293 80.7516 116.046 82.6104 115.84 84.4691C115.675 85.9148 115.675 87.3605 116.252 88.8061C116.376 88.7235 116.499 88.6822 116.54 88.5996C117.199 87.4018 118.023 86.2865 118.435 85.0474C119.093 82.9408 119.176 80.7516 119.135 78.5211C119.135 76.5385 119.052 74.5558 119.052 72.6145L119.093 72.5319ZM112.463 69.2688C112.463 69.2688 112.628 69.3514 112.669 69.3514C113.122 68.5253 113.616 67.7405 114.028 66.9144C115.305 64.3534 115.675 61.5447 116.705 58.9011C116.746 58.7772 116.705 58.4468 116.581 58.4468C116.376 58.4055 116.005 58.3642 115.923 58.4881C115.387 59.149 114.893 59.8512 114.44 60.5947C113.328 62.536 113.04 64.6839 112.669 66.8318C112.546 67.6166 112.505 68.4427 112.381 69.2688H112.463ZM93.644 63.4034C93.8087 62.7425 93.9323 62.2469 94.0558 61.7099C94.3441 60.3881 94.6323 59.0664 94.9206 57.7859C95.1677 56.7533 95.3736 55.7619 95.0853 54.688C94.8382 55.1837 94.6735 55.6793 94.5088 56.175C94.4264 56.4228 94.2617 56.7946 94.3852 56.9185C94.6323 57.2489 94.55 57.6207 94.4676 57.9098C94.2617 58.9425 93.9734 59.9751 93.6852 60.9664C93.5616 61.3382 93.3146 61.6686 93.2322 61.999C93.1498 62.3295 93.1087 62.7012 93.1498 63.073C93.1498 63.1969 93.4793 63.2795 93.6852 63.3621L93.644 63.4034ZM112.71 72.3254C112.71 72.3254 112.875 72.408 112.916 72.4906C113.246 72.0775 113.616 71.7058 113.864 71.2927C114.152 70.8384 114.317 70.3427 114.522 69.847C114.564 69.7231 114.522 69.5166 114.564 69.3927C114.769 68.9796 115.058 68.6079 115.305 68.2361C114.769 67.8644 115.099 67.5339 115.305 67.2448C115.47 66.997 115.634 66.7491 115.799 66.5013C115.717 66.4187 115.634 66.3774 115.552 66.2948C115.387 66.5013 115.14 66.7078 115.017 66.9557C114.728 67.4926 114.605 68.1535 114.234 68.5666C113.864 68.9796 114.317 69.7644 113.534 69.9296C113.534 69.9296 113.534 70.0536 113.534 70.1362C113.534 70.3427 113.534 70.5905 113.411 70.7557C113.205 71.0862 112.916 71.334 112.628 71.6232C112.628 71.6232 112.628 71.7058 112.628 71.7471C112.752 71.7471 112.875 71.7884 112.958 71.8297C112.875 71.9949 112.793 72.1601 112.71 72.284V72.3254ZM112.052 61.049C110.981 63.1143 110.24 69.1862 110.94 70.5492C110.775 67.2448 111.104 64.1056 112.052 61.049ZM87.9199 72.4906C87.5493 74.0189 87.1787 75.5472 86.8081 77.0755C86.8493 77.0755 86.9316 77.0755 86.9728 77.0755C87.3434 75.5472 88.2082 74.1015 87.8788 72.4493L87.9199 72.4906ZM117.487 59.0664C117.487 59.0664 117.323 59.0664 117.24 59.0664C117.117 59.8099 117.034 60.5534 116.911 61.2969H117.158C117.281 60.5534 117.364 59.8099 117.487 59.0664Z" fill="#546E7A" fill-opacity="0.68"/>
<path d="M8.19504 40.8097C8.35976 39.5706 8.4833 38.538 8.6892 37.5053C9.05983 35.4814 9.47163 33.4574 9.92461 31.4748C10.2541 30.0704 10.6247 28.7073 11.1188 27.3855C12.2307 24.2463 13.5073 21.2311 15.6899 18.6701C16.6782 17.5136 17.8312 16.5636 19.3961 16.481C19.8902 16.481 20.4668 16.6462 20.8374 16.9353C21.7434 17.7201 22.6081 18.6288 23.4317 19.5375C24.5848 20.818 24.7083 22.4702 24.626 24.0398C24.5436 25.8572 24.2554 27.716 23.8436 29.4921C23.1847 32.4661 22.3199 35.3575 21.5375 38.2901C21.5375 38.414 21.5375 38.5793 21.4551 38.8271C21.7434 38.6206 21.9081 38.4967 22.114 38.3314C23.8024 37.051 25.7378 36.4314 27.838 36.514C29.1558 36.5966 30.3089 37.0923 31.2972 37.9597C32.6973 39.2401 34.0151 40.6032 34.3033 42.5446C34.4269 43.5772 34.4269 44.6511 34.3445 45.6838C34.0974 48.7404 33.6033 51.673 32.3267 54.5231C31.1325 57.2079 29.8559 59.8102 27.7969 61.958C24.7495 65.0972 21.5375 68.0712 18.0783 70.7147C16.9664 71.5409 15.8134 72.0778 14.3721 71.4995C14.4956 72.2843 14.6603 72.9452 14.7015 73.5648C14.7015 73.9366 14.6603 74.3909 14.4956 74.7627C14.2074 75.3822 13.5897 75.5888 13.0131 75.217C12.0248 74.5561 11.3247 73.6887 10.9129 72.5735C10.6247 71.7887 10.0893 71.0452 9.80107 70.2604C9.38927 69.0625 9.10101 67.8647 8.77157 66.6255C8.44212 65.3451 8.11268 64.0233 7.78324 62.7428C6.75373 58.8601 5.7654 54.9361 4.7359 51.0534C4.28291 49.2773 3.82993 47.5012 3.50049 45.6838C2.75924 41.8424 2.10036 38.001 1.40029 34.1596C1.07085 32.3009 0.74141 30.4834 0.494328 28.6247C0.247246 26.766 0.123706 24.8659 -0.0410156 22.9659C-0.0410156 22.5115 0.041345 21.9746 0.617869 21.8093C1.19439 21.6854 1.56502 21.9332 1.85328 22.4289C2.18272 23.0072 2.51216 23.5442 2.75924 23.9985C2.75924 23.9159 2.75924 23.7094 2.80042 23.5028C3.66521 23.7507 3.95347 24.5355 4.15937 25.2377C5.02416 28.253 5.84777 31.3095 6.58901 34.3248C7.08317 36.3075 7.49498 38.3314 7.94796 40.3554C7.94796 40.438 7.98914 40.4793 8.11268 40.7271L8.19504 40.8097ZM10.8718 50.0621C10.8718 56.7949 12.9308 62.9907 13.8779 69.5169C14.125 69.2691 14.2897 69.1451 14.4133 69.0212C17.79 65.3864 20.9609 61.5863 23.9259 57.621C26.7262 53.9035 29.5264 50.186 31.2148 45.8077C31.9561 43.9076 32.2855 41.925 31.9149 39.901C31.8325 39.4054 31.6266 38.7445 31.0089 38.6619C30.0206 38.538 28.9499 38.2901 27.9616 38.4554C25.8614 38.7858 24.0495 39.7771 22.4846 41.1815C20.3432 43.1228 18.9843 45.5599 17.7077 48.0795C17.0076 49.4839 16.2664 50.8469 15.484 52.21C15.031 53.0361 14.7839 53.0361 14.0015 52.4991C12.972 51.7556 12.0248 50.9708 10.8718 50.0621ZM10.9129 48.9882C10.9129 48.9882 11.0365 48.9882 11.1188 48.9882C11.2836 48.0795 11.4071 47.1708 11.6542 46.3033C12.3542 43.8663 13.0131 41.388 13.7956 38.951C14.5368 36.5966 15.4016 34.2835 16.1428 31.9291C17.2135 28.5008 18.243 25.0724 19.2725 21.6441C19.4784 20.9832 19.6843 20.3223 19.8902 19.4962C18.4078 20.2397 17.3371 21.2311 16.4311 22.4289C14.578 24.9072 13.5485 27.716 12.8072 30.6487C11.613 35.3988 11.2424 40.2728 11.0365 45.1468C10.9953 46.4273 10.9541 47.6664 10.9129 48.9469V48.9882ZM13.219 25.4029C13.672 24.5768 14.0015 23.792 14.4544 23.1311C14.9074 22.4289 15.4016 21.768 15.9369 21.1484C16.5135 20.4876 17.09 19.868 17.7489 19.331C18.4078 18.7941 19.1902 18.4636 19.9314 18.0093C19.9314 18.0093 19.9314 18.0093 19.9314 17.9679L18.6548 18.3397C18.6548 18.3397 18.6548 18.2571 18.5725 18.2158C18.5313 18.1745 18.4489 18.1332 18.3666 18.0919C18.243 18.6288 18.243 18.6288 17.5841 18.7114C17.5018 18.7114 17.4194 18.7941 17.3782 18.8767C15.4428 20.4876 14.2074 22.6354 13.219 24.8659C13.1367 25.0311 13.219 25.1964 13.219 25.4855V25.4029Z" fill="#546E7A" fill-opacity="0.68"/>
<path d="M41.0985 94.3824C41.5103 93.7628 41.8809 93.1432 42.2927 92.5237C43.4046 90.8715 44.4753 89.2192 45.5871 87.567C46.2872 86.4931 46.9049 85.3366 47.6873 84.3039C48.5521 83.23 49.5816 82.1974 50.817 81.5365C52.3819 80.7104 53.9467 79.9256 55.5116 79.1821C56.0057 78.9342 56.0057 79.0168 56.6234 79.3886C56.7882 79.4712 57.0353 79.3886 57.2823 79.4712C56.5823 79.843 55.8822 80.1734 55.1821 80.5451C52.3407 81.9908 50.4052 84.3865 48.9639 87.1127C47.3991 90.0454 46.0813 93.1019 44.64 96.0759C44.1458 97.1499 43.6105 98.1825 42.9928 99.2151C42.5398 99.9999 42.0456 100.124 41.2632 99.7521C39.9043 99.1325 38.5453 98.4716 37.3099 97.6868C36.7746 97.3564 36.4451 96.6542 36.1157 96.0759C35.2921 94.5063 34.7567 92.8541 34.5508 91.078C34.4273 90.0453 34.4273 89.0127 34.3449 87.9801C34.2214 86.3692 34.0567 84.7583 33.9743 83.1061C33.8919 81.3299 33.8096 79.5538 33.8096 77.7777C33.8096 74.8863 33.8096 71.995 33.8919 69.1036C33.9331 66.7079 33.9743 64.3535 34.1802 61.9991C34.4273 59.686 34.9214 57.4142 35.3332 55.1011C35.4156 54.7294 35.5803 54.3989 35.7039 54.0685C35.9921 53.4076 36.4039 53.2837 37.104 53.4902C37.5982 53.6554 37.8864 54.3163 37.7629 54.8533C37.7629 54.9359 37.7629 55.0185 37.7629 55.1837C37.9276 55.1011 38.01 55.0185 37.9688 55.0598C38.4629 55.3489 38.8336 55.6381 39.2454 55.8033C39.7395 55.9685 39.9454 56.175 39.9043 56.7533C39.8631 59.5208 39.9043 62.2882 39.9043 65.0144C39.9043 67.6992 39.8219 70.3841 39.9043 73.0689C40.0278 77.9842 40.1513 82.8995 40.3572 87.7736C40.4396 89.9627 40.769 92.1519 40.9749 94.2998C41.0161 94.2998 41.0573 94.2998 41.0985 94.2998V94.3824ZM52.176 81.4539C52.176 81.4539 52.2172 81.5778 52.2583 81.6191C53.329 81.0408 54.3585 80.4625 55.4292 79.8843C55.4292 79.843 55.3469 79.7603 55.3469 79.719L52.2172 81.4539H52.176Z" fill="#546E7A" fill-opacity="0.68"/>
<path d="M76.431 57.8276C77.2546 58.4472 77.3782 59.1494 77.4194 59.8929C77.4605 61.6277 77.5017 63.3212 77.5429 65.0561C77.5429 66.0474 77.5017 67.08 77.5429 68.0713C77.5429 68.4431 77.6665 68.7735 77.7076 69.1453C77.6665 69.1453 77.5841 69.1866 77.6253 69.1866C78.0371 71.7475 77.6253 74.2258 77.7488 76.7454C77.8723 78.8933 77.7488 81.0825 77.6253 83.2304C77.6253 83.7673 77.3782 84.3456 77.1723 84.8413C76.7605 85.7913 75.9781 86.0391 75.0309 85.6261C74.6603 85.4608 74.2485 85.213 73.919 84.9652C73.0543 84.3456 72.1895 83.726 71.3659 83.0651C69.9657 81.8673 68.8951 80.4216 68.0714 78.7694C67.9067 78.4803 67.7832 78.1911 67.5773 77.7368C67.4537 78.3976 67.4126 78.9346 67.289 79.4716C67.0419 80.6694 66.7949 81.826 66.5478 83.0238C66.4654 83.3543 66.4242 83.6847 66.3419 84.0152C66.2183 84.5108 66.0948 85.0478 65.8477 85.5022C65.3535 86.4522 64.9417 86.5761 64.0358 86.0391C62.1003 84.8826 60.0413 83.8086 59.1353 81.5782C58.6412 80.339 58.2294 79.0585 57.8999 77.7781C57.5705 76.5389 57.4057 75.2998 57.1998 74.0193C57.0351 73.0693 56.9116 72.078 57.8999 71.4171C58.1058 71.2932 58.4764 71.2105 58.6823 71.3345C58.9706 71.4997 59.1353 71.8301 59.3412 72.0779C59.6295 72.3671 59.8766 72.7801 60.206 72.8627C60.659 72.9867 61.0296 73.028 61.1532 73.6062C61.2767 74.0606 61.565 74.4324 61.7297 74.8454C61.9768 75.5476 62.1415 76.2498 62.3062 76.9933C62.4709 77.6542 62.5533 78.3563 62.718 79.0585C63.0474 80.339 63.4181 81.6195 63.7887 82.9825C63.9534 82.776 64.1593 82.6521 64.2417 82.4456C65.2712 80.3803 66.2595 78.2737 66.6301 75.9606C66.7125 75.465 66.3007 74.8867 66.0948 74.3084C65.1888 71.7062 64.2829 69.104 63.4181 66.5017C63.4181 66.4191 63.3357 66.2952 63.3357 66.2126C63.3357 65.9235 63.3769 65.4691 63.4592 65.4278C63.8299 65.3865 64.2417 65.3452 64.5711 65.5104C64.8594 65.6343 65.0241 66.0474 65.1888 66.3365C65.4771 66.7909 65.683 67.1626 66.2595 67.4518C66.7949 67.6996 67.2478 68.2779 67.5773 68.8561C68.6891 70.7975 69.801 72.7388 70.7482 74.7215C71.6541 76.6215 72.4366 78.5629 73.2602 80.5042C73.4661 80.9586 73.672 81.4129 74.0014 81.8673C74.1661 81.3716 74.372 80.876 74.4956 80.339C74.9485 78.1498 75.4427 76.0019 75.7722 73.7715C75.9369 72.6149 75.8133 71.3758 75.8545 70.2192C75.8545 68.9387 75.9369 67.6583 75.9781 66.3778C76.0604 63.9408 76.1428 61.5451 76.2251 59.1081C76.2251 58.7364 76.3487 58.3233 76.4722 57.8276H76.431ZM67.2067 76.9107C67.2067 76.9107 67.1243 76.9107 67.0419 76.9107C66.589 78.9346 66.136 80.9586 65.683 82.9412C66.5478 80.9999 67.0419 79.0172 67.1655 76.9107H67.2067ZM77.0076 74.0606C77.2546 72.4497 77.337 70.8801 77.0487 69.2692C77.0487 70.8801 77.0487 72.4497 77.0076 74.0606Z" fill="#546E7A" fill-opacity="0.68"/>
<path d="M80.0551 56.2578C80.0551 56.4643 80.0551 56.6296 80.0551 56.8774C80.4669 56.7122 80.6316 56.9187 80.6728 57.2905C80.6728 57.497 80.714 57.6622 80.714 57.8687C80.6728 59.4383 80.5904 61.0492 80.5081 62.6188C80.5081 62.7014 80.5081 62.7841 80.4257 63.0319C79.7668 62.6188 79.1903 62.2058 78.6138 61.834C77.9961 61.4623 77.9137 60.9666 78.1196 60.2644C78.449 59.1905 78.6549 58.1166 78.902 57.0426C79.0256 56.547 79.3138 56.1752 80.0139 56.2165L80.0551 56.2578Z" fill="#546E7A" fill-opacity="0.68"/>
<path d="M58.9699 62.7016C59.3817 62.4538 59.464 62.7842 59.5464 63.1147C59.5464 63.3212 59.5876 63.4864 59.5876 63.6929C59.5464 65.3038 59.464 66.9147 59.3817 68.4843C59.3817 68.567 59.3817 68.6496 59.2993 68.8561C58.6404 68.443 58.0639 68.03 57.4462 67.6582C56.8285 67.2865 56.7873 66.7908 56.9932 66.1299C57.3227 65.056 57.5286 63.9821 57.7756 62.9081C57.8168 62.6603 57.9815 62.4125 58.1463 62.2886C58.311 62.1646 58.5581 62.1646 58.764 62.082L58.9287 62.7016H58.9699Z" fill="#546E7A" fill-opacity="0.68"/>
<path d="M112.305 1.4V2.104H110.649V7H109.913V2.104H108.265V1.4H112.305ZM118.281 1.4V7H117.545V2.624L115.713 5.672H115.617L113.785 2.632V7H113.041V1.4H113.881L115.665 4.36L117.441 1.4H118.281Z" fill="#546E7A"/>
</g>
<defs>
<clipPath id="clip0_29246_14975">
<rect width="127" height="100" fill="white"/>
</clipPath>
</defs>
</svg>
