<svg width="40" height="40" viewBox="0 0 40 40" fill="none" xmlns="http://www.w3.org/2000/svg">
<path d="M12.5282 20H6.49567C5.7811 20 5.42382 20 5.20303 20.2285C4.98224 20.4569 4.99073 20.8097 5.00771 21.5152C5.02499 22.2333 5.0661 22.9486 5.16387 23.6625C5.20425 23.9573 5.22444 24.1047 5.32117 24.1804C5.41791 24.256 5.59345 24.2355 5.94453 24.1944C7.89069 23.9668 9.76945 25.5543 9.76945 27.6398C9.76945 28.6791 9.3211 29.6117 8.61063 30.2481C8.35077 30.4809 8.22084 30.5973 8.21157 30.7195C8.2023 30.8417 8.29606 30.9559 8.48358 31.1843C9.1636 32.0125 9.92816 32.7662 10.7638 33.4317C10.962 33.5895 11.0611 33.6684 11.1699 33.6653C11.2788 33.6622 11.39 33.5627 11.6123 33.3639C12.2127 32.827 12.9999 32.5014 13.8617 32.5014C15.7098 32.5014 17.1893 34.0489 17.2676 35.8424C17.2806 36.1399 17.2871 36.2887 17.3593 36.3696C17.4316 36.4504 17.555 36.4689 17.8019 36.5058C19.2368 36.7203 20.7632 36.7203 22.1981 36.5058C22.445 36.4689 22.5684 36.4504 22.6407 36.3696C22.7129 36.2887 22.7194 36.1399 22.7324 35.8424C22.8107 34.0489 24.2902 32.5014 26.1383 32.5014C27.0001 32.5014 27.7873 32.827 28.3877 33.3639C28.61 33.5628 28.7212 33.6622 28.8301 33.6653C28.9389 33.6684 29.038 33.5895 29.2362 33.4317C30.0718 32.7662 30.8364 32.0125 31.5164 31.1843C31.7039 30.9559 31.7977 30.8417 31.7884 30.7195C31.7792 30.5973 31.6492 30.4809 31.3894 30.2481C30.6789 29.6117 30.2306 28.6791 30.2306 27.6398C30.2306 25.5543 32.1093 23.9668 34.0555 24.1944C34.4065 24.2355 34.5821 24.256 34.6788 24.1804C34.7756 24.1047 34.7958 23.9573 34.8361 23.6625C34.9339 22.9486 34.975 22.2333 34.9923 21.5152C35.0093 20.8097 35.0178 20.4569 34.797 20.2285C34.5762 20 34.2189 20 33.5043 20H27.4718C27.1272 23.8939 23.9136 26.9452 20 26.9452C16.0864 26.9452 12.8728 23.8939 12.5282 20Z" stroke="#494A52" stroke-width="2.5" stroke-linecap="round" stroke-linejoin="round"/>
<path d="M11.666 20H28.3327" stroke="#494A52" stroke-width="1.5" stroke-linecap="round" stroke-linejoin="round"/>
<path d="M20 20L20 10" stroke="#7ACCC5" stroke-width="2.5" stroke-linecap="round" stroke-linejoin="round"/>
<path d="M19.5687 12.9019C20.4832 10.3388 19.9453 7.40455 17.937 5.39625C15.9287 3.38795 12.9945 2.85003 10.4313 3.76458C9.51678 6.32774 10.0547 9.26196 12.063 11.2703C14.0713 13.2786 17.0055 13.8165 19.5687 12.9019Z" stroke="#7ACCC5" stroke-width="2.5" stroke-linecap="round" stroke-linejoin="round"/>
<path d="M20.3601 16.3071C19.598 14.1712 20.0462 11.726 21.7198 10.0524C23.3934 8.37884 25.8386 7.93056 27.9745 8.6927C28.7367 10.8287 28.2884 13.2738 26.6148 14.9474C24.9412 16.621 22.4961 17.0693 20.3601 16.3071Z" stroke="#7ACCC5" stroke-width="2.5" stroke-linecap="round" stroke-linejoin="round"/>
</svg>
