<svg width="40" height="40" viewBox="0 0 40 40" fill="none" xmlns="http://www.w3.org/2000/svg">
<path d="M9.16732 25.8333C5.48057 24.3609 3.33398 20.7213 3.33398 16.9576C3.33398 12.0761 7.19563 7.25217 9.90609 4.46751C11.3781 2.95517 13.6232 2.95517 15.0952 4.46751C15.9152 5.30996 16.6087 6.33905 17.5007 7.49992" stroke="#494A52" stroke-width="2.5" stroke-linecap="round"/>
<path d="M13.334 24.8772C13.334 18.9496 18.2488 13.0919 21.6985 9.71057C23.572 7.87415 26.4293 7.87415 28.3028 9.71057C31.7525 13.0919 36.6673 18.9496 36.6673 24.8772C36.6673 30.6888 32.2494 36.6666 25.0007 36.6666C17.7519 36.6666 13.334 30.6888 13.334 24.8772Z" stroke="#7ACCC5" stroke-width="2.5"/>
<path d="M30.834 25.8333C30.834 29.5152 28.334 30.8333 25.834 30.8333" stroke="#494A52" stroke-width="2.5" stroke-linecap="round" stroke-linejoin="round"/>
</svg>
