<svg width="40" height="40" viewBox="0 0 40 40" fill="none" xmlns="http://www.w3.org/2000/svg">
<path d="M8.33301 5V21.6667C8.33301 27.9521 8.33301 31.0948 10.2856 33.0474C12.2383 35 15.3809 35 21.6663 35H34.9997" stroke="#494A52" stroke-width="2.5" stroke-linecap="round"/>
<path d="M5 15L18.3333 15M33.3333 15L26.6667 15" stroke="#494A52" stroke-width="2.5" stroke-linecap="round"/>
<path d="M25.4107 6.6665V10.9293C25.4107 12.8326 25.4107 13.7843 25.6559 14.6978C25.9011 15.6114 26.3816 16.4503 27.3428 18.128L28.6452 20.4015C31.0944 24.6768 32.319 26.8145 31.3143 28.3991L31.2988 28.4234C30.2795 29.9998 27.6862 29.9998 22.4997 29.9998C17.3131 29.9998 14.7199 29.9998 13.7006 28.4234L13.6851 28.3991C12.6804 26.8145 13.905 24.6768 16.3542 20.4015L17.6566 18.128C18.6177 16.4503 19.0983 15.6114 19.3435 14.6978C19.5887 13.7843 19.5887 12.8326 19.5887 10.9293V6.6665" stroke="#7ACCC5" stroke-width="2.5"/>
<path d="M17.5 6.6665L27.5 6.6665" stroke="#494A52" stroke-width="2.5" stroke-linecap="round" stroke-linejoin="round"/>
</svg>
