<svg width="70" height="87" viewBox="0 0 70 87" fill="none" xmlns="http://www.w3.org/2000/svg">
<path d="M44.8 68.9763H25.2C23.072 68.9763 21.35 67.2709 21.35 65.1635V60.6298C21.35 58.4115 20.342 56.3318 18.592 54.9454C12.334 49.9819 8.75 42.5921 8.75 34.6615C8.75 20.3256 20.524 8.66553 35 8.66553C49.476 8.66553 61.25 20.3256 61.25 34.6615C61.25 42.5921 57.666 49.9819 51.408 54.9454C49.658 56.3318 48.65 58.4115 48.65 60.6298V65.1635C48.65 67.2709 46.928 68.9763 44.8 68.9763ZM35 10.7452C21.686 10.7452 10.85 21.4764 10.85 34.6615C10.85 41.9543 14.154 48.7618 19.894 53.3232C22.148 55.1117 23.45 57.7737 23.45 60.6298V65.1635C23.45 66.1202 24.234 66.8966 25.2 66.8966H44.8C45.766 66.8966 46.55 66.1202 46.55 65.1635V60.6298C46.55 57.7737 47.838 55.1117 50.106 53.3232C55.86 48.7618 59.15 41.9682 59.15 34.6615C59.15 21.4764 48.314 10.7452 35 10.7452Z" fill="#494A52"/>
<path d="M46.1998 71.0557H23.7998V73.1353H46.1998V71.0557Z" fill="#494A52"/>
<path d="M46.1998 75.2153H23.7998V77.295H46.1998V75.2153Z" fill="#494A52"/>
<path d="M35.0003 86.9998C33.5863 86.9998 32.2423 86.5839 31.0803 85.7797L24.5983 81.2738C24.2203 81.0103 24.0663 80.5389 24.2063 80.1091C24.3463 79.6793 24.7523 79.3882 25.2003 79.3882H44.8003C45.2623 79.3882 45.6683 79.6793 45.7943 80.1091C45.9343 80.5389 45.7663 81.0103 45.4023 81.2738L38.9203 85.7797C37.7723 86.5839 36.4143 86.9998 35.0003 86.9998ZM28.5183 81.454L32.2843 84.0744C33.8663 85.1697 36.1063 85.1836 37.7023 84.0744L41.4683 81.454H28.5183Z" fill="#494A52"/>
<path d="M36.0502 0H33.9502V5.54582H36.0502V0Z" fill="#494A52"/>
<path d="M51.59 4.12199L48.79 8.9248L50.6087 9.96465L53.4087 5.16183L51.59 4.12199Z" fill="#494A52"/>
<path d="M18.4126 4.12454L16.5938 5.16406L19.3929 9.96736L21.2117 8.92784L18.4126 4.12454Z" fill="#494A52"/>
<path d="M64.7902 16.4322L59.9404 19.2051L60.9904 21.0061L65.8402 18.2332L64.7902 16.4322Z" fill="#494A52"/>
<path d="M5.2134 16.434L4.16309 18.2349L9.01234 21.0086L10.0627 19.2077L5.2134 16.434Z" fill="#494A52"/>
<path d="M70.0004 33.6216H64.4004V35.7013H70.0004V33.6216Z" fill="#494A52"/>
<path d="M5.6 33.6216H0V35.7013H5.6V33.6216Z" fill="#494A52"/>
<path d="M60.9823 48.3169L59.9326 50.1182L64.7828 52.8902L65.8325 51.089L60.9823 48.3169Z" fill="#494A52"/>
<path d="M9.01087 48.3184L4.16113 51.0913L5.21113 52.8924L10.0609 50.1195L9.01087 48.3184Z" fill="#494A52"/>
<path d="M44.45 34.6614H42.35C42.35 33.7047 41.566 32.9283 40.6 32.9283C39.634 32.9283 38.85 33.7047 38.85 34.6614H36.75C36.75 32.554 38.472 30.8486 40.6 30.8486C42.728 30.8486 44.45 32.554 44.45 34.6614Z" fill="#494A52"/>
<path d="M33.2498 34.6614H31.1498C31.1498 33.7047 30.3658 32.9283 29.3998 32.9283C28.4338 32.9283 27.6498 33.7047 27.6498 34.6614H25.5498C25.5498 32.554 27.2718 30.8486 29.3998 30.8486C31.5278 30.8486 33.2498 32.554 33.2498 34.6614Z" fill="#494A52"/>
<path d="M51.4923 29.8225L49.9383 28.4221C50.4703 27.8398 50.7643 27.105 50.7643 26.3286C50.7643 24.6094 49.3503 23.2091 47.6143 23.2091C47.2363 23.2091 46.8863 23.2645 46.5783 23.3893L45.8223 21.4483C46.3823 21.2403 46.9843 21.1294 47.6143 21.1294C50.5123 21.1294 52.8643 23.4586 52.8643 26.3286C52.8643 27.618 52.3743 28.8519 51.5063 29.8086L51.4923 29.8225Z" fill="#494A52"/>
<path d="M18.5084 29.8228C17.6264 28.8661 17.1504 27.6183 17.1504 26.3428C17.1504 23.4728 19.5024 21.1436 22.4004 21.1436C23.0304 21.1436 23.6324 21.2545 24.1924 21.4624L23.4364 23.4035C23.1284 23.2787 22.7784 23.2232 22.4004 23.2232C20.6644 23.2232 19.2504 24.6236 19.2504 26.3428C19.2504 27.1053 19.5444 27.854 20.0764 28.4363L18.5224 29.8366L18.5084 29.8228Z" fill="#494A52"/>
<path d="M50.7781 38.4603L50.6241 36.3806C52.2901 36.2697 53.5361 34.9249 53.5361 33.275C53.5361 31.6251 52.2761 30.2802 50.6241 30.1693C50.4981 30.1693 50.4421 30.1693 50.3861 30.1693C49.4901 30.1693 48.6501 30.5437 48.0621 31.1953L46.4941 29.8227C47.4741 28.7274 48.8881 28.1035 50.3861 28.1035C50.5261 28.1035 50.6941 28.1035 50.8341 28.1312C53.4941 28.3115 55.6361 30.5853 55.6361 33.3027C55.6361 36.0202 53.4941 38.294 50.7641 38.4881L50.7781 38.4603Z" fill="#494A52"/>
<path d="M19.2216 38.4602C16.4916 38.2661 14.3496 35.9923 14.3496 33.2749C14.3496 30.5574 16.4916 28.2837 19.2216 28.0895C19.2916 28.0895 19.4596 28.0757 19.5996 28.0757C21.0976 28.0757 22.5116 28.6996 23.4916 29.7949L21.9236 31.1675C21.3216 30.502 20.5096 30.1554 19.5296 30.1415C19.5016 30.1415 19.4736 30.1415 19.4456 30.1415C17.7096 30.2663 16.4636 31.5973 16.4636 33.261C16.4636 34.9248 17.7236 36.2558 19.3756 36.3667L19.2216 38.4464V38.4602Z" fill="#494A52"/>
<path d="M47.5996 45.4062C46.9556 45.4062 46.3536 45.2953 45.8076 45.0873L46.5636 43.1463C46.8716 43.2711 47.2216 43.3265 47.5996 43.3265C49.3356 43.3265 50.7496 41.9262 50.7496 40.207C50.7496 38.4878 49.3356 37.0875 47.5996 37.0875V35.0078C50.4976 35.0078 52.8496 37.3371 52.8496 40.207C52.8496 43.077 50.4976 45.4062 47.5996 45.4062Z" fill="#494A52"/>
<path d="M22.4004 45.4062C19.5024 45.4062 17.1504 43.077 17.1504 40.207C17.1504 37.3371 19.5024 35.0078 22.4004 35.0078V37.0875C20.6644 37.0875 19.2504 38.4878 19.2504 40.207C19.2504 41.9262 20.6644 43.3265 22.4004 43.3265C22.7784 43.3265 23.1284 43.2711 23.4364 43.1463L24.1924 45.0873C23.6464 45.2953 23.0304 45.4062 22.4004 45.4062Z" fill="#494A52"/>
<path d="M42 49.5656C39.102 49.5656 36.75 47.2363 36.75 44.3664V22.1831C36.75 19.3131 39.102 16.9839 42 16.9839C44.898 16.9839 47.25 19.3131 47.25 22.1831C47.25 25.053 44.898 27.3823 42 27.3823V25.3026C43.736 25.3026 45.15 23.9023 45.15 22.1831C45.15 20.4639 43.736 19.0636 42 19.0636C40.264 19.0636 38.85 20.4639 38.85 22.1831V44.3664C38.85 46.0856 40.264 47.4859 42 47.4859C43.736 47.4859 45.15 46.0856 45.15 44.3664C45.15 42.6472 43.736 41.2468 42 41.2468V39.1672C44.898 39.1672 47.25 41.4964 47.25 44.3664C47.25 47.2363 44.898 49.5656 42 49.5656Z" fill="#494A52"/>
<path d="M28 49.5656C25.102 49.5656 22.75 47.2363 22.75 44.3664C22.75 41.4964 25.102 39.1672 28 39.1672V41.2468C26.264 41.2468 24.85 42.6472 24.85 44.3664C24.85 46.0856 26.264 47.4859 28 47.4859C29.736 47.4859 31.15 46.0856 31.15 44.3664V22.1831C31.15 20.4639 29.736 19.0636 28 19.0636C26.264 19.0636 24.85 20.4639 24.85 22.1831C24.85 23.9023 26.264 25.3026 28 25.3026V27.3823C25.102 27.3823 22.75 25.053 22.75 22.1831C22.75 19.3131 25.102 16.9839 28 16.9839C30.898 16.9839 33.25 19.3131 33.25 22.1831V44.3664C33.25 47.2363 30.898 49.5656 28 49.5656Z" fill="#494A52"/>
<path d="M37.8002 41.9404H32.2002V44.0201H37.8002V41.9404Z" fill="#494A52"/>
<path d="M39.5947 47.9721L36.793 56.5317L38.7906 57.173L41.5923 48.6134L39.5947 47.9721Z" fill="#494A52"/>
<path d="M30.4247 47.9636L28.4258 48.6011L31.2109 57.166L33.2098 56.5285L30.4247 47.9636Z" fill="#494A52"/>
<path d="M41.6496 67.9362H39.5496V59.6174C39.5496 58.6608 38.7656 57.8844 37.7996 57.8844H32.1996C31.2336 57.8844 30.4496 58.6608 30.4496 59.6174V67.9362H28.3496V59.6174C28.3496 57.51 30.0716 55.8047 32.1996 55.8047H37.7996C39.9276 55.8047 41.6496 57.51 41.6496 59.6174V67.9362Z" fill="#494A52"/>
</svg>
