<svg width="75" height="70" viewBox="0 0 75 70" fill="none" xmlns="http://www.w3.org/2000/svg">
<g clip-path="url(#clip0_29283_10804)">
<path d="M22.0043 34.6787C19.8934 34.6787 17.9398 33.7796 16.7845 32.2712C16.4307 31.8066 16.5184 31.1459 16.9811 30.7899C17.4438 30.437 18.1091 30.5244 18.466 30.986C19.2251 31.9756 20.5466 32.5669 22.0043 32.5669C24.2785 32.5669 26.1263 31.1188 26.1263 29.3358C26.1263 27.7127 24.5023 26.331 22.349 26.1168C19.3551 25.8906 17.1021 23.7758 17.1021 21.1903C17.1021 18.4631 19.6878 16.2427 22.8662 16.2427C24.7835 16.2427 26.5678 17.0542 27.6384 18.4118C28.0013 18.8704 27.9226 19.5341 27.463 19.8961C27.0033 20.2581 26.338 20.1797 25.9751 19.7211C25.3007 18.8673 24.1394 18.3575 22.8662 18.3575C20.8551 18.3575 19.219 19.6306 19.219 21.1933C19.219 22.6444 20.6736 23.8844 22.5305 24.0171C22.5517 24.0171 22.5698 24.0201 22.591 24.0231C25.8692 24.361 28.2432 26.5935 28.2432 29.3388C28.2432 32.2833 25.4428 34.6817 22.0043 34.6817V34.6787Z" fill="#494A52"/>
<path d="M22.4061 37.8918C21.8225 37.8918 21.3477 37.4181 21.3477 36.8359V33.8039C21.3477 33.2217 21.8225 32.748 22.4061 32.748C22.9898 32.748 23.4646 33.2217 23.4646 33.8039V36.8359C23.4646 37.4181 22.9898 37.8918 22.4061 37.8918Z" fill="#494A52"/>
<path d="M22.4061 18.0889C21.8225 18.0889 21.3477 17.6152 21.3477 17.033V13.8713C21.3477 13.2891 21.8225 12.8154 22.4061 12.8154C22.9898 12.8154 23.4646 13.2891 23.4646 13.8713V17.033C23.4646 17.6152 22.9898 18.0889 22.4061 18.0889Z" fill="#494A52"/>
<path d="M15.045 39.7921C14.8756 39.7921 14.7032 39.7499 14.543 39.6654C9.16293 36.7572 5.82422 31.1639 5.82422 25.0669C5.82422 15.9168 13.2879 8.47119 22.4603 8.47119C31.6327 8.47119 39.0964 15.9168 39.0964 25.0669C39.0964 25.6491 38.6216 26.1228 38.0379 26.1228C37.4543 26.1228 36.9795 25.6491 36.9795 25.0669C36.9795 17.0813 30.4653 10.583 22.4603 10.583C14.4553 10.583 7.94115 17.0813 7.94115 25.0669C7.94115 30.3886 10.8565 35.2729 15.553 37.8101C16.0672 38.0876 16.2577 38.7272 15.9795 39.2431C15.7889 39.596 15.423 39.7952 15.048 39.7952L15.045 39.7921Z" fill="#494A52"/>
<path d="M8.4862 69.9972C7.90253 69.9972 7.42773 69.5235 7.42773 68.9413V54.5207C7.42773 53.9385 7.90253 53.4648 8.4862 53.4648H21.9892C22.5729 53.4648 23.0477 53.9385 23.0477 54.5207V64.0449C23.0477 64.6272 22.5729 65.1008 21.9892 65.1008C21.4056 65.1008 20.9308 64.6272 20.9308 64.0449V55.5766H9.54467V68.9413C9.54467 69.5235 9.06987 69.9972 8.4862 69.9972Z" fill="#494A52"/>
<path d="M30.8163 69.9971C30.2326 69.9971 29.7578 69.5234 29.7578 68.9412V44.3508C29.7578 43.7686 30.2326 43.2949 30.8163 43.2949H44.3193C44.903 43.2949 45.3778 43.7686 45.3778 44.3508V64.0448C45.3778 64.6271 44.903 65.1007 44.3193 65.1007C43.7356 65.1007 43.2608 64.6271 43.2608 64.0448V45.4067H31.8747V68.9412C31.8747 69.5234 31.3999 69.9971 30.8163 69.9971Z" fill="#494A52"/>
<path d="M53.1444 69.9972C52.5607 69.9972 52.0859 69.5235 52.0859 68.9413V25.3357C52.0859 24.7534 52.5607 24.2798 53.1444 24.2798H66.6505C67.2341 24.2798 67.7089 24.7534 67.7089 25.3357V63.4536C67.7089 64.0359 67.2341 64.5095 66.6505 64.5095C66.0668 64.5095 65.592 64.0359 65.592 63.4536V26.3916H54.2029V68.9413C54.2029 69.5235 53.7281 69.9972 53.1444 69.9972Z" fill="#494A52"/>
<path d="M1.05847 70C0.474798 70 0 69.5264 0 68.9441V1.0559C0 0.473646 0.474798 0 1.05847 0C1.64214 0 2.11694 0.473646 2.11694 1.0559V68.9441C2.11694 69.5264 1.64214 70 1.05847 70Z" fill="#494A52"/>
<path d="M73.9415 70H1.05847C0.474798 70 0 69.5263 0 68.9441C0 68.3618 0.474798 67.8882 1.05847 67.8882H73.9415C74.5252 67.8882 75 68.3618 75 68.9441C75 69.5263 74.5252 70 73.9415 70Z" fill="#494A52"/>
<path d="M52.7783 9.29805C52.2158 9.29805 51.747 8.85758 51.7229 8.29042C51.6956 7.70816 52.1462 7.2134 52.7299 7.18625C55.3368 7.06558 57.8801 6.50444 60.2934 5.51491C60.8347 5.29468 61.4517 5.55112 61.6755 6.09113C61.8962 6.63115 61.6392 7.24659 61.0979 7.46983C58.4608 8.54987 55.6785 9.1653 52.8267 9.29805C52.8116 9.29805 52.7934 9.29805 52.7783 9.29805Z" fill="#494A52"/>
<path d="M7.50605 50.4266C7.06452 50.4266 6.6502 50.1491 6.50202 49.7056C6.31754 49.1535 6.61391 48.5532 7.17036 48.3691C25.878 42.1092 41.9123 30.3978 53.5403 14.4929L59.8458 5.86775C60.1179 5.49366 60.6018 5.34282 61.0403 5.49065C61.4788 5.63847 61.7692 6.0548 61.7571 6.51637C61.6936 9.1169 62.0776 11.6903 62.8972 14.1581C63.0817 14.7101 62.7792 15.3075 62.2258 15.4915C61.6724 15.6755 61.0736 15.3738 60.8891 14.8218C60.3206 13.1082 59.9425 11.3494 59.7611 9.56339L55.249 15.7359C43.3609 31.9937 26.9667 43.9706 7.84174 50.3693C7.72984 50.4055 7.61794 50.4236 7.50605 50.4236V50.4266Z" fill="#494A52"/>
</g>
<defs>
<clipPath id="clip0_29283_10804">
<rect width="75" height="70" fill="white"/>
</clipPath>
</defs>
</svg>
