<svg width="40" height="40" viewBox="0 0 40 40" fill="none" xmlns="http://www.w3.org/2000/svg">
<path d="M3.33398 16.6668C4.63345 10.307 9.44929 5.2157 15.6776 3.48311C16.2004 3.33768 16.4618 3.26496 16.6026 3.42076C16.7435 3.57656 16.6397 3.83419 16.4323 4.34943L15.0007 7.50016M23.334 3.3335C29.6938 4.63296 34.7851 9.4488 36.5177 15.6771C36.6631 16.1999 36.7359 16.4613 36.5801 16.6022C36.4243 16.743 36.1666 16.6392 35.6514 16.4318L32.5007 15.0002M36.6673 23.3335C35.3679 29.6933 30.552 34.7846 24.3237 36.5172C23.8009 36.6627 23.5395 36.7354 23.3987 36.5796C23.2579 36.4238 23.3616 36.1661 23.569 35.6509L25.0007 32.5002M16.6673 36.6668C10.3075 35.3674 5.21618 30.5515 3.4836 24.3232C3.33816 23.8004 3.26545 23.539 3.42125 23.3982C3.57705 23.2574 3.83468 23.3611 4.34992 23.5685L7.50065 25.0002" stroke="#494A52" stroke-width="2.5" stroke-linecap="round"/>
<path d="M25.8186 13.9305C25.8451 13.2658 25.8583 12.9335 25.6285 12.7004C25.3988 12.4673 25.0788 12.4854 24.439 12.5215C19.137 12.8211 12.1712 15.5158 15.6243 23.5058C23.3953 27.0606 25.5985 19.4569 25.8186 13.9305Z" fill="#7ACCC5"/>
<path d="M19.9992 18.4982C17.8118 19.9985 15.1638 22.9658 14.166 27.5M15.6243 23.5058C12.1712 15.5158 19.137 12.8211 24.439 12.5215C25.0788 12.4854 25.3988 12.4673 25.6285 12.7004C25.8583 12.9335 25.8451 13.2658 25.8186 13.9305C25.5985 19.4569 23.3953 27.0606 15.6243 23.5058Z" stroke="#7ACCC5" stroke-width="2.5" stroke-linecap="round" stroke-linejoin="round"/>
</svg>
