<svg width="40" height="40" viewBox="0 0 40 40" fill="none" xmlns="http://www.w3.org/2000/svg">
<path d="M23.3346 30.8332C23.3346 26.3887 26.5013 16.6665 35.8346 16.6665M16.668 30.8332C16.668 26.3887 13.5013 16.6665 4.16797 16.6665" stroke="#494A52" stroke-width="2.5" stroke-linecap="round" stroke-linejoin="round"/>
<path d="M17.5 13.3333H22.5" stroke="#494A52" stroke-width="2.5" stroke-linecap="round" stroke-linejoin="round"/>
<path d="M3.33398 13.3333V15.9348C3.33398 16.4369 3.37599 16.8899 3.51409 17.3729C4.8959 22.2057 9.86785 29.4441 15.8798 31.4375C16.4187 31.6162 16.9209 31.6666 17.488 31.6666H22.5133C23.0804 31.6666 23.5826 31.6162 24.1215 31.4375C30.1335 29.4441 35.1054 22.2057 36.4872 17.3729C36.6253 16.8899 36.6673 16.4369 36.6673 15.9348V13.3333C36.6673 10.9762 36.6673 9.79772 35.9351 9.06548C35.2029 8.33325 34.0243 8.33325 31.6673 8.33325H8.33399C5.97696 8.33325 4.79845 8.33325 4.06622 9.06548C3.33398 9.79772 3.33398 10.9762 3.33398 13.3333Z" stroke="#7ACCC5" stroke-width="2.5" stroke-linecap="round" stroke-linejoin="round"/>
</svg>
