<svg width="40" height="40" viewBox="0 0 40 40" fill="none" xmlns="http://www.w3.org/2000/svg">
<path d="M15 22.5052V15.0052C15 13.4339 15 12.6482 14.5118 12.16C14.0237 11.6719 13.238 11.6719 11.6667 11.6719H8.33333C6.76198 11.6719 5.97631 11.6719 5.48816 12.16C5 12.6482 5 13.4339 5 15.0052V30.0052C5 33.1479 5 34.7193 5.97631 35.6956C6.95262 36.6719 8.52397 36.6719 11.6667 36.6719H15M15 22.5052L20.5279 19.7413C22.3624 18.824 23.2796 18.3654 23.9903 18.6702C24.1421 18.7353 24.2834 18.8227 24.4096 18.9293C25 19.4287 25 20.4542 25 22.5052L30.176 19.9172C32.3381 18.8362 33.4191 18.2957 34.2096 18.7842C35 19.2727 35 20.4814 35 22.8987V30.0052C35 33.1479 35 34.7193 34.0237 35.6956C33.0474 36.6719 31.476 36.6719 28.3333 36.6719H15M15 22.5052V36.6719" stroke="#494A52" stroke-width="2.5" stroke-linecap="round" stroke-linejoin="round"/>
<path d="M5 16.6719H15" stroke="#494A52" stroke-width="2.5" stroke-linecap="round" stroke-linejoin="round"/>
<path d="M21.6667 3.33594H13.3333C11.762 3.33594 10.9763 3.33594 10.4882 3.82409C10 4.31225 10 5.09792 10 6.66927" stroke="#7ACCC5" stroke-width="2.5" stroke-linecap="round" stroke-linejoin="round"/>
<path d="M26.668 3.33594H28.3346" stroke="#7ACCC5" stroke-width="2.5" stroke-linecap="round" stroke-linejoin="round"/>
<path d="M18.332 8.33594L28.332 8.33594" stroke="#7ACCC5" stroke-width="2.5" stroke-linecap="round" stroke-linejoin="round"/>
</svg>
