<svg width="215" height="42" viewBox="0 0 215 42" fill="none" xmlns="http://www.w3.org/2000/svg">
<g clip-path="url(#clip0_29246_14964)">
<path d="M211.572 10.6728C209.671 10.6728 208.144 9.1185 208.144 7.18429C208.144 5.25008 209.671 3.6958 211.572 3.6958C213.473 3.6958 215 5.25008 215 7.18429C215 9.1185 213.473 10.6728 211.572 10.6728ZM211.572 4.11027C209.909 4.11027 208.551 5.49185 208.551 7.18429C208.551 8.87672 209.909 10.2583 211.572 10.2583C213.235 10.2583 214.593 8.87672 214.593 7.18429C214.593 5.49185 213.235 4.11027 211.572 4.11027Z" fill="#546E7A" fill-opacity="0.68"/>
<path d="M211.572 7.35691H211.504L211.572 7.25329L212.454 8.73849C212.454 8.73849 212.454 8.80757 212.454 8.84211C212.454 8.91118 212.454 8.94572 212.386 8.98026C212.352 9.0148 212.285 9.04934 212.251 9.04934C212.217 9.04934 212.183 9.04934 212.149 9.04934C212.149 9.04934 212.081 9.0148 212.081 8.98026L211.164 7.39145H210.961V8.87664C210.961 8.87664 210.961 8.98026 210.893 9.0148C210.859 9.04934 210.791 9.08388 210.757 9.08388C210.689 9.08388 210.655 9.08388 210.587 9.0148C210.52 8.94572 210.52 8.91118 210.52 8.87664V5.45724C210.52 5.45724 210.52 5.35362 210.587 5.31908C210.621 5.28454 210.689 5.25 210.757 5.25H211.606C211.606 5.25 211.877 5.25 212.013 5.31908C212.149 5.38816 212.251 5.45724 212.352 5.56086C212.454 5.66447 212.522 5.76809 212.59 5.90625C212.658 6.04441 212.658 6.18257 212.658 6.32072C212.658 6.45888 212.658 6.59704 212.59 6.7352C212.522 6.87336 212.454 6.97697 212.352 7.08059C212.251 7.18421 212.149 7.25329 212.013 7.32237C211.877 7.39145 211.742 7.39145 211.606 7.39145L211.572 7.35691ZM211.572 5.62993H210.927V6.90789H211.572C211.572 6.90789 211.742 6.90789 211.809 6.87336C211.877 6.87336 211.945 6.80428 212.013 6.7352C212.081 6.66612 212.115 6.59704 212.149 6.52796C212.149 6.45888 212.183 6.35526 212.183 6.28618C212.183 6.21711 212.183 6.11349 212.149 6.04441C212.149 5.97533 212.081 5.90625 212.013 5.83717C211.945 5.76809 211.877 5.73355 211.809 5.69901C211.742 5.69901 211.64 5.66447 211.572 5.66447V5.62993Z" fill="#546E7A" fill-opacity="0.68"/>
<path d="M25.8652 39.5131C24.8469 40.4112 23.6928 40.9638 22.4029 41.1365C20.1966 41.4474 18.2618 40.8947 16.5985 39.375C15.5463 38.4079 14.494 37.4408 13.4078 36.4737C13.3739 36.5773 13.3399 36.6809 13.306 36.7845C12.4234 39.824 9.70793 41.7582 6.5851 41.551C3.49621 41.3437 0.950426 39.3405 0.203663 36.4737C0.0678876 35.9901 0 35.472 0 34.9885C0 25.801 0 16.6135 0 7.39144C0 3.90295 2.7155 0.932554 6.14383 0.483541C9.53821 0.0690672 12.9665 2.27959 13.4757 6.42433C13.5436 6.90788 13.5436 7.3569 13.5436 7.84045C13.5436 9.56742 13.5436 11.2599 13.5436 13.0559C13.7133 12.9178 13.8151 12.8141 13.883 12.7451C14.8674 11.7434 15.8178 10.7763 16.8022 9.77466C18.1939 8.35854 19.8911 7.59867 21.8937 7.73683C22.5726 7.77137 23.2176 7.97861 23.8625 8.11676C23.7607 4.17926 25.4918 1.45065 29.2256 0.276304C31.8393 -0.552643 34.7245 0.656238 36.4896 3.03946C38.1189 5.24999 38.4923 8.87663 36.6254 11.398C36.9309 11.9852 37.2363 12.5378 37.5418 13.125C41.9885 8.39308 47.3516 6.59703 53.733 7.77137C53.8009 7.21874 53.8349 6.66611 53.9027 6.07894C54.4119 2.62499 57.4329 0.172686 60.7933 0.449001C64.595 0.759857 67.3105 3.73025 67.3445 7.59867C67.3445 8.94571 67.3445 10.2928 67.3445 11.6398C67.3445 11.7779 67.3445 11.9161 67.3445 12.1579C69.449 10.1546 71.7911 8.77301 74.5066 8.01315C77.1882 7.25328 79.9037 7.1842 82.6531 7.80591C82.721 4.7319 83.7733 2.21051 86.7264 0.967093C89.6116 -0.241788 92.1574 0.55262 94.3977 2.62499C97.3169 -0.656262 101.322 -0.518104 104.004 1.69242C106.889 4.07565 107.602 8.42762 105.429 11.4326C105.735 11.9852 106.006 12.5378 106.312 13.125C109.74 9.36019 113.949 7.32236 119.075 7.39144C124.166 7.46052 128.341 9.56742 131.77 13.3322C135.232 9.42926 139.543 7.32236 144.736 7.39144C149.964 7.49505 154.173 9.74012 157.499 13.7467C158.28 10.2237 160.283 7.87499 163.881 7.42598C166.766 7.08058 168.972 8.35854 170.568 10.8799C171.009 10.4654 171.416 10.0164 171.857 9.67104C174.132 7.84045 176.61 7.14966 179.427 8.18584C180.683 8.63486 181.531 9.60196 182.278 10.6381C182.346 10.7418 182.448 10.8799 182.55 11.0181C182.787 10.8454 183.025 10.6727 183.229 10.5C185.401 8.80755 187.913 7.90953 190.594 7.52959C193.649 7.08058 196.67 7.25328 199.623 8.28946C202.135 9.15295 204.308 10.5 205.903 12.7105C207.974 15.5428 208.143 18.9967 206.276 22.0016C205.801 22.7615 205.19 23.4868 204.647 24.2122C205.632 24.6612 206.514 25.352 207.193 26.2845C208.686 28.426 208.924 30.7056 207.94 33.1233C207.431 34.3668 206.684 35.472 205.733 36.4046C203.154 38.8914 200.133 40.6184 196.636 41.3783C192.292 42.3108 188.218 41.4819 184.451 39.1678C180.275 36.5773 177.526 32.847 176.508 27.9424C176.304 26.9408 176.236 25.9046 176.1 24.8684C175.761 25.1793 175.455 25.4901 175.116 25.801C173.996 26.8372 172.876 27.8733 171.79 28.9441C171.654 29.0822 171.586 29.2895 171.586 29.4967C171.586 31.2237 171.586 32.9161 171.586 34.6431C171.586 36.5082 171.077 38.1661 169.787 39.5131C168.327 41.0674 166.46 41.6546 164.39 41.6201C162.625 41.5855 161.063 40.9293 159.706 39.7549C159.672 39.7204 159.638 39.6858 159.57 39.6513C159.57 39.6513 159.536 39.6513 159.468 39.6513C158.755 40.4112 157.873 40.9638 156.888 41.3092C155.021 41.9309 153.222 41.7582 151.457 40.8256C151.22 40.722 151.05 40.6875 150.812 40.8256C148.674 41.7237 146.467 42.1727 144.193 42.1381C139.339 42 135.266 40.0658 131.973 36.4737C131.872 36.3701 131.77 36.2319 131.668 36.1283C125.864 43.5197 113.746 44.5559 106.55 36.7155C105.158 40.3421 102.544 42.0345 98.7086 41.7237C97.0793 41.5855 95.7215 40.8256 94.5674 39.6513C93.4133 38.477 92.7684 37.0608 92.6666 35.3339C88.8988 39.9967 84.1467 42.4145 78.2744 42.1381C72.3682 41.8618 67.8876 38.926 64.6969 33.9523C58.7228 43.6579 45.281 45.0395 37.7116 36.5773C36.9308 39.1678 35.1997 40.8256 32.6539 41.4819C30.1081 42.1381 27.8 41.4819 25.8312 39.6858L25.8652 39.5131ZM57.365 13.1595C57.1614 13.0559 57.0595 12.9868 56.9237 12.9178C53.6991 11.1217 50.3047 10.5 46.7067 11.5016C39.3409 13.574 34.8603 21.5181 37.7794 29.4967C40.1216 35.921 46.4691 39.5131 53.0542 38.0625C57.4668 37.0954 60.5557 34.4013 62.5245 30.3256C63.2712 28.8059 63.8143 27.1826 63.8143 25.4901C63.8822 19.6184 63.8143 13.7467 63.8143 7.87499C63.8143 7.46051 63.7464 7.0115 63.6446 6.59703C63.2712 5.04275 61.7098 3.97203 60.0466 4.11019C58.6209 4.2138 57.5347 5.35361 57.399 6.97696C57.2971 8.28946 57.3311 9.6365 57.3311 10.9835C57.3311 11.7089 57.3311 12.3997 57.3311 13.1941L57.365 13.1595ZM86.2512 13.125C86.0815 13.0214 85.9457 12.9868 85.8439 12.9178C82.6192 11.1217 79.1909 10.4654 75.5928 11.5016C68.1252 13.6085 63.7125 21.6908 66.7335 29.7039C69.1435 36.0592 75.3892 39.4786 81.9403 38.0625C86.0815 37.1645 89.0685 34.6776 91.1051 30.9474C91.9877 29.2895 92.6666 27.4934 92.7005 25.6283C92.7684 19.6184 92.7345 13.6085 92.7005 7.63321C92.7005 6.45887 92.2592 5.49177 91.3088 4.76644C89.7135 3.59209 87.6089 3.97203 86.6925 5.62992C86.3191 6.32071 86.2512 7.11512 86.2512 7.87499C86.2512 9.4638 86.2512 11.0526 86.2512 12.676V13.1595V13.125ZM190.221 30.9819C193.717 28.2187 197.146 25.4901 200.574 22.796C201.592 22.0016 202.678 21.2418 203.323 20.0329C204.206 18.4786 204.342 16.9243 203.391 15.3355C202.678 14.1266 201.626 13.2286 200.404 12.5724C197.757 11.1217 194.939 10.7763 191.986 11.0526C188.184 11.3635 185.062 13.0559 182.686 16.0954C180.242 19.2385 179.257 22.796 179.902 26.7335C180.479 30.3602 182.38 33.227 185.299 35.403C188.388 37.6826 191.816 38.5806 195.584 37.9243C197.96 37.5099 200.031 36.3355 202 34.9194C203.086 34.1595 203.968 33.1924 204.545 31.9835C204.817 31.3964 205.054 30.7747 204.953 30.1184C204.783 28.9095 204.274 27.9079 203.052 27.4934C201.864 27.1135 200.811 27.3898 199.895 28.2533C199.59 28.5296 199.318 28.8404 199.012 29.1513C197.553 30.4983 195.991 31.6727 193.921 31.7763C192.631 31.8454 191.409 31.6036 190.187 31.0164L190.221 30.9819ZM151.729 36.2319C152.204 36.9918 152.883 37.4753 153.664 37.7516C155.768 38.477 157.703 37.0608 157.703 34.8158C157.703 31.4309 157.703 28.046 157.703 24.6957C157.703 22.7615 157.296 20.8964 156.515 19.1003C153.935 13.1595 147.689 9.91282 141.614 11.3289C134.689 12.9178 130.276 19.7911 131.362 27.0099C131.872 30.3947 133.501 33.1924 136.115 35.3339C139.237 37.8898 142.802 38.8569 146.739 38.1316C148.504 37.8207 150.099 37.1299 151.695 36.1974L151.729 36.2319ZM11.473 29.6349C12.05 30.153 12.661 30.7401 13.2381 31.2928C15.105 33.0543 16.938 34.7812 18.8049 36.5428C19.4837 37.1645 20.2305 37.5789 21.147 37.648C22.4368 37.7171 23.7607 36.9572 24.3377 35.7138C24.8808 34.574 24.7111 33.3651 23.6928 32.3635C21.758 30.3947 19.7553 28.4605 17.7526 26.5263C17.1416 25.9391 16.5306 25.3865 15.8857 24.8339C16.5306 24.1431 17.1416 23.4868 17.7865 22.8306C19.7553 20.7582 21.724 18.7204 23.6588 16.648C24.5753 15.6809 24.8129 14.2303 24.2698 13.0904C23.7267 12.0197 22.2332 11.2253 21.0112 11.398C20.2305 11.5016 19.6535 11.9506 19.1104 12.5033C16.1572 15.4737 13.2381 18.4786 10.285 21.449C10.1831 21.5526 10.0813 21.6217 9.94553 21.7944V21.2763C9.94553 16.7516 9.94553 12.2615 9.94553 7.73683C9.94553 7.32236 9.94553 6.90788 9.8437 6.52795C9.57215 5.07729 8.41806 4.07565 7.02637 4.07565C5.02368 4.07565 3.53015 5.56084 3.53015 7.59867C3.53015 16.648 3.53015 25.6628 3.53015 34.7122C3.53015 35.7829 3.93748 36.5773 4.75213 37.1645C5.83833 37.9589 7.02637 38.2006 8.28229 37.6135C9.53821 37.0263 10.0134 35.9556 9.94553 34.574C9.94553 33.4687 9.94553 32.398 9.94553 31.2928C9.94553 31.1546 9.94553 30.9819 10.0474 30.8783C10.5226 30.3947 10.9978 29.9457 11.4391 29.5658L11.473 29.6349ZM105.599 24.7993C105.667 25.5247 105.701 26.1809 105.769 26.8372C105.837 27.2862 105.905 27.7352 106.04 28.1842C107.839 35.2993 114.764 39.6513 121.824 38.0625C124.913 37.3372 127.527 35.7483 129.36 33.0543C129.699 32.5362 129.971 32.0181 129.971 31.3964C129.971 30.222 129.02 28.8404 127.764 28.426C126.576 28.0115 125.456 28.046 124.574 29.1168C124.438 29.2895 124.268 29.4276 124.099 29.6003C122.13 31.6381 119.754 32.3289 117.072 31.6727C113.78 30.8783 111.336 27.8388 111.641 24.3158C111.947 20.6546 114.968 17.6842 118.634 17.6151C121.145 17.5806 123.216 18.5477 124.71 20.5855C124.981 20.9655 125.321 21.2763 125.796 21.2763C126.339 21.2763 126.916 21.3108 127.459 21.2072C128.749 20.8964 129.767 19.7566 129.835 18.5477C129.903 17.4424 129.665 16.3717 128.851 15.5773C128.308 15.0247 127.764 14.472 127.153 13.9885C122.91 10.8454 118.294 10.051 113.474 12.2615C108.213 14.7138 105.803 19.1694 105.531 24.7993H105.599ZM168.022 18.3405C168.022 17.1661 168.022 16.0954 168.022 14.9901C168.022 14.6447 168.022 14.3339 167.954 13.9885C167.716 12.1579 166.223 10.9145 164.356 11.0181C162.76 11.0872 161.165 12.7796 161.165 14.403C161.165 21.2418 161.165 28.1151 161.165 34.9539C161.165 35.5411 161.335 36.0592 161.708 36.5082C162.693 37.7862 164.016 38.1661 165.544 37.8553C166.664 37.648 167.479 37.0608 167.852 35.921C167.988 35.5066 168.056 35.023 168.056 34.574C168.056 32.3289 168.056 30.1184 168.056 27.8733C168.056 27.597 168.124 27.4243 168.327 27.2171C170.16 25.5247 171.959 23.8322 173.758 22.1398C175.388 20.5855 177.017 19.0658 178.68 17.546C179.461 16.8207 180.004 15.9918 180.072 14.8865C180.14 13.3322 179.087 11.7434 177.696 11.4671C176.372 11.1908 175.184 11.6053 174.2 12.5033C172.774 13.7812 171.416 15.1628 170.024 16.4753C169.38 17.097 168.735 17.6842 168.022 18.375V18.3405ZM27.4945 25.1793C27.4945 28.3914 27.4945 31.6036 27.4945 34.8503C27.4945 35.852 27.8679 36.6118 28.6146 37.199C29.599 37.9934 30.7191 38.2006 31.9072 37.8898C33.2649 37.5099 34.1814 36.4737 34.3172 35.1612C34.3172 35.0576 34.3172 34.9194 34.3172 34.8158C34.3172 28.426 34.3172 22.0362 34.3172 15.6464C34.3172 13.574 32.5182 11.8125 30.5494 12.0197C29.0559 12.1579 27.4266 13.8503 27.4605 15.5428C27.4945 18.7549 27.4605 21.9671 27.4605 25.2138L27.4945 25.1793ZM103.121 25.2138C103.121 23.176 103.121 21.1381 103.121 19.1349C103.121 17.8224 103.121 16.5099 103.121 15.2319C103.053 13.7467 101.56 12.1579 100.1 12.0197C98.1655 11.847 96.3325 13.5049 96.3325 15.5428C96.3325 22.0016 96.3325 28.426 96.3325 34.8849C96.3325 35.8865 96.7738 36.6464 97.5205 37.2681C98.1315 37.7516 98.8443 37.9934 99.659 38.028C101.356 38.097 103.257 36.8191 103.223 34.6776C103.155 31.5345 103.223 28.3569 103.223 25.2138H103.121ZM125.762 24.2467C124.132 24.6266 122.877 24.1085 121.96 22.796C120.976 21.4145 119.686 20.9655 118.09 21.2418C115.816 21.6562 114.492 24.3503 115.579 26.2845C116.699 28.3569 119.652 28.8059 121.349 27.2171C121.824 26.7681 122.299 26.2845 122.809 25.8355C123.454 25.2483 124.2 24.8684 125.083 24.972C125.32 24.972 125.558 25.0411 125.796 25.0756V24.2122L125.762 24.2467ZM27.4945 7.39144C27.3248 9.4638 29.3953 10.7072 30.9228 10.7072C32.8576 10.6727 34.3172 9.29111 34.3511 7.46052C34.3851 5.45723 32.62 3.73025 30.8889 3.73025C29.0219 3.73025 27.3248 5.66446 27.4605 7.39144H27.4945ZM103.121 7.39144C103.257 5.5263 101.492 3.69571 99.6929 3.69571C97.9618 3.69571 96.2307 5.45723 96.2646 7.39144C96.2986 9.29111 97.7581 10.6381 99.7948 10.6381C101.662 10.6381 103.121 9.22203 103.121 7.3569V7.39144ZM23.8964 27.3553V21.6562C22.9121 22.6924 21.9956 23.6595 21.113 24.5921C22.0635 25.5247 22.946 26.4227 23.8964 27.3553Z" fill="#546E7A" fill-opacity="0.68"/>
<path d="M57.3649 24.5577C57.297 27.0791 56.4484 29.2205 54.31 30.6021C50.2028 33.3307 44.2965 31.3965 43.0746 26.1465C42.192 22.4163 44.5002 18.6515 48.3019 17.788C51.2211 17.0972 53.8347 17.7534 55.8714 20.1021C56.9576 21.3455 57.4328 22.8653 57.3988 24.5577H57.3649ZM53.8008 24.5922C53.8008 23.6942 53.5971 22.8653 52.9183 22.2436C51.8999 21.2765 50.678 21.0347 49.3542 21.2765C46.7405 21.76 45.5864 24.6959 47.2157 26.7682C48.234 28.0807 49.5918 28.4607 51.1532 28.1153C52.8504 27.7353 53.7669 26.5265 53.8008 24.5922Z" fill="#546E7A" fill-opacity="0.68"/>
<path d="M86.2849 23.6943C86.217 26.9755 85.4363 29.0479 83.4336 30.4985C79.3604 33.3998 73.2165 31.5693 71.9946 26.1466C71.3496 23.3834 72.4019 20.6548 74.7101 18.9623C77.5274 16.9245 81.4988 17.0972 84.0446 19.3423C85.1648 20.3439 86.3528 22.1745 86.2849 23.6943ZM82.7208 24.5577C82.7208 23.1071 82.0419 22.0018 80.7181 21.4837C79.9374 21.1729 79.0888 21.0693 78.2742 21.2765C76.9164 21.5873 75.8642 22.3472 75.4908 23.7288C75.1174 25.1104 75.5587 26.3538 76.6109 27.2864C77.6971 28.2535 79.0209 28.4262 80.3787 28.0117C81.8722 27.5627 82.6869 26.3538 82.7208 24.5577Z" fill="#546E7A" fill-opacity="0.68"/>
<path d="M196.093 17.995C192.835 20.5854 189.61 23.1414 186.386 25.7318C185.741 24.0739 186.216 21.1726 188.32 19.2384C190.595 17.1315 193.955 16.8897 196.093 18.0295V17.995Z" fill="#546E7A" fill-opacity="0.68"/>
<path d="M151.763 24.9721C151.593 27.9079 150.133 29.9803 147.486 31.1892C144.125 32.7435 140.018 31.431 138.151 28.2533C136.59 25.5938 137.099 21.8635 139.305 19.7221C140.833 18.2369 142.598 17.5116 144.668 17.5461C148.165 17.6152 151.152 20.3093 151.593 23.8323C151.627 24.1777 151.661 24.5231 151.695 24.9721H151.763ZM148.165 24.8685C148.165 23.2797 147.248 21.9672 145.823 21.4491C144.363 20.8964 142.734 21.3109 141.715 22.4507C140.561 23.7977 140.527 25.7665 141.647 26.9754C142.768 28.1843 144.499 28.5642 145.992 27.9079C147.35 27.3208 148.165 26.181 148.131 24.8685H148.165Z" fill="#546E7A" fill-opacity="0.68"/>
</g>
<defs>
<clipPath id="clip0_29246_14964">
<rect width="215" height="42" fill="white"/>
</clipPath>
</defs>
</svg>
