<svg width="72" height="72" viewBox="0 0 72 72" fill="none" xmlns="http://www.w3.org/2000/svg">
<mask id="path-1-inside-1_29283_10782" fill="white">
<path d="M31.2189 40.9788C30.9461 40.9788 30.6614 40.8721 30.4598 40.6586C30.0447 40.2434 30.0447 39.5555 30.4598 39.1285L56.34 13.2484C56.7551 12.8332 57.443 12.8332 57.87 13.2484C58.2851 13.6635 58.2851 14.3514 57.87 14.7784L31.9898 40.6586C31.7763 40.8721 31.5035 40.9788 31.2307 40.9788H31.2189Z"/>
</mask>
<path d="M31.2189 40.9788C30.9461 40.9788 30.6614 40.8721 30.4598 40.6586C30.0447 40.2434 30.0447 39.5555 30.4598 39.1285L56.34 13.2484C56.7551 12.8332 57.443 12.8332 57.87 13.2484C58.2851 13.6635 58.2851 14.3514 57.87 14.7784L31.9898 40.6586C31.7763 40.8721 31.5035 40.9788 31.2307 40.9788H31.2189Z" fill="#141C21"/>
<path d="M30.4598 40.6586L34.0948 37.2255L34.0458 37.1735L33.9953 37.123L30.4598 40.6586ZM30.4598 39.1285L26.9242 35.593L26.8994 35.6179L26.8748 35.6431L30.4598 39.1285ZM56.34 13.2484L52.8044 9.71282L56.34 13.2484ZM57.87 13.2484L61.4055 9.71282L61.3806 9.68793L61.3554 9.66338L57.87 13.2484ZM57.87 14.7784L61.4055 18.3139L61.4304 18.289L61.455 18.2638L57.87 14.7784ZM31.9898 40.6586L28.4543 37.123L28.4543 37.123L31.9898 40.6586ZM31.2189 35.9788C32.1833 35.9788 33.2609 36.3424 34.0948 37.2255L26.8247 44.0917C28.0619 45.4017 29.7089 45.9788 31.2189 45.9788V35.9788ZM33.9953 37.123C35.5598 38.6876 35.4893 41.1281 34.0448 42.6139L26.8748 35.6431C24.6 37.9829 24.5295 41.7993 26.9242 44.1941L33.9953 37.123ZM33.9953 42.6641L59.8755 16.7839L52.8044 9.71282L26.9242 35.593L33.9953 42.6641ZM59.8755 16.7839C58.311 18.3484 55.8704 18.2779 54.3846 16.8333L61.3554 9.66338C59.0156 7.38859 55.1992 7.31804 52.8044 9.71282L59.8755 16.7839ZM54.3345 16.7839C52.7699 15.2194 52.8405 12.7788 54.285 11.293L61.455 18.2638C63.7298 15.924 63.8003 12.1076 61.4055 9.71282L54.3345 16.7839ZM54.3345 11.2429L28.4543 37.123L35.5254 44.1941L61.4055 18.3139L54.3345 11.2429ZM28.4543 37.123C29.1803 36.397 30.1801 35.9788 31.2307 35.9788V45.9788C32.827 45.9788 34.3723 45.3471 35.5254 44.1941L28.4543 37.123ZM31.2307 35.9788H31.2189V45.9788H31.2307V35.9788Z" fill="#494A52" mask="url(#path-1-inside-1_29283_10782)"/>
<mask id="path-3-inside-2_29283_10782" fill="white">
<path d="M44.1579 28.0388C43.8732 28.0388 43.6005 27.9202 43.3988 27.7186C43.1972 27.517 43.0786 27.2442 43.0786 26.9595L43.1023 14.2685C43.0193 13.9127 43.1142 13.5331 43.387 13.2603L56.327 0.320236C56.5287 0.118604 56.8015 0 57.0861 0C57.3708 0 57.6436 0.118604 57.8452 0.320236L57.8689 0.343963C58.0706 0.545596 58.1892 0.818393 58.1892 1.10305L58.1655 12.9282L69.9906 12.9045C70.2753 12.9045 70.5481 13.0231 70.7497 13.2247L70.7734 13.2485C71.1886 13.6636 71.1886 14.3515 70.7734 14.7785L57.8334 27.7186C57.5606 27.9914 57.1692 28.0863 56.8252 28.0032L44.1342 28.027L44.1579 28.0388ZM45.261 14.4345L45.2372 25.8802L56.6829 25.8564L67.4643 15.075L57.1099 15.0987C56.8252 15.0987 56.5524 14.9801 56.3508 14.7785C56.1491 14.5769 56.0305 14.3041 56.0305 14.0194L56.0542 3.66497L45.2728 14.4464L45.261 14.4345Z"/>
</mask>
<path d="M44.1579 28.0388C43.8732 28.0388 43.6005 27.9202 43.3988 27.7186C43.1972 27.517 43.0786 27.2442 43.0786 26.9595L43.1023 14.2685C43.0193 13.9127 43.1142 13.5331 43.387 13.2603L56.327 0.320236C56.5287 0.118604 56.8015 0 57.0861 0C57.3708 0 57.6436 0.118604 57.8452 0.320236L57.8689 0.343963C58.0706 0.545596 58.1892 0.818393 58.1892 1.10305L58.1655 12.9282L69.9906 12.9045C70.2753 12.9045 70.5481 13.0231 70.7497 13.2247L70.7734 13.2485C71.1886 13.6636 71.1886 14.3515 70.7734 14.7785L57.8334 27.7186C57.5606 27.9914 57.1692 28.0863 56.8252 28.0032L44.1342 28.027L44.1579 28.0388ZM45.261 14.4345L45.2372 25.8802L56.6829 25.8564L67.4643 15.075L57.1099 15.0987C56.8252 15.0987 56.5524 14.9801 56.3508 14.7785C56.1491 14.5769 56.0305 14.3041 56.0305 14.0194L56.0542 3.66497L45.2728 14.4464L45.261 14.4345Z" fill="#141C21"/>
<path d="M44.1579 28.0388V33.0388L46.3943 23.5669L44.1579 28.0388ZM43.0786 26.9595L38.0786 26.9501V26.9595H43.0786ZM43.1023 14.2685L48.1023 14.2778L48.1034 13.6975L47.9715 13.1323L43.1023 14.2685ZM43.387 13.2603L46.9225 16.7959H46.9225L43.387 13.2603ZM56.327 0.320236L52.7915 -3.2153V-3.2153L56.327 0.320236ZM57.8452 0.320236L61.3811 -3.21496L61.3808 -3.2153L57.8452 0.320236ZM57.8689 0.343963L54.3331 3.87916L54.3334 3.8795L57.8689 0.343963ZM58.1892 1.10305L63.1892 1.11308V1.10305H58.1892ZM58.1655 12.9282L53.1655 12.9182L53.1554 17.9383L58.1755 17.9282L58.1655 12.9282ZM69.9906 12.9045V7.90449L69.9806 7.90451L69.9906 12.9045ZM70.7734 14.7785L74.309 18.314L74.3339 18.2891L74.3584 18.2639L70.7734 14.7785ZM57.8334 27.7186L54.2978 24.183H54.2978L57.8334 27.7186ZM56.8252 28.0032L57.9984 23.1428L57.4155 23.0021L56.8159 23.0033L56.8252 28.0032ZM44.1342 28.027L44.1248 23.027L41.8978 32.4989L44.1342 28.027ZM45.261 14.4345L48.7972 10.8997L40.2859 2.38519L40.261 14.4242L45.261 14.4345ZM45.2372 25.8802L40.2372 25.8698L40.2268 30.8906L45.2476 30.8802L45.2372 25.8802ZM56.6829 25.8564L56.6932 30.8564L58.7582 30.8522L60.2184 29.392L56.6829 25.8564ZM67.4643 15.075L70.9998 18.6106L79.5631 10.0473L67.4528 10.075L67.4643 15.075ZM57.1099 15.0987V20.0988L57.1213 20.0987L57.1099 15.0987ZM56.0305 14.0194L51.0305 14.008V14.0194H56.0305ZM56.0542 3.66497L61.0542 3.67642L61.082 -8.43383L52.5187 0.129436L56.0542 3.66497ZM45.2728 14.4464L41.7366 17.9813L45.2721 21.5181L48.8084 17.9819L45.2728 14.4464ZM44.1579 23.0388C45.2666 23.0388 46.2469 23.4956 46.9344 24.183L39.8633 31.2541C40.954 32.3448 42.4799 33.0388 44.1579 33.0388V23.0388ZM46.9344 24.183C47.6218 24.8705 48.0786 25.8509 48.0786 26.9595H38.0786C38.0786 28.6374 38.7726 30.1634 39.8633 31.2541L46.9344 24.183ZM48.0786 26.9688L48.1023 14.2778L38.1023 14.2591L38.0786 26.9501L48.0786 26.9688ZM47.9715 13.1323C48.2618 14.3763 47.9311 15.7873 46.9225 16.7959L39.8514 9.72479C38.2973 11.279 37.7768 13.4491 38.2331 15.4046L47.9715 13.1323ZM46.9225 16.7959L59.8626 3.85577L52.7915 -3.2153L39.8514 9.72479L46.9225 16.7959ZM59.8626 3.85577C59.1751 4.54327 58.1947 5 57.0861 5V-5C55.4083 -5 53.8823 -4.30606 52.7915 -3.2153L59.8626 3.85577ZM57.0861 5C55.9776 5 54.9972 4.54327 54.3097 3.85577L61.3808 -3.2153C60.29 -4.30606 58.764 -5 57.0861 -5V5ZM54.3094 3.85543L54.3331 3.87916L61.4048 -3.19123L61.3811 -3.21496L54.3094 3.85543ZM54.3334 3.8795C53.646 3.19204 53.1892 2.21165 53.1892 1.10305H63.1892C63.1892 -0.574864 62.4952 -2.10085 61.4045 -3.19157L54.3334 3.8795ZM53.1892 1.09302L53.1655 12.9182L63.1655 12.9383L63.1892 1.11308L53.1892 1.09302ZM58.1755 17.9282L70.0007 17.9045L69.9806 7.90451L58.1554 7.92824L58.1755 17.9282ZM69.9906 17.9045C68.882 17.9045 67.9016 17.4477 67.2142 16.7603L74.2853 9.68921C73.1946 8.59851 71.6686 7.9045 69.9906 7.9045V17.9045ZM67.2142 16.7603L67.2379 16.784L74.309 9.71293L74.2853 9.68921L67.2142 16.7603ZM67.2379 16.784C65.6734 15.2195 65.7439 12.7789 67.1885 11.2931L74.3584 18.2639C76.6332 15.9241 76.7038 12.1077 74.309 9.71293L67.2379 16.784ZM67.2379 11.243L54.2978 24.183L61.3689 31.2541L74.309 18.314L67.2379 11.243ZM54.2978 24.183C55.3073 23.1736 56.7199 22.8342 57.9984 23.1428L55.652 32.8637C57.6184 33.3383 59.8138 32.8092 61.3689 31.2541L54.2978 24.183ZM56.8159 23.0033L44.1248 23.027L44.1435 33.027L56.8345 33.0032L56.8159 23.0033ZM41.8978 32.4989L41.9215 32.5108L46.3943 23.5669L46.3706 23.555L41.8978 32.4989ZM40.261 14.4242L40.2372 25.8698L50.2372 25.8905L50.2609 14.4449L40.261 14.4242ZM45.2476 30.8802L56.6932 30.8564L56.6725 20.8565L45.2269 20.8802L45.2476 30.8802ZM60.2184 29.392L70.9998 18.6106L63.9288 11.5395L53.1473 22.3209L60.2184 29.392ZM67.4528 10.075L57.0984 10.0988L57.1213 20.0987L67.4757 20.075L67.4528 10.075ZM57.1099 10.0987C58.2184 10.0987 59.1988 10.5555 59.8863 11.243L52.8152 18.314C53.906 19.4048 55.432 20.0987 57.1099 20.0987V10.0987ZM59.8863 11.243C60.5738 11.9305 61.0305 12.9109 61.0305 14.0194H51.0305C51.0305 15.6973 51.7245 17.2233 52.8152 18.314L59.8863 11.243ZM61.0305 14.0309L61.0542 3.67642L51.0543 3.65352L51.0305 14.008L61.0305 14.0309ZM52.5187 0.129436L41.7373 10.9109L48.8084 17.9819L59.5898 7.2005L52.5187 0.129436ZM48.809 10.9115L48.7972 10.8997L41.7248 17.9694L41.7366 17.9813L48.809 10.9115Z" fill="#494A52" mask="url(#path-3-inside-2_29283_10782)"/>
<mask id="path-5-inside-3_29283_10782" fill="white">
<path d="M30.9333 63.4433C18.0881 63.4433 7.62695 52.994 7.62695 40.1369C7.62695 27.2799 18.0763 16.8306 30.9333 16.8306C34.3848 16.8306 37.7058 17.5659 40.8134 19.0248C41.3471 19.2739 41.5843 19.9144 41.3352 20.46C41.0861 20.9937 40.4457 21.2309 39.9001 20.9818C37.0891 19.6653 34.0646 18.9892 30.9333 18.9892C19.2742 18.9892 9.78561 28.4778 9.78561 40.1369C9.78561 51.7961 19.2742 61.2847 30.9333 61.2847C42.5925 61.2847 52.0811 51.7961 52.0811 40.1369C52.0811 37.0176 51.4169 34.0168 50.1122 31.2058C49.8631 30.6721 50.0885 30.0197 50.6341 29.7706C51.1678 29.5216 51.8201 29.7469 52.0692 30.2925C53.5162 33.3882 54.2397 36.6973 54.2397 40.1369C54.2397 52.9822 43.7904 63.4433 30.9333 63.4433Z"/>
</mask>
<path d="M30.9333 63.4433C18.0881 63.4433 7.62695 52.994 7.62695 40.1369C7.62695 27.2799 18.0763 16.8306 30.9333 16.8306C34.3848 16.8306 37.7058 17.5659 40.8134 19.0248C41.3471 19.2739 41.5843 19.9144 41.3352 20.46C41.0861 20.9937 40.4457 21.2309 39.9001 20.9818C37.0891 19.6653 34.0646 18.9892 30.9333 18.9892C19.2742 18.9892 9.78561 28.4778 9.78561 40.1369C9.78561 51.7961 19.2742 61.2847 30.9333 61.2847C42.5925 61.2847 52.0811 51.7961 52.0811 40.1369C52.0811 37.0176 51.4169 34.0168 50.1122 31.2058C49.8631 30.6721 50.0885 30.0197 50.6341 29.7706C51.1678 29.5216 51.8201 29.7469 52.0692 30.2925C53.5162 33.3882 54.2397 36.6973 54.2397 40.1369C54.2397 52.9822 43.7904 63.4433 30.9333 63.4433Z" fill="#141C21"/>
<path d="M40.8134 19.0248L38.6885 23.5509L38.6989 23.5557L40.8134 19.0248ZM41.3352 20.46L45.8661 22.5744L45.875 22.5554L45.8837 22.5364L41.3352 20.46ZM39.9001 20.9818L37.7794 25.5098L37.8014 25.5202L37.8236 25.5303L39.9001 20.9818ZM50.1122 31.2058L54.6475 29.1008L54.6431 29.0914L50.1122 31.2058ZM50.6341 29.7706L52.7105 34.3191L52.7295 34.3104L52.7485 34.3016L50.6341 29.7706ZM52.0692 30.2925L47.5208 32.369L47.5301 32.3894L47.5396 32.4098L52.0692 30.2925ZM30.9333 58.4433C20.8479 58.4433 12.627 50.2309 12.627 40.1369H2.62695C2.62695 55.7571 15.3284 68.4433 30.9333 68.4433V58.4433ZM12.627 40.1369C12.627 30.0413 20.8377 21.8306 30.9333 21.8306V11.8306C15.3149 11.8306 2.62695 24.5185 2.62695 40.1369H12.627ZM30.9333 21.8306C33.6577 21.8306 36.2525 22.4072 38.6885 23.5509L42.9382 14.4988C39.1591 12.7246 35.1119 11.8306 30.9333 11.8306V21.8306ZM38.6989 23.5557C36.7251 22.6346 35.905 20.315 36.7868 18.3835L45.8837 22.5364C47.2636 19.5137 45.969 15.9131 42.9278 14.4939L38.6989 23.5557ZM36.8043 18.3455C37.7254 16.3718 40.045 15.5516 41.9765 16.4334L37.8236 25.5303C40.8463 26.9102 44.4469 25.6156 45.8661 22.5744L36.8043 18.3455ZM42.0208 16.4538C38.5459 14.8264 34.7974 13.9892 30.9333 13.9892V23.9892C33.3318 23.9892 35.6323 24.5042 37.7794 25.5098L42.0208 16.4538ZM30.9333 13.9892C16.5128 13.9892 4.78561 25.7164 4.78561 40.1369H14.7856C14.7856 31.2392 22.0356 23.9892 30.9333 23.9892V13.9892ZM4.78561 40.1369C4.78561 54.5575 16.5128 66.2847 30.9333 66.2847V56.2847C22.0356 56.2847 14.7856 49.0347 14.7856 40.1369H4.78561ZM30.9333 66.2847C45.3539 66.2847 57.0811 54.5575 57.0811 40.1369H47.0811C47.0811 49.0347 39.831 56.2847 30.9333 56.2847V66.2847ZM57.0811 40.1369C57.0811 36.291 56.2585 32.5718 54.6475 29.1008L45.5769 33.3108C46.5752 35.4618 47.0811 37.7441 47.0811 40.1369H57.0811ZM54.6431 29.0914C55.5317 30.9954 54.7708 33.3785 52.7105 34.3191L48.5576 25.2222C45.4061 26.6609 44.1946 30.3487 45.5813 33.3202L54.6431 29.0914ZM52.7485 34.3016C50.8444 35.1901 48.4613 34.4292 47.5208 32.369L56.6176 28.2161C55.179 25.0646 51.4912 23.853 48.5196 25.2397L52.7485 34.3016ZM47.5396 32.4098C48.6709 34.8299 49.2397 37.4149 49.2397 40.1369H59.2397C59.2397 35.9798 58.3616 31.9464 56.5988 28.1752L47.5396 32.4098ZM49.2397 40.1369C49.2397 50.2224 41.0273 58.4433 30.9333 58.4433V68.4433C46.5535 68.4433 59.2397 55.7419 59.2397 40.1369H49.2397Z" fill="#494A52" mask="url(#path-5-inside-3_29283_10782)"/>
<mask id="path-7-inside-4_29283_10782" fill="white">
<path d="M30.9335 56.0305C22.1684 56.0305 15.04 48.9022 15.04 40.1371C15.04 31.372 22.1684 24.2437 30.9335 24.2437C33.5784 24.2437 36.1996 24.9078 38.5125 26.1651C39.0344 26.4497 39.2241 27.1021 38.9395 27.624C38.6548 28.1458 38.0025 28.3356 37.4806 28.051C35.488 26.9716 33.2226 26.3904 30.9335 26.3904C23.3544 26.3904 17.1987 32.558 17.1987 40.1252C17.1987 47.6924 23.3663 53.86 30.9335 53.86C38.5006 53.86 44.6682 47.6924 44.6682 40.1252C44.6682 37.8598 44.1108 35.63 43.0433 33.6492C42.7586 33.1274 42.9603 32.475 43.4821 32.1904C44.004 31.9057 44.6563 32.1073 44.941 32.6292C46.1627 34.9183 46.815 37.5158 46.815 40.1252C46.815 48.8903 39.6867 56.0186 30.9216 56.0186L30.9335 56.0305Z"/>
</mask>
<path d="M30.9335 56.0305C22.1684 56.0305 15.04 48.9022 15.04 40.1371C15.04 31.372 22.1684 24.2437 30.9335 24.2437C33.5784 24.2437 36.1996 24.9078 38.5125 26.1651C39.0344 26.4497 39.2241 27.1021 38.9395 27.624C38.6548 28.1458 38.0025 28.3356 37.4806 28.051C35.488 26.9716 33.2226 26.3904 30.9335 26.3904C23.3544 26.3904 17.1987 32.558 17.1987 40.1252C17.1987 47.6924 23.3663 53.86 30.9335 53.86C38.5006 53.86 44.6682 47.6924 44.6682 40.1252C44.6682 37.8598 44.1108 35.63 43.0433 33.6492C42.7586 33.1274 42.9603 32.475 43.4821 32.1904C44.004 31.9057 44.6563 32.1073 44.941 32.6292C46.1627 34.9183 46.815 37.5158 46.815 40.1252C46.815 48.8903 39.6867 56.0186 30.9216 56.0186L30.9335 56.0305Z" fill="#141C21"/>
<path d="M30.9335 56.0305V61.0305H43.0029L34.4693 52.4953L30.9335 56.0305ZM38.5125 26.1651L40.9067 21.7756L40.9004 21.7722L38.5125 26.1651ZM37.4806 28.051L39.8749 23.6615L39.8684 23.658L39.862 23.6545L37.4806 28.051ZM43.0433 33.6492L47.4448 31.2772L47.4388 31.266L47.4328 31.255L43.0433 33.6492ZM44.941 32.6292L49.3521 30.2751L49.3414 30.255L49.3305 30.2349L44.941 32.6292ZM30.9216 56.0186V51.0186H18.8522L27.3857 59.5538L30.9216 56.0186ZM30.9335 51.0305C24.9298 51.0305 20.04 46.1407 20.04 40.1371H10.04C10.04 51.6636 19.4069 61.0305 30.9335 61.0305V51.0305ZM20.04 40.1371C20.04 34.1334 24.9298 29.2437 30.9335 29.2437V19.2437C19.4069 19.2437 10.04 28.6105 10.04 40.1371H20.04ZM30.9335 29.2437C32.749 29.2437 34.5488 29.7014 36.1245 30.558L40.9004 21.7722C37.8505 20.1143 34.4078 19.2437 30.9335 19.2437V29.2437ZM36.1182 30.5546C34.2007 29.5087 33.5206 27.1169 34.55 25.2297L43.3289 30.0182C44.9277 27.0872 43.868 23.3908 40.9067 21.7756L36.1182 30.5546ZM34.55 25.2297C35.5959 23.3122 37.9876 22.6321 39.8749 23.6615L35.0863 32.4404C38.0173 34.0392 41.7137 32.9794 43.3289 30.0182L34.55 25.2297ZM39.862 23.6545C37.1435 22.182 34.0603 21.3904 30.9335 21.3904V31.3904C32.3849 31.3904 33.8325 31.7613 35.0992 32.4474L39.862 23.6545ZM30.9335 21.3904C20.5902 21.3904 12.1987 29.7994 12.1987 40.1252H22.1987C22.1987 35.3167 26.1187 31.3904 30.9335 31.3904V21.3904ZM12.1987 40.1252C12.1987 50.4538 20.6049 58.86 30.9335 58.86V48.86C26.1277 48.86 22.1987 44.9309 22.1987 40.1252H12.1987ZM30.9335 58.86C41.262 58.86 49.6682 50.4538 49.6682 40.1252H39.6682C39.6682 44.9309 35.7392 48.86 30.9335 48.86V58.86ZM49.6682 40.1252C49.6682 37.0423 48.9101 33.9961 47.4448 31.2772L38.6418 36.0213C39.3114 37.2639 39.6682 38.6773 39.6682 40.1252H49.6682ZM47.4328 31.255C48.5086 33.2273 47.7082 35.5807 45.8764 36.5798L41.0879 27.8009C38.2124 29.3693 37.0086 33.0274 38.6538 36.0435L47.4328 31.255ZM45.8764 36.5798C43.904 37.6557 41.5507 36.8552 40.5515 35.0235L49.3305 30.2349C47.762 27.3595 44.104 26.1557 41.0879 27.8009L45.8764 36.5798ZM40.5299 34.9833C41.3654 36.5489 41.815 38.338 41.815 40.1252H51.815C51.815 36.6937 50.96 33.2878 49.3521 30.2751L40.5299 34.9833ZM41.815 40.1252C41.815 46.1289 36.9253 51.0186 30.9216 51.0186V61.0186C42.4481 61.0186 51.815 51.6517 51.815 40.1252H41.815ZM27.3857 59.5538L27.3976 59.5657L34.4693 52.4953L34.4575 52.4834L27.3857 59.5538Z" fill="#494A52" mask="url(#path-7-inside-4_29283_10782)"/>
<mask id="path-9-inside-5_29283_10782" fill="white">
<path d="M30.9335 47.7987C26.7111 47.7987 23.2715 44.3591 23.2715 40.1367C23.2715 35.9142 26.7111 32.4746 30.9335 32.4746C31.3487 32.4746 31.7519 32.5102 32.1552 32.5695C32.7482 32.6644 33.1396 33.2218 33.0447 33.803C32.9499 34.3961 32.3924 34.7875 31.8112 34.6926C31.5266 34.6451 31.2301 34.6214 30.9335 34.6214C27.8972 34.6214 25.4301 37.0884 25.4301 40.1248C25.4301 43.1612 27.8972 45.6282 30.9335 45.6282C33.9699 45.6282 36.4369 43.1612 36.4369 40.1248C36.4369 39.8757 36.4251 39.6148 36.3895 39.3776C36.3065 38.7845 36.7216 38.2389 37.3146 38.1678C37.9077 38.0848 38.4533 38.4999 38.5244 39.0929C38.5719 39.4369 38.5956 39.7927 38.5956 40.1367C38.5956 44.3591 35.156 47.7987 30.9335 47.7987Z"/>
</mask>
<path d="M30.9335 47.7987C26.7111 47.7987 23.2715 44.3591 23.2715 40.1367C23.2715 35.9142 26.7111 32.4746 30.9335 32.4746C31.3487 32.4746 31.7519 32.5102 32.1552 32.5695C32.7482 32.6644 33.1396 33.2218 33.0447 33.803C32.9499 34.3961 32.3924 34.7875 31.8112 34.6926C31.5266 34.6451 31.2301 34.6214 30.9335 34.6214C27.8972 34.6214 25.4301 37.0884 25.4301 40.1248C25.4301 43.1612 27.8972 45.6282 30.9335 45.6282C33.9699 45.6282 36.4369 43.1612 36.4369 40.1248C36.4369 39.8757 36.4251 39.6148 36.3895 39.3776C36.3065 38.7845 36.7216 38.2389 37.3146 38.1678C37.9077 38.0848 38.4533 38.4999 38.5244 39.0929C38.5719 39.4369 38.5956 39.7927 38.5956 40.1367C38.5956 44.3591 35.156 47.7987 30.9335 47.7987Z" fill="#141C21"/>
<path d="M32.1552 32.5695L32.9451 27.6323L32.9139 27.6273L32.8827 27.6227L32.1552 32.5695ZM33.0447 33.803L28.1101 32.9974L28.1088 33.0052L28.1075 33.0131L33.0447 33.803ZM31.8112 34.6926L30.9892 39.6245L30.9974 39.6259L31.0056 39.6272L31.8112 34.6926ZM36.3895 39.3776L31.4378 40.0708L31.4412 40.0951L31.4448 40.1193L36.3895 39.3776ZM37.3146 38.1678L37.9103 43.1322L37.9592 43.1263L38.0079 43.1195L37.3146 38.1678ZM38.5244 39.0929L33.56 39.6886L33.5653 39.7324L33.5713 39.7761L38.5244 39.0929ZM30.9335 42.7987C29.4725 42.7987 28.2715 41.5977 28.2715 40.1367H18.2715C18.2715 47.1205 23.9497 52.7987 30.9335 52.7987V42.7987ZM28.2715 40.1367C28.2715 38.6757 29.4725 37.4746 30.9335 37.4746V27.4746C23.9497 27.4746 18.2715 33.1528 18.2715 40.1367H28.2715ZM30.9335 37.4746C31.0599 37.4746 31.216 37.4852 31.4277 37.5163L32.8827 27.6227C32.2879 27.5352 31.6374 27.4746 30.9335 27.4746V37.4746ZM31.3652 37.5067C29.1856 37.158 27.7655 35.1077 28.1101 32.9974L37.9794 34.6087C38.5137 31.336 36.3109 28.1708 32.9451 27.6323L31.3652 37.5067ZM28.1075 33.0131C28.4563 30.8334 30.5065 29.4134 32.6169 29.7579L31.0056 39.6272C34.2783 40.1616 37.4434 37.9587 37.982 34.593L28.1075 33.0131ZM32.6332 29.7606C32.0642 29.6658 31.4923 29.6214 30.9335 29.6214V39.6214C30.949 39.6214 30.9629 39.6221 30.9741 39.623C30.9854 39.6239 30.9907 39.6248 30.9892 39.6245L32.6332 29.7606ZM30.9335 29.6214C25.1358 29.6214 20.4301 34.327 20.4301 40.1248H30.4301C30.4301 39.8499 30.6586 39.6214 30.9335 39.6214V29.6214ZM20.4301 40.1248C20.4301 45.9226 25.1358 50.6282 30.9335 50.6282V40.6282C30.6586 40.6282 30.4301 40.3997 30.4301 40.1248H20.4301ZM30.9335 50.6282C36.7313 50.6282 41.4369 45.9226 41.4369 40.1248H31.4369C31.4369 40.3997 31.2085 40.6282 30.9335 40.6282V50.6282ZM41.4369 40.1248C41.4369 39.7434 41.4205 39.2114 41.3342 38.6359L31.4448 40.1193C31.4399 40.0867 31.4374 40.0639 31.4363 40.0524C31.4351 40.0408 31.4349 40.0365 31.4352 40.0403C31.4354 40.0441 31.4359 40.0532 31.4363 40.0682C31.4367 40.0831 31.4369 40.102 31.4369 40.1248H41.4369ZM41.3412 38.6843C41.641 40.826 40.1354 42.8652 37.9103 43.1322L36.7189 33.2034C33.3078 33.6127 30.9719 36.7431 31.4378 40.0708L41.3412 38.6843ZM38.0079 43.1195C35.8662 43.4193 33.827 41.9137 33.56 39.6886L43.4888 38.4972C43.0795 35.086 39.9491 32.7502 36.6214 33.2161L38.0079 43.1195ZM33.5713 39.7761C33.5868 39.8882 33.5956 40.0156 33.5956 40.1367H43.5956C43.5956 39.5698 43.557 38.9856 43.4775 38.4097L33.5713 39.7761ZM33.5956 40.1367C33.5956 41.5977 32.3945 42.7987 30.9335 42.7987V52.7987C37.9174 52.7987 43.5956 47.1205 43.5956 40.1367H33.5956Z" fill="#494A52" mask="url(#path-9-inside-5_29283_10782)"/>
<mask id="path-11-inside-6_29283_10782" fill="white">
<path d="M30.4237 71.1054C30.4237 71.1054 30.4119 71.1054 30.4 71.1054C30.2339 71.1054 30.056 71.1054 29.89 71.0935C29.2969 71.0698 28.8344 70.5716 28.8462 69.9786C28.87 69.3856 29.3562 68.9111 29.9611 68.9349C30.1153 68.9349 30.2814 68.9349 30.4356 68.9349C31.0286 68.9349 31.503 69.433 31.4912 70.0261C31.4912 70.6191 31.0049 71.0817 30.4119 71.0817L30.4237 71.1054ZM36.2829 70.6309C35.7729 70.6309 35.3222 70.2633 35.2273 69.7414C35.1206 69.1602 35.512 68.5909 36.0932 68.4842C36.2473 68.4604 36.4015 68.4249 36.5557 68.4011C37.1369 68.2825 37.7062 68.6621 37.8248 69.2551C37.9434 69.8363 37.5639 70.4056 36.9709 70.5242C36.8048 70.5598 36.6388 70.5835 36.4727 70.6191C36.4134 70.6191 36.3422 70.6309 36.2829 70.6309ZM24.1019 70.3226C24.0189 70.3226 23.9359 70.3226 23.8529 70.2988C23.6868 70.2633 23.5208 70.2158 23.3547 70.1802C22.7735 70.0379 22.4296 69.4449 22.5719 68.8756C22.7142 68.2944 23.3073 67.9504 23.8766 68.0927C24.0308 68.1283 24.185 68.1639 24.3391 68.1995C24.9203 68.33 25.2761 68.9111 25.1457 69.4923C25.0271 69.9905 24.5882 70.3226 24.1019 70.3226ZM42.3912 68.8281C41.9642 68.8281 41.5728 68.579 41.3949 68.1639C41.1696 67.6183 41.4305 66.9778 41.9761 66.7525C42.1184 66.6932 42.2608 66.6339 42.4149 66.5627C42.9605 66.3255 43.601 66.5746 43.8382 67.1202C44.0755 67.6658 43.8264 68.3062 43.2808 68.5435C43.1266 68.6146 42.9724 68.6739 42.8182 68.7451C42.6877 68.8044 42.5454 68.8281 42.4031 68.8281H42.3912ZM18.0885 68.2114C17.9343 68.2114 17.7801 68.1758 17.626 68.1046C17.4718 68.0334 17.3176 67.9623 17.1634 67.8792C16.6297 67.6183 16.4162 66.966 16.6771 66.4322C16.938 65.8985 17.5904 65.685 18.1241 65.9459C18.2664 66.0171 18.4088 66.0883 18.5511 66.1476C19.0848 66.4085 19.322 67.049 19.0611 67.5827C18.8713 67.9741 18.4918 68.1995 18.0885 68.1995V68.2114ZM47.9658 65.768C47.6218 65.768 47.2897 65.602 47.0762 65.3055C46.7323 64.8192 46.8627 64.1431 47.349 63.7992C47.4795 63.7043 47.61 63.6212 47.7404 63.5264C48.2267 63.1824 48.9028 63.2891 49.2467 63.7754C49.5907 64.2617 49.484 64.9378 48.9977 65.2818C48.8553 65.3766 48.7249 65.4834 48.5825 65.5783C48.3928 65.7087 48.1793 65.768 47.9658 65.768ZM12.6563 64.8666C12.4309 64.8666 12.1937 64.7955 11.9921 64.6413C11.8616 64.5345 11.7193 64.4278 11.5888 64.321C11.1263 63.9533 11.0432 63.2654 11.4228 62.8028C11.7905 62.3403 12.4784 62.2573 12.941 62.6368C13.0596 62.7317 13.19 62.8384 13.3086 62.9333C13.7831 63.301 13.8661 63.9771 13.4984 64.4396C13.2849 64.7124 12.9647 64.8548 12.6444 64.8548L12.6563 64.8666ZM52.7694 61.5931C52.5084 61.5931 52.2475 61.4982 52.034 61.3084C51.5952 60.9051 51.5715 60.2172 51.9866 59.7902C52.0933 59.6716 52.2001 59.553 52.3068 59.4463C52.7101 59.0074 53.3861 58.9718 53.825 59.3632C54.2638 59.7665 54.2994 60.4426 53.908 60.8814C53.7894 61.0119 53.6827 61.1305 53.5641 61.261C53.3506 61.4863 53.0659 61.6049 52.7812 61.6049L52.7694 61.5931ZM8.05433 60.4544C7.74595 60.4544 7.43757 60.324 7.22407 60.0749C7.11733 59.9444 7.01058 59.8139 6.90383 59.6835C6.52429 59.2209 6.59545 58.5448 7.05802 58.1653C7.52059 57.7858 8.19666 57.8569 8.5762 58.3195C8.67109 58.4381 8.77783 58.5686 8.87272 58.6872C9.25226 59.1379 9.19296 59.8258 8.74225 60.2053C8.54062 60.3714 8.29154 60.4544 8.04247 60.4544H8.05433ZM56.5886 56.5048C56.3988 56.5048 56.209 56.4574 56.043 56.3506C55.5329 56.0422 55.3669 55.378 55.6753 54.868C55.7583 54.7375 55.8413 54.5952 55.9125 54.4647C56.209 53.9429 56.8732 53.7649 57.3832 54.0733C57.9051 54.3699 58.083 55.0341 57.7746 55.5441C57.6916 55.6864 57.6086 55.8406 57.5137 55.9829C57.3121 56.3269 56.9562 56.5048 56.5886 56.5048ZM4.48424 55.1764C4.09283 55.1764 3.72515 54.9629 3.53538 54.6071C3.45235 54.4529 3.38119 54.3105 3.29816 54.1564C3.02537 53.6226 3.23886 52.9821 3.77259 52.7094C4.30633 52.4366 4.94681 52.65 5.21961 53.1838C5.29077 53.3261 5.36194 53.4684 5.4331 53.5989C5.71776 54.1208 5.51613 54.7731 4.98239 55.0578C4.81634 55.1408 4.65029 55.1882 4.48424 55.1882V55.1764ZM59.2454 50.7167C59.1268 50.7167 59.02 50.693 58.9014 50.6574C58.3321 50.4677 58.0356 49.8628 58.2253 49.2934C58.2728 49.1393 58.3202 48.9969 58.3677 48.8427C58.5456 48.2734 59.1505 47.965 59.7198 48.143C60.2891 48.3209 60.5975 48.9258 60.4196 49.4951C60.3721 49.6611 60.3128 49.8153 60.2654 49.9814C60.1112 50.4321 59.6961 50.7167 59.2454 50.7167ZM2.12395 49.2697C1.64952 49.2697 1.22253 48.9613 1.09206 48.4869C1.04462 48.3209 0.997177 48.1548 0.961595 48.0006C0.807405 47.4195 1.15137 46.8383 1.73254 46.6841C2.31372 46.5299 2.8949 46.8739 3.04909 47.455C3.08467 47.6092 3.13211 47.7634 3.1677 47.9176C3.32189 48.4869 2.98978 49.08 2.42047 49.246C2.32558 49.2697 2.2307 49.2816 2.13581 49.2816L2.12395 49.2697ZM60.6212 44.5017C60.6212 44.5017 60.5382 44.5017 60.5026 44.5017C59.9096 44.4424 59.4826 43.9087 59.5537 43.3156C59.5656 43.1614 59.5893 43.0072 59.6012 42.8412C59.6605 42.2482 60.1824 41.8093 60.7754 41.8686C61.3684 41.9279 61.8073 42.4498 61.748 43.0428C61.7361 43.2089 61.7124 43.3749 61.7005 43.5528C61.6412 44.1103 61.1787 44.5136 60.6331 44.5136L60.6212 44.5017ZM1.10392 42.9954C0.534607 42.9954 0.0601769 42.5565 0.0245946 41.9754C0.0245946 41.8093 0.000873093 41.6433 0.000873093 41.4654C-0.0228484 40.8723 0.439721 40.3623 1.03276 40.3386C1.6258 40.3149 2.13581 40.7774 2.15953 41.3705C2.15953 41.5247 2.17139 41.6907 2.18325 41.8449C2.21883 42.4379 1.76813 42.9479 1.17509 42.9835C1.15137 42.9835 1.12765 42.9835 1.11578 42.9835L1.10392 42.9954ZM60.6687 38.1325C60.1231 38.1325 59.6486 37.7174 59.6012 37.1599C59.5893 37.0057 59.5656 36.8515 59.5537 36.6855C59.4826 36.0924 59.9096 35.5587 60.5026 35.4875C61.0956 35.4164 61.6294 35.8434 61.7005 36.4364C61.7243 36.6024 61.7361 36.7685 61.7598 36.9464C61.8191 37.5394 61.3922 38.0732 60.7991 38.1325C60.7635 38.1325 60.728 38.1325 60.6924 38.1325H60.6687ZM1.4123 36.6262C1.4123 36.6262 1.30556 36.6262 1.24625 36.6143C0.653215 36.5194 0.249949 35.9738 0.344835 35.3808C0.368557 35.2147 0.392278 35.0487 0.42786 34.8826C0.522746 34.3014 1.0802 33.8982 1.67324 34.0049C2.25442 34.0998 2.65768 34.6573 2.55094 35.2503C2.52721 35.4045 2.50349 35.5587 2.47977 35.7129C2.39675 36.2466 1.93418 36.6262 1.4123 36.6262ZM59.3521 31.8937C58.9014 31.8937 58.4744 31.6091 58.3321 31.1465C58.2846 30.9923 58.2372 30.85 58.1779 30.6958C57.9881 30.1383 58.2846 29.5216 58.8421 29.3199C59.3996 29.1302 60.0163 29.4267 60.2179 29.9841C60.2772 30.1383 60.3247 30.3044 60.384 30.4704C60.5738 31.0397 60.2654 31.6446 59.6961 31.8344C59.5893 31.87 59.4707 31.8937 59.364 31.8937H59.3521ZM3.04909 30.4704C2.91862 30.4704 2.78815 30.4467 2.65768 30.3993C2.10023 30.1858 1.82743 29.5571 2.04092 29.0116C2.10023 28.8574 2.15953 28.6913 2.2307 28.5371C2.45605 27.9797 3.08467 27.7187 3.63027 27.9441C4.18772 28.1694 4.44866 28.7981 4.2233 29.3437C4.164 29.486 4.1047 29.6402 4.04539 29.7825C3.87934 30.2095 3.47608 30.4704 3.03723 30.4704H3.04909ZM5.95497 24.801C5.75334 24.801 5.55171 24.7417 5.36194 24.6231C4.86378 24.291 4.72146 23.6268 5.05356 23.1286C5.14844 22.9863 5.24333 22.844 5.33821 22.7016C5.67032 22.2035 6.34638 22.0849 6.83267 22.417C7.31896 22.7491 7.44943 23.4251 7.11733 23.9114C7.0343 24.0419 6.93942 24.1724 6.85639 24.3028C6.65476 24.6231 6.3108 24.7891 5.95497 24.7891V24.801ZM9.99949 19.8788C9.71483 19.8788 9.44204 19.772 9.22854 19.5585C8.81342 19.1315 8.81342 18.4555 9.2404 18.0285C9.35901 17.9099 9.47762 17.7913 9.60809 17.6727C10.0351 17.2575 10.723 17.2813 11.1263 17.7083C11.5414 18.1352 11.5177 18.8232 11.0907 19.2264C10.9721 19.3332 10.8653 19.4399 10.7467 19.5585C10.5332 19.7602 10.2604 19.8669 9.98763 19.8669L9.99949 19.8788ZM14.9929 15.9173C14.637 15.9173 14.2812 15.7394 14.0796 15.4191C13.7594 14.921 13.9135 14.2449 14.4117 13.9365C14.554 13.8416 14.6964 13.7586 14.8387 13.6637C15.3487 13.3554 16.0129 13.5095 16.3213 14.0196C16.6297 14.5296 16.4755 15.1938 15.9655 15.5022C15.835 15.5852 15.6927 15.6682 15.5622 15.7512C15.3843 15.8698 15.1826 15.9173 14.9929 15.9173ZM20.7098 13.1063C20.2709 13.1063 19.8558 12.8335 19.7016 12.3946C19.5 11.8372 19.7846 11.2204 20.3421 11.0069C20.4963 10.9476 20.6623 10.8883 20.8165 10.8409C21.374 10.6511 21.9907 10.9476 22.1924 11.5051C22.3821 12.0625 22.0856 12.6793 21.5281 12.8809C21.374 12.9284 21.2316 12.9877 21.0774 13.0351C20.9588 13.0826 20.8284 13.1063 20.7098 13.1063ZM39.9953 12.703C39.8886 12.703 39.7819 12.6912 39.6751 12.6556C39.5209 12.6081 39.3786 12.5607 39.2244 12.5132C38.6551 12.3472 38.3348 11.7423 38.5009 11.173C38.6669 10.6037 39.2718 10.2834 39.8412 10.4495C40.0072 10.4969 40.1614 10.5444 40.3274 10.6037C40.8968 10.7816 41.2051 11.3865 41.0272 11.9558C40.8849 12.4184 40.4579 12.703 39.9953 12.703ZM26.9011 11.5881C26.3673 11.5881 25.9048 11.1967 25.8336 10.6511C25.7506 10.0581 26.1657 9.51247 26.7587 9.44131C26.9248 9.41759 27.0908 9.39386 27.2688 9.382C27.8618 9.31083 28.3955 9.73783 28.4667 10.3309C28.5379 10.9239 28.1109 11.4576 27.5178 11.5288C27.3636 11.5525 27.2095 11.5644 27.0434 11.5881C26.996 11.5881 26.9485 11.5881 26.9011 11.5881ZM33.7566 11.4458C33.7566 11.4458 33.6854 11.4458 33.6498 11.4458C33.4957 11.4339 33.3415 11.422 33.1754 11.4102C32.5824 11.3627 32.1317 10.8527 32.1791 10.2478C32.2266 9.6548 32.7484 9.21595 33.3415 9.25153C33.5075 9.26339 33.6854 9.27525 33.8515 9.29897C34.4445 9.35828 34.8834 9.88016 34.8241 10.4732C34.7766 11.0307 34.3022 11.4458 33.7566 11.4458Z"/>
</mask>
<path d="M30.4237 71.1054C30.4237 71.1054 30.4119 71.1054 30.4 71.1054C30.2339 71.1054 30.056 71.1054 29.89 71.0935C29.2969 71.0698 28.8344 70.5716 28.8462 69.9786C28.87 69.3856 29.3562 68.9111 29.9611 68.9349C30.1153 68.9349 30.2814 68.9349 30.4356 68.9349C31.0286 68.9349 31.503 69.433 31.4912 70.0261C31.4912 70.6191 31.0049 71.0817 30.4119 71.0817L30.4237 71.1054ZM36.2829 70.6309C35.7729 70.6309 35.3222 70.2633 35.2273 69.7414C35.1206 69.1602 35.512 68.5909 36.0932 68.4842C36.2473 68.4604 36.4015 68.4249 36.5557 68.4011C37.1369 68.2825 37.7062 68.6621 37.8248 69.2551C37.9434 69.8363 37.5639 70.4056 36.9709 70.5242C36.8048 70.5598 36.6388 70.5835 36.4727 70.6191C36.4134 70.6191 36.3422 70.6309 36.2829 70.6309ZM24.1019 70.3226C24.0189 70.3226 23.9359 70.3226 23.8529 70.2988C23.6868 70.2633 23.5208 70.2158 23.3547 70.1802C22.7735 70.0379 22.4296 69.4449 22.5719 68.8756C22.7142 68.2944 23.3073 67.9504 23.8766 68.0927C24.0308 68.1283 24.185 68.1639 24.3391 68.1995C24.9203 68.33 25.2761 68.9111 25.1457 69.4923C25.0271 69.9905 24.5882 70.3226 24.1019 70.3226ZM42.3912 68.8281C41.9642 68.8281 41.5728 68.579 41.3949 68.1639C41.1696 67.6183 41.4305 66.9778 41.9761 66.7525C42.1184 66.6932 42.2608 66.6339 42.4149 66.5627C42.9605 66.3255 43.601 66.5746 43.8382 67.1202C44.0755 67.6658 43.8264 68.3062 43.2808 68.5435C43.1266 68.6146 42.9724 68.6739 42.8182 68.7451C42.6877 68.8044 42.5454 68.8281 42.4031 68.8281H42.3912ZM18.0885 68.2114C17.9343 68.2114 17.7801 68.1758 17.626 68.1046C17.4718 68.0334 17.3176 67.9623 17.1634 67.8792C16.6297 67.6183 16.4162 66.966 16.6771 66.4322C16.938 65.8985 17.5904 65.685 18.1241 65.9459C18.2664 66.0171 18.4088 66.0883 18.5511 66.1476C19.0848 66.4085 19.322 67.049 19.0611 67.5827C18.8713 67.9741 18.4918 68.1995 18.0885 68.1995V68.2114ZM47.9658 65.768C47.6218 65.768 47.2897 65.602 47.0762 65.3055C46.7323 64.8192 46.8627 64.1431 47.349 63.7992C47.4795 63.7043 47.61 63.6212 47.7404 63.5264C48.2267 63.1824 48.9028 63.2891 49.2467 63.7754C49.5907 64.2617 49.484 64.9378 48.9977 65.2818C48.8553 65.3766 48.7249 65.4834 48.5825 65.5783C48.3928 65.7087 48.1793 65.768 47.9658 65.768ZM12.6563 64.8666C12.4309 64.8666 12.1937 64.7955 11.9921 64.6413C11.8616 64.5345 11.7193 64.4278 11.5888 64.321C11.1263 63.9533 11.0432 63.2654 11.4228 62.8028C11.7905 62.3403 12.4784 62.2573 12.941 62.6368C13.0596 62.7317 13.19 62.8384 13.3086 62.9333C13.7831 63.301 13.8661 63.9771 13.4984 64.4396C13.2849 64.7124 12.9647 64.8548 12.6444 64.8548L12.6563 64.8666ZM52.7694 61.5931C52.5084 61.5931 52.2475 61.4982 52.034 61.3084C51.5952 60.9051 51.5715 60.2172 51.9866 59.7902C52.0933 59.6716 52.2001 59.553 52.3068 59.4463C52.7101 59.0074 53.3861 58.9718 53.825 59.3632C54.2638 59.7665 54.2994 60.4426 53.908 60.8814C53.7894 61.0119 53.6827 61.1305 53.5641 61.261C53.3506 61.4863 53.0659 61.6049 52.7812 61.6049L52.7694 61.5931ZM8.05433 60.4544C7.74595 60.4544 7.43757 60.324 7.22407 60.0749C7.11733 59.9444 7.01058 59.8139 6.90383 59.6835C6.52429 59.2209 6.59545 58.5448 7.05802 58.1653C7.52059 57.7858 8.19666 57.8569 8.5762 58.3195C8.67109 58.4381 8.77783 58.5686 8.87272 58.6872C9.25226 59.1379 9.19296 59.8258 8.74225 60.2053C8.54062 60.3714 8.29154 60.4544 8.04247 60.4544H8.05433ZM56.5886 56.5048C56.3988 56.5048 56.209 56.4574 56.043 56.3506C55.5329 56.0422 55.3669 55.378 55.6753 54.868C55.7583 54.7375 55.8413 54.5952 55.9125 54.4647C56.209 53.9429 56.8732 53.7649 57.3832 54.0733C57.9051 54.3699 58.083 55.0341 57.7746 55.5441C57.6916 55.6864 57.6086 55.8406 57.5137 55.9829C57.3121 56.3269 56.9562 56.5048 56.5886 56.5048ZM4.48424 55.1764C4.09283 55.1764 3.72515 54.9629 3.53538 54.6071C3.45235 54.4529 3.38119 54.3105 3.29816 54.1564C3.02537 53.6226 3.23886 52.9821 3.77259 52.7094C4.30633 52.4366 4.94681 52.65 5.21961 53.1838C5.29077 53.3261 5.36194 53.4684 5.4331 53.5989C5.71776 54.1208 5.51613 54.7731 4.98239 55.0578C4.81634 55.1408 4.65029 55.1882 4.48424 55.1882V55.1764ZM59.2454 50.7167C59.1268 50.7167 59.02 50.693 58.9014 50.6574C58.3321 50.4677 58.0356 49.8628 58.2253 49.2934C58.2728 49.1393 58.3202 48.9969 58.3677 48.8427C58.5456 48.2734 59.1505 47.965 59.7198 48.143C60.2891 48.3209 60.5975 48.9258 60.4196 49.4951C60.3721 49.6611 60.3128 49.8153 60.2654 49.9814C60.1112 50.4321 59.6961 50.7167 59.2454 50.7167ZM2.12395 49.2697C1.64952 49.2697 1.22253 48.9613 1.09206 48.4869C1.04462 48.3209 0.997177 48.1548 0.961595 48.0006C0.807405 47.4195 1.15137 46.8383 1.73254 46.6841C2.31372 46.5299 2.8949 46.8739 3.04909 47.455C3.08467 47.6092 3.13211 47.7634 3.1677 47.9176C3.32189 48.4869 2.98978 49.08 2.42047 49.246C2.32558 49.2697 2.2307 49.2816 2.13581 49.2816L2.12395 49.2697ZM60.6212 44.5017C60.6212 44.5017 60.5382 44.5017 60.5026 44.5017C59.9096 44.4424 59.4826 43.9087 59.5537 43.3156C59.5656 43.1614 59.5893 43.0072 59.6012 42.8412C59.6605 42.2482 60.1824 41.8093 60.7754 41.8686C61.3684 41.9279 61.8073 42.4498 61.748 43.0428C61.7361 43.2089 61.7124 43.3749 61.7005 43.5528C61.6412 44.1103 61.1787 44.5136 60.6331 44.5136L60.6212 44.5017ZM1.10392 42.9954C0.534607 42.9954 0.0601769 42.5565 0.0245946 41.9754C0.0245946 41.8093 0.000873093 41.6433 0.000873093 41.4654C-0.0228484 40.8723 0.439721 40.3623 1.03276 40.3386C1.6258 40.3149 2.13581 40.7774 2.15953 41.3705C2.15953 41.5247 2.17139 41.6907 2.18325 41.8449C2.21883 42.4379 1.76813 42.9479 1.17509 42.9835C1.15137 42.9835 1.12765 42.9835 1.11578 42.9835L1.10392 42.9954ZM60.6687 38.1325C60.1231 38.1325 59.6486 37.7174 59.6012 37.1599C59.5893 37.0057 59.5656 36.8515 59.5537 36.6855C59.4826 36.0924 59.9096 35.5587 60.5026 35.4875C61.0956 35.4164 61.6294 35.8434 61.7005 36.4364C61.7243 36.6024 61.7361 36.7685 61.7598 36.9464C61.8191 37.5394 61.3922 38.0732 60.7991 38.1325C60.7635 38.1325 60.728 38.1325 60.6924 38.1325H60.6687ZM1.4123 36.6262C1.4123 36.6262 1.30556 36.6262 1.24625 36.6143C0.653215 36.5194 0.249949 35.9738 0.344835 35.3808C0.368557 35.2147 0.392278 35.0487 0.42786 34.8826C0.522746 34.3014 1.0802 33.8982 1.67324 34.0049C2.25442 34.0998 2.65768 34.6573 2.55094 35.2503C2.52721 35.4045 2.50349 35.5587 2.47977 35.7129C2.39675 36.2466 1.93418 36.6262 1.4123 36.6262ZM59.3521 31.8937C58.9014 31.8937 58.4744 31.6091 58.3321 31.1465C58.2846 30.9923 58.2372 30.85 58.1779 30.6958C57.9881 30.1383 58.2846 29.5216 58.8421 29.3199C59.3996 29.1302 60.0163 29.4267 60.2179 29.9841C60.2772 30.1383 60.3247 30.3044 60.384 30.4704C60.5738 31.0397 60.2654 31.6446 59.6961 31.8344C59.5893 31.87 59.4707 31.8937 59.364 31.8937H59.3521ZM3.04909 30.4704C2.91862 30.4704 2.78815 30.4467 2.65768 30.3993C2.10023 30.1858 1.82743 29.5571 2.04092 29.0116C2.10023 28.8574 2.15953 28.6913 2.2307 28.5371C2.45605 27.9797 3.08467 27.7187 3.63027 27.9441C4.18772 28.1694 4.44866 28.7981 4.2233 29.3437C4.164 29.486 4.1047 29.6402 4.04539 29.7825C3.87934 30.2095 3.47608 30.4704 3.03723 30.4704H3.04909ZM5.95497 24.801C5.75334 24.801 5.55171 24.7417 5.36194 24.6231C4.86378 24.291 4.72146 23.6268 5.05356 23.1286C5.14844 22.9863 5.24333 22.844 5.33821 22.7016C5.67032 22.2035 6.34638 22.0849 6.83267 22.417C7.31896 22.7491 7.44943 23.4251 7.11733 23.9114C7.0343 24.0419 6.93942 24.1724 6.85639 24.3028C6.65476 24.6231 6.3108 24.7891 5.95497 24.7891V24.801ZM9.99949 19.8788C9.71483 19.8788 9.44204 19.772 9.22854 19.5585C8.81342 19.1315 8.81342 18.4555 9.2404 18.0285C9.35901 17.9099 9.47762 17.7913 9.60809 17.6727C10.0351 17.2575 10.723 17.2813 11.1263 17.7083C11.5414 18.1352 11.5177 18.8232 11.0907 19.2264C10.9721 19.3332 10.8653 19.4399 10.7467 19.5585C10.5332 19.7602 10.2604 19.8669 9.98763 19.8669L9.99949 19.8788ZM14.9929 15.9173C14.637 15.9173 14.2812 15.7394 14.0796 15.4191C13.7594 14.921 13.9135 14.2449 14.4117 13.9365C14.554 13.8416 14.6964 13.7586 14.8387 13.6637C15.3487 13.3554 16.0129 13.5095 16.3213 14.0196C16.6297 14.5296 16.4755 15.1938 15.9655 15.5022C15.835 15.5852 15.6927 15.6682 15.5622 15.7512C15.3843 15.8698 15.1826 15.9173 14.9929 15.9173ZM20.7098 13.1063C20.2709 13.1063 19.8558 12.8335 19.7016 12.3946C19.5 11.8372 19.7846 11.2204 20.3421 11.0069C20.4963 10.9476 20.6623 10.8883 20.8165 10.8409C21.374 10.6511 21.9907 10.9476 22.1924 11.5051C22.3821 12.0625 22.0856 12.6793 21.5281 12.8809C21.374 12.9284 21.2316 12.9877 21.0774 13.0351C20.9588 13.0826 20.8284 13.1063 20.7098 13.1063ZM39.9953 12.703C39.8886 12.703 39.7819 12.6912 39.6751 12.6556C39.5209 12.6081 39.3786 12.5607 39.2244 12.5132C38.6551 12.3472 38.3348 11.7423 38.5009 11.173C38.6669 10.6037 39.2718 10.2834 39.8412 10.4495C40.0072 10.4969 40.1614 10.5444 40.3274 10.6037C40.8968 10.7816 41.2051 11.3865 41.0272 11.9558C40.8849 12.4184 40.4579 12.703 39.9953 12.703ZM26.9011 11.5881C26.3673 11.5881 25.9048 11.1967 25.8336 10.6511C25.7506 10.0581 26.1657 9.51247 26.7587 9.44131C26.9248 9.41759 27.0908 9.39386 27.2688 9.382C27.8618 9.31083 28.3955 9.73783 28.4667 10.3309C28.5379 10.9239 28.1109 11.4576 27.5178 11.5288C27.3636 11.5525 27.2095 11.5644 27.0434 11.5881C26.996 11.5881 26.9485 11.5881 26.9011 11.5881ZM33.7566 11.4458C33.7566 11.4458 33.6854 11.4458 33.6498 11.4458C33.4957 11.4339 33.3415 11.422 33.1754 11.4102C32.5824 11.3627 32.1317 10.8527 32.1791 10.2478C32.2266 9.6548 32.7484 9.21595 33.3415 9.25153C33.5075 9.26339 33.6854 9.27525 33.8515 9.29897C34.4445 9.35828 34.8834 9.88016 34.8241 10.4732C34.7766 11.0307 34.3022 11.4458 33.7566 11.4458Z" fill="#141C21" stroke="#494A52" stroke-width="10" mask="url(#path-11-inside-6_29283_10782)"/>
</svg>
