<svg width="94" height="55" viewBox="0 0 94 55" fill="none" xmlns="http://www.w3.org/2000/svg">
<mask id="path-1-inside-1_29283_10718" fill="white">
<path d="M13.4553 29.6566H0.656633C0.298462 29.6566 0 29.3581 0 29V6.76944C0 6.41126 0.298462 6.11279 0.656633 6.11279H13.4553C13.8135 6.11279 14.1119 6.41126 14.1119 6.76944C14.1119 7.12761 13.8135 7.42609 13.4553 7.42609H1.32522V28.3433H13.4553C13.8135 28.3433 14.1119 28.6418 14.1119 29C14.1119 29.3581 13.8135 29.6566 13.4553 29.6566Z"/>
</mask>
<path d="M13.4553 29.6566H0.656633C0.298462 29.6566 0 29.3581 0 29V6.76944C0 6.41126 0.298462 6.11279 0.656633 6.11279H13.4553C13.8135 6.11279 14.1119 6.41126 14.1119 6.76944C14.1119 7.12761 13.8135 7.42609 13.4553 7.42609H1.32522V28.3433H13.4553C13.8135 28.3433 14.1119 28.6418 14.1119 29C14.1119 29.3581 13.8135 29.6566 13.4553 29.6566Z" fill="#141C21"/>
<path d="M1.32522 7.42609V2.42609H-3.67478V7.42609H1.32522ZM1.32522 28.3433H-3.67478V33.3433H1.32522V28.3433ZM13.4553 24.6566H0.656633V34.6566H13.4553V24.6566ZM0.656633 24.6566C3.06007 24.6566 5 26.5969 5 29H-5C-5 32.1194 -2.46314 34.6566 0.656633 34.6566V24.6566ZM5 29V6.76944H-5V29H5ZM5 6.76944C5 9.1726 3.05998 11.1128 0.656633 11.1128V1.11279C-2.46305 1.11279 -5 3.64993 -5 6.76944H5ZM0.656633 11.1128H13.4553V1.11279H0.656633V11.1128ZM13.4553 11.1128C11.0521 11.1128 9.11195 9.17278 9.11195 6.76944H19.1119C19.1119 3.64975 16.5748 1.11279 13.4553 1.11279V11.1128ZM9.11195 6.76944C9.11195 4.36618 11.052 2.42609 13.4553 2.42609V12.4261C16.5749 12.4261 19.1119 9.88903 19.1119 6.76944H9.11195ZM13.4553 2.42609H1.32522V12.4261H13.4553V2.42609ZM-3.67478 7.42609V28.3433H6.32522V7.42609H-3.67478ZM1.32522 33.3433H13.4553V23.3433H1.32522V33.3433ZM13.4553 33.3433C11.052 33.3433 9.11195 31.4032 9.11195 29H19.1119C19.1119 25.8804 16.5749 23.3433 13.4553 23.3433V33.3433ZM9.11195 29C9.11195 26.5967 11.052 24.6566 13.4553 24.6566V34.6566C16.5749 34.6566 19.1119 32.1195 19.1119 29H9.11195Z" fill="#494A52" mask="url(#path-1-inside-1_29283_10718)"/>
<mask id="path-3-inside-2_29283_10718" fill="white">
<path d="M13.4553 13.8376H10.0766C9.71838 13.8376 9.41992 13.5392 9.41992 13.181V6.78165C9.41992 6.42348 9.71838 6.125 10.0766 6.125H13.4553C13.8135 6.125 14.112 6.42348 14.112 6.78165V13.181C14.112 13.5392 13.8135 13.8376 13.4553 13.8376ZM10.7332 12.5243H12.7867V7.43829H10.7332V12.5243Z"/>
</mask>
<path d="M13.4553 13.8376H10.0766C9.71838 13.8376 9.41992 13.5392 9.41992 13.181V6.78165C9.41992 6.42348 9.71838 6.125 10.0766 6.125H13.4553C13.8135 6.125 14.112 6.42348 14.112 6.78165V13.181C14.112 13.5392 13.8135 13.8376 13.4553 13.8376ZM10.7332 12.5243H12.7867V7.43829H10.7332V12.5243Z" fill="#141C21"/>
<path d="M10.7332 12.5243H5.73321V17.5243H10.7332V12.5243ZM12.7867 12.5243V17.5243H17.7867V12.5243H12.7867ZM12.7867 7.43829H17.7867V2.43829H12.7867V7.43829ZM10.7332 7.43829V2.43829H5.73321V7.43829H10.7332ZM13.4553 8.83763H10.0766V18.8376H13.4553V8.83763ZM10.0766 8.83763C12.4799 8.83763 14.4199 10.7778 14.4199 13.181H4.41992C4.41992 16.3005 6.95687 18.8376 10.0766 18.8376V8.83763ZM14.4199 13.181V6.78165H4.41992V13.181H14.4199ZM14.4199 6.78165C14.4199 9.18472 12.48 11.125 10.0766 11.125V1.125C6.95678 1.125 4.41992 3.66224 4.41992 6.78165H14.4199ZM10.0766 11.125H13.4553V1.125H10.0766V11.125ZM13.4553 11.125C11.0521 11.125 9.11196 9.1849 9.11196 6.78165H19.112C19.112 3.66206 16.5749 1.125 13.4553 1.125V11.125ZM9.11196 6.78165V13.181H19.112V6.78165H9.11196ZM9.11196 13.181C9.11196 10.7776 11.0521 8.83763 13.4553 8.83763V18.8376C16.5748 18.8376 19.112 16.3007 19.112 13.181H9.11196ZM10.7332 17.5243H12.7867V7.52433H10.7332V17.5243ZM17.7867 12.5243V7.43829H7.78673V12.5243H17.7867ZM12.7867 2.43829H10.7332V12.4383H12.7867V2.43829ZM5.73321 7.43829V12.5243H15.7332V7.43829H5.73321Z" fill="#494A52" mask="url(#path-3-inside-2_29283_10718)"/>
<mask id="path-5-inside-3_29283_10718" fill="white">
<path d="M18.53 46.0251H11.8441C11.08 46.0251 10.4473 45.3924 10.4473 44.6283V41.6674C10.4473 40.8913 11.0681 40.2705 11.8441 40.2705H19.7836C20.1418 40.2705 20.4402 40.569 20.4402 40.9272C20.4402 41.2853 20.1418 41.5838 19.7836 41.5838H11.8441C11.8441 41.5838 11.7606 41.6196 11.7606 41.6674V44.6283C11.7606 44.6283 11.7964 44.7118 11.8441 44.7118H18.53C18.8882 44.7118 19.1866 45.0103 19.1866 45.3685C19.1866 45.7266 18.8882 46.0251 18.53 46.0251Z"/>
</mask>
<path d="M18.53 46.0251H11.8441C11.08 46.0251 10.4473 45.3924 10.4473 44.6283V41.6674C10.4473 40.8913 11.0681 40.2705 11.8441 40.2705H19.7836C20.1418 40.2705 20.4402 40.569 20.4402 40.9272C20.4402 41.2853 20.1418 41.5838 19.7836 41.5838H11.8441C11.8441 41.5838 11.7606 41.6196 11.7606 41.6674V44.6283C11.7606 44.6283 11.7964 44.7118 11.8441 44.7118H18.53C18.8882 44.7118 19.1866 45.0103 19.1866 45.3685C19.1866 45.7266 18.8882 46.0251 18.53 46.0251Z" fill="#141C21"/>
<path d="M11.8441 41.5838V36.5838H10.8177L9.8743 36.9882L11.8441 41.5838ZM11.7606 44.6283H6.76055V45.6547L7.16492 46.5981L11.7606 44.6283ZM18.53 41.0251H11.8441V51.0251H18.53V41.0251ZM11.8441 41.0251C13.8415 41.0251 15.4473 42.6309 15.4473 44.6283H5.44727C5.44727 48.1538 8.31861 51.0251 11.8441 51.0251V41.0251ZM15.4473 44.6283V41.6674H5.44727V44.6283H15.4473ZM15.4473 41.6674C15.4473 43.6528 13.8295 45.2705 11.8441 45.2705V35.2705C8.30667 35.2705 5.44727 38.1299 5.44727 41.6674H15.4473ZM11.8441 45.2705H19.7836V35.2705H11.8441V45.2705ZM19.7836 45.2705C17.3803 45.2705 15.4402 43.3304 15.4402 40.9272H25.4402C25.4402 37.8076 22.9032 35.2705 19.7836 35.2705V45.2705ZM15.4402 40.9272C15.4402 38.5237 17.3805 36.5838 19.7836 36.5838V46.5838C22.903 46.5838 25.4402 44.0469 25.4402 40.9272H15.4402ZM19.7836 36.5838H11.8441V46.5838H19.7836V36.5838ZM11.8441 41.5838C9.8743 36.9882 9.87322 36.9886 9.87213 36.9891C9.87177 36.9893 9.87068 36.9897 9.86995 36.99C9.8685 36.9907 9.86703 36.9913 9.86557 36.9919C9.86263 36.9932 9.85967 36.9945 9.85668 36.9958C9.85071 36.9983 9.84464 37.001 9.83847 37.0037C9.82613 37.0091 9.81336 37.0147 9.80019 37.0206C9.77391 37.0324 9.7457 37.0453 9.7158 37.0593C9.65666 37.0871 9.58747 37.1209 9.51086 37.1611C9.36966 37.235 9.14823 37.3589 8.89607 37.5391C8.67081 37.7 8.24129 38.0316 7.82688 38.5644C7.41909 39.0887 6.76055 40.1573 6.76055 41.6674H16.7606C16.7606 43.1536 16.1125 44.1998 15.7203 44.7039C15.3216 45.2166 14.913 45.5303 14.7086 45.6763C14.4774 45.8415 14.2768 45.9534 14.1513 46.0192C14.0825 46.0552 14.0198 46.0859 13.9653 46.1115C13.9377 46.1245 13.9113 46.1366 13.8862 46.1478C13.8736 46.1534 13.8613 46.1588 13.8493 46.1641C13.8433 46.1667 13.8374 46.1693 13.8315 46.1719C13.8285 46.1732 13.8256 46.1744 13.8227 46.1757C13.8212 46.1763 13.8198 46.1769 13.8183 46.1776C13.8176 46.1779 13.8165 46.1783 13.8161 46.1785C13.815 46.179 13.814 46.1794 11.8441 41.5838ZM6.76055 41.6674V44.6283H16.7606V41.6674H6.76055ZM11.7606 44.6283C7.16492 46.5981 7.16539 46.5992 7.16586 46.6003C7.16601 46.6006 7.16648 46.6017 7.16679 46.6024C7.16742 46.6039 7.16805 46.6054 7.16868 46.6068C7.16995 46.6098 7.17122 46.6127 7.17252 46.6157C7.17511 46.6217 7.17775 46.6278 7.18045 46.6339C7.18585 46.6463 7.1915 46.659 7.1974 46.6722C7.20916 46.6985 7.22206 46.7267 7.2361 46.7566C7.26386 46.8157 7.2977 46.8849 7.33783 46.9615C7.4118 47.1027 7.5357 47.3242 7.71582 47.5763C7.87673 47.8016 8.20838 48.2311 8.74118 48.6455C9.26548 49.0533 10.334 49.7118 11.8441 49.7118V39.7118C13.3304 39.7118 14.3765 40.3599 14.8807 40.7521C15.3933 41.1508 15.7071 41.5594 15.853 41.7638C16.0182 41.995 16.1302 42.1956 16.196 42.3211C16.232 42.3899 16.2627 42.4525 16.2883 42.5071C16.3012 42.5347 16.3133 42.5611 16.3245 42.5862C16.3302 42.5987 16.3356 42.611 16.3409 42.6231C16.3435 42.6291 16.3461 42.635 16.3486 42.6409C16.3499 42.6439 16.3512 42.6468 16.3524 42.6497C16.3531 42.6512 16.3537 42.6526 16.3543 42.6541C16.3546 42.6548 16.3551 42.6559 16.3552 42.6563C16.3557 42.6573 16.3562 42.6584 11.7606 44.6283ZM11.8441 49.7118H18.53V39.7118H11.8441V49.7118ZM18.53 49.7118C16.1269 49.7118 14.1866 47.7719 14.1866 45.3685H24.1866C24.1866 42.2487 21.6494 39.7118 18.53 39.7118V49.7118ZM14.1866 45.3685C14.1866 42.9652 16.1267 41.0251 18.53 41.0251V51.0251C21.6496 51.0251 24.1866 48.4881 24.1866 45.3685H14.1866Z" fill="#494A52" mask="url(#path-5-inside-3_29283_10718)"/>
<mask id="path-7-inside-4_29283_10718" fill="white">
<path d="M66.5248 41.5838H34.349C33.9909 41.5838 33.6924 41.2853 33.6924 40.9272C33.6924 40.569 33.9909 40.2705 34.349 40.2705H66.5248C66.883 40.2705 67.1814 40.569 67.1814 40.9272C67.1814 41.2853 66.883 41.5838 66.5248 41.5838Z"/>
</mask>
<path d="M66.5248 41.5838H34.349C33.9909 41.5838 33.6924 41.2853 33.6924 40.9272C33.6924 40.569 33.9909 40.2705 34.349 40.2705H66.5248C66.883 40.2705 67.1814 40.569 67.1814 40.9272C67.1814 41.2853 66.883 41.5838 66.5248 41.5838Z" fill="#141C21"/>
<path d="M66.5248 36.5838H34.349V46.5838H66.5248V36.5838ZM34.349 36.5838C36.7521 36.5838 38.6924 38.5237 38.6924 40.9272H28.6924C28.6924 44.0469 31.2296 46.5838 34.349 46.5838V36.5838ZM38.6924 40.9272C38.6924 43.3304 36.7523 45.2705 34.349 45.2705V35.2705C31.2294 35.2705 28.6924 37.8076 28.6924 40.9272H38.6924ZM34.349 45.2705H66.5248V35.2705H34.349V45.2705ZM66.5248 45.2705C64.1214 45.2705 62.1814 43.3302 62.1814 40.9272H72.1814C72.1814 37.8077 69.6446 35.2705 66.5248 35.2705V45.2705ZM62.1814 40.9272C62.1814 38.5239 64.1215 36.5838 66.5248 36.5838V46.5838C69.6444 46.5838 72.1814 44.0468 72.1814 40.9272H62.1814Z" fill="#494A52" mask="url(#path-7-inside-4_29283_10718)"/>
<mask id="path-9-inside-5_29283_10718" fill="white">
<path d="M92.3013 46.0251H82.3442C81.986 46.0251 81.6875 45.7266 81.6875 45.3685C81.6875 45.0103 81.986 44.7118 82.3442 44.7118H92.3013C92.3013 44.7118 92.3849 44.676 92.3849 44.6283V41.6674C92.3849 41.6674 92.3491 41.5838 92.3013 41.5838H90.6896C90.3314 41.5838 90.0329 41.2853 90.0329 40.9272C90.0329 40.569 90.3314 40.2705 90.6896 40.2705H92.3013C93.0654 40.2705 93.6982 40.9033 93.6982 41.6674V44.6283C93.6982 45.4043 93.0774 46.0251 92.3013 46.0251Z"/>
</mask>
<path d="M92.3013 46.0251H82.3442C81.986 46.0251 81.6875 45.7266 81.6875 45.3685C81.6875 45.0103 81.986 44.7118 82.3442 44.7118H92.3013C92.3013 44.7118 92.3849 44.676 92.3849 44.6283V41.6674C92.3849 41.6674 92.3491 41.5838 92.3013 41.5838H90.6896C90.3314 41.5838 90.0329 41.2853 90.0329 40.9272C90.0329 40.569 90.3314 40.2705 90.6896 40.2705H92.3013C93.0654 40.2705 93.6982 40.9033 93.6982 41.6674V44.6283C93.6982 45.4043 93.0774 46.0251 92.3013 46.0251Z" fill="#141C21"/>
<path d="M92.3013 44.7118V49.7118H93.3278L94.2712 49.3075L92.3013 44.7118ZM92.3849 41.6674H97.3849V40.641L96.9805 39.6975L92.3849 41.6674ZM92.3013 41.0251H82.3442V51.0251H92.3013V41.0251ZM82.3442 41.0251C84.7472 41.0251 86.6875 42.965 86.6875 45.3685H76.6875C76.6875 48.4882 79.2248 51.0251 82.3442 51.0251V41.0251ZM86.6875 45.3685C86.6875 47.7721 84.7471 49.7118 82.3442 49.7118V39.7118C79.2249 39.7118 76.6875 42.2485 76.6875 45.3685H86.6875ZM82.3442 49.7118H92.3013V39.7118H82.3442V49.7118ZM92.3013 44.7118C94.2712 49.3075 94.2723 49.307 94.2733 49.3065C94.2737 49.3064 94.2748 49.3059 94.2755 49.3056C94.277 49.305 94.2784 49.3043 94.2799 49.3037C94.2828 49.3024 94.2858 49.3012 94.2888 49.2999C94.2948 49.2973 94.3008 49.2946 94.307 49.2919C94.3193 49.2865 94.3321 49.2809 94.3453 49.275C94.3716 49.2632 94.3998 49.2503 94.4297 49.2363C94.4888 49.2085 94.558 49.1747 94.6346 49.1346C94.7758 49.0606 94.9972 48.9367 95.2494 48.7566C95.4747 48.5957 95.9042 48.264 96.3186 47.7312C96.7264 47.2069 97.3849 46.1384 97.3849 44.6283H87.3849C87.3849 43.142 88.033 42.0959 88.4251 41.5917C88.8239 41.0791 89.2325 40.7653 89.4369 40.6193C89.6681 40.4542 89.8687 40.3422 89.9942 40.2764C90.063 40.2404 90.1256 40.2097 90.1802 40.1841C90.2078 40.1712 90.2342 40.1591 90.2593 40.1479C90.2718 40.1422 90.2841 40.1368 90.2961 40.1315C90.3022 40.1289 90.3081 40.1263 90.314 40.1238C90.317 40.1225 90.3199 40.1212 90.3228 40.12C90.3243 40.1193 90.3257 40.1187 90.3272 40.1181C90.3279 40.1178 90.329 40.1173 90.3293 40.1171C90.3304 40.1167 90.3315 40.1162 92.3013 44.7118ZM97.3849 44.6283V41.6674H87.3849V44.6283H97.3849ZM92.3849 41.6674C96.9805 39.6975 96.9801 39.6965 96.9796 39.6954C96.9795 39.695 96.979 39.6939 96.9787 39.6932C96.9781 39.6917 96.9774 39.6903 96.9768 39.6888C96.9755 39.6859 96.9742 39.6829 96.9729 39.6799C96.9704 39.674 96.9677 39.6679 96.965 39.6617C96.9596 39.6494 96.954 39.6366 96.9481 39.6234C96.9363 39.5971 96.9234 39.5689 96.9094 39.539C96.8816 39.4799 96.8478 39.4107 96.8076 39.3341C96.7337 39.1929 96.6098 38.9715 96.4296 38.7193C96.2687 38.4941 95.9371 38.0645 95.4043 37.6501C94.88 37.2423 93.8114 36.5838 92.3013 36.5838V46.5838C90.8151 46.5838 89.7689 45.9357 89.2648 45.5436C88.7521 45.1448 88.4384 44.7362 88.2924 44.5319C88.1272 44.3006 88.0153 44.1001 87.9495 43.9745C87.9135 43.9058 87.8828 43.8431 87.8572 43.7885C87.8442 43.7609 87.8322 43.7345 87.8209 43.7094C87.8153 43.6969 87.8099 43.6846 87.8046 43.6726C87.802 43.6665 87.7994 43.6606 87.7968 43.6547C87.7956 43.6518 87.7943 43.6488 87.793 43.6459C87.7924 43.6445 87.7918 43.643 87.7912 43.6415C87.7908 43.6408 87.7904 43.6397 87.7902 43.6394C87.7898 43.6383 87.7893 43.6372 92.3849 41.6674ZM92.3013 36.5838H90.6896V46.5838H92.3013V36.5838ZM90.6896 36.5838C93.0928 36.5838 95.0329 38.5239 95.0329 40.9272H85.0329C85.0329 44.0468 87.57 46.5838 90.6896 46.5838V36.5838ZM95.0329 40.9272C95.0329 43.3302 93.093 45.2705 90.6896 45.2705V35.2705C87.5698 35.2705 85.0329 37.8077 85.0329 40.9272H95.0329ZM90.6896 45.2705H92.3013V35.2705H90.6896V45.2705ZM92.3013 45.2705C90.3039 45.2705 88.6982 43.6646 88.6982 41.6674H98.6982C98.6982 38.1419 95.8269 35.2705 92.3013 35.2705V45.2705ZM88.6982 41.6674V44.6283H98.6982V41.6674H88.6982ZM88.6982 44.6283C88.6982 42.643 90.3159 41.0251 92.3013 41.0251V51.0251C95.8389 51.0251 98.6982 48.1656 98.6982 44.6283H88.6982Z" fill="#494A52" mask="url(#path-9-inside-5_29283_10718)"/>
<mask id="path-11-inside-6_29283_10718" fill="white">
<path d="M65.2707 46.0252H35.5902C35.2321 46.0252 34.9336 45.7267 34.9336 45.3685C34.9336 45.0104 35.2321 44.7119 35.5902 44.7119H65.2707C65.6289 44.7119 65.9274 45.0104 65.9274 45.3685C65.9274 45.7267 65.6289 46.0252 65.2707 46.0252Z"/>
</mask>
<path d="M65.2707 46.0252H35.5902C35.2321 46.0252 34.9336 45.7267 34.9336 45.3685C34.9336 45.0104 35.2321 44.7119 35.5902 44.7119H65.2707C65.6289 44.7119 65.9274 45.0104 65.9274 45.3685C65.9274 45.7267 65.6289 46.0252 65.2707 46.0252Z" fill="#141C21"/>
<path d="M65.2707 41.0252H35.5902V51.0252H65.2707V41.0252ZM35.5902 41.0252C37.9935 41.0252 39.9336 42.9653 39.9336 45.3685H29.9336C29.9336 48.4881 32.4706 51.0252 35.5902 51.0252V41.0252ZM39.9336 45.3685C39.9336 47.772 37.9933 49.7119 35.5902 49.7119V39.7119C32.4708 39.7119 29.9336 42.2488 29.9336 45.3685H39.9336ZM35.5902 49.7119H65.2707V39.7119H35.5902V49.7119ZM65.2707 49.7119C62.8678 49.7119 60.9274 47.7722 60.9274 45.3685H70.9274C70.9274 42.2486 68.3899 39.7119 65.2707 39.7119V49.7119ZM60.9274 45.3685C60.9274 42.9651 62.8676 41.0252 65.2707 41.0252V51.0252C68.3901 51.0252 70.9274 48.4883 70.9274 45.3685H60.9274Z" fill="#494A52" mask="url(#path-11-inside-6_29283_10718)"/>
<mask id="path-13-inside-7_29283_10718" fill="white">
<path d="M90.7013 41.5839H81.2813C80.9232 41.5839 80.6247 41.2854 80.6247 40.9272C80.6247 40.5691 80.9232 40.2706 81.2813 40.2706H90.0446V39.017C90.0446 33.1191 89.3641 31.567 88.1224 28.7374L87.8717 28.1763C85.2332 22.0993 79.7412 9.45587 72.936 9.45587H60.1492V40.2706H66.1904C66.5486 40.2706 66.847 40.5691 66.847 40.9272C66.847 41.2854 66.5486 41.5839 66.1904 41.5839H59.4926C59.1344 41.5839 58.8359 41.2854 58.8359 40.9272V8.79923C58.8359 8.44106 59.1344 8.14258 59.4926 8.14258H72.9479C80.6247 8.14258 86.1406 20.8338 89.1014 27.651L89.3402 28.2121C90.6057 31.1014 91.3699 32.8445 91.3699 39.017V40.9272C91.3699 41.2854 91.0714 41.5839 90.7132 41.5839H90.7013Z"/>
</mask>
<path d="M90.7013 41.5839H81.2813C80.9232 41.5839 80.6247 41.2854 80.6247 40.9272C80.6247 40.5691 80.9232 40.2706 81.2813 40.2706H90.0446V39.017C90.0446 33.1191 89.3641 31.567 88.1224 28.7374L87.8717 28.1763C85.2332 22.0993 79.7412 9.45587 72.936 9.45587H60.1492V40.2706H66.1904C66.5486 40.2706 66.847 40.5691 66.847 40.9272C66.847 41.2854 66.5486 41.5839 66.1904 41.5839H59.4926C59.1344 41.5839 58.8359 41.2854 58.8359 40.9272V8.79923C58.8359 8.44106 59.1344 8.14258 59.4926 8.14258H72.9479C80.6247 8.14258 86.1406 20.8338 89.1014 27.651L89.3402 28.2121C90.6057 31.1014 91.3699 32.8445 91.3699 39.017V40.9272C91.3699 41.2854 91.0714 41.5839 90.7132 41.5839H90.7013Z" fill="#141C21"/>
<path d="M90.0446 40.2706V45.2706H95.0446V40.2706H90.0446ZM88.1224 28.7374L92.701 26.7283L92.6943 26.713L92.6875 26.6978L88.1224 28.7374ZM87.8717 28.1763L83.2854 30.1676L83.2959 30.1918L83.3066 30.2159L87.8717 28.1763ZM60.1492 9.45587V4.45587H55.1492V9.45587H60.1492ZM60.1492 40.2706H55.1492V45.2706H60.1492V40.2706ZM89.1014 27.651L93.7023 25.6934L93.695 25.6762L93.6876 25.6591L89.1014 27.651ZM89.3402 28.2121L84.7394 30.1697L84.7497 30.194L84.7603 30.2182L89.3402 28.2121ZM90.7013 36.5839H81.2813V46.5839H90.7013V36.5839ZM81.2813 36.5839C83.6846 36.5839 85.6247 38.524 85.6247 40.9272H75.6247C75.6247 44.0468 78.1617 46.5839 81.2813 46.5839V36.5839ZM85.6247 40.9272C85.6247 43.3303 83.6848 45.2706 81.2813 45.2706V35.2706C78.1616 35.2706 75.6247 37.8078 75.6247 40.9272H85.6247ZM81.2813 45.2706H90.0446V35.2706H81.2813V45.2706ZM95.0446 40.2706V39.017H85.0446V40.2706H95.0446ZM95.0446 39.017C95.0446 35.9087 94.8692 33.638 94.4324 31.6524C93.9874 29.6294 93.3097 28.1154 92.701 26.7283L83.5439 30.7466C84.1768 32.189 84.4602 32.8659 84.6659 33.8008C84.8798 34.773 85.0446 36.2274 85.0446 39.017H95.0446ZM92.6875 26.6978L92.4368 26.1367L83.3066 30.2159L83.5574 30.7771L92.6875 26.6978ZM92.4581 26.185C91.1623 23.2005 88.9748 18.1362 86.1561 13.8084C84.7458 11.6432 83.0315 9.42891 80.9993 7.7094C78.9741 5.99586 76.2469 4.45587 72.936 4.45587V14.4559C73.0277 14.4559 73.5389 14.4963 74.5399 15.3433C75.5339 16.1844 76.6334 17.5107 77.7767 19.266C80.0649 22.7793 81.9427 27.0751 83.2854 30.1676L92.4581 26.185ZM72.936 4.45587H60.1492V14.4559H72.936V4.45587ZM55.1492 9.45587V40.2706H65.1492V9.45587H55.1492ZM60.1492 45.2706H66.1904V35.2706H60.1492V45.2706ZM66.1904 45.2706C63.787 45.2706 61.847 43.3303 61.847 40.9272H71.847C71.847 37.8078 69.3102 35.2706 66.1904 35.2706V45.2706ZM61.847 40.9272C61.847 38.524 63.7871 36.5839 66.1904 36.5839V46.5839C69.31 46.5839 71.847 44.0468 71.847 40.9272H61.847ZM66.1904 36.5839H59.4926V46.5839H66.1904V36.5839ZM59.4926 36.5839C61.8958 36.5839 63.8359 38.524 63.8359 40.9272H53.8359C53.8359 44.0468 56.373 46.5839 59.4926 46.5839V36.5839ZM63.8359 40.9272V8.79923H53.8359V40.9272H63.8359ZM63.8359 8.79923C63.8359 11.2023 61.896 13.1426 59.4926 13.1426V3.14258C56.3728 3.14258 53.8359 5.67981 53.8359 8.79923H63.8359ZM59.4926 13.1426H72.9479V3.14258H59.4926V13.1426ZM72.9479 13.1426C73.4149 13.1426 74.1384 13.322 75.197 14.1574C76.2795 15.0114 77.4458 16.35 78.645 18.1319C81.0565 21.7153 83.0061 26.1679 84.5153 29.6429L93.6876 25.6591C92.2359 22.3169 89.9472 17.0153 86.9413 12.5488C85.4318 10.3058 83.5947 8.04539 81.3913 6.30684C79.1642 4.54953 76.3193 3.14258 72.9479 3.14258V13.1426ZM84.5006 29.6086L84.7394 30.1697L93.941 26.2545L93.7023 25.6934L84.5006 29.6086ZM84.7603 30.2182C85.4027 31.6848 85.7185 32.4341 85.9491 33.47C86.1868 34.5375 86.3699 36.1109 86.3699 39.017H96.3699C96.3699 35.7506 96.1709 33.3661 95.7101 31.2967C95.2423 29.1956 94.5433 27.6287 93.9201 26.206L84.7603 30.2182ZM86.3699 39.017V40.9272H96.3699V39.017H86.3699ZM86.3699 40.9272C86.3699 38.5236 88.3103 36.5839 90.7132 36.5839V46.5839C93.8324 46.5839 96.3699 44.0472 96.3699 40.9272H86.3699ZM90.7132 36.5839H90.7013V46.5839H90.7132V36.5839Z" fill="#494A52" mask="url(#path-13-inside-7_29283_10718)"/>
<mask id="path-15-inside-8_29283_10718" fill="white">
<path d="M59.4806 41.5837H34.3488C33.9907 41.5837 33.6922 41.2853 33.6922 40.9271C33.6922 40.5689 33.9907 40.2704 34.3488 40.2704H58.8239V1.31329H14.1121V40.2704H19.4728C19.8309 40.2704 20.1294 40.5689 20.1294 40.9271C20.1294 41.2853 19.8309 41.5837 19.4728 41.5837H13.4555C13.0973 41.5837 12.7988 41.2853 12.7988 40.9271V0.656642C12.7988 0.298471 13.0973 0 13.4555 0H59.4925C59.8506 0 60.1491 0.298471 60.1491 0.656642V40.9271C60.1491 41.2853 59.8506 41.5837 59.4925 41.5837H59.4806Z"/>
</mask>
<path d="M59.4806 41.5837H34.3488C33.9907 41.5837 33.6922 41.2853 33.6922 40.9271C33.6922 40.5689 33.9907 40.2704 34.3488 40.2704H58.8239V1.31329H14.1121V40.2704H19.4728C19.8309 40.2704 20.1294 40.5689 20.1294 40.9271C20.1294 41.2853 19.8309 41.5837 19.4728 41.5837H13.4555C13.0973 41.5837 12.7988 41.2853 12.7988 40.9271V0.656642C12.7988 0.298471 13.0973 0 13.4555 0H59.4925C59.8506 0 60.1491 0.298471 60.1491 0.656642V40.9271C60.1491 41.2853 59.8506 41.5837 59.4925 41.5837H59.4806Z" fill="#141C21"/>
<path d="M58.8239 40.2704V45.2704H63.8239V40.2704H58.8239ZM58.8239 1.31329H63.8239V-3.68671H58.8239V1.31329ZM14.1121 1.31329V-3.68671H9.11213V1.31329H14.1121ZM14.1121 40.2704H9.11213V45.2704H14.1121V40.2704ZM59.4806 36.5837H34.3488V46.5837H59.4806V36.5837ZM34.3488 36.5837C36.7519 36.5837 38.6922 38.5236 38.6922 40.9271H28.6922C28.6922 44.0469 31.2294 46.5837 34.3488 46.5837V36.5837ZM38.6922 40.9271C38.6922 43.3303 36.7521 45.2704 34.3488 45.2704V35.2704C31.2292 35.2704 28.6922 37.8075 28.6922 40.9271H38.6922ZM34.3488 45.2704H58.8239V35.2704H34.3488V45.2704ZM63.8239 40.2704V1.31329H53.8239V40.2704H63.8239ZM58.8239 -3.68671H14.1121V6.31329H58.8239V-3.68671ZM9.11213 1.31329V40.2704H19.1121V1.31329H9.11213ZM14.1121 45.2704H19.4728V35.2704H14.1121V45.2704ZM19.4728 45.2704C17.0693 45.2704 15.1294 43.3302 15.1294 40.9271H25.1294C25.1294 37.8077 22.5925 35.2704 19.4728 35.2704V45.2704ZM15.1294 40.9271C15.1294 38.5238 17.0695 36.5837 19.4728 36.5837V46.5837C22.5924 46.5837 25.1294 44.0467 25.1294 40.9271H15.1294ZM19.4728 36.5837H13.4555V46.5837H19.4728V36.5837ZM13.4555 36.5837C15.8586 36.5837 17.7988 38.5236 17.7988 40.9271H7.79883C7.79883 44.0469 10.3361 46.5837 13.4555 46.5837V36.5837ZM17.7988 40.9271V0.656642H7.79883V40.9271H17.7988ZM17.7988 0.656642C17.7988 3.05998 15.8586 5 13.4555 5V-5C10.336 -5 7.79883 -2.46304 7.79883 0.656642H17.7988ZM13.4555 5H59.4925V-5H13.4555V5ZM59.4925 5C57.0895 5 55.1491 3.06016 55.1491 0.656642H65.1491C65.1491 -2.46322 62.6118 -5 59.4925 -5V5ZM55.1491 0.656642V40.9271H65.1491V0.656642H55.1491ZM55.1491 40.9271C55.1491 38.5235 57.0896 36.5837 59.4925 36.5837V46.5837C62.6117 46.5837 65.1491 44.047 65.1491 40.9271H55.1491ZM59.4925 36.5837H59.4806V46.5837H59.4925V36.5837Z" fill="#494A52" mask="url(#path-15-inside-8_29283_10718)"/>
<mask id="path-17-inside-9_29283_10718" fill="white">
<path d="M45.2375 37.4528C45.142 37.4528 45.0465 37.429 44.9629 37.3932C44.7241 37.2857 44.5809 37.0469 44.5809 36.7962V35.3277H14.0766C13.7184 35.3277 13.4199 35.0292 13.4199 34.671C13.4199 34.3129 13.7184 34.0144 14.0766 34.0144H44.9629C45.1539 33.9308 45.3688 33.9308 45.5599 34.0383C45.7748 34.1577 45.9061 34.3726 45.9061 34.6113V35.3754L49.0222 32.7011L45.9061 30.0268V30.7909C45.9061 31.0416 45.7628 31.2684 45.5479 31.3759C45.3569 31.4714 45.142 31.4714 44.951 31.3759H14.0885C13.7303 31.3759 13.4319 31.0774 13.4319 30.7192C13.4319 30.3611 13.7303 30.0626 14.0885 30.0626H44.5928V28.5941C44.5928 28.3314 44.748 28.1046 44.9748 27.9971C45.2136 27.8897 45.4763 27.9255 45.6792 28.0926L50.4549 32.1997C50.5981 32.319 50.6817 32.5101 50.6817 32.7011C50.6817 32.8921 50.5981 33.0712 50.4549 33.2025L45.6792 37.3096C45.5598 37.417 45.4046 37.4648 45.2494 37.4648L45.2375 37.4528Z"/>
</mask>
<path d="M45.2375 37.4528C45.142 37.4528 45.0465 37.429 44.9629 37.3932C44.7241 37.2857 44.5809 37.0469 44.5809 36.7962V35.3277H14.0766C13.7184 35.3277 13.4199 35.0292 13.4199 34.671C13.4199 34.3129 13.7184 34.0144 14.0766 34.0144H44.9629C45.1539 33.9308 45.3688 33.9308 45.5599 34.0383C45.7748 34.1577 45.9061 34.3726 45.9061 34.6113V35.3754L49.0222 32.7011L45.9061 30.0268V30.7909C45.9061 31.0416 45.7628 31.2684 45.5479 31.3759C45.3569 31.4714 45.142 31.4714 44.951 31.3759H14.0885C13.7303 31.3759 13.4319 31.0774 13.4319 30.7192C13.4319 30.3611 13.7303 30.0626 14.0885 30.0626H44.5928V28.5941C44.5928 28.3314 44.748 28.1046 44.9748 27.9971C45.2136 27.8897 45.4763 27.9255 45.6792 28.0926L50.4549 32.1997C50.5981 32.319 50.6817 32.5101 50.6817 32.7011C50.6817 32.8921 50.5981 33.0712 50.4549 33.2025L45.6792 37.3096C45.5598 37.417 45.4046 37.4648 45.2494 37.4648L45.2375 37.4528Z" fill="#141C21"/>
<path d="M45.2375 37.4528L48.7703 33.9146L47.3063 32.4528H45.2375V37.4528ZM44.9629 37.3932L42.9111 41.9528L42.952 41.9712L42.9933 41.9889L44.9629 37.3932ZM44.5809 35.3277H49.5809V30.3277H44.5809V35.3277ZM44.9629 34.0144V39.0144H46.0088L46.967 38.5952L44.9629 34.0144ZM45.5599 34.0383L43.1086 38.3962L43.1201 38.4026L43.1317 38.4091L45.5599 34.0383ZM45.9061 35.3754H40.9061V46.2556L49.1624 39.1697L45.9061 35.3754ZM49.0222 32.7011L52.2785 36.4953L56.6995 32.7011L52.2785 28.9068L49.0222 32.7011ZM45.9061 30.0268L49.1624 26.2325L40.9061 19.1467V30.0268H45.9061ZM44.951 31.3759L47.187 26.9037L46.1313 26.3759H44.951V31.3759ZM44.5928 30.0626V35.0626H49.5928V30.0626H44.5928ZM44.9748 27.9971L42.923 23.4375L42.8785 23.4575L42.8344 23.4784L44.9748 27.9971ZM45.6792 28.0926L48.9394 24.3017L48.899 24.2669L48.8578 24.233L45.6792 28.0926ZM50.4549 32.1997L47.1947 35.9906L47.2241 36.0159L47.2539 36.0408L50.4549 32.1997ZM50.4549 33.2025L53.715 36.9935L53.7751 36.9418L53.8335 36.8883L50.4549 33.2025ZM45.6792 37.3096L42.419 33.5186L42.3763 33.5554L42.3344 33.5931L45.6792 37.3096ZM45.2494 37.4648L41.7166 41.003L43.1806 42.4648H45.2494V37.4648ZM45.2375 32.4528C45.9466 32.4528 46.5227 32.6218 46.9325 32.7974L42.9933 41.9889C43.5703 42.2361 44.3373 42.4528 45.2375 42.4528V32.4528ZM47.0147 32.8335C48.6619 33.5748 49.5809 35.1819 49.5809 36.7962H39.5809C39.5809 38.9119 40.7864 40.9966 42.9111 41.9528L47.0147 32.8335ZM49.5809 36.7962V35.3277H39.5809V36.7962H49.5809ZM44.5809 30.3277H14.0766V40.3277H44.5809V30.3277ZM14.0766 30.3277C16.4798 30.3277 18.4199 32.2678 18.4199 34.671H8.41992C8.41992 37.7906 10.957 40.3277 14.0766 40.3277V30.3277ZM18.4199 34.671C18.4199 37.0743 16.4798 39.0144 14.0766 39.0144V29.0144C10.957 29.0144 8.41992 31.5515 8.41992 34.671H18.4199ZM14.0766 39.0144H44.9629V29.0144H14.0766V39.0144ZM46.967 38.5952C45.8635 39.078 44.4162 39.1317 43.1086 38.3962L48.0112 29.6804C46.3215 28.73 44.4444 28.7837 42.9588 29.4336L46.967 38.5952ZM43.1317 38.4091C41.8479 37.6959 40.9061 36.2876 40.9061 34.6113H50.9061C50.9061 32.4575 49.7016 30.6195 47.9881 29.6675L43.1317 38.4091ZM40.9061 34.6113V35.3754H50.9061V34.6113H40.9061ZM49.1624 39.1697L52.2785 36.4953L45.7658 28.9069L42.6497 31.5812L49.1624 39.1697ZM52.2785 28.9068L49.1624 26.2325L42.6497 33.821L45.7659 36.4953L52.2785 28.9068ZM40.9061 30.0268V30.7909H50.9061V30.0268H40.9061ZM40.9061 30.7909C40.9061 29.1502 41.8306 27.6443 43.3119 26.9037L47.784 35.848C49.695 34.8925 50.9061 32.933 50.9061 30.7909H40.9061ZM43.3119 26.9037C44.5285 26.2954 45.9704 26.2954 47.187 26.9037L42.7149 35.848C44.3136 36.6473 46.1853 36.6473 47.784 35.848L43.3119 26.9037ZM44.951 26.3759H14.0885V36.3759H44.951V26.3759ZM14.0885 26.3759C16.4919 26.3759 18.4319 28.3162 18.4319 30.7192H8.43187C8.43187 33.8386 10.9687 36.3759 14.0885 36.3759V26.3759ZM18.4319 30.7192C18.4319 33.1223 16.4919 35.0626 14.0885 35.0626V25.0626C10.9687 25.0626 8.43187 27.5998 8.43187 30.7192H18.4319ZM14.0885 35.0626H44.5928V25.0626H14.0885V35.0626ZM49.5928 30.0626V28.5941H39.5928V30.0626H49.5928ZM49.5928 28.5941C49.5928 30.3701 48.5363 31.8427 47.1153 32.5158L42.8344 23.4784C40.9596 24.3665 39.5928 26.2927 39.5928 28.5941H49.5928ZM47.0267 32.5567C45.5169 33.2361 43.7543 32.9847 42.5007 31.9523L48.8578 24.233C47.1983 22.8663 44.9104 22.5432 42.923 23.4375L47.0267 32.5567ZM42.419 31.8836L47.1947 35.9906L53.715 28.4087L48.9394 24.3017L42.419 31.8836ZM47.2539 36.0408C46.165 35.1333 45.6817 33.8696 45.6817 32.7011H55.6817C55.6817 31.1505 55.0312 29.5048 53.6558 28.3585L47.2539 36.0408ZM45.6817 32.7011C45.6817 31.3937 46.26 30.265 47.0762 29.5168L53.8335 36.8883C54.9362 35.8775 55.6817 34.3906 55.6817 32.7011H45.6817ZM47.1947 29.4116L42.419 33.5186L48.9394 41.1005L53.715 36.9935L47.1947 29.4116ZM42.3344 33.5931C43.2979 32.7259 44.4107 32.4648 45.2494 32.4648V42.4648C46.3986 42.4648 47.8217 42.1081 49.0241 41.026L42.3344 33.5931ZM48.7823 33.9266L48.7703 33.9146L41.7047 40.9911L41.7166 41.003L48.7823 33.9266Z" fill="#494A52" mask="url(#path-17-inside-9_29283_10718)"/>
<mask id="path-19-inside-10_29283_10718" fill="white">
<path d="M83.2995 28.4505H65.2835C64.9253 28.4505 64.6269 28.1521 64.6269 27.7939V13.5267C64.5911 13.4432 64.5791 13.3596 64.5791 13.2641C64.5791 12.9059 64.8776 12.6074 65.2357 12.6074H71.9574C79.0134 12.6074 83.7293 26.9701 83.9323 27.5909C83.992 27.7939 83.9562 28.0088 83.8368 28.1759C83.7174 28.3431 83.5144 28.4505 83.2995 28.4505ZM65.9401 27.1373H82.3802C81.9146 25.8598 80.9237 23.3287 79.5507 20.8334C77.8076 17.6815 75.0735 13.9327 71.9694 13.9327H65.9521V27.1373H65.9401Z"/>
</mask>
<path d="M83.2995 28.4505H65.2835C64.9253 28.4505 64.6269 28.1521 64.6269 27.7939V13.5267C64.5911 13.4432 64.5791 13.3596 64.5791 13.2641C64.5791 12.9059 64.8776 12.6074 65.2357 12.6074H71.9574C79.0134 12.6074 83.7293 26.9701 83.9323 27.5909C83.992 27.7939 83.9562 28.0088 83.8368 28.1759C83.7174 28.3431 83.5144 28.4505 83.2995 28.4505ZM65.9401 27.1373H82.3802C81.9146 25.8598 80.9237 23.3287 79.5507 20.8334C77.8076 17.6815 75.0735 13.9327 71.9694 13.9327H65.9521V27.1373H65.9401Z" fill="#141C21"/>
<path d="M64.6269 13.5267H69.6269V12.5004L69.2226 11.5571L64.6269 13.5267ZM83.9323 27.5909L88.7291 26.1801L88.708 26.1083L88.6848 26.0372L83.9323 27.5909ZM82.3802 27.1373V32.1373H89.5244L87.0779 25.425L82.3802 27.1373ZM79.5507 20.8334L83.9313 18.423L83.9262 18.4137L79.5507 20.8334ZM65.9521 13.9327V8.93266H60.9521V13.9327H65.9521ZM65.9521 27.1373V32.1373H70.9521V27.1373H65.9521ZM83.2995 23.4505H65.2835V33.4505H83.2995V23.4505ZM65.2835 23.4505C67.6868 23.4505 69.6269 25.3907 69.6269 27.7939H59.6269C59.6269 30.9135 62.1639 33.4505 65.2835 33.4505V23.4505ZM69.6269 27.7939V13.5267H59.6269V27.7939H69.6269ZM69.2226 11.5571C69.5318 12.2787 69.5791 12.9145 69.5791 13.2641H59.5791C59.5791 13.8047 59.6503 14.6077 60.0311 15.4963L69.2226 11.5571ZM69.5791 13.2641C69.5791 15.6671 67.6392 17.6074 65.2357 17.6074V7.60742C62.116 7.60742 59.5791 10.1447 59.5791 13.2641H69.5791ZM65.2357 17.6074H71.9574V7.60742H65.2357V17.6074ZM71.9574 17.6074C71.966 17.6074 72.0631 17.605 72.2909 17.7164C72.5377 17.8373 72.8949 18.0731 73.3456 18.4982C74.2756 19.3756 75.2462 20.7167 76.1685 22.3383C78.0007 25.5597 79.1065 28.9203 79.1798 29.1446L88.6848 26.0372C88.5551 25.6407 87.2015 21.5096 84.861 17.3944C83.6969 15.3478 82.1529 13.0594 80.2078 11.2244C78.2836 9.40895 75.4963 7.60742 71.9574 7.60742V17.6074ZM79.1355 29.0018C78.7708 27.7618 78.9753 26.3797 79.7681 25.2698L87.9055 31.0821C88.9371 29.6379 89.2132 27.826 88.7291 26.1801L79.1355 29.0018ZM79.7681 25.2698C80.5822 24.1301 81.8909 23.4505 83.2995 23.4505V33.4505C85.1379 33.4505 86.8526 32.5561 87.9055 31.0821L79.7681 25.2698ZM65.9401 32.1373H82.3802V22.1373H65.9401V32.1373ZM87.0779 25.425C86.571 24.0343 85.4792 21.2362 83.9313 18.423L75.17 23.2438C76.3681 25.4212 77.2582 27.6852 77.6826 28.8495L87.0779 25.425ZM83.9262 18.4137C82.9576 16.6624 81.5897 14.5062 79.8619 12.7224C78.2374 11.0452 75.5513 8.93266 71.9694 8.93266V18.9327C71.4916 18.9327 71.7246 18.6945 72.679 19.6798C73.5299 20.5583 74.4006 21.8526 75.1752 23.2532L83.9262 18.4137ZM71.9694 8.93266H65.9521V18.9327H71.9694V8.93266ZM60.9521 13.9327V27.1373H70.9521V13.9327H60.9521ZM65.9521 22.1373H65.9401V32.1373H65.9521V22.1373Z" fill="#494A52" mask="url(#path-19-inside-10_29283_10718)"/>
<mask id="path-21-inside-11_29283_10718" fill="white">
<path d="M73.8073 54.5619C68.7452 54.5619 64.6143 50.4429 64.6143 45.3688C64.6143 40.2948 68.7332 36.1758 73.8073 36.1758C78.8814 36.1758 83.0004 40.2948 83.0004 45.3688C83.0004 50.4429 78.8814 54.5619 73.8073 54.5619ZM73.8073 37.501C69.4615 37.501 65.9395 41.035 65.9395 45.3808C65.9395 49.7266 69.4735 53.2486 73.8073 53.2486C78.1412 53.2486 81.6871 49.7147 81.6871 45.3808C81.6871 41.0469 78.1532 37.501 73.8073 37.501Z"/>
</mask>
<path d="M73.8073 54.5619C68.7452 54.5619 64.6143 50.4429 64.6143 45.3688C64.6143 40.2948 68.7332 36.1758 73.8073 36.1758C78.8814 36.1758 83.0004 40.2948 83.0004 45.3688C83.0004 50.4429 78.8814 54.5619 73.8073 54.5619ZM73.8073 37.501C69.4615 37.501 65.9395 41.035 65.9395 45.3808C65.9395 49.7266 69.4735 53.2486 73.8073 53.2486C78.1412 53.2486 81.6871 49.7147 81.6871 45.3808C81.6871 41.0469 78.1532 37.501 73.8073 37.501Z" fill="#141C21"/>
<path d="M73.8073 49.5619C71.5024 49.5619 69.6143 47.6773 69.6143 45.3688H59.6143C59.6143 53.2086 65.988 59.5619 73.8073 59.5619V49.5619ZM69.6143 45.3688C69.6143 43.0562 71.4947 41.1758 73.8073 41.1758V31.1758C65.9718 31.1758 59.6143 37.5333 59.6143 45.3688H69.6143ZM73.8073 41.1758C76.12 41.1758 78.0004 43.0562 78.0004 45.3688H88.0004C88.0004 37.5333 81.6429 31.1758 73.8073 31.1758V41.1758ZM78.0004 45.3688C78.0004 47.6815 76.12 49.5619 73.8073 49.5619V59.5619C81.6429 59.5619 88.0004 53.2043 88.0004 45.3688H78.0004ZM73.8073 32.501C66.6903 32.501 60.9395 38.2834 60.9395 45.3808H70.9395C70.9395 43.7866 72.2328 42.501 73.8073 42.501V32.501ZM60.9395 45.3808C60.9395 52.493 66.717 58.2486 73.8073 58.2486V48.2486C72.2299 48.2486 70.9395 46.9602 70.9395 45.3808H60.9395ZM73.8073 58.2486C80.8928 58.2486 86.6871 52.4859 86.6871 45.3808H76.6871C76.6871 46.9434 75.3896 48.2486 73.8073 48.2486V58.2486ZM86.6871 45.3808C86.6871 38.2905 80.9195 32.501 73.8073 32.501V42.501C75.3868 42.501 76.6871 43.8034 76.6871 45.3808H86.6871Z" fill="#494A52" mask="url(#path-21-inside-11_29283_10718)"/>
<mask id="path-23-inside-12_29283_10718" fill="white">
<path d="M73.8073 51.1712C70.6076 51.1712 68.0049 48.5685 68.0049 45.3688C68.0049 42.1691 70.6076 39.5664 73.8073 39.5664C77.0069 39.5664 79.6096 42.1691 79.6096 45.3688C79.6096 48.5685 77.0069 51.1712 73.8073 51.1712ZM73.8073 40.8797C71.3359 40.8797 69.3182 42.8974 69.3182 45.3688C69.3182 47.8402 71.3359 49.8579 73.8073 49.8579C76.2787 49.8579 78.2963 47.8402 78.2963 45.3688C78.2963 42.8974 76.2787 40.8797 73.8073 40.8797Z"/>
</mask>
<path d="M73.8073 51.1712C70.6076 51.1712 68.0049 48.5685 68.0049 45.3688C68.0049 42.1691 70.6076 39.5664 73.8073 39.5664C77.0069 39.5664 79.6096 42.1691 79.6096 45.3688C79.6096 48.5685 77.0069 51.1712 73.8073 51.1712ZM73.8073 40.8797C71.3359 40.8797 69.3182 42.8974 69.3182 45.3688C69.3182 47.8402 71.3359 49.8579 73.8073 49.8579C76.2787 49.8579 78.2963 47.8402 78.2963 45.3688C78.2963 42.8974 76.2787 40.8797 73.8073 40.8797Z" fill="#141C21"/>
<path d="M73.8073 46.1712C73.369 46.1712 73.0049 45.807 73.0049 45.3688H63.0049C63.0049 51.3299 67.8462 56.1712 73.8073 56.1712V46.1712ZM73.0049 45.3688C73.0049 44.9306 73.369 44.5664 73.8073 44.5664V34.5664C67.8462 34.5664 63.0049 39.4077 63.0049 45.3688H73.0049ZM73.8073 44.5664C74.2455 44.5664 74.6096 44.9305 74.6096 45.3688H84.6096C84.6096 39.4077 79.7684 34.5664 73.8073 34.5664V44.5664ZM74.6096 45.3688C74.6096 45.8071 74.2455 46.1712 73.8073 46.1712V56.1712C79.7684 56.1712 84.6096 51.3299 84.6096 45.3688H74.6096ZM73.8073 35.8797C68.5745 35.8797 64.3182 40.136 64.3182 45.3688H74.3182C74.3182 45.521 74.2512 45.6534 74.1715 45.733C74.0918 45.8127 73.9595 45.8797 73.8073 45.8797V35.8797ZM64.3182 45.3688C64.3182 50.6016 68.5745 54.8579 73.8073 54.8579V44.8579C73.9595 44.8579 74.0918 44.9249 74.1715 45.0046C74.2512 45.0842 74.3182 45.2165 74.3182 45.3688H64.3182ZM73.8073 54.8579C79.0401 54.8579 83.2963 50.6015 83.2963 45.3688H73.2963C73.2963 45.2166 73.3634 45.0843 73.443 45.0046C73.5227 44.9249 73.655 44.8579 73.8073 44.8579V54.8579ZM83.2963 45.3688C83.2963 40.136 79.0401 35.8797 73.8073 35.8797V45.8797C73.655 45.8797 73.5227 45.8127 73.443 45.733C73.3634 45.6533 73.2963 45.521 73.2963 45.3688H83.2963Z" fill="#494A52" mask="url(#path-23-inside-12_29283_10718)"/>
<path d="M73.8066 46.4907C74.4275 46.4907 74.9287 45.9895 74.9287 45.3687C74.9286 44.7479 74.4274 44.2466 73.8066 44.2466M73.8066 46.4907V44.2466M73.8066 46.4907C73.1859 46.4906 72.6846 45.9894 72.6846 45.3687C72.6847 44.748 73.186 44.2467 73.8066 44.2466M73.8066 46.4907V44.2466" fill="#141C21" stroke="#494A52" stroke-width="5"/>
<mask id="path-26-inside-13_29283_10718" fill="white">
<path d="M27.0671 54.5619C22.005 54.5619 17.874 50.4429 17.874 45.3688C17.874 40.2948 21.993 36.1758 27.0671 36.1758C32.1412 36.1758 36.2602 40.2948 36.2602 45.3688C36.2602 50.4429 32.1412 54.5619 27.0671 54.5619ZM27.0671 37.501C22.7213 37.501 19.1993 41.035 19.1993 45.3808C19.1993 49.7266 22.7332 53.2486 27.0671 53.2486C31.401 53.2486 34.9469 49.7147 34.9469 45.3808C34.9469 41.0469 31.4129 37.501 27.0671 37.501Z"/>
</mask>
<path d="M27.0671 54.5619C22.005 54.5619 17.874 50.4429 17.874 45.3688C17.874 40.2948 21.993 36.1758 27.0671 36.1758C32.1412 36.1758 36.2602 40.2948 36.2602 45.3688C36.2602 50.4429 32.1412 54.5619 27.0671 54.5619ZM27.0671 37.501C22.7213 37.501 19.1993 41.035 19.1993 45.3808C19.1993 49.7266 22.7332 53.2486 27.0671 53.2486C31.401 53.2486 34.9469 49.7147 34.9469 45.3808C34.9469 41.0469 31.4129 37.501 27.0671 37.501Z" fill="#141C21"/>
<path d="M27.0671 49.5619C24.7621 49.5619 22.874 47.6773 22.874 45.3688H12.874C12.874 53.2086 19.2478 59.5619 27.0671 59.5619V49.5619ZM22.874 45.3688C22.874 43.0562 24.7544 41.1758 27.0671 41.1758V31.1758C19.2316 31.1758 12.874 37.5333 12.874 45.3688H22.874ZM27.0671 41.1758C29.3798 41.1758 31.2602 43.0562 31.2602 45.3688H41.2602C41.2602 37.5333 34.9026 31.1758 27.0671 31.1758V41.1758ZM31.2602 45.3688C31.2602 47.6815 29.3798 49.5619 27.0671 49.5619V59.5619C34.9026 59.5619 41.2602 53.2044 41.2602 45.3688H31.2602ZM27.0671 32.501C19.95 32.501 14.1993 38.2834 14.1993 45.3808H24.1993C24.1993 43.7865 25.4926 42.501 27.0671 42.501V32.501ZM14.1993 45.3808C14.1993 52.493 19.9768 58.2486 27.0671 58.2486V48.2486C25.4897 48.2486 24.1993 46.9602 24.1993 45.3808H14.1993ZM27.0671 58.2486C34.1525 58.2486 39.9469 52.486 39.9469 45.3808H29.9469C29.9469 46.9434 28.6494 48.2486 27.0671 48.2486V58.2486ZM39.9469 45.3808C39.9469 38.2904 34.1793 32.501 27.0671 32.501V42.501C28.6466 42.501 29.9469 43.8034 29.9469 45.3808H39.9469Z" fill="#494A52" mask="url(#path-26-inside-13_29283_10718)"/>
<mask id="path-28-inside-14_29283_10718" fill="white">
<path d="M27.067 51.1712C23.8674 51.1712 21.2646 48.5685 21.2646 45.3688C21.2646 42.1691 23.8674 39.5664 27.067 39.5664C30.2667 39.5664 32.8694 42.1691 32.8694 45.3688C32.8694 48.5685 30.2667 51.1712 27.067 51.1712ZM27.067 40.8797C24.5956 40.8797 22.5779 42.8974 22.5779 45.3688C22.5779 47.8402 24.5956 49.8579 27.067 49.8579C29.5384 49.8579 31.5561 47.8402 31.5561 45.3688C31.5561 42.8974 29.5384 40.8797 27.067 40.8797Z"/>
</mask>
<path d="M27.067 51.1712C23.8674 51.1712 21.2646 48.5685 21.2646 45.3688C21.2646 42.1691 23.8674 39.5664 27.067 39.5664C30.2667 39.5664 32.8694 42.1691 32.8694 45.3688C32.8694 48.5685 30.2667 51.1712 27.067 51.1712ZM27.067 40.8797C24.5956 40.8797 22.5779 42.8974 22.5779 45.3688C22.5779 47.8402 24.5956 49.8579 27.067 49.8579C29.5384 49.8579 31.5561 47.8402 31.5561 45.3688C31.5561 42.8974 29.5384 40.8797 27.067 40.8797Z" fill="#141C21"/>
<path d="M27.067 46.1712C26.6288 46.1712 26.2646 45.807 26.2646 45.3688H16.2646C16.2646 51.3299 21.1059 56.1712 27.067 56.1712V46.1712ZM26.2646 45.3688C26.2646 44.9305 26.6288 44.5664 27.067 44.5664V34.5664C21.1059 34.5664 16.2646 39.4077 16.2646 45.3688H26.2646ZM27.067 44.5664C27.5053 44.5664 27.8694 44.9305 27.8694 45.3688H37.8694C37.8694 39.4077 33.0281 34.5664 27.067 34.5664V44.5664ZM27.8694 45.3688C27.8694 45.807 27.5053 46.1712 27.067 46.1712V56.1712C33.0281 56.1712 37.8694 51.3299 37.8694 45.3688H27.8694ZM27.067 35.8797C21.8342 35.8797 17.5779 40.136 17.5779 45.3688H27.5779C27.5779 45.521 27.5109 45.6534 27.4312 45.733C27.3516 45.8127 27.2193 45.8797 27.067 45.8797V35.8797ZM17.5779 45.3688C17.5779 50.6016 21.8342 54.8579 27.067 54.8579V44.8579C27.2193 44.8579 27.3516 44.9249 27.4312 45.0046C27.5109 45.0842 27.5779 45.2165 27.5779 45.3688H17.5779ZM27.067 54.8579C32.2999 54.8579 36.5561 50.6016 36.5561 45.3688H26.5561C26.5561 45.2165 26.6231 45.0842 26.7028 45.0046C26.7825 44.9249 26.9148 44.8579 27.067 44.8579V54.8579ZM36.5561 45.3688C36.5561 40.136 32.2998 35.8797 27.067 35.8797V45.8797C26.9148 45.8797 26.7825 45.8127 26.7028 45.733C26.6231 45.6533 26.5561 45.521 26.5561 45.3688H36.5561Z" fill="#494A52" mask="url(#path-28-inside-14_29283_10718)"/>
<path d="M27.0674 46.4907C27.6882 46.4907 28.1895 45.9895 28.1895 45.3687C28.1894 44.7868 27.7386 44.31 27.1807 44.2524L27.0674 44.2466M27.0674 46.4907V44.2466M27.0674 46.4907L26.9521 46.4849C26.3871 46.4273 25.957 45.9505 25.957 45.3687C25.9571 44.7479 26.4586 44.2466 27.0674 44.2466M27.0674 46.4907V44.2466" fill="#141C21" stroke="#494A52" stroke-width="5"/>
<mask id="path-31-inside-15_29283_10718" fill="white">
<path d="M90.6776 38.1929H84.5648C83.7888 38.1929 83.168 37.5601 83.168 36.796V34.3246C83.168 33.5486 83.8007 32.9277 84.5648 32.9277H90.3791C90.7015 32.9277 90.9761 33.1665 91.0238 33.4889C91.2029 34.5992 91.2985 35.9125 91.3343 37.5243C91.3343 37.7034 91.2746 37.8705 91.1432 38.0018C91.0119 38.1332 90.8448 38.2048 90.6776 38.2048V38.1929ZM84.5648 34.241C84.5648 34.241 84.4812 34.2768 84.4812 34.3246V36.796C84.4812 36.796 84.5171 36.8796 84.5648 36.8796H90.009C89.9732 35.8886 89.9016 35.0171 89.8061 34.253H84.5648V34.241Z"/>
</mask>
<path d="M90.6776 38.1929H84.5648C83.7888 38.1929 83.168 37.5601 83.168 36.796V34.3246C83.168 33.5486 83.8007 32.9277 84.5648 32.9277H90.3791C90.7015 32.9277 90.9761 33.1665 91.0238 33.4889C91.2029 34.5992 91.2985 35.9125 91.3343 37.5243C91.3343 37.7034 91.2746 37.8705 91.1432 38.0018C91.0119 38.1332 90.8448 38.2048 90.6776 38.2048V38.1929ZM84.5648 34.241C84.5648 34.241 84.4812 34.2768 84.4812 34.3246V36.796C84.4812 36.796 84.5171 36.8796 84.5648 36.8796H90.009C89.9732 35.8886 89.9016 35.0171 89.8061 34.253H84.5648V34.241Z" fill="#141C21"/>
<path d="M90.6776 38.1929H95.6776V33.1929H90.6776V38.1929ZM91.0238 33.4889L86.0778 34.2216L86.0825 34.2534L86.0876 34.285L91.0238 33.4889ZM91.3343 37.5243H96.3343V37.4687L96.333 37.4132L91.3343 37.5243ZM90.6776 38.2048H85.6776V43.2048H90.6776V38.2048ZM84.5648 34.241H89.5648V26.6594L82.5958 29.645L84.5648 34.241ZM84.4812 36.796H79.4812V37.8226L79.8858 38.7662L84.4812 36.796ZM90.009 36.8796V41.8796H95.193L95.0058 36.699L90.009 36.8796ZM89.8061 34.253L94.7675 33.6328L94.22 29.253H89.8061V34.253ZM84.5648 34.253H79.5648V39.253H84.5648V34.253ZM90.6776 33.1929H84.5648V43.1929H90.6776V33.1929ZM84.5648 33.1929C86.5781 33.1929 88.168 34.8266 88.168 36.796H78.168C78.168 40.2936 80.9995 43.1929 84.5648 43.1929V33.1929ZM88.168 36.796V34.3246H78.168V36.796H88.168ZM88.168 34.3246C88.168 36.3377 86.5344 37.9277 84.5648 37.9277V27.9277C81.0671 27.9277 78.168 30.7595 78.168 34.3246H88.168ZM84.5648 37.9277H90.3791V27.9277H84.5648V37.9277ZM90.3791 37.9277C88.1862 37.9277 86.3879 36.3143 86.0778 34.2216L95.9699 32.7561C95.5643 30.0188 93.2168 27.9277 90.3791 27.9277V37.9277ZM86.0876 34.285C86.2157 35.0789 86.3023 36.1394 86.3355 37.6354L96.333 37.4132C96.2947 35.6856 96.1902 34.1195 95.9601 32.6927L86.0876 34.285ZM86.3343 37.5243C86.3343 36.5386 86.6931 35.3809 87.6077 34.4663L94.6788 41.5374C95.856 40.3601 96.3343 38.8681 96.3343 37.5243H86.3343ZM87.6077 34.4663C88.3271 33.7469 89.4005 33.2048 90.6776 33.2048V43.2048C92.289 43.2048 93.6968 42.5194 94.6788 41.5374L87.6077 34.4663ZM95.6776 38.2048V38.1929H85.6776V38.2048H95.6776ZM84.5648 34.241C82.5958 29.645 82.5947 29.6455 82.5937 29.646C82.5933 29.6461 82.5922 29.6466 82.5915 29.6469C82.59 29.6475 82.5886 29.6482 82.5871 29.6488C82.5842 29.6501 82.5812 29.6513 82.5782 29.6526C82.5722 29.6552 82.5662 29.6579 82.56 29.6606C82.5476 29.666 82.5349 29.6716 82.5217 29.6775C82.4954 29.6893 82.4672 29.7022 82.4373 29.7162C82.3781 29.744 82.3089 29.7778 82.2323 29.8179C82.0911 29.8919 81.8696 30.0158 81.6173 30.1959C81.392 30.3568 80.9624 30.6884 80.5478 31.2213C80.1398 31.7458 79.4812 32.8144 79.4812 34.3246H89.4812C89.4812 35.8109 88.8331 36.8572 88.4408 37.3615C88.0419 37.8742 87.6331 38.188 87.4287 38.3339C87.1974 38.4991 86.9968 38.6111 86.8712 38.6768C86.8024 38.7129 86.7397 38.7435 86.6852 38.7691C86.6575 38.7821 86.6311 38.7942 86.6061 38.8054C86.5935 38.811 86.5812 38.8164 86.5692 38.8217C86.5632 38.8243 86.5572 38.8269 86.5513 38.8295C86.5484 38.8308 86.5454 38.832 86.5425 38.8333C86.5411 38.8339 86.5396 38.8345 86.5381 38.8352C86.5374 38.8355 86.5363 38.8359 86.536 38.8361C86.5349 38.8366 86.5338 38.837 84.5648 34.241ZM79.4812 34.3246V36.796H89.4812V34.3246H79.4812ZM84.4812 36.796C79.8858 38.7662 79.8862 38.7673 79.8867 38.7684C79.8869 38.7687 79.8873 38.7698 79.8876 38.7705C79.8883 38.772 79.8889 38.7735 79.8895 38.7749C79.8908 38.7779 79.8921 38.7808 79.8934 38.7838C79.8959 38.7898 79.8986 38.7959 79.9013 38.802C79.9067 38.8144 79.9124 38.8271 79.9182 38.8403C79.93 38.8666 79.9429 38.8948 79.957 38.9247C79.9847 38.9838 80.0186 39.053 80.0587 39.1297C80.1327 39.2709 80.2566 39.4923 80.4368 39.7445C80.5978 39.9697 80.9295 40.3992 81.4623 40.8136C81.9866 41.2213 83.0551 41.8796 84.5648 41.8796V31.8796C86.0507 31.8796 87.0967 32.5274 87.6009 32.9195C88.1136 33.3181 88.4274 33.7267 88.5734 33.9311C88.7387 34.1624 88.8507 34.3629 88.9164 34.4884C88.9525 34.5572 88.9832 34.6199 89.0088 34.6745C89.0217 34.7021 89.0338 34.7285 89.045 34.7536C89.0507 34.7661 89.0561 34.7784 89.0614 34.7904C89.064 34.7965 89.0666 34.8024 89.0692 34.8083C89.0704 34.8112 89.0717 34.8142 89.073 34.8171C89.0736 34.8186 89.0742 34.82 89.0748 34.8215C89.0752 34.8222 89.0756 34.8233 89.0758 34.8236C89.0762 34.8247 89.0767 34.8258 84.4812 36.796ZM84.5648 41.8796H90.009V31.8796H84.5648V41.8796ZM95.0058 36.699C94.9651 35.5741 94.8828 34.5552 94.7675 33.6328L84.8447 34.8731C84.9204 35.4789 84.9813 36.2031 85.0123 37.0602L95.0058 36.699ZM89.8061 29.253H84.5648V39.253H89.8061V29.253ZM89.5648 34.253V34.241H79.5648V34.253H89.5648Z" fill="#494A52" mask="url(#path-31-inside-15_29283_10718)"/>
<mask id="path-33-inside-16_29283_10718" fill="white">
<path d="M69.6409 32.3309H65.4144C65.0563 32.3309 64.7578 32.0324 64.7578 31.6742C64.7578 31.3161 65.0563 31.0176 65.4144 31.0176H69.6409C69.9991 31.0176 70.2976 31.3161 70.2976 31.6742C70.2976 32.0324 69.9991 32.3309 69.6409 32.3309Z"/>
</mask>
<path d="M69.6409 32.3309H65.4144C65.0563 32.3309 64.7578 32.0324 64.7578 31.6742C64.7578 31.3161 65.0563 31.0176 65.4144 31.0176H69.6409C69.9991 31.0176 70.2976 31.3161 70.2976 31.6742C70.2976 32.0324 69.9991 32.3309 69.6409 32.3309Z" fill="#141C21"/>
<path d="M69.6409 27.3309H65.4144V37.3309H69.6409V27.3309ZM65.4144 27.3309C67.8177 27.3309 69.7578 29.271 69.7578 31.6742H59.7578C59.7578 34.7938 62.2949 37.3309 65.4144 37.3309V27.3309ZM69.7578 31.6742C69.7578 34.0773 67.8179 36.0176 65.4144 36.0176V26.0176C62.2947 26.0176 59.7578 28.5548 59.7578 31.6742H69.7578ZM65.4144 36.0176H69.6409V26.0176H65.4144V36.0176ZM69.6409 36.0176C67.2378 36.0176 65.2976 34.0777 65.2976 31.6742H75.2976C75.2976 28.5545 72.7603 26.0176 69.6409 26.0176V36.0176ZM65.2976 31.6742C65.2976 29.2706 67.238 27.3309 69.6409 27.3309V37.3309C72.7601 37.3309 75.2976 34.7942 75.2976 31.6742H65.2976Z" fill="#494A52" mask="url(#path-33-inside-16_29283_10718)"/>
<mask id="path-35-inside-17_29283_10718" fill="white">
<path d="M39.6619 27.0185H21.9682C21.61 27.0185 21.3115 26.72 21.3115 26.3618V5.98185C21.3115 5.62368 21.61 5.3252 21.9682 5.3252H39.6619C40.02 5.3252 40.3185 5.62368 40.3185 5.98185V26.3618C40.3185 26.72 40.02 27.0185 39.6619 27.0185ZM22.6248 25.7052H39.0052V6.63849H22.6248V25.7052Z"/>
</mask>
<path d="M39.6619 27.0185H21.9682C21.61 27.0185 21.3115 26.72 21.3115 26.3618V5.98185C21.3115 5.62368 21.61 5.3252 21.9682 5.3252H39.6619C40.02 5.3252 40.3185 5.62368 40.3185 5.98185V26.3618C40.3185 26.72 40.02 27.0185 39.6619 27.0185ZM22.6248 25.7052H39.0052V6.63849H22.6248V25.7052Z" fill="#141C21"/>
<path d="M22.6248 25.7052H17.6248V30.7052H22.6248V25.7052ZM39.0052 25.7052V30.7052H44.0052V25.7052H39.0052ZM39.0052 6.63849H44.0052V1.63849H39.0052V6.63849ZM22.6248 6.63849V1.63849H17.6248V6.63849H22.6248ZM39.6619 22.0185H21.9682V32.0185H39.6619V22.0185ZM21.9682 22.0185C24.3714 22.0185 26.3115 23.9585 26.3115 26.3618H16.3115C16.3115 29.4814 18.8486 32.0185 21.9682 32.0185V22.0185ZM26.3115 26.3618V5.98185H16.3115V26.3618H26.3115ZM26.3115 5.98185C26.3115 8.3851 24.3714 10.3252 21.9682 10.3252V0.325195C18.8486 0.325195 16.3115 2.86225 16.3115 5.98185H26.3115ZM21.9682 10.3252H39.6619V0.325195H21.9682V10.3252ZM39.6619 10.3252C37.2584 10.3252 35.3185 8.38492 35.3185 5.98185H45.3185C45.3185 2.86243 42.7816 0.325195 39.6619 0.325195V10.3252ZM35.3185 5.98185V26.3618H45.3185V5.98185H35.3185ZM35.3185 26.3618C35.3185 23.9587 37.2584 22.0185 39.6619 22.0185V32.0185C42.7816 32.0185 45.3185 29.4812 45.3185 26.3618H35.3185ZM22.6248 30.7052H39.0052V20.7052H22.6248V30.7052ZM44.0052 25.7052V6.63849H34.0052V25.7052H44.0052ZM39.0052 1.63849H22.6248V11.6385H39.0052V1.63849ZM17.6248 6.63849V25.7052H27.6248V6.63849H17.6248Z" fill="#494A52" mask="url(#path-35-inside-17_29283_10718)"/>
<mask id="path-37-inside-18_29283_10718" fill="white">
<path d="M32.2124 13.2405H28.3442C27.986 13.2405 27.6875 12.942 27.6875 12.5839V5.96964C27.6875 5.61147 27.986 5.31299 28.3442 5.31299H32.2124C32.5706 5.31299 32.8691 5.61147 32.8691 5.96964V12.5839C32.8691 12.942 32.5706 13.2405 32.2124 13.2405ZM29.0008 11.9272H31.5438V6.63822H29.0008V11.9272Z"/>
</mask>
<path d="M32.2124 13.2405H28.3442C27.986 13.2405 27.6875 12.942 27.6875 12.5839V5.96964C27.6875 5.61147 27.986 5.31299 28.3442 5.31299H32.2124C32.5706 5.31299 32.8691 5.61147 32.8691 5.96964V12.5839C32.8691 12.942 32.5706 13.2405 32.2124 13.2405ZM29.0008 11.9272H31.5438V6.63822H29.0008V11.9272Z" fill="#141C21"/>
<path d="M29.0008 11.9272H24.0008V16.9272H29.0008V11.9272ZM31.5438 11.9272V16.9272H36.5438V11.9272H31.5438ZM31.5438 6.63822H36.5438V1.63822H31.5438V6.63822ZM29.0008 6.63822V1.63822H24.0008V6.63822H29.0008ZM32.2124 8.24052H28.3442V18.2405H32.2124V8.24052ZM28.3442 8.24052C30.7473 8.24052 32.6875 10.1805 32.6875 12.5839H22.6875C22.6875 15.7036 25.2246 18.2405 28.3442 18.2405V8.24052ZM32.6875 12.5839V5.96964H22.6875V12.5839H32.6875ZM32.6875 5.96964C32.6875 8.37289 30.7474 10.313 28.3442 10.313V0.312988C25.2246 0.312988 22.6875 2.85004 22.6875 5.96964H32.6875ZM28.3442 10.313H32.2124V0.312988H28.3442V10.313ZM32.2124 10.313C29.8092 10.313 27.8691 8.37289 27.8691 5.96964H37.8691C37.8691 2.85004 35.332 0.312988 32.2124 0.312988V10.313ZM27.8691 5.96964V12.5839H37.8691V5.96964H27.8691ZM27.8691 12.5839C27.8691 10.1805 29.8092 8.24052 32.2124 8.24052V18.2405C35.3319 18.2405 37.8691 15.7036 37.8691 12.5839H27.8691ZM29.0008 16.9272H31.5438V6.92723H29.0008V16.9272ZM36.5438 11.9272V6.63822H26.5438V11.9272H36.5438ZM31.5438 1.63822H29.0008V11.6382H31.5438V1.63822ZM24.0008 6.63822V11.9272H34.0008V6.63822H24.0008Z" fill="#494A52" mask="url(#path-37-inside-18_29283_10718)"/>
<mask id="path-39-inside-19_29283_10718" fill="white">
<path d="M50.9798 27.0179H39.6616C39.3034 27.0179 39.0049 26.7194 39.0049 26.3613V14.267C39.0049 13.9088 39.3034 13.6104 39.6616 13.6104H50.9798C51.3379 13.6104 51.6364 13.9088 51.6364 14.267V26.3613C51.6364 26.7194 51.3379 27.0179 50.9798 27.0179ZM40.3182 25.7046H50.3231V14.9236H40.3182V25.7046Z"/>
</mask>
<path d="M50.9798 27.0179H39.6616C39.3034 27.0179 39.0049 26.7194 39.0049 26.3613V14.267C39.0049 13.9088 39.3034 13.6104 39.6616 13.6104H50.9798C51.3379 13.6104 51.6364 13.9088 51.6364 14.267V26.3613C51.6364 26.7194 51.3379 27.0179 50.9798 27.0179ZM40.3182 25.7046H50.3231V14.9236H40.3182V25.7046Z" fill="#141C21"/>
<path d="M40.3182 25.7046H35.3182V30.7046H40.3182V25.7046ZM50.3231 25.7046V30.7046H55.3231V25.7046H50.3231ZM50.3231 14.9236H55.3231V9.92365H50.3231V14.9236ZM40.3182 14.9236V9.92365H35.3182V14.9236H40.3182ZM50.9798 22.0179H39.6616V32.0179H50.9798V22.0179ZM39.6616 22.0179C42.0646 22.0179 44.0049 23.9578 44.0049 26.3613H34.0049C34.0049 29.481 36.5421 32.0179 39.6616 32.0179V22.0179ZM44.0049 26.3613V14.267H34.0049V26.3613H44.0049ZM44.0049 14.267C44.0049 16.6705 42.0645 18.6104 39.6616 18.6104V8.61035C36.5422 8.61035 34.0049 11.1471 34.0049 14.267H44.0049ZM39.6616 18.6104H50.9798V8.61035H39.6616V18.6104ZM50.9798 18.6104C48.5768 18.6104 46.6364 16.6705 46.6364 14.267H56.6364C56.6364 11.1471 54.0991 8.61035 50.9798 8.61035V18.6104ZM46.6364 14.267V26.3613H56.6364V14.267H46.6364ZM46.6364 26.3613C46.6364 23.9578 48.5767 22.0179 50.9798 22.0179V32.0179C54.0992 32.0179 56.6364 29.481 56.6364 26.3613H46.6364ZM40.3182 30.7046H50.3231V20.7046H40.3182V30.7046ZM55.3231 25.7046V14.9236H45.3231V25.7046H55.3231ZM50.3231 9.92365H40.3182V19.9236H50.3231V9.92365ZM35.3182 14.9236V25.7046H45.3182V14.9236H35.3182Z" fill="#494A52" mask="url(#path-39-inside-19_29283_10718)"/>
<mask id="path-41-inside-20_29283_10718" fill="white">
<path d="M47.1115 14.9237H39.6616C39.3034 14.9237 39.0049 14.6252 39.0049 14.2671V9.28849C39.0049 8.93032 39.3034 8.63184 39.6616 8.63184H47.1115C47.4697 8.63184 47.7681 8.93032 47.7681 9.28849V14.2671C47.7681 14.6252 47.4697 14.9237 47.1115 14.9237ZM40.3182 13.6104H46.4429V9.94514H40.3182V13.6104Z"/>
</mask>
<path d="M47.1115 14.9237H39.6616C39.3034 14.9237 39.0049 14.6252 39.0049 14.2671V9.28849C39.0049 8.93032 39.3034 8.63184 39.6616 8.63184H47.1115C47.4697 8.63184 47.7681 8.93032 47.7681 9.28849V14.2671C47.7681 14.6252 47.4697 14.9237 47.1115 14.9237ZM40.3182 13.6104H46.4429V9.94514H40.3182V13.6104Z" fill="#141C21"/>
<path d="M40.3182 13.6104H35.3182V18.6104H40.3182V13.6104ZM46.4429 13.6104V18.6104H51.4429V13.6104H46.4429ZM46.4429 9.94514H51.4429V4.94514H46.4429V9.94514ZM40.3182 9.94514V4.94514H35.3182V9.94514H40.3182ZM47.1115 9.92372H39.6616V19.9237H47.1115V9.92372ZM39.6616 9.92372C42.0646 9.92372 44.0049 11.8636 44.0049 14.2671H34.0049C34.0049 17.3868 36.5421 19.9237 39.6616 19.9237V9.92372ZM44.0049 14.2671V9.28849H34.0049V14.2671H44.0049ZM44.0049 9.28849C44.0049 11.6919 42.0646 13.6318 39.6616 13.6318V3.63184C36.5421 3.63184 34.0049 6.16871 34.0049 9.28849H44.0049ZM39.6616 13.6318H47.1115V3.63184H39.6616V13.6318ZM47.1115 13.6318C44.7081 13.6318 42.7681 11.6916 42.7681 9.28849H52.7681C52.7681 6.16907 50.2313 3.63184 47.1115 3.63184V13.6318ZM42.7681 9.28849V14.2671H52.7681V9.28849H42.7681ZM42.7681 14.2671C42.7681 11.864 44.7081 9.92372 47.1115 9.92372V19.9237C50.2313 19.9237 52.7681 17.3865 52.7681 14.2671H42.7681ZM40.3182 18.6104H46.4429V8.61043H40.3182V18.6104ZM51.4429 13.6104V9.94514H41.4429V13.6104H51.4429ZM46.4429 4.94514H40.3182V14.9451H46.4429V4.94514ZM35.3182 9.94514V13.6104H45.3182V9.94514H35.3182Z" fill="#494A52" mask="url(#path-41-inside-20_29283_10718)"/>
<mask id="path-43-inside-21_29283_10718" fill="white">
<path d="M71.4078 26.4451C71.2406 26.4451 71.0734 26.3854 70.9421 26.2541C70.6795 25.9914 70.6795 25.5855 70.9421 25.3228L76.5177 19.7473C76.7803 19.4846 77.1863 19.4846 77.4489 19.7473C77.7116 20.0099 77.7116 20.4159 77.4489 20.6785L71.8734 26.2541C71.742 26.3854 71.5749 26.4451 71.4078 26.4451Z"/>
</mask>
<path d="M71.4078 26.4451C71.2406 26.4451 71.0734 26.3854 70.9421 26.2541C70.6795 25.9914 70.6795 25.5855 70.9421 25.3228L76.5177 19.7473C76.7803 19.4846 77.1863 19.4846 77.4489 19.7473C77.7116 20.0099 77.7116 20.4159 77.4489 20.6785L71.8734 26.2541C71.742 26.3854 71.5749 26.4451 71.4078 26.4451Z" fill="#141C21"/>
<path d="M70.9421 25.3228L67.4066 21.7873L67.4066 21.7873L70.9421 25.3228ZM76.5177 19.7473L80.0532 23.2828L80.0532 23.2828L76.5177 19.7473ZM77.4489 20.6785L80.9844 24.2141L80.9844 24.2141L77.4489 20.6785ZM71.8734 26.2541L68.3378 22.7185L68.3378 22.7185L71.8734 26.2541ZM71.4078 21.4451C72.4531 21.4451 73.5939 21.8348 74.4776 22.7185L67.4066 29.7896C68.553 30.936 70.0281 31.4451 71.4078 31.4451V21.4451ZM74.4776 22.7185C76.1676 24.4085 76.1676 27.1684 74.4776 28.8584L67.4066 21.7873C65.1913 24.0026 65.1913 27.5743 67.4066 29.7896L74.4776 22.7185ZM74.4776 28.8584L80.0532 23.2828L72.9821 16.2117L67.4066 21.7873L74.4776 28.8584ZM80.0532 23.2828C78.3632 24.9728 75.6033 24.9728 73.9134 23.2828L80.9844 16.2118C78.7692 13.9965 75.1974 13.9965 72.9821 16.2118L80.0532 23.2828ZM73.9134 23.2828C72.2234 21.5929 72.2234 18.833 73.9134 17.143L80.9844 24.2141C83.1997 21.9988 83.1997 18.427 80.9844 16.2118L73.9134 23.2828ZM73.9134 17.143L68.3378 22.7185L75.4089 29.7896L80.9844 24.2141L73.9134 17.143ZM68.3378 22.7185C69.2214 21.835 70.3621 21.4451 71.4078 21.4451V31.4451C72.7877 31.4451 74.2627 30.9358 75.4089 29.7896L68.3378 22.7185Z" fill="#494A52" mask="url(#path-43-inside-21_29283_10718)"/>
<mask id="path-45-inside-22_29283_10718" fill="white">
<path d="M78.9775 28.4506C78.8104 28.4506 78.6432 28.3909 78.5119 28.2596L73.7243 23.472C73.4617 23.2093 73.4617 22.8034 73.7243 22.5407C73.987 22.2781 74.3929 22.2781 74.6556 22.5407L79.4431 27.3283C79.7058 27.591 79.7058 27.9969 79.4431 28.2596C79.3118 28.3909 79.1447 28.4506 78.9775 28.4506Z"/>
</mask>
<path d="M78.9775 28.4506C78.8104 28.4506 78.6432 28.3909 78.5119 28.2596L73.7243 23.472C73.4617 23.2093 73.4617 22.8034 73.7243 22.5407C73.987 22.2781 74.3929 22.2781 74.6556 22.5407L79.4431 27.3283C79.7058 27.591 79.7058 27.9969 79.4431 28.2596C79.3118 28.3909 79.1447 28.4506 78.9775 28.4506Z" fill="#141C21"/>
<path d="M78.5119 28.2596L74.9763 31.7951L74.9763 31.7951L78.5119 28.2596ZM73.7243 23.472L77.2599 19.9365L77.2599 19.9365L73.7243 23.472ZM74.6556 22.5407L78.1911 19.0052L78.1911 19.0052L74.6556 22.5407ZM79.4431 27.3283L75.9076 30.8638L75.9076 30.8638L79.4431 27.3283ZM78.9775 23.4506C80.0225 23.4506 81.1634 23.84 82.0474 24.724L74.9763 31.7951C76.123 32.9417 77.5983 33.4506 78.9775 33.4506V23.4506ZM82.0474 24.724L77.2599 19.9365L70.1888 27.0075L74.9763 31.7951L82.0474 24.724ZM77.2599 19.9365C78.9498 21.6264 78.9498 24.3863 77.2599 26.0763L70.1888 19.0052C67.9735 21.2205 67.9735 24.7922 70.1888 27.0075L77.2599 19.9365ZM77.2599 26.0763C75.5699 27.7662 72.81 27.7662 71.12 26.0763L78.1911 19.0052C75.9758 16.7899 72.4041 16.7899 70.1888 19.0052L77.2599 26.0763ZM71.12 26.0763L75.9076 30.8638L82.9787 23.7928L78.1911 19.0052L71.12 26.0763ZM75.9076 30.8638C74.2176 29.1739 74.2176 26.414 75.9076 24.724L82.9787 31.7951C85.1939 29.5798 85.1939 26.008 82.9787 23.7928L75.9076 30.8638ZM75.9076 24.724C76.7914 23.8402 77.9323 23.4506 78.9775 23.4506V33.4506C80.3571 33.4506 81.8322 32.9416 82.9787 31.7951L75.9076 24.724Z" fill="#494A52" mask="url(#path-45-inside-22_29283_10718)"/>
<mask id="path-47-inside-23_29283_10718" fill="white">
<path d="M44.581 19.5441H41.9067C41.5485 19.5441 41.25 19.2456 41.25 18.8874V14.267C41.25 13.9088 41.5485 13.6104 41.9067 13.6104H44.581C44.9392 13.6104 45.2376 13.9088 45.2376 14.267V18.8874C45.2376 19.2456 44.9392 19.5441 44.581 19.5441ZM42.5633 18.2308H43.9124V14.9236H42.5633V18.2308Z"/>
</mask>
<path d="M44.581 19.5441H41.9067C41.5485 19.5441 41.25 19.2456 41.25 18.8874V14.267C41.25 13.9088 41.5485 13.6104 41.9067 13.6104H44.581C44.9392 13.6104 45.2376 13.9088 45.2376 14.267V18.8874C45.2376 19.2456 44.9392 19.5441 44.581 19.5441ZM42.5633 18.2308H43.9124V14.9236H42.5633V18.2308Z" fill="#141C21"/>
<path d="M42.5633 18.2308H37.5633V23.2308H42.5633V18.2308ZM43.9124 18.2308V23.2308H48.9124V18.2308H43.9124ZM43.9124 14.9236H48.9124V9.92365H43.9124V14.9236ZM42.5633 14.9236V9.92365H37.5633V14.9236H42.5633ZM44.581 14.5441H41.9067V24.5441H44.581V14.5441ZM41.9067 14.5441C44.3097 14.5441 46.25 16.484 46.25 18.8874H36.25C36.25 22.0072 38.7873 24.5441 41.9067 24.5441V14.5441ZM46.25 18.8874V14.267H36.25V18.8874H46.25ZM46.25 14.267C46.25 16.6705 44.3097 18.6104 41.9067 18.6104V8.61035C38.7873 8.61035 36.25 11.1471 36.25 14.267H46.25ZM41.9067 18.6104H44.581V8.61035H41.9067V18.6104ZM44.581 18.6104C42.1777 18.6104 40.2376 16.6702 40.2376 14.267H50.2376C50.2376 11.1475 47.7007 8.61035 44.581 8.61035V18.6104ZM40.2376 14.267V18.8874H50.2376V14.267H40.2376ZM40.2376 18.8874C40.2376 16.4843 42.1776 14.5441 44.581 14.5441V24.5441C47.7008 24.5441 50.2376 22.0068 50.2376 18.8874H40.2376ZM42.5633 23.2308H43.9124V13.2308H42.5633V23.2308ZM48.9124 18.2308V14.9236H38.9124V18.2308H48.9124ZM43.9124 9.92365H42.5633V19.9236H43.9124V9.92365ZM37.5633 14.9236V18.2308H47.5633V14.9236H37.5633Z" fill="#494A52" mask="url(#path-47-inside-23_29283_10718)"/>
</svg>
