<svg width="40" height="40" viewBox="0 0 40 40" fill="none" xmlns="http://www.w3.org/2000/svg">
<path d="M29.9995 26.6647C27.4996 28.3317 24.4733 31.6287 23.333 36.6667M24.9996 32.2287C21.0532 23.3509 29.0141 20.3568 35.0736 20.0239C35.8048 19.9837 36.1704 19.9637 36.433 20.2227C36.6956 20.4817 36.6805 20.8509 36.6502 21.5894C36.3987 27.7299 33.8807 36.1784 24.9996 32.2287Z" stroke="#7ACCC5" stroke-width="2.5" stroke-linecap="round" stroke-linejoin="round"/>
<path d="M18.333 33.3335H10.0347C6.2247 33.3335 4.31972 33.3335 3.5861 32.1093C2.85247 30.8851 3.77052 29.2382 5.60661 25.9444L7.98609 21.6758C9.21816 19.4656 9.83419 18.3605 10.7984 18.334C11.7626 18.3074 12.4401 19.377 13.7951 21.516L14.9639 23.3612" stroke="#494A52" stroke-width="2.5" stroke-linecap="round" stroke-linejoin="round"/>
<path d="M13.333 13.3899L14.9858 10.259C17.4207 5.64645 18.6381 3.34017 20.4878 3.33351C22.3375 3.32685 23.5696 5.62431 26.0337 10.2192L26.4409 10.9787C27.9698 13.8296 28.7342 15.2551 28.1209 16.1417C27.5077 17.0283 26.0036 16.6721 22.9955 15.9598L22.8581 15.9273" stroke="#494A52" stroke-width="2.5" stroke-linecap="round" stroke-linejoin="round"/>
</svg>
