<svg width="186" height="51" viewBox="0 0 186 51" fill="none" xmlns="http://www.w3.org/2000/svg">
<g clip-path="url(#clip0_29246_14986)">
<path d="M159.659 20.7919C159.988 20.3825 160.317 19.9731 160.675 19.5929C162.41 17.7213 164.383 16.1714 166.894 15.4404C170.034 14.5046 173.054 14.7093 175.834 16.5809C177.778 17.8968 179.033 19.7391 179.691 21.9323C180.558 24.8567 180.439 27.7225 179.093 30.5006C178.734 31.2024 178.196 31.8458 177.718 32.4891C177.568 32.6938 177.508 32.8108 177.718 33.0447C179.243 35.0625 180.259 37.2557 180.169 39.8291C180.11 42.344 179.512 44.7127 177.837 46.7013C175.924 49.0115 173.472 50.3567 170.482 50.7661C167.433 51.1755 164.473 50.6783 161.752 49.2162C159.48 47.988 157.835 46.2041 157.267 43.66C156.699 41.0281 157.387 38.7471 159.3 36.8171C159.42 36.7001 159.569 36.6124 159.779 36.4662C159.33 36.0568 159.001 35.7059 158.612 35.3549C158.553 35.2964 158.373 35.3257 158.254 35.3549C156.938 36.0568 155.563 36.4077 154.068 36.2907C153.44 36.2322 152.812 36.0568 152.184 35.9106C152.035 35.8813 151.855 35.7936 151.676 35.7351C151.676 36.2322 151.706 36.7001 151.676 37.168C151.586 38.0453 151.885 38.5132 152.722 38.9811C154.606 39.9753 155.383 41.7007 155.234 43.8062C155.114 45.3268 154.606 46.672 153.47 47.754C152.304 48.8652 150.839 49.2454 149.284 49.2747C147.072 49.3039 144.829 49.3331 142.617 49.3331C141.032 49.3331 139.567 48.953 138.341 47.9002C138.192 47.754 138.042 47.754 137.833 47.8417C135.889 48.6606 133.946 48.719 132.003 47.7833C131.853 47.7248 131.644 47.7248 131.464 47.7833C128.415 48.4851 125.425 48.3974 122.495 47.2276C121.837 46.9644 121.209 46.5843 120.611 46.2334C120.402 46.1164 120.282 46.1164 120.103 46.2919C118.159 48.1927 115.798 49.1577 113.047 49.0115C110.595 48.8653 108.442 47.9587 106.469 46.555C106.11 46.2919 105.752 45.9702 105.393 45.707C104.914 46.3211 104.466 46.9937 103.928 47.5493C102.074 49.5086 99.7718 50.6783 97.051 50.9708C94.5395 51.2339 92.1177 50.9123 89.8155 49.8595C87.2143 48.6898 85.2709 46.906 84.5832 44.0986C83.8956 41.2913 84.6729 38.8641 86.8256 36.9048C86.8854 36.8463 86.9153 36.7878 86.9751 36.7294C86.5864 36.32 86.1679 35.9398 85.8091 35.5304C84.3141 33.805 83.776 31.7873 83.8059 29.594C83.8956 26.1726 85.3008 23.2775 87.3638 20.6164C88.6793 18.9203 89.7258 18.1015 92.4167 16.4346C92.3569 16.3177 92.327 16.1714 92.2672 16.0545C91.3403 13.8612 91.8486 11.4048 93.6724 9.85493C94.8086 8.86067 96.2138 8.48051 97.7088 8.36353C98.9346 8.2758 100.19 8.18808 101.416 8.12959C101.685 8.12959 101.775 8.01262 101.775 7.74943C101.775 6.75516 101.715 5.73165 101.865 4.73739C102.283 1.72535 104.855 -0.175457 108.024 0.116974C110.236 0.321676 111.851 1.37443 112.748 3.3922C113.137 4.2695 113.226 5.23452 113.256 6.1703C113.256 6.55046 113.256 6.95986 113.256 7.36927C113.884 7.34002 114.452 7.31078 115.05 7.2523C116.993 7.10608 118.728 7.57397 120.133 8.9484C122.046 10.8492 122.166 14.2122 120.402 16.2299C119.086 17.7506 117.322 18.3647 115.349 18.4232C114.661 18.4232 113.974 18.4232 113.256 18.4232V29.5063C114.781 29.3016 116.276 29.4186 117.801 30.0327C117.741 29.8572 117.711 29.7403 117.681 29.6233C116.485 24.9151 117.472 20.7334 121.06 17.3119C122.913 15.5573 125.216 14.797 127.787 14.7678C130.926 14.7385 133.617 15.762 135.8 18.0138C136.876 19.125 137.713 20.4117 138.281 21.8446C138.311 21.9323 138.341 22.0201 138.401 22.1078C138.401 22.1078 138.431 22.137 138.401 22.137C139.059 21.9031 139.657 21.6107 140.314 21.4937C140.942 21.3475 141.6 21.3182 142.258 21.3182C143.514 21.3182 144.769 21.3182 146.025 21.3767C146.264 21.3767 146.533 21.3475 146.743 21.4352C147.371 21.6692 147.849 21.4645 148.357 21.1428C150.241 20.0315 152.274 19.3882 154.486 19.3882C156.31 19.3882 158.015 19.7684 159.539 20.7919C159.569 20.7919 159.629 20.8503 159.689 20.8796M138.521 45.4438C138.521 45.4438 138.61 45.5608 138.64 45.6193C139.388 46.9937 140.613 47.637 142.168 47.6663C144.411 47.6663 146.653 47.6663 148.895 47.6663C149.463 47.6663 150.032 47.6078 150.6 47.4908C152.513 47.0522 153.619 45.5023 153.619 43.3968C153.619 41.7592 152.663 40.5017 151.048 40.0338C150.749 39.9461 150.42 39.8876 150.032 39.7999C150.032 37.7821 150.032 35.7643 150.032 33.7173C150.032 33.3372 150.211 32.957 150.301 32.5768C151.407 34.039 152.842 34.7116 154.606 34.7116C156.34 34.7116 157.805 34.0098 159.001 32.7523C159.48 33.6881 160.078 34.4776 160.915 35.0625C161.722 35.6474 162.589 36.1445 163.396 36.6416C163.307 36.6416 163.187 36.7001 163.067 36.7294C160.107 37.5189 158.403 40.2093 159.001 43.1628C159.42 45.1514 160.675 46.555 162.41 47.5786C164.532 48.8068 166.835 49.2162 169.286 49.1284C171.768 49.0407 173.891 48.1342 175.685 46.4673C177.389 44.8882 178.136 42.8997 178.346 40.6479C178.615 37.4897 177.419 34.9455 174.997 32.8693C174.907 32.7815 174.788 32.6938 174.638 32.5768C176.492 31.7288 177.538 30.2666 178.047 28.4536C178.645 26.4065 178.615 24.3595 177.957 22.3417C177.419 20.6164 176.462 19.1835 174.937 18.1307C172.515 16.4639 169.884 16.3469 167.193 17.2534C164.682 18.1015 162.768 19.7683 161.214 21.8446C160.795 22.371 160.436 22.9559 160.078 23.5115C160.078 23.5115 160.018 23.5115 160.018 23.453C158.313 21.289 155.981 20.7919 153.38 21.0843C151.467 21.289 149.792 22.0786 148.238 23.1313C147.909 23.3653 147.64 23.5115 147.251 23.2483C147.072 23.1313 146.862 23.0728 146.653 23.0728C144.859 23.0436 143.065 22.9266 141.271 23.0143C139.268 23.1021 137.773 24.5642 137.624 26.465C137.444 28.4828 138.67 30.2081 140.643 30.7053C140.972 30.793 141.331 30.8222 141.72 30.91C141.779 33.922 141.869 36.9048 141.929 39.8876C141.481 39.9753 141.062 40.0631 140.613 40.1216C140.584 39.9461 140.554 39.7999 140.524 39.6244C140.285 38.2208 139.268 37.168 137.833 36.9341C137.474 36.8756 137.414 36.7586 137.414 36.4369C137.384 32.84 137.354 29.2431 137.295 25.6462C137.295 25.0029 137.235 24.3595 137.115 23.7454C136.248 19.7976 133.169 16.961 129.073 16.4639C125.814 16.0837 123.093 17.1365 121.09 19.7391C119.445 21.8446 118.847 24.2718 118.967 26.9037C119.056 28.8045 119.654 30.5006 120.94 31.9627C121.359 32.4599 121.897 32.8693 122.345 33.3079C121.717 33.7758 121.03 34.2437 120.342 34.7408C119.595 33.1617 118.458 31.9042 116.665 31.3779C114.93 30.8515 113.226 30.9685 111.582 31.875V16.9903C111.791 16.9903 112 16.9318 112.21 16.9318C113.376 16.8733 114.542 16.844 115.678 16.7563C116.306 16.6978 116.964 16.5809 117.532 16.3469C119.266 15.6743 120.193 14.0659 119.983 12.2529C119.804 10.586 118.608 9.29931 116.814 9.00688C115.977 8.86067 115.11 8.9484 114.273 8.97764C113.406 8.97764 112.539 9.06537 111.612 9.12385V8.65596C111.612 7.63246 111.642 6.60895 111.612 5.61468C111.552 4.32798 111.163 3.1875 110.027 2.39794C109.16 1.78383 108.143 1.63762 107.097 1.72535C105.602 1.84232 104.526 2.54415 103.898 3.91858C103.599 4.62041 103.509 5.35149 103.539 6.08257C103.539 7.22305 103.539 8.36353 103.539 9.53326C103.39 9.53326 103.27 9.59174 103.15 9.59174C102.253 9.65023 101.356 9.70872 100.489 9.7672C99.2934 9.85493 98.0975 9.88418 96.9015 10.0889C95.3169 10.3521 94.1209 11.2294 93.7322 12.8377C93.3436 14.4753 93.8219 15.8498 95.1674 16.9025C95.2272 16.961 95.3169 16.9903 95.4066 17.0487C94.689 17.3119 94.0312 17.4874 93.4332 17.7798C91.1011 18.9203 89.2773 20.6164 87.902 22.7804C86.4369 25.0614 85.4802 27.4885 85.5998 30.2374C85.6895 32.1967 86.3771 33.922 87.9618 35.1795C88.6794 35.7351 89.4866 36.1737 90.264 36.6709C90.3537 36.7294 90.4733 36.7878 90.6527 36.8756C90.4733 36.9341 90.3836 36.9633 90.264 36.9925C86.7359 37.8991 85.7493 41.1451 86.2277 43.426C86.6462 45.3853 87.8422 46.789 89.5464 47.8125C91.9682 49.2454 94.5993 49.7133 97.35 49.2454C100.968 48.6605 103.509 46.672 104.675 43.1921C104.765 42.8997 104.855 42.6072 104.944 42.2856C106.648 44.7712 108.323 46.0872 110.864 46.906C114.273 48.0172 117.562 47.0814 119.625 44.4495C119.834 44.1864 120.013 43.9232 120.223 43.6307C121.03 44.5665 122.016 45.2391 123.123 45.6778C125.993 46.8475 128.893 46.8767 131.823 45.9994C132.062 45.9409 132.242 45.9117 132.481 46.0872C133.169 46.5843 133.946 46.789 134.783 46.8182C136.218 46.8767 137.474 46.4381 138.61 45.4731M139.986 35.9398C139.986 34.7408 139.986 33.5711 139.986 32.4014C139.986 32.3136 139.896 32.1967 139.836 32.1674C139.597 32.0505 139.358 31.992 139.089 31.9042C139.089 33.074 139.089 34.2145 139.089 35.3842C139.089 35.4427 139.178 35.5304 139.238 35.5889C139.477 35.7351 139.746 35.8521 139.986 35.969" fill="#546E7A" fill-opacity="0.68"/>
<path d="M29.8391 27.2544C30.6763 26.962 31.4238 26.6111 32.2011 26.4649C33.7858 26.2017 35.3704 25.9677 36.955 26.1724C37.7025 26.2601 38.4201 26.6403 39.1376 26.8743C39.2572 26.9035 39.3469 26.962 39.5263 27.0497C39.4665 26.8743 39.4665 26.728 39.4067 26.6403C38.151 23.3651 40.0944 19.8852 43.5925 19.1541C44.0709 19.0371 44.5792 19.0079 45.0875 18.9786C46.7917 18.9201 48.4959 18.7739 50.2002 18.8324C52.5921 18.8909 54.386 19.9436 55.3726 22.1661C55.4324 22.2831 55.5819 22.4293 55.7015 22.4585C58.2728 23.1019 60.0368 24.6518 61.1132 26.9912C61.1132 27.0497 61.173 27.1082 61.2029 27.1667C61.7112 27.0205 62.1895 26.845 62.6978 26.7573C64.3124 26.5526 65.9269 26.2602 67.5414 26.4649C70.4117 26.8158 72.4747 29.0675 72.6242 31.9041C72.7438 34.1558 72.8335 36.4075 72.9232 38.6592C72.9232 38.8054 73.0428 39.0102 73.1624 39.0979C75.1058 40.4138 75.943 42.4608 75.4945 44.7126C75.0161 47.0228 73.3418 48.7189 71.0695 49.1575C70.0529 49.3622 69.0364 49.1575 68.0198 49.099C66.495 48.9528 64.9701 48.7481 63.4453 48.6019C63.2958 48.6019 63.1164 48.6019 62.9968 48.7189C61.6813 49.8301 60.0966 50.2395 58.3924 50.298C57.2563 50.3565 56.1201 50.415 55.0139 50.4735C53.6086 50.5612 52.323 50.1518 51.1569 49.3915C51.0074 49.3037 50.7981 49.2452 50.6187 49.2452C48.6155 49.2452 46.6123 49.333 44.639 49.333C43.7719 49.333 42.9647 49.0113 42.2172 48.6019C42.0976 48.5434 41.8883 48.5142 41.7388 48.5727C40.6326 49.0405 39.4964 49.099 38.3304 48.9528C36.5065 48.7481 34.7126 48.6019 32.8888 48.3387C32.1114 48.2217 31.364 47.8708 30.6165 47.6369C30.467 47.5784 30.2577 47.5199 30.1381 47.5784C28.8824 48.368 27.4771 48.5434 26.042 48.6311C25.2048 48.6896 24.3378 48.7189 23.5006 48.8066C23.2614 48.8066 22.9923 48.9236 22.783 49.0698C21.617 50.0056 20.2416 50.415 18.7766 50.4442C17.3414 50.4735 15.9362 50.5027 14.5011 50.3857C13.0958 50.298 11.87 49.6839 10.8833 48.6604C10.674 48.4264 10.4647 48.3387 10.1658 48.3387C8.88011 48.3387 7.59446 48.3387 6.33872 48.2802C4.06641 48.1632 2.30239 47.1982 1.31573 45.1804C0.299172 43.1334 0.478564 41.1157 1.9137 39.3026C2.24259 38.8639 2.72097 38.5423 3.16945 38.1913C3.34884 38.0451 3.43854 37.9282 3.43854 37.6942C3.46844 35.384 3.52824 33.0738 3.58803 30.7928C3.58803 30.5004 3.52824 30.3542 3.22925 30.2372C-0.388499 28.6288 -1.25556 23.8915 1.58482 21.2303C2.69107 20.1776 4.06641 19.7389 5.59125 19.7097C7.53467 19.6804 9.47808 19.6512 11.4215 19.7682C13.335 19.8852 14.9197 20.704 15.9661 22.3708C16.0558 22.517 16.2651 22.634 16.4146 22.6632C16.9229 22.8095 17.4311 22.9264 17.9693 23.0434C18.1487 23.0727 18.3281 23.0434 18.5075 22.9849C20.8396 22.0199 23.2016 22.0199 25.5337 22.9849C27.3874 23.7452 28.5834 25.1782 29.5401 26.845C29.6298 26.9912 29.6896 27.1374 29.7494 27.2544M42.0976 46.3502C42.8152 47.1105 43.6523 47.5784 44.6689 47.6661C45.5061 47.7246 46.3432 47.7538 47.1804 47.6954C48.5557 47.6369 49.9012 47.5199 51.2765 47.4322C51.3662 47.4322 51.5157 47.4907 51.5755 47.5491C52.6519 48.5434 53.9375 48.8943 55.4025 48.7774C56.5686 48.6896 57.7047 48.6311 58.8708 48.5434C60.0966 48.4557 61.2328 48.134 62.07 47.2275C62.4885 46.7596 62.8473 46.7011 63.4752 46.7888C65.4485 47.0813 67.4517 47.2275 69.4549 47.4614C71.5479 47.6954 73.1624 46.6426 73.7604 44.6833C74.3583 42.724 73.4913 40.8525 71.6674 40.1799C71.3386 40.0629 71.2489 39.8874 71.2489 39.5658C71.1592 36.9924 71.0396 34.4482 70.92 31.8748C70.8303 29.974 69.4848 28.4241 67.5713 28.1317C66.8538 28.0147 66.0764 28.0732 65.3588 28.1317C64.4619 28.1902 63.5649 28.2779 62.6679 28.4534C61.6514 28.6581 60.874 29.3014 60.3059 30.2665C60.0667 28.5704 59.5884 27.0497 58.4522 25.8215C57.3161 24.564 55.8211 23.9792 54.1468 23.8037C54.1468 23.7452 54.1169 23.716 54.087 23.716C54.087 23.6283 54.087 23.5698 54.0571 23.4821C53.8777 22.4585 53.3694 21.669 52.5024 21.0841C51.6951 20.5577 50.7682 20.353 49.8115 20.3823C48.0474 20.4408 46.2834 20.4993 44.5493 20.6162C42.0378 20.7624 40.2738 23.1019 40.8718 25.4998C41.2604 27.0205 42.3368 27.8685 43.8317 28.2779C44.2204 28.3949 44.2802 28.5411 44.2802 28.892C44.2503 29.7693 44.2802 30.6466 44.2503 31.5239C44.2503 34.2728 44.1905 36.9924 44.1606 39.7412C44.1606 39.8874 44.1008 40.0921 43.9812 40.1506C43.5028 40.4138 43.0245 40.6185 42.6059 40.794C42.0677 40.5015 41.5594 40.1799 41.0212 39.9167C40.7821 39.7997 40.7223 39.712 40.7223 39.4488C40.6326 36.8462 40.513 34.2728 40.3934 31.6701C40.2738 29.3599 38.5695 27.6931 36.2673 27.6931C35.0116 27.6931 33.726 27.8393 32.5001 28.0147C30.7959 28.2779 29.6896 29.4477 29.3906 31.0853C29.3308 31.3485 29.3308 31.6116 29.3009 31.9041C29.2112 31.7579 29.1813 31.5824 29.1514 31.4362C29.002 30.5296 28.9123 29.6231 28.6432 28.7458C27.0585 23.9499 22.6335 22.9849 19.1952 24.4763C18.5673 24.7395 18.0889 24.915 17.4909 24.5056C17.3116 24.3886 17.0724 24.3301 16.8332 24.3009C16.2352 24.2131 15.6372 24.1546 14.9794 24.0962C14.8001 23.2481 14.3516 22.517 13.5443 22.0199C12.8267 21.552 12.0195 21.2888 11.1524 21.2888C9.38839 21.2888 7.62436 21.2596 5.83044 21.2596C5.53145 21.2596 5.23246 21.2888 4.96337 21.3473C2.99006 21.6982 1.76421 23.0434 1.70441 24.9735C1.64461 26.845 2.81067 28.3949 4.66439 28.892C4.90358 28.9505 5.11287 29.009 5.38196 29.0675C5.32216 32.4012 5.26236 35.7057 5.20256 39.0102C4.99327 39.0979 4.84378 39.1564 4.69429 39.2441C3.28905 39.9167 2.54158 41.0279 2.51168 42.5778C2.45188 44.8295 4.21591 46.6134 6.54801 46.6426C8.13264 46.6426 9.74717 46.6426 11.3318 46.7011C11.4813 46.7011 11.6607 46.7888 11.7205 46.9058C12.4979 48.134 13.6639 48.6896 15.099 48.7481C16.3847 48.8066 17.6703 48.7774 18.9859 48.7481C20.3014 48.6896 21.4675 48.2802 22.3345 47.2567C22.3943 47.169 22.5139 47.1105 22.6335 47.1105C23.3212 47.0813 24.0089 47.0813 24.6965 47.0228C25.6234 46.9643 26.5204 46.9058 27.4472 46.7888C28.5834 46.6426 29.57 46.1455 30.2876 45.2389C31.1547 46.087 32.2011 46.5549 33.3971 46.6718C34.9219 46.8181 36.4766 47.0228 38.0015 47.169C39.4665 47.3444 40.9315 47.4614 42.1275 46.2624M41.4996 29.1845C41.6491 29.5939 41.8285 29.9448 41.8883 30.3249C42.0378 31.4654 42.1574 32.6059 42.2172 33.7464C42.3069 35.3255 42.3667 36.9046 42.4265 38.513C42.4564 38.513 42.5162 38.513 42.5461 38.513C42.5461 35.6472 42.5461 32.7814 42.5461 29.9155C42.5461 29.8278 42.4863 29.7108 42.4265 29.6524C42.1574 29.4769 41.8584 29.3599 41.5295 29.1845" fill="#546E7A" fill-opacity="0.68"/>
<path d="M138.521 45.4438C137.414 46.4088 136.129 46.8475 134.693 46.789C133.856 46.789 133.049 46.555 132.391 46.0579C132.182 45.8825 131.973 45.9117 131.734 45.9702C128.803 46.8475 125.873 46.789 123.033 45.6485C121.927 45.1806 120.94 44.508 120.133 43.6015C119.924 43.8939 119.744 44.1571 119.535 44.4203C117.472 47.0814 114.183 47.988 110.774 46.8767C108.203 46.0579 106.559 44.742 104.855 42.2563C104.765 42.578 104.705 42.8704 104.585 43.1628C103.419 46.6428 100.878 48.6313 97.2603 49.2162C94.5096 49.6548 91.8785 49.2162 89.4567 47.7833C87.7525 46.789 86.5565 45.3561 86.1379 43.3968C85.6596 41.0866 86.6462 37.8698 90.1743 36.9633C90.264 36.9633 90.3836 36.9048 90.563 36.8463C90.4135 36.7586 90.2939 36.7294 90.1743 36.6416C89.3969 36.1445 88.5896 35.7351 87.8721 35.1502C86.2874 33.8928 85.5998 32.1674 85.5101 30.2081C85.3905 27.4593 86.3472 25.0321 87.8123 22.7512C89.1876 20.5872 91.0114 18.8911 93.3435 17.7506C93.9415 17.4581 94.5993 17.2827 95.3168 17.0195C95.2271 16.961 95.1375 16.9318 95.0777 16.8733C93.7322 15.8205 93.2538 14.4461 93.6425 12.8085C94.0312 11.2001 95.2272 10.3228 96.8118 10.0596C97.9778 9.85493 99.2037 9.82569 100.4 9.73796C101.297 9.67947 102.194 9.62099 103.061 9.5625C103.18 9.5625 103.3 9.53326 103.449 9.50402C103.449 8.33429 103.449 7.19381 103.449 6.05333C103.449 5.29301 103.509 4.56193 103.808 3.88934C104.406 2.54415 105.512 1.81308 107.007 1.6961C108.054 1.60837 109.04 1.78383 109.937 2.36869C111.073 3.15826 111.462 4.29874 111.522 5.58544C111.582 6.60895 111.522 7.60321 111.522 8.62672V9.09461C112.449 9.03613 113.316 8.9484 114.183 8.9484C115.02 8.9484 115.887 8.86067 116.724 8.97764C118.518 9.27007 119.714 10.5568 119.894 12.2236C120.073 14.0367 119.146 15.6451 117.442 16.3177C116.874 16.5516 116.216 16.6686 115.588 16.7271C114.422 16.844 113.286 16.844 112.12 16.9025C111.911 16.9025 111.701 16.961 111.492 16.961V31.8458C113.136 30.9685 114.841 30.8223 116.575 31.3486C118.339 31.875 119.475 33.1325 120.252 34.7116C120.94 34.2145 121.598 33.7173 122.256 33.2787C121.807 32.84 121.299 32.4306 120.85 31.9335C119.595 30.5006 118.967 28.7752 118.877 26.8744C118.757 24.2425 119.385 21.8154 121 19.7099C123.003 17.1072 125.754 16.0545 128.983 16.4346C133.079 16.9025 136.159 19.7391 137.026 23.7162C137.175 24.3303 137.205 24.9736 137.205 25.617C137.265 29.2139 137.295 32.8108 137.325 36.4077C137.325 36.7294 137.414 36.8463 137.743 36.9048C139.178 37.1388 140.195 38.1915 140.434 39.5952C140.434 39.7414 140.494 39.8876 140.524 40.0923C140.972 40.0046 141.391 39.9169 141.839 39.8584C141.779 36.8463 141.69 33.8635 141.63 30.8807C141.241 30.8223 140.883 30.7638 140.554 30.676C138.58 30.1789 137.384 28.4536 137.534 26.4358C137.683 24.535 139.178 23.0728 141.182 22.9851C142.975 22.9266 144.769 22.9851 146.563 23.0436C146.773 23.0436 147.012 23.1021 147.161 23.219C147.55 23.4822 147.819 23.336 148.148 23.1021C149.703 22.0493 151.407 21.2597 153.29 21.055C155.892 20.7626 158.224 21.289 159.928 23.4237C159.928 23.4237 159.958 23.4237 159.988 23.4822C160.376 22.9266 160.735 22.3417 161.124 21.8154C162.679 19.7391 164.592 18.0722 167.104 17.2242C169.795 16.3177 172.426 16.4346 174.847 18.1015C176.372 19.1542 177.329 20.5872 177.867 22.3125C178.525 24.3303 178.525 26.3773 177.957 28.4243C177.419 30.2374 176.402 31.6995 174.548 32.5476C174.698 32.6646 174.788 32.7523 174.907 32.84C177.329 34.887 178.525 37.4312 178.256 40.6187C178.047 42.8704 177.299 44.8589 175.595 46.4381C173.801 48.1049 171.678 48.9822 169.197 49.0992C166.775 49.1869 164.443 48.7775 162.32 47.5493C160.556 46.555 159.3 45.1514 158.911 43.1336C158.313 40.18 160.018 37.5189 162.978 36.7001C163.097 36.6709 163.247 36.6416 163.307 36.6124C162.499 36.086 161.632 35.5889 160.825 35.0333C159.988 34.4484 159.39 33.6588 158.911 32.7231C157.686 33.9805 156.25 34.6823 154.516 34.6823C152.782 34.6823 151.347 34.0098 150.211 32.5476C150.121 32.9278 149.942 33.3079 149.942 33.6881C149.942 35.7059 149.942 37.7529 149.942 39.7706C150.36 39.8584 150.659 39.9169 150.958 40.0046C152.573 40.4725 153.53 41.7299 153.53 43.3675C153.53 45.5023 152.423 47.0229 150.51 47.4616C149.972 47.5786 149.374 47.637 148.806 47.637C146.563 47.637 144.321 47.6955 142.078 47.637C140.524 47.637 139.328 46.9645 138.55 45.59C138.55 45.5315 138.491 45.5023 138.431 45.4146M105.423 15.4111C105.423 15.5866 105.423 15.7328 105.423 15.8498C105.423 22.7219 105.482 29.5648 105.512 36.4369C105.512 37.1095 105.572 37.7821 105.692 38.4547C106.05 40.3263 106.768 42.0224 108.323 43.2798C109.339 44.1279 110.505 44.7127 111.791 45.0636C114.841 45.9117 117.681 44.5665 118.787 41.6422C119.625 39.4197 119.326 37.2265 118.189 35.1502C117.292 33.4834 115.857 32.7815 113.944 33.0155C112.658 33.1617 111.761 33.8635 111.283 35.0625C110.954 35.8813 110.864 36.7294 110.954 37.6067C111.103 39.2443 112.359 40.4725 114.004 40.7064C114.332 40.7357 114.631 40.7649 114.96 40.7942C114.96 40.8234 114.96 40.8526 114.96 40.9111C114.691 41.0281 114.452 41.2036 114.183 41.262C113.675 41.3498 113.166 41.3498 112.688 41.379C111.941 41.379 111.343 41.0573 110.894 40.5017C110.326 39.8291 109.907 39.0688 109.818 38.2208C109.638 36.7294 109.459 35.238 109.429 33.7466C109.399 27.664 109.429 21.5814 109.399 15.4989C109.399 15.2064 109.489 15.0895 109.788 15.0602C111.701 14.9725 113.615 14.8555 115.528 14.7385C115.977 14.7093 116.425 14.5923 116.814 14.3876C117.591 14.0367 117.95 13.2764 117.831 12.3991C117.741 11.6095 117.233 11.0831 116.366 10.9077C116.067 10.8492 115.768 10.82 115.469 10.8492C113.794 10.9369 112.15 11.0539 110.476 11.1416C110.117 11.1416 109.758 11.1709 109.399 11.2001C109.399 11.0247 109.399 10.8784 109.399 10.7615C109.399 9.27007 109.459 7.77867 109.459 6.31652C109.459 5.93636 109.429 5.52695 109.369 5.14679C109.28 4.50344 108.951 3.94782 108.263 3.80161C107.785 3.68464 107.246 3.68464 106.768 3.74312C106.14 3.83085 105.722 4.24025 105.572 4.85436C105.482 5.20528 105.423 5.58544 105.423 5.9656C105.423 7.54473 105.423 9.1531 105.423 10.7322V11.3756C105.423 11.3756 105.243 11.4048 105.213 11.4048C103.21 11.551 101.237 11.668 99.2336 11.8142C98.3964 11.8727 97.5593 11.9604 96.752 12.1359C96.1241 12.2821 95.7055 12.6915 95.556 13.3349C95.257 14.68 96.3035 15.879 97.7685 15.8498C98.9645 15.8205 100.16 15.7328 101.356 15.6743C102.672 15.6158 103.987 15.5281 105.363 15.4404M166.595 42.8997C166.685 42.578 166.805 42.2563 166.865 41.9346C166.924 41.5837 166.954 41.2328 166.954 40.8819C166.924 39.5952 165.818 38.4839 164.562 38.4839C162.858 38.4839 161.303 39.3905 160.915 41.3205C160.705 42.4025 160.945 43.3968 161.602 44.2741C162.23 45.1221 163.067 45.707 164.024 46.1456C165.549 46.8475 167.193 47.1107 168.868 47.1107C172.695 47.0814 175.595 44.6835 176.193 40.9989C176.641 38.3377 175.744 36.086 173.652 34.3899C172.904 33.805 172.037 33.3664 171.14 32.957C170.094 32.4891 168.987 32.1967 167.941 31.758C167.163 31.4364 166.356 31.1439 165.639 30.7053C164.682 30.1497 164.413 29.4478 164.682 28.3658C164.772 28.0149 164.891 27.664 165.041 27.3423C165.669 25.9387 166.625 24.7689 167.761 23.6869C168.419 23.0728 169.197 22.6927 170.123 22.5464C170.811 22.4587 171.319 22.6927 171.648 23.2775C172.097 24.0378 172.216 24.8567 172.216 25.7047C171.858 25.6462 171.529 25.5585 171.17 25.5C169.466 25.2661 167.343 26.6697 167.971 29.0677C168.27 30.2374 169.256 30.9977 170.692 31.1732C173.203 31.5241 175.356 30.1789 176.073 27.8102C176.582 26.1141 176.582 24.418 176.014 22.7219C175.296 20.5872 173.861 19.0958 171.529 18.6571C169.675 18.3062 167.911 18.6864 166.296 19.7099C163.576 21.406 161.812 23.8331 160.795 26.7867C160.436 27.8102 160.317 28.863 160.376 29.945C160.496 31.6703 161.333 32.957 162.828 33.8928C163.934 34.5946 165.19 35.004 166.446 35.4427C167.732 35.9106 169.047 36.3492 170.243 36.9341C172.157 37.8698 172.456 39.5952 171.768 41.3205C171.08 43.0459 168.479 43.777 166.625 42.8119M93.6425 43.1628C93.7621 42.6365 93.8817 42.1393 93.9415 41.6422C94.1508 40.1216 93.0146 38.7179 91.5795 38.7471C89.9949 38.7471 88.5597 39.6537 88.1412 41.379C87.8422 42.6072 88.1412 43.7185 88.8886 44.742C89.4567 45.5023 90.2341 46.0287 91.1011 46.4381C92.5961 47.1692 94.2106 47.4031 95.855 47.4031C100.549 47.3446 103.987 43.0459 102.851 38.5717C102.194 35.969 100.519 34.2437 98.0077 33.2494C96.9613 32.84 95.8849 32.4891 94.8385 32.0505C94.091 31.758 93.3435 31.4364 92.6559 31.027C91.6991 30.4421 91.4001 29.711 91.6991 28.6583C92.2971 26.582 93.5827 24.9151 95.2571 23.5407C95.7653 23.1313 96.3932 22.9266 97.051 22.8681C97.5294 22.8096 97.9479 22.9559 98.2469 23.336C98.8748 24.1548 98.9645 25.0906 98.9944 26.0556C98.6057 25.9679 98.2768 25.8802 97.9479 25.8509C96.5726 25.7047 95.1674 26.6112 94.8684 27.8395C94.5096 29.3309 95.1973 30.7345 96.5427 31.2901C98.2469 31.992 101.566 31.4364 102.493 28.8337C103.3 26.6112 103.3 24.3888 102.313 22.2248C101.446 20.324 99.9212 19.1542 97.7386 18.9495C96.1241 18.8033 94.5993 19.1835 93.2538 20.0608C90.2341 22.0493 88.2906 24.8274 87.6329 28.3073C86.9751 31.6703 88.201 33.5419 90.9815 34.8578C91.9682 35.3257 93.0146 35.6181 94.0312 36.0275C95.0179 36.4077 96.0344 36.7878 96.9912 37.2557C98.3067 37.8991 98.9346 38.9518 98.8449 40.4432C98.6655 43.0166 95.9148 44.4788 93.5827 43.1921M135.351 38.9518C135.351 38.7179 135.351 38.4839 135.351 38.2792C135.291 33.922 135.262 29.594 135.172 25.2368C135.082 21.6692 132.331 18.7448 128.714 18.3647C126.262 18.1015 124.139 18.8618 122.644 20.8503C121.06 22.8974 120.581 25.2368 121.03 27.7517C121.299 29.2724 122.046 30.5591 123.362 31.4948C124.528 32.3137 126.113 32.1967 126.92 31.2609C128.235 29.711 127.877 27.0791 125.305 26.5528C125.156 26.5235 125.006 26.465 124.827 26.465C124.558 26.465 124.438 26.3188 124.468 26.0556C124.528 25.5292 124.498 24.9736 124.647 24.4765C125.096 22.7804 126.292 21.8446 127.966 21.8154C129.551 21.8154 130.807 22.7219 131.285 24.3303C131.405 24.7397 131.464 25.1783 131.494 25.5877C131.554 28.5413 131.584 31.4656 131.644 34.4192C131.644 34.5654 131.644 34.7116 131.644 34.9163C131.464 34.8578 131.345 34.7993 131.225 34.7701C128.803 33.9513 126.352 33.8635 123.9 34.7408C122.405 35.2672 121.239 36.203 120.82 37.7821C120.222 40.0338 120.88 42.4025 123.481 43.6307C125.335 44.508 127.308 44.742 129.312 44.4495C130.418 44.2741 131.494 43.9232 132.571 43.6307C132.66 43.6307 132.75 43.7185 132.84 43.8354C133.258 44.2448 133.707 44.6542 134.335 44.742C135.531 44.9174 136.577 44.5958 137.384 43.6892C138.281 42.6365 138.58 41.4083 138.461 40.0631C138.371 39.1273 137.803 38.6886 136.846 38.7764C136.368 38.8056 135.86 38.8933 135.321 38.9518M143.932 41.8177C143.274 41.8177 142.676 41.8177 142.078 41.8177C140.972 41.8177 140.344 42.3733 140.225 43.3675C140.105 44.5373 140.613 45.3853 141.66 45.59C142.108 45.6778 142.617 45.6778 143.095 45.6778C145.278 45.6778 147.43 45.6485 149.613 45.59C150.45 45.59 151.108 45.2099 151.377 44.3911C151.497 44.0401 151.556 43.66 151.556 43.2798C151.556 42.6365 151.257 42.1393 150.6 41.9346C150.181 41.8177 149.703 41.7884 149.254 41.7592C148.865 41.7592 148.507 41.7592 148.118 41.7592C148.118 41.613 148.088 41.5252 148.088 41.4083C148.058 38.9811 147.969 36.5247 147.969 34.0975C147.969 32.0505 148.925 30.3836 150.39 29.0092C151.048 28.3951 151.855 27.9272 152.603 27.4008C152.693 27.3423 152.842 27.2838 152.932 27.2253C152.932 27.3131 152.932 27.3131 152.902 27.3423C152.842 27.3716 152.782 27.43 152.752 27.4593C151.796 28.0442 151.377 28.863 151.556 29.945C151.736 31.1439 152.274 32.1089 153.53 32.5184C154.995 32.9862 156.31 32.5476 157.357 31.4948C158.463 30.3836 159.091 29.0384 159.21 27.4885C159.36 25.617 158.313 23.8916 156.609 23.2775C155.473 22.8681 154.277 22.8389 153.111 23.0728C151.108 23.453 149.463 24.4765 147.969 25.7924C147.849 25.8802 147.759 25.9679 147.67 26.0849C147.43 25.8217 147.281 25.5585 147.012 25.4123C146.743 25.2076 146.384 24.9736 146.055 24.9736C144.5 24.9151 142.946 24.9151 141.391 24.9736C140.344 24.9736 139.687 25.7047 139.597 26.6405C139.507 27.6932 140.105 28.5413 141.092 28.7752C141.361 28.8337 141.63 28.863 141.929 28.863C142.497 28.863 143.065 28.863 143.663 28.863C143.753 33.2202 143.872 37.5189 143.962 41.9054M103.39 19.9731V17.5166C102.493 17.5751 101.625 17.6044 100.758 17.6628C101.775 18.2477 102.642 19.008 103.39 19.9731Z" fill="#546E7A" fill-opacity="0.68"/>
<path d="M42.0977 46.3502C40.9018 47.5199 39.4367 47.4029 37.9717 47.2567C36.4469 47.0812 34.8921 46.9058 33.3673 46.7596C32.1713 46.6426 31.1548 46.1747 30.2578 45.3267C29.5403 46.2624 28.5536 46.7303 27.4174 46.8765C26.5205 46.9935 25.5936 47.052 24.6668 47.1105C23.9791 47.169 23.2914 47.1397 22.6038 47.1982C22.5141 47.1982 22.3646 47.2567 22.3048 47.3444C21.4377 48.3679 20.2717 48.8066 18.9561 48.8358C17.6705 48.8943 16.3848 48.8943 15.0693 48.8358C13.6341 48.7773 12.498 48.1925 11.6907 46.9935C11.6309 46.8765 11.4216 46.7888 11.302 46.7888C9.7174 46.7596 8.10287 46.7888 6.51824 46.7303C4.18614 46.7011 2.42211 44.9173 2.48191 42.6655C2.51181 41.1449 3.25927 40.0337 4.66452 39.3318C4.81401 39.2441 4.9934 39.1856 5.17279 39.0979C5.23259 35.7934 5.29239 32.4889 5.35219 29.1552C5.0831 29.0967 4.84391 29.0382 4.63462 28.9798C2.7809 28.4826 1.58495 26.9327 1.67464 25.0612C1.76434 23.1311 2.96029 21.7859 4.9336 21.435C5.23259 21.3765 5.50168 21.3473 5.80067 21.3473C7.56469 21.3473 9.32872 21.3473 11.1226 21.3765C11.9897 21.3765 12.797 21.6397 13.5145 22.1076C14.2919 22.6048 14.7404 23.3358 14.9497 24.1839C15.6075 24.2424 16.2054 24.3009 16.8034 24.3886C17.0127 24.4178 17.2818 24.4763 17.4612 24.5933C18.0591 24.9734 18.5375 24.8272 19.1654 24.564C22.6038 23.0434 27.0288 24.0084 28.6134 28.8335C28.8825 29.6816 28.9722 30.6174 29.1217 31.5239C29.1217 31.6701 29.1516 31.8163 29.2712 31.9918C29.3011 31.7286 29.331 31.4362 29.3609 31.173C29.6599 29.5061 30.7661 28.3656 32.4703 28.1025C33.7261 27.8978 34.9818 27.7808 36.2376 27.7808C38.5398 27.7808 40.244 29.4184 40.3636 31.7578C40.4832 34.3605 40.6028 36.9339 40.6925 39.5365C40.6925 39.7705 40.7523 39.8874 40.9915 40.0044C41.5297 40.2676 42.0379 40.56 42.5761 40.8817C42.9648 40.7062 43.4731 40.4723 43.9515 40.2384C44.071 40.1799 44.1308 39.9752 44.1308 39.829C44.1607 37.0801 44.1906 34.3605 44.2205 31.6116C44.2205 30.7343 44.2205 29.857 44.2504 28.9798C44.2504 28.6288 44.1906 28.4826 43.802 28.3656C42.3369 27.9562 41.2307 27.1082 40.842 25.5876C40.244 23.1896 42.008 20.8502 44.5195 20.704C46.2836 20.6162 48.0177 20.5285 49.7817 20.47C50.7385 20.4408 51.6653 20.6455 52.4726 21.1718C53.3396 21.7275 53.8778 22.5463 54.0273 23.5698C54.0273 23.6575 54.0273 23.716 54.0572 23.8037C54.0572 23.8037 54.0572 23.8622 54.117 23.8915C55.7913 24.0377 57.2564 24.6225 58.4224 25.9092C59.5586 27.1374 60.037 28.6581 60.2762 30.3542C60.8442 29.3599 61.6216 28.7458 62.6382 28.5411C63.5052 28.3656 64.4321 28.2779 65.329 28.2194C66.0765 28.1609 66.824 28.1025 67.5415 28.2194C69.4551 28.5119 70.8005 30.0617 70.8902 31.9626C71.0098 34.5359 71.1294 37.0801 71.2191 39.6535C71.2191 39.9752 71.3088 40.1506 71.6377 40.2676C73.4615 40.9402 74.2987 42.8117 73.7306 44.771C73.1326 46.7303 71.5181 47.7831 69.4252 47.5491C67.422 47.3444 65.4187 47.169 63.4454 46.8765C62.8474 46.7888 62.4887 46.8181 62.0402 47.3152C61.203 48.2217 60.0669 48.5434 58.841 48.6311C57.675 48.7189 56.5388 48.7481 55.3728 48.8651C53.9077 48.982 52.6221 48.6019 51.5457 47.6369C51.456 47.5784 51.3364 47.5199 51.2467 47.5199C49.8714 47.6076 48.526 47.7246 47.1506 47.7831C46.3134 47.8123 45.4763 47.7831 44.6391 47.7538C43.6226 47.6661 42.7555 47.1982 42.0678 46.4379M14.86 30.9098C14.86 30.9098 14.9497 30.9098 14.9796 30.939C14.9796 31.3192 15.0394 31.6701 15.0394 32.0503C14.9796 35.501 14.9198 38.9517 14.8899 42.4023C14.8899 42.724 14.8002 42.9287 14.4713 43.1042C13.8135 43.4259 13.2753 43.8937 13.1857 44.6833C13.0661 45.9115 13.9032 46.8473 15.1889 46.8473C16.3848 46.8473 17.5509 46.8473 18.7468 46.8473C18.986 46.8473 19.2252 46.8181 19.4644 46.7596C20.451 46.5549 20.9892 45.9992 21.0789 45.0635C21.1686 44.0107 20.7799 43.3966 19.8232 43.0165C19.7036 42.958 19.584 42.8995 19.4345 42.8995C19.1056 42.8702 19.0159 42.6948 19.0458 42.3731C19.0757 39.3903 19.1355 36.3783 19.0757 33.3955C19.0757 32.5767 19.2252 31.9333 19.883 31.4069C20.3912 30.9975 20.8098 30.4712 21.3181 30.0617C21.8862 29.6231 22.3945 29.7693 22.6337 30.4419C22.8429 31.0268 22.9625 31.6409 23.0223 32.255C23.2615 35.1501 22.9326 38.0159 22.4244 40.8817C22.3646 41.2034 22.245 41.4373 21.9759 41.642C21.2882 42.1684 20.9892 43.2504 21.2882 44.0107C21.5573 44.7126 22.4543 45.2389 23.3512 45.2097C24.4874 45.1512 25.6235 45.0635 26.7298 44.9465C27.1185 44.9173 27.537 44.8295 27.8958 44.6833C28.7928 44.3031 28.9722 43.5428 28.9423 42.6948C28.9124 41.9637 28.434 41.5543 27.8061 41.3496C27.4473 41.2326 27.0886 41.1449 26.6999 41.0572C26.7597 40.4723 26.8195 39.8874 26.9092 39.3318C27.2381 36.9924 27.2979 34.6237 27.1783 32.2842C27.1185 31.2022 26.9989 30.091 26.5504 29.0675C25.474 26.6403 23.7997 25.7338 21.2882 26.0262C20.2418 26.1432 19.4046 26.6988 18.5674 27.2544C18.2385 27.4591 18.0591 27.4591 17.7901 27.1959C16.8034 26.2309 15.6374 26.0847 14.3517 26.4648C13.4248 26.728 12.7671 27.3714 12.0794 28.0147C11.9598 28.1317 11.8402 28.1902 11.7206 28.3072C11.6907 28.3072 11.6608 28.2779 11.601 28.2487C11.601 28.1025 11.601 27.9562 11.601 27.7808C11.5412 27.3714 11.6907 27.1082 12.0794 26.9035C12.4083 26.728 12.797 26.4356 12.9166 26.1139C13.2754 24.9734 13.0661 23.716 11.4814 23.4528C11.3319 23.4528 11.1525 23.4236 11.003 23.4236C10.4051 23.4236 9.7772 23.4236 9.17922 23.4236C8.04307 23.4236 6.87702 23.3943 5.74087 23.4236C4.57482 23.4236 3.88715 24.0084 3.76755 25.0027C3.61806 25.997 4.15624 26.8158 5.14289 27.1082C5.41198 27.1959 5.68107 27.1959 5.98006 27.2252C6.48834 27.2252 6.96672 27.2252 7.50489 27.2252C7.4152 31.8163 7.3255 36.2905 7.23581 40.7647C6.69763 40.8817 6.21925 40.9402 5.77077 41.1156C5.17279 41.3204 4.75421 41.7298 4.63462 42.3439C4.36553 43.689 5.26249 44.771 6.69763 44.8003C8.25236 44.8003 9.7772 44.8295 11.3319 44.8295C12.3485 44.8295 12.8867 44.3909 13.1259 43.4259C13.1857 43.1627 13.2156 42.8995 13.2156 42.6655C13.2754 42.0807 13.0063 41.6128 12.498 41.3203C12.199 41.1449 11.8402 41.0279 11.5113 40.8525C11.5113 40.7355 11.5113 40.5893 11.5113 40.4431C11.5412 38.5423 11.601 36.6122 11.601 34.7114C11.601 34.0973 11.8103 33.6879 12.2887 33.2785C13.1857 32.5474 14.0527 31.7286 14.9198 30.9683M46.2836 26.4648C46.2537 31.6116 46.1939 36.7292 46.164 41.8467C45.7753 41.876 45.4165 41.9052 45.0876 41.9345C44.071 42.0807 43.4133 42.607 43.2937 43.3966C43.0545 44.7418 43.8917 45.7068 45.267 45.7361C45.9846 45.7361 46.7021 45.7361 47.4197 45.7361C48.4363 45.7068 49.4528 45.7068 50.4395 45.5898C51.5158 45.4729 52.1437 44.7418 52.1736 43.689C52.2334 42.6363 51.7849 42.0514 50.6488 41.759C50.4993 41.7298 50.3797 41.6713 50.2601 41.642C50.2601 41.5835 50.2601 41.525 50.2601 41.4958C50.29 38.6885 50.3199 35.9104 50.3797 33.103C50.3797 32.9861 50.4096 32.8691 50.4993 32.7814C51.3364 31.8456 52.1736 30.9098 53.0407 30.0325C53.4891 29.5646 53.8479 29.6523 54.0273 30.2957C54.1469 30.8221 54.2366 31.3777 54.2366 31.9041C54.2964 35.2963 54.4459 38.6592 54.8047 42.0514C54.8645 42.7825 54.8645 42.7825 54.1469 42.9287C54.0273 42.9287 53.8778 42.9872 53.7582 43.0457C52.7417 43.3966 52.2633 44.2739 52.5324 45.2974C52.7716 46.1747 53.7283 46.8765 54.7748 46.8473C56.1501 46.7888 57.5554 46.7303 58.9307 46.6134C60.3957 46.4964 61.2329 45.6776 61.3525 44.4494C61.4123 43.8353 61.1731 43.3674 60.6349 43.1042C60.2463 42.8995 59.7978 42.7825 59.3493 42.6655C59.14 42.607 59.0204 42.5486 58.9905 42.3146C58.9008 41.4958 58.7513 40.677 58.7214 39.8874C58.6616 38.1036 58.7214 36.349 58.6018 34.5652C58.5121 32.8983 58.3925 31.2315 58.1234 29.5939C57.7348 27.4006 56.3893 26.1724 54.2366 25.88C53.0108 25.7045 51.8447 25.997 50.8282 26.6988C50.7086 26.7573 50.6189 26.845 50.4993 26.9035C50.3797 26.3479 50.3797 26.3771 50.8581 26.1139C51.1271 25.9677 51.3962 25.7923 51.6055 25.5583C52.6221 24.4763 52.1138 22.8387 50.7086 22.517C50.4993 22.4585 50.2601 22.4293 50.0508 22.4293C48.2569 22.4878 46.4928 22.5463 44.6989 22.6632C43.6824 22.7217 42.9349 23.4528 42.8153 24.3301C42.6957 25.3536 43.1741 26.0554 44.2205 26.3771C44.5195 26.4648 44.8484 26.4941 45.1474 26.5233C45.5062 26.5233 45.8949 26.5233 46.3134 26.4648M34.6828 40.8525C34.0849 40.8525 33.5467 40.8525 33.0085 40.8525C32.5002 40.8525 32.0518 40.9987 31.7528 41.4081C30.9455 42.4023 31.2445 43.8353 32.3806 44.4201C32.6497 44.5663 32.9786 44.6833 33.2776 44.7125C35.2509 44.9465 37.2541 45.1804 39.2274 45.3559C40.3636 45.4729 41.1111 44.8003 41.2905 43.689C41.4699 42.607 41.0214 41.9637 39.945 41.7005C39.6759 41.642 39.4068 41.5543 39.1378 41.5543C38.8089 41.5543 38.7192 41.4081 38.7192 41.1156C38.6594 39.2148 38.5996 37.2848 38.5099 35.384C38.4501 34.1265 38.4202 32.8691 38.3006 31.6116C38.181 30.4127 37.284 29.7108 36.0582 29.7693C35.0416 29.8278 34.0251 29.9155 33.0085 30.0325C31.8425 30.1495 31.2146 30.9975 31.3342 32.2257C31.4239 33.22 32.2909 33.9218 33.3673 33.8926C33.6962 33.8926 34.055 33.8926 34.4437 33.8926C34.5334 36.232 34.623 38.5715 34.7127 40.8817M65.2692 41.1449C64.761 41.1449 64.3125 41.0864 63.864 41.0864C62.4588 41.0864 61.6216 42.1099 61.9804 43.4551C62.2495 44.4494 63.0866 44.8295 64.0135 44.9465C65.9868 45.1804 67.99 45.3851 69.9633 45.5606C70.95 45.6483 71.7274 44.9757 71.9068 43.923C72.0862 42.841 71.6676 42.1976 70.6211 41.9345C70.2025 41.8467 69.784 41.7882 69.3355 41.7005C69.3355 41.5543 69.3355 41.4373 69.3355 41.2911C69.2159 38.2206 69.0664 35.1208 68.9468 32.0503C68.887 30.9098 68.0797 30.0617 66.9436 30.0617C65.7775 30.0617 64.5816 30.208 63.4155 30.3542C62.3392 30.5004 61.801 31.4069 61.9505 32.5474C62.0701 33.454 62.967 34.1558 63.9238 34.1265C64.2826 34.1265 64.6713 34.1265 65.06 34.1265C65.1496 36.466 65.2393 38.747 65.329 41.1156M63.0567 39.1564C63.0567 38.2791 63.0567 37.431 63.0567 36.583C63.0567 36.232 62.967 36.0566 62.6083 35.9689C61.8309 35.7642 61.203 35.2963 60.6947 34.7406V40.3261C60.6947 40.3261 60.7545 40.3261 60.8143 40.3261C61.4123 39.6242 62.2196 39.2733 63.0567 39.1564Z" fill="#546E7A" fill-opacity="0.68"/>
<path d="M127.458 41.1745C126.89 41.1745 125.993 41.0282 125.156 40.6188C124.618 40.3557 124.109 40.034 124.109 39.3614C124.109 38.6888 124.618 38.3379 125.186 38.1039C126.98 37.3436 128.774 37.3436 130.568 38.1039C131.106 38.3379 131.584 38.6888 131.614 39.3321C131.614 40.0047 131.106 40.3264 130.568 40.5896C129.88 40.9405 128.893 41.1452 127.488 41.1452" fill="#546E7A" fill-opacity="0.68"/>
<path d="M147.575 4.42586V3.23786H153.743V4.42586H151.307V11.5059H150.011V4.42586H147.575ZM159.498 9.12986L162.306 3.23786H163.446L164.454 11.5059H163.182L162.474 5.60186L160.05 10.5819H158.97L156.534 5.60186L155.826 11.5059H154.554L155.562 3.23786H156.69L159.498 9.12986Z" fill="#546E7A" fill-opacity="0.68"/>
</g>
<defs>
<clipPath id="clip0_29246_14986">
<rect width="186" height="51" fill="white"/>
</clipPath>
</defs>
</svg>
