<svg width="40" height="40" viewBox="0 0 40 40" fill="none" xmlns="http://www.w3.org/2000/svg">
<path d="M35.3743 14.0839C35.315 10.3613 35.0321 8.21072 33.6806 6.66755C33.4072 6.35538 33.1059 6.06667 32.7801 5.80473C30.743 4.16699 27.6918 4.16699 21.5894 4.16699H16.7186C10.6161 4.16699 7.56493 4.16699 5.52783 5.80473C5.20201 6.06667 4.90069 6.35538 4.62729 6.66755C2.91797 8.61932 2.91797 11.5427 2.91797 17.3896C2.91797 23.2364 2.91797 26.1598 4.62729 28.1116C4.90069 28.4238 5.20201 28.7125 5.52783 28.9744C7.56493 30.6122 10.6161 30.6122 16.7186 30.6122H18.3347" stroke="#7ACCC5" stroke-width="2.5" stroke-linecap="round" stroke-linejoin="round"/>
<path d="M27.3899 35.3348L26.978 36.2461L26.978 36.2461L27.3899 35.3348ZM25.8529 33.6576L24.918 34.0125L24.918 34.0125L25.8529 33.6576ZM36.7802 33.6576L37.7152 34.0125V34.0125L36.7802 33.6576ZM35.2433 35.3348L35.6552 36.2461L35.6552 36.2461L35.2433 35.3348ZM35.2433 26.5095L35.6552 25.5983L35.2433 26.5095ZM36.7802 28.1867L37.7152 27.8318V27.8318L36.7802 28.1867ZM27.3899 26.5095L26.978 25.5983L27.3899 26.5095ZM25.8529 28.1867L24.918 27.8318L24.918 27.8318L25.8529 28.1867ZM27.4766 26.2736C27.4766 26.8259 27.9244 27.2736 28.4766 27.2736C29.0289 27.2736 29.4766 26.8259 29.4766 26.2736H27.4766ZM33.1565 26.2736C33.1565 26.8259 33.6042 27.2736 34.1565 27.2736C34.7088 27.2736 35.1565 26.8259 35.1565 26.2736H33.1565ZM29.8966 27.2736H32.7365V25.2736H29.8966V27.2736ZM32.7365 34.5707H29.8966V36.5707H32.7365V34.5707ZM29.8966 34.5707C29.2201 34.5707 28.7673 34.5701 28.417 34.544C28.0775 34.5187 27.9123 34.4736 27.8017 34.4236L26.978 36.2461C27.3893 36.432 27.8158 36.5048 28.2685 36.5385C28.7103 36.5714 29.2499 36.5707 29.8966 36.5707V34.5707ZM24.6367 30.9222C24.6367 31.6316 24.6363 32.2096 24.6657 32.6802C24.6956 33.1583 24.7591 33.594 24.918 34.0125L26.7878 33.3028C26.7305 33.1518 26.6859 32.9417 26.6618 32.5554C26.6372 32.1617 26.6367 31.6567 26.6367 30.9222H24.6367ZM27.8017 34.4236C27.3634 34.2255 26.9888 33.8322 26.7878 33.3028L24.918 34.0125C25.2935 35.0018 26.0246 35.8151 26.978 36.2461L27.8017 34.4236ZM35.9964 30.9222C35.9964 31.6567 35.996 32.1617 35.9713 32.5554C35.9472 32.9417 35.9026 33.1518 35.8453 33.3028L37.7152 34.0125C37.874 33.594 37.9376 33.1583 37.9675 32.6802C37.9969 32.2096 37.9964 31.6316 37.9964 30.9222H35.9964ZM32.7365 36.5707C33.3832 36.5707 33.9229 36.5714 34.3647 36.5385C34.8173 36.5048 35.2438 36.432 35.6552 36.2461L34.8314 34.4236C34.7209 34.4736 34.5556 34.5187 34.2162 34.544C33.8658 34.5701 33.4131 34.5707 32.7365 34.5707V36.5707ZM35.8453 33.3028C35.6444 33.8322 35.2697 34.2255 34.8314 34.4236L35.6552 36.2461C36.6086 35.8151 37.3397 35.0018 37.7152 34.0125L35.8453 33.3028ZM32.7365 27.2736C33.4131 27.2736 33.8658 27.2742 34.2162 27.3003C34.5556 27.3256 34.7209 27.3708 34.8314 27.4207L35.6552 25.5983C35.2438 25.4123 34.8173 25.3395 34.3647 25.3058C33.9229 25.2729 33.3832 25.2736 32.7365 25.2736V27.2736ZM37.9964 30.9222C37.9964 30.2127 37.9969 29.6347 37.9675 29.1641C37.9376 28.686 37.874 28.2503 37.7152 27.8318L35.8453 28.5416C35.9026 28.6926 35.9472 28.9026 35.9713 29.2889C35.996 29.6826 35.9964 30.1876 35.9964 30.9222H37.9964ZM34.8314 27.4207C35.2697 27.6188 35.6444 28.0121 35.8453 28.5416L37.7152 27.8318C37.3397 26.8426 36.6086 26.0292 35.6552 25.5983L34.8314 27.4207ZM29.8966 25.2736C29.2499 25.2736 28.7103 25.2729 28.2685 25.3058C27.8158 25.3395 27.3893 25.4123 26.978 25.5983L27.8017 27.4207C27.9123 27.3708 28.0775 27.3256 28.417 27.3003C28.7673 27.2742 29.2201 27.2736 29.8966 27.2736V25.2736ZM26.6367 30.9222C26.6367 30.1876 26.6372 29.6826 26.6618 29.2889C26.6859 28.9026 26.7305 28.6926 26.7878 28.5416L24.918 27.8318C24.7591 28.2503 24.6956 28.686 24.6657 29.1641C24.6363 29.6347 24.6367 30.2127 24.6367 30.9222H26.6367ZM26.978 25.5983C26.0246 26.0292 25.2935 26.8426 24.918 27.8318L26.7878 28.5416C26.9888 28.0121 27.3634 27.6188 27.8017 27.4207L26.978 25.5983ZM29.4766 26.2736V23.4845H27.4766V26.2736H29.4766ZM33.1565 23.4845V26.2736H35.1565V23.4845H33.1565ZM31.3166 21.6953C32.3498 21.6953 33.1565 22.5133 33.1565 23.4845H35.1565C35.1565 21.3748 33.4202 19.6953 31.3166 19.6953V21.6953ZM29.4766 23.4845C29.4766 22.5133 30.2833 21.6953 31.3166 21.6953V19.6953C29.2129 19.6953 27.4766 21.3748 27.4766 23.4845H29.4766Z" fill="#494A52"/>
<path d="M15.5141 12.4307C11.6554 15.8945 18.3176 18.3211 15.5141 22.3476M19.4088 12.4307C15.5502 15.8945 22.2123 18.3211 19.4088 22.3476M23.3036 12.4307C19.4449 15.8945 26.1071 18.3211 23.3036 22.3476" stroke="#494A52" stroke-width="2" stroke-linecap="round" stroke-linejoin="round"/>
</svg>
