<svg width="40" height="40" viewBox="0 0 40 40" fill="none" xmlns="http://www.w3.org/2000/svg">
<path d="M15.7109 5.10464C17.8067 3.92388 18.8546 3.3335 20.0007 3.3335C21.1467 3.3335 22.1946 3.92388 24.2904 5.10464L27.2071 6.74784C29.3826 7.97351 30.4704 8.58634 31.0689 9.61122C31.6673 10.6361 31.6673 11.8861 31.6673 14.3861V17.2809C31.6673 19.7809 31.6673 21.0309 31.0689 22.0558C30.4704 23.0807 29.3826 23.6935 27.2071 24.9191L24.2904 26.5624C22.1946 27.7431 21.1467 28.3335 20.0007 28.3335C18.8546 28.3335 17.8067 27.7431 15.7109 26.5624L12.7942 24.9191C10.6187 23.6935 9.5309 23.0807 8.93244 22.0558C8.33398 21.0309 8.33398 19.7809 8.33398 17.2809V14.3861C8.33398 11.8861 8.33398 10.6361 8.93244 9.61122C9.5309 8.58634 10.6187 7.97351 12.7942 6.74785L15.7109 5.10464Z" stroke="#494A52" stroke-width="2.5" stroke-linejoin="round"/>
<path d="M15 16.9444C15 16.9444 16.25 16.9444 17.5 19.1667C17.5 19.1667 21.4706 13.6111 25 12.5" stroke="#7ACCC5" stroke-width="2.5" stroke-linecap="round" stroke-linejoin="round"/>
<path d="M28.1375 25L29.2545 30.3499C29.9722 33.7872 30.331 35.5059 29.5939 36.3204C28.8568 37.135 27.5767 36.4343 25.0165 35.0329L21.2274 32.9589C20.6223 32.6277 20.3198 32.4621 20 32.4621C19.6802 32.4621 19.3777 32.6277 18.7726 32.9589L14.9835 35.0329C12.4233 36.4343 11.1432 37.135 10.4061 36.3204C9.66898 35.5059 10.0278 33.7872 10.7455 30.3499L11.8625 25" stroke="#494A52" stroke-width="2.5" stroke-linecap="round" stroke-linejoin="round"/>
</svg>
