<svg width="104" height="89" viewBox="0 0 104 89" fill="none" xmlns="http://www.w3.org/2000/svg">
<path d="M103.744 57.9281C102.465 56.2235 101.219 54.4943 99.9661 52.7694C95.9498 47.2393 91.9441 41.7006 87.916 36.1785C86.8809 34.7596 87.2192 34.511 84.9293 35.0876C83.7763 35.378 82.6625 35.4516 81.5154 34.9824C79.8173 34.2877 78.3277 33.2908 77.0231 32.0265C75.4483 30.5007 73.5583 29.8173 71.411 29.7454C69.766 29.6906 68.1831 30.0782 66.5986 30.4481C66.1232 30.5592 65.6424 30.6478 65.0587 30.7681C65.1782 30.2167 65.2441 29.7464 65.383 29.2992C65.8697 27.7311 66.3891 26.1731 66.8817 24.6066C67.8267 21.6024 68.4168 18.5316 68.7154 15.392C69.0316 12.0657 68.8906 8.77317 68.3552 5.48064C68.1274 4.07999 67.4498 3.09325 66.1103 2.63907C64.6733 2.15215 63.2336 1.64643 61.7595 1.30338C60.0271 0.900202 58.2588 0.648418 56.5007 0.360664C55.5707 0.208198 54.6321 0.0992163 53.6935 0.00741422C52.8992 -0.0704296 52.4296 0.472867 52.5717 1.25292C52.5995 1.40431 52.6397 1.55355 52.6746 1.70387C52.9506 2.88871 53.2476 4.06925 53.4931 5.26053C53.5874 5.71793 53.5654 6.20002 53.5928 6.6134C52.3739 6.76479 51.1979 6.81311 50.069 7.06973C47.3117 7.69677 44.8525 8.97019 42.702 10.8116C42.3675 11.0983 42.1322 11.0881 41.8042 10.8647C40.5285 9.99612 39.1236 9.41095 37.6013 9.2005C34.1842 8.72861 30.9204 9.37176 27.7708 10.7026C27.209 10.9399 27.0053 11.3748 27.1795 11.9444C27.5451 13.1378 27.945 14.3216 28.2934 15.5198C28.7812 17.1964 29.2346 18.8827 29.7036 20.5652C30.1775 22.2638 30.58 23.9865 31.1434 25.6551C31.9356 28.0017 32.8833 30.2956 33.6954 32.6363C34.1987 34.0864 34.5712 35.582 35.0075 37.0552C35.1179 37.4288 34.9711 37.5652 34.6066 37.6452C32.1495 38.1842 29.6961 38.7387 27.2439 39.2992C25.6417 39.6654 24.0417 40.0417 22.4449 40.4304C20.6209 40.8749 18.7636 41.1895 17.0253 41.9556C14.3168 43.149 12.6466 45.1831 12.1604 48.0961C11.9589 49.304 11.4389 50.2994 10.7073 51.2125C9.40957 52.8333 7.79724 54.1142 6.12326 55.3157C5.48165 55.7763 4.9258 56.3943 4.06442 56.4904C3.11085 56.5967 2.16264 56.7523 1.20907 56.8597C0.114528 56.9827 -0.276228 57.6902 0.199218 58.67C0.752922 59.8108 1.27018 60.9693 1.80834 62.1182C2.23661 63.0314 2.67882 63.9381 3.10388 64.8535C4.60044 68.0741 6.09003 71.2984 7.58605 74.519C8.92608 77.403 10.2709 80.2848 11.6158 83.1666C12.0698 84.1399 12.526 85.1122 12.9896 86.0807C13.2608 86.6471 13.6419 86.8435 14.2326 86.7233C14.8035 86.6068 15.3685 86.4629 15.9393 86.3486C16.8784 86.1607 17.8148 85.9518 18.762 85.8139C20.7163 85.5299 22.6722 85.6297 24.6056 85.9819C25.5892 86.1612 26.5315 86.4613 27.3505 87.1442C29.114 88.6141 31.1455 89.3125 33.4568 88.8669C34.5808 88.6506 35.6893 88.3526 36.8016 88.0783C39.2747 87.4679 41.7463 86.8489 44.2179 86.2326C46.69 85.6158 49.1615 84.9984 51.6336 84.3799C54.5539 83.6498 57.4735 82.9165 60.3937 82.188C62.8674 81.5711 65.3428 80.9607 67.8165 80.3439C70.7051 79.6234 73.592 78.8965 76.4812 78.1776C79.3874 77.4545 82.298 76.7485 85.1989 76.0034C85.5704 75.9078 90.9021 74.0229 91.206 73.7948C92.15 73.0872 92.7691 72.1434 93.1051 71.0203C93.1502 70.8705 93.3833 69.2879 93.5034 68.9996C93.8507 68.1653 94.2249 67.3391 94.6419 66.537C95.8629 64.1861 97.5637 62.2384 99.8557 60.914C100.859 60.3342 102.028 60.0137 103.155 59.6884C103.965 59.4549 104.259 58.6136 103.744 57.9281ZM66.0198 4.78917C65.0405 5.68894 63.9925 6.06635 62.9216 6.33692C60.7979 6.8727 58.6308 7.03376 56.4412 6.96289C55.8853 6.94518 55.6596 6.79969 55.5991 6.18982C55.4715 4.89654 55.2212 3.61561 55.0014 2.19993C58.6972 2.73946 62.4311 3.15391 66.0198 4.78917ZM34.0427 27.9464C33.3153 25.8108 32.6619 23.6483 32.0321 21.4816C31.4302 19.4109 30.9091 17.3167 30.3302 15.2385C30.0558 14.2523 29.7294 13.2801 29.4008 12.2176C29.9148 12.0496 30.4139 11.8171 30.9376 11.7285C32.47 11.4698 34.0062 11.1573 35.5521 11.0725C37.5155 10.9651 39.2683 11.6888 40.9691 12.6858C44.1192 14.5325 47.5653 15.1703 51.1946 14.7736C51.423 14.7489 51.6342 14.5868 51.8636 14.5503C52.085 14.5154 52.3192 14.5599 52.5475 14.5701C52.4864 14.7473 52.4366 14.9298 52.3621 15.1016C51.9536 16.0422 51.4975 16.9645 51.1368 17.9233C50.6013 19.346 50.0765 20.7772 49.6466 22.2342C48.6003 25.7791 48.052 29.3921 48.2208 33.1082C48.3409 35.741 48.8807 38.2668 49.8321 40.7149C50.1644 41.5696 50.8634 41.8702 51.4953 41.3903C51.8598 41.1132 52.0432 40.7385 51.8459 40.2693C50.2722 36.5172 49.9039 32.6224 50.3917 28.6056C50.6742 26.2816 51.1984 24.023 51.8963 21.7935C52.7925 18.9294 54.0248 16.2166 55.4683 13.5963C55.7234 13.133 55.7009 12.7298 55.375 12.3669C55.0497 12.0045 54.6439 11.9653 54.1583 12.1215C51.735 12.9016 49.2634 13.1244 46.75 12.6358C46.0017 12.4903 45.262 12.3024 44.5186 12.1339C44.5041 12.0576 44.4902 11.9809 44.4757 11.9046C45.2626 11.4097 46.0307 10.8814 46.8406 10.4277C48.1453 9.69655 49.5496 9.18869 51.021 8.94925C51.9794 8.79357 52.9667 8.77156 53.9412 8.77317C55.843 8.77639 57.7464 8.90899 59.646 8.85745C62.0463 8.79249 64.3544 8.2653 66.5413 7.00906C66.6313 7.76925 66.7627 8.494 66.7964 9.22305C66.9245 11.9755 66.9256 14.7355 66.4582 17.4536C66.0959 19.5596 65.5775 21.6442 65.026 23.7111C64.5993 25.3104 63.9486 26.849 63.5123 28.4462C62.6707 31.5224 62.4435 34.6624 62.7249 37.8433C62.9098 39.9354 63.2845 41.9872 63.866 44.0047C63.8971 44.1132 63.7202 44.3891 63.5986 44.4192C61.7708 44.8702 59.9354 45.2884 58.1039 45.7232C56.64 46.0711 51.7923 47.2409 51.6111 47.2849C49.7174 47.7472 47.8301 48.2378 45.9369 48.7011C43.0815 49.3996 40.2224 50.0819 37.3033 50.7857C37.3033 50.5388 37.2824 50.3423 37.3065 50.1512C37.6645 47.2801 37.8452 44.4047 37.6442 41.5089C37.4319 38.4467 36.9131 35.4489 35.8437 32.5655C35.2691 31.0161 34.5744 29.5102 34.0422 27.9474L34.0427 27.9464ZM70.3325 43.8351C70.1776 43.2392 69.7097 42.9396 69.0713 43.0835C68.1204 43.2977 67.177 43.5463 66.2299 43.7782C66.1489 43.7981 66.0642 43.8029 65.8965 43.827C65.5979 42.5724 65.2967 41.3269 65.0136 40.0771C64.9917 39.9794 65.0753 39.7743 65.1509 39.7507C66.4464 39.3486 67.7597 39.0732 69.052 39.7185C69.3516 39.8683 69.6255 40.1619 69.8003 40.4556C71.0545 42.5649 72.2788 44.693 73.5175 46.8114C73.6939 47.1131 73.6424 47.3349 73.3975 47.584C72.8314 48.1605 72.0746 48.2835 71.3552 48.4708C69.8335 48.8681 68.3 49.2181 66.7713 49.5896C64.4112 50.1625 62.0511 50.7337 59.6921 51.3113C58.2293 51.6699 56.7703 52.0441 55.3075 52.4028C52.584 53.0701 49.8578 53.7266 47.1343 54.395C45.2561 54.8556 43.3822 55.3307 41.5046 55.7946C39.479 56.2949 37.4517 56.7899 35.4251 57.2849C34.5814 57.4911 33.7495 57.3933 32.9374 57.1324C32.2143 56.9 31.9565 56.2192 31.614 55.6389C30.5055 53.7594 29.4174 51.8675 28.31 49.9874C28.0994 49.6294 28.0843 49.2906 28.4553 49.1038C29.1183 48.7699 29.7964 48.4306 30.5066 48.2341C32.0401 47.8105 33.5978 47.476 35.1458 47.1067C35.26 47.0793 35.3779 47.0691 35.6116 47.0326C35.543 47.7343 35.4889 48.3871 35.4122 49.0378C35.342 49.6342 35.2251 50.2253 35.1705 50.8228C35.134 51.2201 34.9405 51.3929 34.5707 51.4622C34.1676 51.5373 33.7682 51.6372 33.3737 51.7505C32.6887 51.9475 32.3634 52.4602 32.5306 53.0464C32.6812 53.5752 33.2757 53.8753 33.9071 53.7207C34.9035 53.4775 35.8952 53.2123 36.8927 52.9713C39.2876 52.3931 41.6863 51.8326 44.0796 51.248C46.0564 50.7653 48.0252 50.2484 50.002 49.7652C52.4119 49.1763 54.8267 48.6083 57.2393 48.0301C60.0673 47.352 62.8959 46.6745 65.7233 45.9943C67.0033 45.6862 68.2844 45.3796 69.5607 45.0559C70.1047 44.9179 70.458 44.3274 70.3304 43.8351H70.3325ZM16.0937 84.2554C15.6734 84.3327 15.2612 84.4771 14.8394 84.5066C14.67 84.5184 14.3993 84.3429 14.3205 84.1813C13.6784 82.8628 13.0518 81.5357 12.4627 80.1925C12.2633 79.7372 11.8897 79.4237 11.7219 78.9147C11.3408 77.7578 10.7839 76.6578 10.2779 75.5438C9.52267 73.8817 8.75081 72.2266 7.9827 70.5699C6.88386 68.2008 5.78343 65.8316 4.68031 63.4646C3.99528 61.9953 3.30275 60.5291 2.61611 59.0603C2.57484 58.9717 2.55393 58.8729 2.51641 58.7564C3.0878 58.6592 3.60238 58.6045 4.09766 58.4756C4.40587 58.3951 4.54791 58.5062 4.65994 58.7462C5.80647 61.2039 6.94819 63.6638 8.09848 66.1199C9.08421 68.2233 10.0812 70.3219 11.0707 72.4236C11.827 74.0294 12.5774 75.6372 13.3364 77.2414C13.4383 77.4566 14.8046 80.4421 15.012 80.8587C15.4837 81.8073 15.9125 82.7779 16.3746 83.7314C16.5375 84.0675 16.4249 84.1942 16.0937 84.2554ZM91.1589 70.725C90.8866 72.4559 88.6433 72.9476 88.4724 72.9922C86.5545 73.4914 84.642 74.0106 82.7236 74.5082C81.2496 74.8905 79.7702 75.2523 78.2918 75.619C76.017 76.1832 73.74 76.7389 71.4657 77.3063C69.6389 77.7621 67.817 78.2356 65.9897 78.6898C63.2496 79.3705 60.5058 80.0368 57.7657 80.718C55.9561 81.1679 54.1529 81.6414 52.3433 82.0918C49.6043 82.7731 46.8615 83.4383 44.123 84.1206C42.2646 84.5834 40.4111 85.0649 38.5549 85.5352C36.7978 85.9808 35.0531 86.4865 33.2794 86.8478C31.7051 87.1683 30.1748 86.8784 28.9339 85.8058C27.7199 84.7563 26.3235 84.2135 24.782 83.9703C24.1227 83.8661 23.4532 83.8275 22.7885 83.7572C22.5746 83.7346 22.3613 83.704 22.0059 83.6595C22.3661 83.3379 22.6245 83.1092 22.8812 82.8783C25.1207 80.8667 26.8129 78.4541 28.2114 75.7962C29.2411 73.8388 30.3892 71.9426 31.5341 70.0491C32.1618 69.0114 33.1743 68.5314 34.3482 68.2673C36.0817 67.877 37.7905 67.3788 39.5127 66.9391C42.2309 66.2455 44.9533 65.5669 47.6709 64.8728C49.4269 64.424 51.1764 63.9505 52.9324 63.5011C55.6002 62.8188 58.2727 62.1542 60.9405 61.4707C62.7458 61.0085 64.5446 60.5216 66.3489 60.0567C67.7564 59.6943 69.171 59.3572 70.5775 58.991C71.084 58.8589 73.5261 58.146 73.6001 58.1299C74.6657 57.8942 75.7313 57.6564 76.7899 57.389C78.2162 57.0294 79.6201 56.5521 81.0641 56.2992C82.1849 56.1027 83.355 56.0984 84.4978 56.1409C86.3942 56.2112 88.2354 56.6267 89.9421 57.4814C90.9605 57.9914 91.9007 58.6598 92.9245 59.158C94.1128 59.7367 95.3532 60.207 96.6225 60.746C93.6899 63.3884 91.816 66.7276 91.1589 70.725ZM94.353 57.6226C93.0515 56.9515 91.8069 56.1677 90.4937 55.5224C88.6407 54.6119 86.6333 54.2485 84.5905 54.0858C82.5124 53.9204 80.505 54.2914 78.5046 54.8422C75.8669 55.5691 73.2018 56.1951 70.5507 56.8737C68.7282 57.3402 66.9117 57.8298 65.0887 58.2963C62.4874 58.962 59.8818 59.6116 57.2806 60.2768C55.508 60.7304 53.7402 61.2039 51.9681 61.6603C49.1685 62.3818 46.3678 63.1006 43.5661 63.813C40.4674 64.6012 37.3837 65.4623 34.2608 66.1398C31.6821 66.6997 30.0108 68.2523 28.8021 70.47C27.6754 72.5375 26.5921 74.6306 25.3957 76.6573C23.7314 79.4763 21.5278 81.7928 18.6703 83.442C18.6419 83.4581 18.6044 83.4587 18.5009 83.4834C18.2426 82.9562 15.1669 76.4082 14.9804 76.0136C13.2758 72.4016 11.596 68.7779 9.90109 65.1611C8.82156 62.8564 7.73131 60.5559 6.64159 58.2555C6.34892 57.6376 6.34571 57.6467 6.99482 57.184C8.78833 55.9052 10.5261 54.5561 11.9481 52.8585C12.5018 52.1977 12.936 51.437 13.4297 50.7256L14.2476 47.9651C14.6389 46.2386 15.6166 44.9394 17.1732 44.1637C18.2951 43.6043 19.5124 43.2354 20.7286 42.7657C20.7238 42.7517 23.6547 42.2127 24.0283 42.1241C26.0427 41.6463 28.0645 41.2018 30.0815 40.7374C31.7158 40.3611 33.3469 39.973 34.9796 39.5913C35.0949 39.5644 35.2112 39.544 35.3972 39.5064C35.4583 39.8908 35.5505 40.2532 35.5682 40.6199C35.6288 41.8563 35.6448 43.0953 35.7172 44.3306C35.7429 44.7698 35.5575 44.9507 35.1748 45.0409C33.3421 45.4725 31.5089 45.8993 29.6806 46.3487C28.5083 46.6369 27.3923 47.053 26.6409 48.0827C25.8674 49.1424 26.0593 50.1855 26.6923 51.2421C27.9112 53.2767 29.1226 55.3162 30.3013 57.3745C31.0297 58.6458 32.1897 59.1472 33.5426 59.3282C34.9491 59.5166 36.2988 59.1762 37.6511 58.8359C39.9737 58.2512 42.3059 57.7052 44.6311 57.1324C46.5083 56.6702 48.379 56.1827 50.2566 55.7221C52.9806 55.0537 55.7095 54.4041 58.4341 53.7368C59.9301 53.3707 61.4186 52.9756 62.9141 52.6084C64.7751 52.151 66.6421 51.7193 68.5015 51.2566C70.0769 50.8647 71.664 50.505 73.2093 50.0159C74.2674 49.6809 75.1417 49.0249 75.5351 47.89C75.7699 47.2114 75.6997 46.5661 75.3518 45.961C74.0493 43.6982 72.751 41.4327 71.4126 39.1913C70.6606 37.9319 69.3999 37.4535 68.0287 37.3735C67.155 37.3225 66.262 37.4916 65.3862 37.6216C64.7478 37.716 64.6813 37.7219 64.6754 37.0965C64.6642 35.8929 64.6819 34.6893 64.6792 33.4856C64.6786 33.1141 64.7848 32.8999 65.2034 32.8119C66.6764 32.5016 68.1242 32.0313 69.61 31.8332C71.8661 31.532 73.9903 31.8531 75.734 33.5785C77.2021 35.0312 78.9077 36.1715 80.8658 36.8791C81.4254 37.0815 82.0241 37.1733 82.5896 37.3612C82.8083 37.4342 83.0388 37.5947 83.1733 37.781C86.0389 41.7483 88.8894 45.7264 91.7469 49.6997C93.8266 52.5917 95.9117 55.48 97.9931 58.371C98.0595 58.4638 98.1067 58.5707 98.2102 58.7559C96.7495 58.7038 95.5247 58.2255 94.3519 57.621L94.353 57.6226ZM100.123 57.8604C97.4635 54.169 94.8091 50.4744 92.15 46.7824C89.9491 43.7267 87.7445 40.673 85.5425 37.6178C85.4342 37.468 85.3394 37.3086 85.2332 37.1459C85.9338 36.8807 85.9295 36.8845 86.3331 37.439C89.6934 42.0544 93.0564 46.667 96.4161 51.2829C97.9598 53.404 99.4987 55.5288 101.038 57.6532C101.127 57.7767 101.203 57.9098 101.303 58.0655C100.565 58.4574 100.557 58.4628 100.123 57.8604Z" fill="#494A52"/>
</svg>
