<svg width="36" height="36" viewBox="0 0 36 36" fill="none" xmlns="http://www.w3.org/2000/svg">
<path d="M25.5003 6.22522C23.492 5.22719 21.2284 4.66602 18.8336 4.66602C11.4011 4.66602 5.23121 10.0717 4.04102 17.166M25.5003 6.22522L22.167 1.33268M25.5003 6.22522L20.5003 8.83268" stroke="#7ACCC5" stroke-width="2.5" stroke-linecap="round" stroke-linejoin="round"/>
<path d="M4.20438 22.9993C5.72014 29.6793 11.6941 34.666 18.8327 34.666C19.6845 34.666 20.5197 34.595 21.3327 34.4586M4.20438 22.9993L2.16602 27.9993M4.20438 22.9993L8.83268 24.666M27.166 32.1401C31.186 29.4492 33.8327 24.8667 33.8327 19.666C33.8327 15.8242 32.3884 12.3198 30.0132 9.66602M27.166 32.1401V26.3327M27.166 32.1401H32.9993" stroke="#494A52" stroke-width="2.5" stroke-linecap="round" stroke-linejoin="round"/>
</svg>
