<svg width="77" height="77" viewBox="0 0 77 77" fill="none" xmlns="http://www.w3.org/2000/svg">
<path d="M72.4137 66.5927H70.6565C70.3636 65.714 69.9365 64.5303 69.3873 63.249C74.3784 44.749 70.0829 28.9825 58.4289 21.7094C60.7475 20.8918 62.4193 18.7196 62.4193 16.1326C62.4193 13.033 60.0397 10.5191 57.0133 10.2506L57.4648 8.67642C57.5625 8.31033 57.5259 7.93203 57.3306 7.60254C57.1476 7.27306 56.8425 7.0412 56.4764 6.93137L55.8418 6.76052L56.7693 3.34364C56.8425 3.09957 56.8059 2.8311 56.6716 2.61145C56.5496 2.39179 56.3421 2.23315 56.0859 2.15993L48.2759 0.0365759C47.7633 -0.097659 47.2386 0.20742 47.1043 0.70775L46.1769 4.12464L45.5301 3.95379C44.7858 3.75854 44.0047 4.19786 43.8095 4.94225L38.4279 24.7114C36.2191 23.7351 32.2409 21.9779 32.0822 21.9047C31.4111 21.5996 30.6057 21.8558 30.2518 22.5026L29.3975 24.0402C29.0315 24.7236 29.2755 25.5778 29.9467 25.9561L31.6795 26.9202C31.6185 27.03 31.5453 27.1398 31.5209 27.2619L30.9351 30.3615L28.3847 34.8888C28.226 35.1695 28.1894 35.499 28.1894 36.6949C28.1894 37.2196 28.4579 37.7078 28.9094 37.9518L32.0578 39.7091C32.2531 39.8189 32.4727 39.8799 32.7046 39.8799C32.9975 39.8799 33.3148 39.7823 33.632 39.5749C34.5351 39.0135 34.7669 38.8183 34.9256 38.5376L37.476 33.998L38.9282 32.6801L38.6109 36.5607L37.415 40.966C37.3296 41.2711 37.3662 41.6006 37.6591 42.7721C37.7811 43.2724 38.1594 43.6751 38.672 43.8216L42.1255 44.7612C42.2109 44.7856 42.4183 44.81 42.5037 44.81C43.5044 44.81 44.5295 43.2846 44.6271 42.9917C44.6881 42.8209 45.2861 40.5877 45.6278 39.3308L45.7864 38.684L47.2752 35.5844C47.4826 35.6942 47.7023 35.7553 47.922 35.7553C48.4223 35.7553 48.8982 35.4868 49.1789 34.9987L51.2534 30.8008C58.3069 35.2549 59.515 42.9063 54.9632 54.1088C54.9022 54.0844 54.8534 54.0356 54.7923 54.0234L22.637 45.2615C21.8804 45.0785 21.1238 45.5056 20.9286 46.2622L20.0377 49.5204C19.9401 49.8865 19.9889 50.2648 20.172 50.5821C20.355 50.9116 20.6723 51.1557 21.0262 51.2533L42.0644 56.9888L41.5763 58.7826C41.4787 59.1487 41.5275 59.527 41.7105 59.8565C41.9058 60.186 42.1987 60.4179 42.5648 60.5155L48.8006 62.2117C48.0196 63.8958 47.446 65.4578 47.0799 66.5683H15.4615C13.0941 66.5683 11.166 68.4964 11.166 70.8638V75.2569C11.166 76.0379 11.8006 76.6725 12.5816 76.6725H75.2693C76.0503 76.6725 76.6848 76.0379 76.6848 75.2569V70.8638C76.6848 68.4964 74.7567 66.5683 72.3893 66.5683L72.4137 66.5927ZM56.4642 12.1055C58.6852 12.1055 60.4912 13.9116 60.4912 16.1326C60.4912 18.3535 58.6852 20.1596 56.4642 20.1596C55.915 20.1596 55.3781 20.0498 54.9022 19.8423C54.9022 19.8423 54.9022 19.8423 54.89 19.8423C53.45 19.2322 52.4493 17.8044 52.4493 16.1448C52.4493 13.9238 54.2554 12.1177 56.4764 12.1177L56.4642 12.1055ZM48.6908 2.13552L54.6459 3.75854L53.9747 6.24799L48.0196 4.62497L48.703 2.13552H48.6908ZM33.3392 37.4881C33.2049 37.5979 32.9731 37.7444 32.729 37.8908L30.1053 36.4264C30.1053 36.2068 30.1053 35.9017 30.1297 35.7064L32.2165 31.9845L35.4137 33.7661L33.327 37.4759L33.3392 37.4881ZM36.5974 32.2407L32.9243 30.1906L33.2782 28.2991L38.013 30.9472L36.5974 32.2407ZM42.8698 42.2962C42.7966 42.4182 42.5648 42.6867 42.3817 42.8575L39.4652 42.0643C39.4163 41.8446 39.3431 41.5518 39.3065 41.3565L40.2096 38.0006L43.7607 38.9647C43.4312 40.185 42.882 42.2107 42.8698 42.2962ZM44.4319 37.1586L40.5756 36.1092L40.9173 32.0577L45.6156 34.6692L44.4441 37.1464L44.4319 37.1586ZM47.7267 33.6685L31.3134 24.5161L31.6917 23.8328C32.4117 24.15 34.2666 24.9677 39.0747 27.091C39.0747 27.091 39.1601 27.1276 39.1967 27.1398L49.545 29.9588L47.7145 33.6685H47.7267ZM50.1551 28.1283L40.1973 25.4192L45.5057 5.93071L55.4513 8.63981L54.951 10.4093C52.4127 11.0804 50.5212 13.3746 50.5212 16.1326C50.5212 17.7922 51.2046 19.2932 52.3151 20.3671L50.1673 28.1283H50.1551ZM51.9124 28.9703L53.9869 21.502C53.9869 21.502 54.0601 21.5508 54.0968 21.563C54.0968 21.563 54.0968 21.563 54.109 21.563C66.9833 27.0666 72.3039 42.1863 68.0694 60.5033C66.0437 56.6959 62.9929 52.9251 58.8682 52.9251C58.3679 52.9251 57.8797 52.9983 57.416 53.096C61.5529 41.7592 59.698 33.6441 51.9002 28.9581L51.9124 28.9703ZM58.8804 54.841C63.9691 54.841 67.386 63.0293 68.6185 66.5805H49.1301C50.3748 63.0293 53.7917 54.841 58.8682 54.841H58.8804ZM43.5898 58.807L44.2 56.5739C44.2732 56.3298 44.2366 56.0613 44.1024 55.8417C43.9803 55.622 43.7729 55.4634 43.5288 55.3902L22.0512 49.5448L22.6736 47.2628L53.2059 55.5854C51.8148 56.9644 50.6555 58.7216 49.7158 60.4789L43.602 58.807H43.5898ZM74.7933 74.7688H13.1185V70.876C13.1185 69.558 14.1802 68.4964 15.4981 68.4964H72.4137C73.7317 68.4964 74.7933 69.558 74.7933 70.876V74.7688Z" fill="#494A52"/>
<path d="M58.8931 65.3725C61.4557 65.3725 63.5547 63.2858 63.5547 60.7109C63.5547 58.1361 61.4679 56.0615 58.8931 56.0615C56.3182 56.0615 54.2314 58.1483 54.2314 60.7109C54.2314 63.2736 56.3182 65.3725 58.8931 65.3725ZM58.8931 57.9774C60.4063 57.9774 61.6266 59.2099 61.6266 60.7109C61.6266 62.2119 60.3941 63.4444 58.8931 63.4444C57.3921 63.4444 56.1595 62.2119 56.1595 60.7109C56.1595 59.2099 57.3921 57.9774 58.8931 57.9774Z" fill="#494A52"/>
<path d="M20.8187 42.8941C21.3435 42.8941 21.7706 42.467 21.7706 41.9423C21.7706 41.4176 21.3435 40.9904 20.8187 40.9904C16.8893 40.9904 14.1314 38.2569 13.6555 34.059C14.6317 34.84 15.8276 35.255 17.0723 35.255C18.6832 35.255 20.3428 34.6082 21.6241 33.3269C23.8329 31.1181 25.0654 23.6619 25.1997 22.8199C25.2485 22.5149 25.1508 22.2098 24.9312 21.9901C24.7115 21.7705 24.4065 21.6728 24.1014 21.7216C23.8939 21.7583 23.296 21.8559 22.4661 22.0145C24.138 19.0614 25.0776 13.4113 25.1997 12.6913C25.2485 12.3862 25.1508 12.0811 24.9312 11.8615C24.7115 11.6418 24.4065 11.5442 24.1014 11.593C23.5766 11.6784 20.477 12.191 17.6825 13.094C18.0608 12.2642 18.2805 11.3245 18.2805 10.3239C18.2805 7.19987 13.8873 1.06168 13.387 0.366095C13.0331 -0.122032 12.2033 -0.122032 11.8372 0.366095C11.3369 1.06168 6.94371 7.19987 6.94371 10.3239C6.94371 11.3245 7.16337 12.252 7.54167 13.094C4.74715 12.1788 1.64754 11.6662 1.1228 11.593C0.817724 11.5442 0.512644 11.6418 0.292987 11.8615C0.0733298 12.0811 -0.024297 12.3862 0.0245156 12.6913C0.134344 13.4235 1.07399 19.0614 2.74583 22.0145C1.92821 21.8559 1.31805 21.7583 1.1106 21.7216C0.805518 21.6728 0.500438 21.7705 0.280781 21.9901C0.061124 22.2098 -0.0364935 22.5149 0.0123192 22.8199C0.146554 23.6619 1.37907 31.1181 3.58784 33.3269C4.86917 34.6082 6.52881 35.255 8.13963 35.255C9.43316 35.255 10.6901 34.8034 11.6908 33.9492C12.1667 39.282 15.7666 42.9063 20.7943 42.9063L20.8187 42.8941ZM23.0763 23.845C22.5028 26.8104 21.4167 30.813 20.2696 31.9601C18.5977 33.6319 16.0351 33.8028 14.5707 32.3384C13.1063 30.874 13.2772 28.3114 14.949 26.6395C16.0961 25.4924 20.0987 24.4063 23.0763 23.8328V23.845ZM13.5822 25.3338V23.8694C13.9117 24.1379 14.2534 24.3697 14.6195 24.5528C14.2168 24.7968 13.8751 25.0409 13.6066 25.3094C13.6066 25.3094 13.5944 25.3338 13.5822 25.3338ZM23.0763 13.7286C22.5028 16.6939 21.4167 20.6966 20.2696 21.8559C18.5977 23.5277 16.0351 23.6986 14.5707 22.2342C13.1063 20.7698 13.2772 18.2071 14.949 16.5353C16.0961 15.3882 20.0987 14.3021 23.0763 13.7286ZM12.6182 2.61148C14.3144 5.11313 16.3768 8.71306 16.3768 10.3361C16.3768 12.7035 14.6927 14.6316 12.6182 14.6316C10.5436 14.6316 8.85962 12.7035 8.85962 10.3361C8.85962 8.71306 10.9219 5.11313 12.6182 2.61148ZM2.16007 13.7286C5.12544 14.3021 9.12808 15.3882 10.2874 16.5353C11.9592 18.2071 12.1301 20.7698 10.6657 22.2342C9.2013 23.6986 6.65084 23.5277 4.9668 21.8559C3.81971 20.7088 2.73362 16.7061 2.16007 13.7286ZM10.6657 32.3628C9.2013 33.8272 6.63864 33.6563 4.9668 31.9845C3.81971 30.8374 2.73362 26.8348 2.16007 23.8572C5.12544 24.4307 9.12808 25.5168 10.2874 26.6639C11.9592 28.3358 12.1301 30.8984 10.6657 32.3628ZM11.6663 25.346C11.6663 25.346 11.6541 25.3216 11.6419 25.3216C11.3735 25.0531 11.0318 24.7968 10.6291 24.565C10.9952 24.3819 11.3491 24.1623 11.6663 23.8816V25.346Z" fill="#494A52"/>
<path d="M11.2395 12.3497C11.325 12.3497 11.4104 12.3497 11.4958 12.3131C12.0083 12.1788 12.3012 11.6541 12.167 11.1416C11.9107 10.1897 12.5819 8.76194 13.2409 7.49281C13.4849 7.02909 13.3019 6.44333 12.826 6.19927C12.3622 5.95521 11.7765 6.13825 11.5324 6.61418C10.6782 8.27381 9.885 10.0311 10.3243 11.6419C10.4341 12.069 10.8246 12.3497 11.2395 12.3497Z" fill="#494A52"/>
<path d="M5.72284 17.8289C7.45569 18.4025 8.40754 19.1102 8.78584 20.1231C8.93227 20.5014 9.29837 20.7455 9.67667 20.7455C9.7865 20.7455 9.89633 20.7211 10.0062 20.6844C10.5065 20.5014 10.7505 19.9523 10.5675 19.4519C9.7865 17.3774 7.77298 16.4988 6.3208 16.0106C5.82047 15.8398 5.28352 16.1205 5.11268 16.6208C4.94184 17.1211 5.22251 17.6581 5.72284 17.8289Z" fill="#494A52"/>
<path d="M6.33349 26.139C5.83316 25.9682 5.29622 26.2489 5.12538 26.7492C4.95453 27.2495 5.2352 27.7865 5.73553 27.9573C7.46838 28.5309 8.42023 29.2387 8.79853 30.2515C8.94497 30.6298 9.31106 30.8739 9.68936 30.8739C9.79919 30.8739 9.90902 30.8495 10.0188 30.8129C10.5192 30.6298 10.7632 30.0807 10.5802 29.5803C9.79919 27.5058 7.78566 26.6272 6.33349 26.139Z" fill="#494A52"/>
<path d="M15.206 20.6842C15.3158 20.7208 15.4256 20.7452 15.5354 20.7452C15.9259 20.7452 16.292 20.5133 16.4263 20.1228C16.8046 19.11 17.7442 18.4022 19.4893 17.8286C19.9896 17.6578 20.2581 17.1209 20.0994 16.6205C19.9286 16.1202 19.3916 15.8517 18.8913 16.0104C17.4391 16.4863 15.4256 17.3771 14.6446 19.4517C14.4616 19.9398 14.7056 20.5011 15.206 20.6842Z" fill="#494A52"/>
<path d="M15.206 30.8131C15.3158 30.8497 15.4256 30.8741 15.5354 30.8741C15.9259 30.8741 16.292 30.6423 16.4263 30.2517C16.8046 29.2389 17.7442 28.5311 19.4893 27.9576C19.9896 27.7867 20.2581 27.2498 20.0994 26.7494C19.9286 26.2491 19.3916 25.9806 18.8913 26.1393C17.4391 26.6152 15.4256 27.506 14.6446 29.5806C14.4616 30.0687 14.7056 30.63 15.206 30.8131Z" fill="#494A52"/>
</svg>
