<svg width="40" height="40" viewBox="0 0 40 40" fill="none" xmlns="http://www.w3.org/2000/svg">
<path d="M20.0007 36.6627C14.3871 36.7302 8.62017 35.9394 6.32222 34.3507C5.11502 33.5161 4.19358 32.3571 3.67459 31.0206C2.82715 28.8382 3.6377 26.0239 5.25881 20.3955C7.05863 14.1466 9.57613 12.5 16.0843 12.5H22.3824C28.3127 12.5 30.8394 13.9511 32.5007 18.3333" stroke="#494A52" stroke-width="2.5" stroke-linecap="round"/>
<path d="M11.668 13.3335V10.6062C11.668 6.58961 15.0258 3.3335 19.168 3.3335C23.3101 3.3335 26.668 6.58961 26.668 10.6062V13.3335" stroke="#494A52" stroke-width="2.5"/>
<path d="M23.571 24.0699C25.5823 22.8514 27.3377 23.3425 28.3922 24.1246C28.8246 24.4453 29.0408 24.6057 29.168 24.6057C29.2952 24.6057 29.5114 24.4453 29.9437 24.1246C30.9983 23.3425 32.7537 22.8514 34.7649 24.0699C37.4044 25.669 38.0017 30.9445 31.9133 35.3952C30.7537 36.243 30.1739 36.6668 29.168 36.6668C28.1621 36.6668 27.5823 36.243 26.4226 35.3952C20.3343 30.9445 20.9315 25.669 23.571 24.0699Z" fill="#7ACCC5" stroke="#7ACCC5" stroke-width="3" stroke-linecap="round"/>
<path d="M17.5 18.3335H20.8333" stroke="#494A52" stroke-width="2.5" stroke-linecap="round"/>
</svg>
