<svg width="40" height="40" viewBox="0 0 40 40" fill="none" xmlns="http://www.w3.org/2000/svg">
<path d="M28.7556 33.1943C33.0219 30.3577 35.8337 25.5071 35.8337 19.9998C35.8337 11.2553 28.7448 4.1665 20.0003 4.1665C18.791 4.1665 17.6134 4.30207 16.4818 4.55885M28.7556 33.1943V28.3332M28.7556 33.1943H34.167M11.204 6.83275C6.96075 9.67311 4.16699 14.5102 4.16699 19.9998C4.16699 28.7443 11.2558 35.8332 20.0003 35.8332C21.2096 35.8332 22.3872 35.6976 23.5188 35.4408M11.204 6.83275V11.6665M11.204 6.83275H5.83366" stroke="#494A52" stroke-width="2.5" stroke-linecap="round" stroke-linejoin="round"/>
<path d="M20.8333 11.6665L15 19.9998H25L19.1667 28.3332" stroke="#7ACCC5" stroke-width="2.5" stroke-linecap="round" stroke-linejoin="round"/>
</svg>
