<svg width="168" height="39" viewBox="0 0 168 39" fill="none" xmlns="http://www.w3.org/2000/svg">
<g clip-path="url(#clip0_29246_14950)">
<path d="M165.644 3.48721C166.194 3.35411 166.56 2.87493 166.534 2.28926C166.534 1.49063 166.037 1.09131 165.068 1.09131H163.76V5.32407H164.388V3.56708H165.042L166.037 5.32407H166.743L165.697 3.51383L165.644 3.48721ZM165.932 2.31588C165.932 2.79506 165.618 3.06127 164.99 3.06127H164.362V1.62373H164.99C165.644 1.62373 165.932 1.8367 165.932 2.31588Z" fill="#546E7A" fill-opacity="0.7"/>
<path d="M164.911 0C163.184 0 161.797 1.41092 161.797 3.16792C161.797 4.92492 163.184 6.33584 164.911 6.33584C166.639 6.33584 168.026 4.92492 168.026 3.16792C168.026 1.41092 166.639 0 164.911 0ZM167.555 3.16792C167.555 4.6587 166.377 5.85666 164.911 5.85666C163.446 5.85666 162.268 4.6587 162.268 3.16792C162.268 1.67713 163.446 0.479181 164.911 0.479181C166.377 0.479181 167.555 1.67713 167.555 3.16792Z" fill="#546E7A" fill-opacity="0.7"/>
<path d="M0 9.55726V3.30129C0 2.90197 0.314068 2.58252 0.706652 2.58252H26.4602C26.8528 2.58252 27.1668 2.90197 27.1668 3.30129V9.55726C27.1668 9.95658 26.8528 10.276 26.4602 10.276H18.6347C18.2421 10.276 17.928 10.5955 17.928 10.9948V38.2549C17.928 38.6542 17.614 38.9736 17.2214 38.9736H9.97165C9.57906 38.9736 9.26499 38.6542 9.26499 38.2549V11.0214C9.26499 10.6221 8.95093 10.3027 8.55834 10.3027H0.706652C0.314068 10.3027 0 9.9832 0 9.58389V9.55726Z" fill="#546E7A" fill-opacity="0.7"/>
<path d="M32.8984 37.9352V3.64713C32.8984 3.06147 33.3695 2.55566 33.9715 2.55566H55.0925C55.6683 2.55566 56.1656 3.03485 56.1656 3.64713V9.21095C56.1656 9.79662 55.6945 10.3024 55.0925 10.3024H42.6607C42.0849 10.3024 41.5876 10.7816 41.5876 11.3939V16.2123C41.5876 16.798 42.0587 17.3038 42.6607 17.3038H53.3128C53.8886 17.3038 54.3859 17.783 54.3859 18.3953V23.7993C54.3859 24.385 53.9148 24.8908 53.3128 24.8908H42.6607C42.0849 24.8908 41.5876 25.37 41.5876 25.9823V30.2683C41.5876 30.854 42.0587 31.3598 42.6607 31.3598H55.5636C56.1394 31.3598 56.6367 31.8389 56.6367 32.4512V38.015C56.6367 38.6007 56.1656 39.1065 55.5636 39.1065H33.9715C33.3957 39.1065 32.8984 38.6273 32.8984 38.015V37.9352Z" fill="#546E7A" fill-opacity="0.7"/>
<path d="M63.4158 37.8819V3.70037C63.4158 3.06147 63.9131 2.55566 64.5412 2.55566H78.2555C86.7353 2.55566 90.5303 8.62529 90.5303 14.7215C90.5303 19.4335 88.2272 24.1188 83.3329 25.9823C82.6525 26.2485 82.4169 27.1004 82.8357 27.7127L89.4311 37.2164C89.9545 37.9618 89.4311 39 88.5151 39H81.1868C80.8204 39 80.454 38.8137 80.2446 38.4676L72.8902 26.8342H72.105V37.8553C72.105 38.4942 71.6078 39 70.9796 39H64.5151C63.8869 39 63.3896 38.4942 63.3896 37.8553L63.4158 37.8819ZM72.0789 11.4205V18.1024C72.0789 18.7413 72.5761 19.2471 73.2043 19.2471H77.8106C80.6634 19.2471 81.7103 16.9311 81.7103 14.7482C81.7103 12.5652 80.6634 10.3024 77.8106 10.3024H73.2043C72.5761 10.3024 72.0789 10.8082 72.0789 11.4471V11.4205Z" fill="#546E7A" fill-opacity="0.7"/>
<path d="M97.0994 38.2549V3.32791C97.0994 2.90197 97.4397 2.58252 97.8322 2.58252H111.913C120.393 2.58252 124.188 8.65214 124.188 14.7484C124.188 19.5934 121.728 24.4119 116.572 26.1689C116.101 26.3286 115.917 26.8876 116.205 27.3136L123.533 37.8556C123.874 38.3614 123.533 39.0269 122.931 39.0269H114.661C114.399 39.0269 114.19 38.8938 114.033 38.6808L106.548 26.861H105.762V38.2815C105.762 38.7074 105.422 39.0269 105.03 39.0269H97.8061C97.3873 39.0269 97.0732 38.6808 97.0732 38.2815L97.0994 38.2549ZM105.762 11.048V18.502C105.762 18.9279 106.103 19.2474 106.495 19.2474H111.468C114.321 19.2474 115.368 16.9313 115.368 14.7484C115.368 12.5655 114.321 10.3027 111.468 10.3027H106.495C106.077 10.3027 105.762 10.6487 105.762 11.048Z" fill="#546E7A" fill-opacity="0.7"/>
<path d="M149.103 30.6678H139.21C138.791 30.6678 138.425 30.9341 138.268 31.3334L135.729 38.3614C135.572 38.7607 135.206 39.0269 134.787 39.0269H127.616C126.935 39.0269 126.438 38.3347 126.674 37.6692L139.132 3.24805C139.289 2.84873 139.655 2.58252 140.074 2.58252H148.135C148.554 2.58252 148.92 2.84873 149.077 3.24805L161.509 37.6692C161.744 38.3347 161.273 39.0269 160.567 39.0269H153.474C153.055 39.0269 152.689 38.7607 152.532 38.3614L149.993 31.3334C149.836 30.9341 149.47 30.6678 149.051 30.6678H149.103ZM142.168 23.0542H146.224C146.879 23.0542 147.376 22.4153 147.193 21.7498L145.073 14.4556C144.785 13.4706 143.424 13.4972 143.162 14.4556L141.199 21.7498C141.016 22.3887 141.513 23.0276 142.168 23.0276V23.0542Z" fill="#546E7A" fill-opacity="0.7"/>
</g>
<defs>
<clipPath id="clip0_29246_14950">
<rect width="168" height="39" fill="white"/>
</clipPath>
</defs>
</svg>
