<svg width="54" height="66" viewBox="0 0 54 66" fill="none" xmlns="http://www.w3.org/2000/svg">
<path d="M25.5342 38.1563C25.4742 38.1563 25.4142 38.1504 25.3527 38.1386C24.8099 38.0355 24.4499 37.4992 24.5499 36.9379L27.4827 20.4379C27.5827 19.8781 28.1042 19.5068 28.647 19.61C29.1899 19.7131 29.5499 20.2493 29.4499 20.8106L26.517 37.3106C26.4285 37.8086 26.0085 38.1563 25.5342 38.1563Z" fill="#222831"/>
<path d="M32.8654 35.9068C32.6297 35.9068 32.394 35.8213 32.204 35.649C31.7897 35.2718 31.7497 34.6207 32.1154 34.1934L36.6654 28.8751L32.1154 23.5568C31.7497 23.1296 31.7897 22.4784 32.204 22.1013C32.6183 21.7241 33.2497 21.7654 33.6154 22.1926L38.7483 28.193C39.0811 28.5834 39.0811 29.1683 38.7483 29.5572L33.6154 35.5576C33.4183 35.7889 33.1426 35.9068 32.8654 35.9068Z" fill="#222831"/>
<path d="M21.1345 35.9067C20.8573 35.9067 20.5816 35.7888 20.3845 35.5575L15.2516 29.5571C14.9187 29.1667 14.9187 28.5818 15.2516 28.1929L20.3845 22.1925C20.7502 21.7653 21.3816 21.7255 21.7959 22.1012C22.2102 22.4783 22.2502 23.1295 21.8845 23.5567L17.3345 28.875L21.8845 34.1933C22.2502 34.6205 22.2102 35.2717 21.7959 35.6489C21.6059 35.8212 21.3702 35.9067 21.1345 35.9067Z" fill="#222831"/>
<path d="M17.6897 50.4135C17.1926 50.4135 16.7612 50.0319 16.6983 49.5089C16.3297 46.4491 15.2112 43.9476 12.8383 40.8774C9.25973 36.2456 7.61544 31.0864 8.08544 25.9581C8.48973 21.5414 10.3954 17.3384 13.454 14.1238C16.5154 10.9063 20.5554 8.86443 24.8297 8.37532C30.3169 7.74479 35.5854 9.47139 39.6654 13.2355C43.6912 16.9494 45.9997 22.2722 45.9997 27.838C45.9997 32.3696 44.3912 36.7362 41.2197 40.817C38.744 44.0021 37.6426 46.4314 37.294 49.478C37.2426 49.9981 36.8169 50.4076 36.2997 50.4076C35.7469 50.4076 35.2997 49.9509 35.2997 49.3822C35.2997 49.3425 35.3026 49.2924 35.3069 49.2526C35.6969 45.823 36.9569 43.0062 39.6597 39.5294C42.5397 35.8243 43.9997 31.8908 43.9997 27.8409C43.9997 22.86 41.934 18.0985 38.3326 14.775C34.6826 11.4072 29.9654 9.86327 25.0526 10.4275C21.2354 10.8651 17.624 12.6918 14.884 15.5705C12.1454 18.4477 10.4397 22.2059 10.0783 26.1541C9.65259 30.8065 11.1083 35.3278 14.404 39.5942C17.0254 42.9885 18.2654 45.7876 18.684 49.257C18.7526 49.8227 18.3626 50.3369 17.8154 50.4076C17.774 50.4135 17.7326 50.415 17.6912 50.415L17.6897 50.4135Z" fill="#222831"/>
<path d="M27 65.9999C24.5257 65.9999 22.0629 65.5889 20.4343 65.2426C19.0243 64.9436 18 63.5868 18 62.0178V61.0351C18 60.5475 18.1 60.0731 18.2871 59.643C17.5014 59.0802 17 58.1432 17 57.0987V55.0937C17 54.1832 17.3843 53.3229 18.0557 52.7351C18.7243 52.1487 19.6043 51.8953 20.47 52.0397C21.9857 52.2916 24.3486 52.5936 27 52.5936C29.6514 52.5936 32.0143 52.2931 33.53 52.0397C34.3971 51.8953 35.2771 52.1487 35.9443 52.7351C36.6157 53.3243 37 54.1832 37 55.0937V57.0987C37 58.1432 36.4986 59.0802 35.7129 59.643C35.8986 60.0731 36 60.5475 36 61.0351V62.0178C36 63.5882 34.9757 64.9436 33.5657 65.2426C31.9357 65.5874 29.4743 65.9999 27 65.9999ZM19.9871 54.0624C19.7543 54.0624 19.5329 54.1464 19.3514 54.3055C19.1243 54.5044 19 54.7843 19 55.0937V57.0987C19 57.5996 19.3414 58.0254 19.8129 58.1123C19.8543 58.1197 19.9 58.1285 19.9471 58.1359L20.0614 58.155C20.4557 58.2257 20.7729 58.5322 20.8643 58.9343C20.9557 59.3365 20.8057 59.7564 20.4829 60.0009C20.1814 60.2308 20 60.6168 20 61.0337V62.0163C20 62.6115 20.3514 63.1183 20.8371 63.2214C22.3757 63.547 24.6943 63.9359 27 63.9359C29.3057 63.9359 31.6243 63.547 33.1629 63.2214C33.6471 63.1183 34 62.6115 34 62.0163V61.0337C34 60.6168 33.82 60.2308 33.5171 60.0009C33.1943 59.7564 33.0443 59.3351 33.1371 58.9329C33.23 58.5307 33.5457 58.2243 33.9414 58.1535L34.0414 58.1359C34.0914 58.127 34.1429 58.1182 34.1871 58.1108C34.6586 58.0239 35 57.5981 35 57.0972V55.0922C35 54.7828 34.8743 54.5029 34.6486 54.304C34.4243 54.1066 34.1414 54.0256 33.85 54.0742C32.2614 54.3394 29.7843 54.6547 27.0014 54.6547C24.2186 54.6547 21.74 54.3394 20.1529 54.0742C20.0986 54.0654 20.0429 54.0609 19.99 54.0609L19.9871 54.0624Z" fill="#222831"/>
<path d="M31.9986 60.5225C31.5001 60.5225 31.0686 60.138 31.0072 59.615C30.9401 59.0493 31.3315 58.5351 31.8801 58.4673C32.6615 58.3701 33.4386 58.2493 34.1872 58.1123C34.6586 58.0254 35.0001 57.5996 35.0001 57.0987V55.0937C35.0001 54.7843 34.8744 54.5044 34.6486 54.3055C34.4244 54.1081 34.1415 54.0271 33.8501 54.0757C32.2615 54.3409 29.7844 54.6561 27.0015 54.6561C24.2186 54.6561 21.7401 54.3409 20.1529 54.0757C19.8615 54.0271 19.5786 54.1081 19.3544 54.3055C19.1272 54.5044 19.0029 54.7843 19.0029 55.0937V57.0987C19.0029 57.5981 19.3444 58.0254 19.8158 58.1123C20.5644 58.2508 21.3415 58.3701 22.1229 58.4673C22.6715 58.5366 23.0615 59.0493 22.9958 59.615C22.9286 60.1807 22.4301 60.5814 21.8829 60.5151C21.0644 60.412 20.2501 60.2868 19.4644 60.1424C18.0386 59.8787 17.0029 58.5999 17.0029 57.0987V55.0937C17.0029 54.1832 17.3872 53.3229 18.0586 52.7351C18.7272 52.1487 19.6072 51.8953 20.4729 52.0397C21.9886 52.2916 24.3515 52.5936 27.0029 52.5936C29.6544 52.5936 32.0172 52.2931 33.5329 52.0397C34.3986 51.8953 35.2801 52.1487 35.9472 52.7351C36.6186 53.3243 37.0029 54.1832 37.0029 55.0937V57.0987C37.0029 58.5984 35.9686 59.8787 34.5415 60.1424C33.7558 60.2868 32.9415 60.4134 32.1229 60.5151C32.0815 60.5195 32.0415 60.5225 32.0015 60.5225H31.9986Z" fill="#222831"/>
<path d="M27 5.15625C26.4471 5.15625 26 4.69513 26 4.125V1.03125C26 0.461116 26.4471 0 27 0C27.5529 0 28 0.461116 28 1.03125V4.125C28 4.69513 27.5529 5.15625 27 5.15625Z" fill="#222831"/>
<path d="M9.0947 14.5348C8.83899 14.5348 8.58328 14.4346 8.38756 14.2328L6.26613 12.045C5.87613 11.6428 5.87613 10.9887 6.26613 10.5866C6.65613 10.1844 7.29042 10.1844 7.68042 10.5866L9.80185 12.7743C10.1918 13.1765 10.1918 13.8306 9.80185 14.2328C9.60613 14.4346 9.35042 14.5348 9.0947 14.5348Z" fill="#222831"/>
<path d="M4 29.9062H1C0.447143 29.9062 0 29.4451 0 28.875C0 28.3049 0.447143 27.8438 1 27.8438H4C4.55286 27.8438 5 28.3049 5 28.875C5 29.4451 4.55286 29.9062 4 29.9062Z" fill="#222831"/>
<path d="M44.8932 14.548C44.6375 14.548 44.3818 14.4478 44.1861 14.2459C43.7961 13.8438 43.7961 13.1896 44.1861 12.7875L46.3075 10.5997C46.6975 10.1975 47.3318 10.1975 47.7218 10.5997C48.1118 11.0019 48.1118 11.656 47.7218 12.0582L45.6003 14.2459C45.4046 14.4478 45.1489 14.548 44.8932 14.548Z" fill="#222831"/>
<path d="M53 29.9062H50C49.4471 29.9062 49 29.4451 49 28.875C49 28.3049 49.4471 27.8438 50 27.8438H53C53.5529 27.8438 54 28.3049 54 28.875C54 29.4451 53.5529 29.9062 53 29.9062Z" fill="#222831"/>
</svg>
