<svg width="52" height="52" viewBox="0 0 52 52" fill="none" xmlns="http://www.w3.org/2000/svg">
<path d="M31.3789 1.02222e-05H20.6203C19.1372 1.02222e-05 17.9307 1.20651 17.9307 2.68967V13.4483C17.9307 14.9314 19.1372 16.1379 20.6203 16.1379H31.3789C32.8621 16.1379 34.0686 14.9314 34.0686 13.4483V2.68967C34.0686 1.20651 32.8621 1.02222e-05 31.3789 1.02222e-05ZM20.6203 14.3448C20.1259 14.3448 19.7238 13.9427 19.7238 13.4483V2.68967C19.7238 2.19528 20.1259 1.79311 20.6203 1.79311H31.3789C31.8733 1.79311 32.2755 2.19528 32.2755 2.68967V13.4483C32.2755 13.9427 31.8733 14.3448 31.3789 14.3448H20.6203Z" fill="#222831"/>
<path d="M31.3789 35.8621H20.6203C19.1372 35.8621 17.9307 37.0686 17.9307 38.5517V49.3103C17.9307 50.7935 19.1372 52 20.6203 52H31.3789C32.8621 52 34.0686 50.7935 34.0686 49.3103V38.5517C34.0686 37.0686 32.8621 35.8621 31.3789 35.8621ZM20.6203 50.2069C20.1259 50.2069 19.7238 49.8047 19.7238 49.3103V38.5517C19.7238 38.0573 20.1259 37.6552 20.6203 37.6552H31.3789C31.8733 37.6552 32.2755 38.0573 32.2755 38.5517V49.3103C32.2755 49.8047 31.8733 50.2069 31.3789 50.2069H20.6203Z" fill="#222831"/>
<path d="M13.4483 17.9309H2.68965C1.2065 17.9309 0 19.1374 0 20.6206V31.3792C0 32.8623 1.2065 34.0688 2.68965 34.0688H13.4483C14.9314 34.0688 16.1379 32.8623 16.1379 31.3792V20.6206C16.1379 19.1374 14.9314 17.9309 13.4483 17.9309ZM2.68965 32.2757C2.19527 32.2757 1.7931 31.8736 1.7931 31.3792V20.6206C1.7931 20.1262 2.19527 19.724 2.68965 19.724H13.4483C13.9427 19.724 14.3448 20.1262 14.3448 20.6206V31.3792C14.3448 31.8736 13.9427 32.2757 13.4483 32.2757H2.68965Z" fill="#222831"/>
<path d="M49.3106 17.9309H38.552C37.0688 17.9309 35.8623 19.1374 35.8623 20.6206V31.3792C35.8623 32.8623 37.0688 34.0688 38.552 34.0688H49.3106C50.7937 34.0688 52.0002 32.8623 52.0002 31.3792V20.6206C52.0002 19.1374 50.7937 17.9309 49.3106 17.9309ZM38.552 32.2757C38.0576 32.2757 37.6554 31.8736 37.6554 31.3792V20.6206C37.6554 20.1262 38.0576 19.724 38.552 19.724H49.3106C49.805 19.724 50.2071 20.1262 50.2071 20.6206V31.3792C50.2071 31.8736 49.805 32.2757 49.3106 32.2757H38.552Z" fill="#222831"/>
<path d="M8.06843 35.8621C7.57276 35.8621 7.17188 36.263 7.17188 36.7587V39.4483C7.17188 42.4146 9.58488 44.8276 12.5512 44.8276H15.2408C15.7365 44.8276 16.1374 44.4268 16.1374 43.9311C16.1374 43.4354 15.7365 43.0345 15.2408 43.0345H12.5512C10.5736 43.0345 8.96498 41.4259 8.96498 39.4483V36.7587C8.96498 36.263 8.56409 35.8621 8.06843 35.8621Z" fill="#222831"/>
<path d="M43.9313 35.8621C43.4356 35.8621 43.0347 36.263 43.0347 36.7587V39.4483C43.0347 41.4259 41.426 43.0345 39.4485 43.0345H36.7589C36.2632 43.0345 35.8623 43.4354 35.8623 43.9311C35.8623 44.4268 36.2632 44.8276 36.7589 44.8276H39.4485C42.4148 44.8276 44.8278 42.4146 44.8278 39.4483V36.7587C44.8278 36.263 44.4269 35.8621 43.9313 35.8621Z" fill="#222831"/>
<path d="M15.2408 7.17242H12.5512C9.58488 7.17242 7.17188 9.58543 7.17188 12.5517V15.2414C7.17188 15.7371 7.57276 16.1379 8.06843 16.1379C8.56409 16.1379 8.96498 15.7371 8.96498 15.2414V12.5517C8.96498 10.5742 10.5736 8.96553 12.5512 8.96553H15.2408C15.7365 8.96553 16.1374 8.56464 16.1374 8.06897C16.1374 7.57331 15.7365 7.17242 15.2408 7.17242Z" fill="#222831"/>
<path d="M39.4485 7.17242H36.7589C36.2632 7.17242 35.8623 7.57331 35.8623 8.06897C35.8623 8.56464 36.2632 8.96553 36.7589 8.96553H39.4485C41.426 8.96553 43.0347 10.5742 43.0347 12.5517V15.2414C43.0347 15.7371 43.4356 16.1379 43.9313 16.1379C44.4269 16.1379 44.8278 15.7371 44.8278 15.2414V12.5517C44.8278 9.58543 42.4148 7.17242 39.4485 7.17242Z" fill="#222831"/>
<path d="M13.4474 40.3448C13.277 40.3448 13.1041 40.3935 12.9504 40.4959C12.538 40.77 12.4266 41.3271 12.7019 41.7396L14.1633 43.9323L12.7019 46.125C12.4278 46.5374 12.538 47.0933 12.9504 47.3686C13.3628 47.644 13.9187 47.5326 14.1941 47.1202L15.9872 44.4305C16.1882 44.1295 16.1882 43.7376 15.9872 43.4353L14.1941 40.7457C14.0211 40.487 13.7368 40.3461 13.4474 40.3461V40.3448Z" fill="#222831"/>
<path d="M43.931 35.8622C43.758 35.8622 43.5839 35.9122 43.434 36.0133L40.7444 37.8064C40.3319 38.0805 40.2205 38.6377 40.4959 39.0501C40.7712 39.4625 41.3271 39.5739 41.7395 39.2986L43.9322 37.8372L46.1249 39.2986C46.5374 39.5739 47.0932 39.4612 47.3686 39.0501C47.6427 38.6377 47.5325 38.0818 47.1201 37.8064L44.4305 36.0133C44.2793 35.9134 44.1064 35.8622 43.9335 35.8622H43.931Z" fill="#222831"/>
<path d="M38.5529 4.48278C38.2635 4.48278 37.9791 4.62239 37.8062 4.88239L36.0131 7.57204C35.812 7.87303 35.812 8.26495 36.0131 8.56722L37.8062 11.2569C38.0803 11.6693 38.6375 11.7807 39.0499 11.5053C39.4623 11.2313 39.5737 10.6741 39.2983 10.2617L37.837 8.06899L39.2983 5.87628C39.5724 5.46387 39.4623 4.90801 39.0499 4.63264C38.8975 4.53017 38.7245 4.4815 38.5529 4.4815V4.48278Z" fill="#222831"/>
<path d="M10.7571 12.5518C10.5867 12.5518 10.4138 12.6004 10.2601 12.7029L8.06741 14.1643L5.8747 12.7029C5.46229 12.4275 4.90642 12.5402 4.63106 12.9514C4.35697 13.3638 4.46711 13.9196 4.87953 14.195L7.56918 15.9881C7.87017 16.1892 8.26209 16.1892 8.56436 15.9881L11.254 14.195C11.6664 13.9209 11.7779 13.3638 11.5025 12.9514C11.3296 12.6926 11.0452 12.5518 10.7558 12.5518H10.7571Z" fill="#222831"/>
</svg>
