<svg width="44" height="48" viewBox="0 0 44 48" fill="none" xmlns="http://www.w3.org/2000/svg">
<path d="M43.1538 47.9999H0.846154C0.378352 47.9999 0 47.6299 0 47.1723V15.7241C0 15.2665 0.378352 14.8965 0.846154 14.8965H12.6923C13.1601 14.8965 13.5385 15.2665 13.5385 15.7241C13.5385 16.1816 13.1601 16.5517 12.6923 16.5517H1.69231V46.3448H42.3077V16.5517H31.3077C30.8399 16.5517 30.4615 16.1816 30.4615 15.7241C30.4615 15.2665 30.8399 14.8965 31.3077 14.8965H43.1538C43.6216 14.8965 44 15.2665 44 15.7241V47.1723C44 47.6299 43.6216 47.9999 43.1538 47.9999Z" fill="#222831"/>
<path d="M43.1535 16.5517H31.3073C30.8395 16.5517 30.4612 16.1817 30.4612 15.7241C30.4612 15.2666 30.8395 14.8966 31.3073 14.8966H42.0982L39.0895 1.65517H4.90976L1.90108 14.8966H12.692C13.1598 14.8966 13.5381 15.2666 13.5381 15.7241C13.5381 16.1817 13.1598 16.5517 12.692 16.5517H0.845809C0.589545 16.5517 0.346578 16.4382 0.185809 16.242C0.0250395 16.0457 -0.0354 15.7892 0.0202044 15.5444L3.40482 0.647882C3.49064 0.269557 3.83394 0 4.23042 0H39.7689C40.1654 0 40.5087 0.269557 40.5945 0.647882L43.9791 15.5444C44.0347 15.7892 43.9743 16.0457 43.8135 16.242C43.6527 16.4382 43.4098 16.5517 43.1535 16.5517Z" fill="#222831"/>
<path d="M27.9228 28.1379H16.0766C15.6088 28.1379 15.2305 27.7678 15.2305 27.3103V15.7241C15.2305 15.2665 15.6088 14.8965 16.0766 14.8965H27.9228C28.3906 14.8965 28.7689 15.2665 28.7689 15.7241V27.3103C28.7689 27.7678 28.3906 28.1379 27.9228 28.1379ZM16.9228 26.4827H27.0766V16.5517H16.9228V26.4827Z" fill="#222831"/>
<path d="M27.9232 16.5517H16.077C15.8437 16.5517 15.6201 16.4571 15.4606 16.2904C15.301 16.1237 15.2176 15.9003 15.2321 15.6721L16.1713 0.775528C16.1991 0.339272 16.569 -0.0012207 17.0163 -0.0012207H26.984C27.4312 -0.0012207 27.8011 0.339272 27.8289 0.775528L28.7681 15.6721C28.7826 15.9003 28.7004 16.1237 28.5397 16.2904C28.3801 16.4571 28.1565 16.5517 27.9232 16.5517ZM16.9776 14.8965H27.0238L26.1886 1.65513H17.8117L16.9764 14.8965H16.9776Z" fill="#222831"/>
</svg>
