<svg width="50" height="50" viewBox="0 0 50 50" fill="none" xmlns="http://www.w3.org/2000/svg">
<path d="M25.0003 26.7241C19.0265 26.7241 14.167 21.697 14.167 15.5172C14.167 9.3374 19.0265 4.3103 25.0003 4.3103C30.9741 4.3103 35.8337 9.3374 35.8337 15.5172C35.8337 21.697 30.9741 26.7241 25.0003 26.7241ZM25.0003 6.03444C19.9456 6.03444 15.8337 10.2881 15.8337 15.5172C15.8337 20.7463 19.9456 25 25.0003 25C30.0551 25 34.167 20.7463 34.167 15.5172C34.167 10.2881 30.0551 6.03444 25.0003 6.03444Z" fill="#222831"/>
<path d="M23.6376 19.2007C23.4161 19.2007 23.2042 19.1095 23.0483 18.9482L20.3209 16.1268C19.9959 15.7906 19.9959 15.2438 20.3209 14.9076C20.6459 14.5714 21.1745 14.5714 21.4995 14.9076L23.6376 17.1194L28.503 12.0861C28.828 11.7499 29.3566 11.7499 29.6816 12.0861C30.0066 12.4223 30.0066 12.9691 29.6816 13.3054L24.2269 18.9482C24.0709 19.1095 23.859 19.2007 23.6376 19.2007Z" fill="#222831"/>
<path d="M45.1583 38.7931H4.84167C2.17143 38.7931 0 36.5468 0 33.7845V5.00862C0 2.2463 2.17143 0 4.84167 0H45.1583C47.8286 0 50 2.2463 50 5.00862V33.7845C50 36.5468 47.8286 38.7931 45.1583 38.7931ZM4.84167 1.72414C3.09048 1.72414 1.66667 3.19704 1.66667 5.00862V33.7845C1.66667 35.5961 3.09048 37.069 4.84167 37.069H45.1583C46.9095 37.069 48.3333 35.5961 48.3333 33.7845V5.00862C48.3333 3.19704 46.9095 1.72414 45.1583 1.72414H4.84167Z" fill="#222831"/>
<path d="M30.0003 45.6897H20.0003C19.5396 45.6897 19.167 45.3043 19.167 44.8277V41.3794C19.167 40.9028 19.5396 40.5173 20.0003 40.5173C20.461 40.5173 20.8337 40.9028 20.8337 41.3794V43.9656H29.167V41.3794C29.167 40.9028 29.5396 40.5173 30.0003 40.5173C30.461 40.5173 30.8337 40.9028 30.8337 41.3794V44.8277C30.8337 45.3043 30.461 45.6897 30.0003 45.6897Z" fill="#222831"/>
<path d="M49.1667 31.8965H0.833333C0.372619 31.8965 0 31.511 0 31.0344C0 30.5578 0.372619 30.1724 0.833333 30.1724H49.1667C49.6274 30.1724 50 30.5578 50 31.0344C50 31.511 49.6274 31.8965 49.1667 31.8965Z" fill="#222831"/>
<path d="M26.6667 35.3447H23.3333C22.8726 35.3447 22.5 34.9593 22.5 34.4827C22.5 34.0061 22.8726 33.6206 23.3333 33.6206H26.6667C27.1274 33.6206 27.5 34.0061 27.5 34.4827C27.5 34.9593 27.1274 35.3447 26.6667 35.3447Z" fill="#222831"/>
<path d="M34.1667 50H15.8333C15.3726 50 15 49.6145 15 49.1379C15 48.6613 15.3726 48.2759 15.8333 48.2759H34.1667C34.6274 48.2759 35 48.6613 35 49.1379C35 49.6145 34.6274 50 34.1667 50Z" fill="#222831"/>
<path d="M34.1667 50.0001C33.706 50.0001 33.3333 49.6146 33.3333 49.138V48.2759C33.3333 46.8498 32.2119 45.6897 30.8333 45.6897H19.1667C17.7881 45.6897 16.6667 46.8498 16.6667 48.2759V49.138C16.6667 49.6146 16.294 50.0001 15.8333 50.0001C15.3726 50.0001 15 49.6146 15 49.138V48.2759C15 45.8991 16.869 43.9656 19.1667 43.9656H30.8333C33.131 43.9656 35 45.8991 35 48.2759V49.138C35 49.6146 34.6274 50.0001 34.1667 50.0001Z" fill="#222831"/>
</svg>
