<svg width="70" height="70" viewBox="0 0 70 70" fill="none" xmlns="http://www.w3.org/2000/svg">
<path d="M34.9996 22.9309C28.3445 22.9309 22.9307 28.3447 22.9307 34.9999C22.9307 41.6551 28.3445 47.0688 34.9996 47.0688C41.6548 47.0688 47.0686 41.6551 47.0686 34.9999C47.0686 28.3447 41.6548 22.9309 34.9996 22.9309ZM34.9996 44.6551C29.6755 44.6551 25.3445 40.324 25.3445 34.9999C25.3445 29.6757 29.6755 25.3447 34.9996 25.3447C40.3238 25.3447 44.6548 29.6757 44.6548 34.9999C44.6548 40.324 40.3238 44.6551 34.9996 44.6551Z" fill="#383838"/>
<path d="M35.0003 57.931C31.6727 57.931 28.9658 60.6379 28.9658 63.9655C28.9658 67.2931 31.6727 70 35.0003 70C38.3279 70 41.0348 67.2931 41.0348 63.9655C41.0348 60.6379 38.3279 57.931 35.0003 57.931ZM35.0003 67.5862C33.0038 67.5862 31.3796 65.9621 31.3796 63.9655C31.3796 61.969 33.0038 60.3448 35.0003 60.3448C36.9969 60.3448 38.621 61.969 38.621 63.9655C38.621 65.9621 36.9969 67.5862 35.0003 67.5862Z" fill="#383838"/>
<path d="M35.0003 -0.000118256C31.6727 -0.000118256 28.9658 2.70678 28.9658 6.03436C28.9658 9.36195 31.6727 12.0688 35.0003 12.0688C38.3279 12.0688 41.0348 9.36195 41.0348 6.03436C41.0348 2.70678 38.3279 -0.000118256 35.0003 -0.000118256ZM35.0003 9.65505C33.0038 9.65505 31.3796 8.03092 31.3796 6.03436C31.3796 4.03781 33.0038 2.41368 35.0003 2.41368C36.9969 2.41368 38.621 4.03781 38.621 6.03436C38.621 8.03092 36.9969 9.65505 35.0003 9.65505Z" fill="#383838"/>
<path d="M6.03448 28.9655C2.7069 28.9655 0 31.6724 0 34.9999C0 38.3275 2.7069 41.0344 6.03448 41.0344C9.36207 41.0344 12.069 38.3275 12.069 34.9999C12.069 31.6724 9.36207 28.9655 6.03448 28.9655ZM6.03448 38.6206C4.03793 38.6206 2.41379 36.9965 2.41379 34.9999C2.41379 33.0034 4.03793 31.3793 6.03448 31.3793C8.03103 31.3793 9.65517 33.0034 9.65517 34.9999C9.65517 36.9965 8.03103 38.6206 6.03448 38.6206Z" fill="#383838"/>
<path d="M63.9651 28.9655C60.6376 28.9655 57.9307 31.6724 57.9307 34.9999C57.9307 38.3275 60.6376 41.0344 63.9651 41.0344C67.2927 41.0344 69.9996 38.3275 69.9996 34.9999C69.9996 31.6724 67.2927 28.9655 63.9651 28.9655ZM63.9651 38.6206C61.9686 38.6206 60.3445 36.9965 60.3445 34.9999C60.3445 33.0034 61.9686 31.3793 63.9651 31.3793C65.9617 31.3793 67.5858 33.0034 67.5858 34.9999C67.5858 36.9965 65.9617 38.6206 63.9651 38.6206Z" fill="#383838"/>
<path d="M14.4827 49.4828C11.1551 49.4828 8.44824 52.1897 8.44824 55.5173C8.44824 58.8449 11.1551 61.5518 14.4827 61.5518C17.8103 61.5518 20.5172 58.8449 20.5172 55.5173C20.5172 52.1897 17.8103 49.4828 14.4827 49.4828ZM14.4827 59.138C12.4862 59.138 10.862 57.5138 10.862 55.5173C10.862 53.5207 12.4862 51.8966 14.4827 51.8966C16.4793 51.8966 18.1034 53.5207 18.1034 55.5173C18.1034 57.5138 16.4793 59.138 14.4827 59.138Z" fill="#383838"/>
<path d="M55.5169 49.4828C52.1893 49.4828 49.4824 52.1897 49.4824 55.5173C49.4824 58.8449 52.1893 61.5518 55.5169 61.5518C58.8445 61.5518 61.5514 58.8449 61.5514 55.5173C61.5514 52.1897 58.8445 49.4828 55.5169 49.4828ZM55.5169 59.138C53.5204 59.138 51.8962 57.5138 51.8962 55.5173C51.8962 53.5207 53.5204 51.8966 55.5169 51.8966C57.5135 51.8966 59.1376 53.5207 59.1376 55.5173C59.1376 57.5138 57.5135 59.138 55.5169 59.138Z" fill="#383838"/>
<path d="M14.4827 49.4828C11.1551 49.4828 8.44824 52.1897 8.44824 55.5173C8.44824 58.8449 11.1551 61.5518 14.4827 61.5518C17.8103 61.5518 20.5172 58.8449 20.5172 55.5173C20.5172 52.1897 17.8103 49.4828 14.4827 49.4828ZM14.4827 59.138C12.4862 59.138 10.862 57.5138 10.862 55.5173C10.862 53.5207 12.4862 51.8966 14.4827 51.8966C16.4793 51.8966 18.1034 53.5207 18.1034 55.5173C18.1034 57.5138 16.4793 59.138 14.4827 59.138Z" fill="#383838"/>
<path d="M55.5169 49.4828C52.1893 49.4828 49.4824 52.1897 49.4824 55.5173C49.4824 58.8449 52.1893 61.5518 55.5169 61.5518C58.8445 61.5518 61.5514 58.8449 61.5514 55.5173C61.5514 52.1897 58.8445 49.4828 55.5169 49.4828ZM55.5169 59.138C53.5204 59.138 51.8962 57.5138 51.8962 55.5173C51.8962 53.5207 53.5204 51.8966 55.5169 51.8966C57.5135 51.8966 59.1376 53.5207 59.1376 55.5173C59.1376 57.5138 57.5135 59.138 55.5169 59.138Z" fill="#383838"/>
<path d="M14.4827 8.44812C11.1551 8.44812 8.44824 11.155 8.44824 14.4826C8.44824 17.8102 11.1551 20.5171 14.4827 20.5171C17.8103 20.5171 20.5172 17.8102 20.5172 14.4826C20.5172 11.155 17.8103 8.44812 14.4827 8.44812ZM14.4827 18.1033C12.4862 18.1033 10.862 16.4792 10.862 14.4826C10.862 12.4861 12.4862 10.8619 14.4827 10.8619C16.4793 10.8619 18.1034 12.4861 18.1034 14.4826C18.1034 16.4792 16.4793 18.1033 14.4827 18.1033Z" fill="#383838"/>
<path d="M55.5169 8.44812C52.1893 8.44812 49.4824 11.155 49.4824 14.4826C49.4824 17.8102 52.1893 20.5171 55.5169 20.5171C58.8445 20.5171 61.5514 17.8102 61.5514 14.4826C61.5514 11.155 58.8445 8.44812 55.5169 8.44812ZM55.5169 18.1033C53.5204 18.1033 51.8962 16.4792 51.8962 14.4826C51.8962 12.4861 53.5204 10.8619 55.5169 10.8619C57.5135 10.8619 59.1376 12.4861 59.1376 14.4826C59.1376 16.4792 57.5135 18.1033 55.5169 18.1033Z" fill="#383838"/>
<path d="M52.1021 16.6915C51.7934 16.6915 51.4848 16.8088 51.2486 17.045L41.8227 26.4708C41.3521 26.9415 41.3521 27.7071 41.8227 28.1777C42.2934 28.6484 43.0589 28.6484 43.5296 28.1777L52.9555 18.7519C53.4262 18.2812 53.4262 17.5157 52.9555 17.045C52.7193 16.8088 52.4107 16.6915 52.1021 16.6915Z" fill="#383838"/>
<path d="M27.3237 41.4689C27.0151 41.4689 26.7065 41.5861 26.4703 41.8223L17.0444 51.2482C16.5737 51.7189 16.5737 52.4844 17.0444 52.9551C17.5151 53.4258 18.2806 53.4258 18.7513 52.9551L28.1772 43.5292C28.6479 43.0585 28.6479 42.293 28.1772 41.8223C27.941 41.5861 27.6324 41.4689 27.3237 41.4689Z" fill="#383838"/>
<path d="M42.6762 41.4689C42.3676 41.4689 42.059 41.5861 41.8227 41.8223C41.3521 42.293 41.3521 43.0585 41.8227 43.5292L51.2486 52.9551C51.7193 53.4258 52.4848 53.4258 52.9555 52.9551C53.4262 52.4844 53.4262 51.7189 52.9555 51.2482L43.5296 41.8223C43.2934 41.5861 42.9848 41.4689 42.6762 41.4689Z" fill="#383838"/>
<path d="M17.8979 16.6915C17.5893 16.6915 17.2806 16.8088 17.0444 17.045C16.5737 17.5157 16.5737 18.2812 17.0444 18.7519L26.4703 28.1777C26.941 28.6484 27.7065 28.6484 28.1772 28.1777C28.6479 27.7071 28.6479 26.9415 28.1772 26.4708L18.7513 17.045C18.5151 16.8088 18.2065 16.6915 17.8979 16.6915Z" fill="#383838"/>
<path d="M34.9999 44.6551C34.3326 44.6551 33.793 45.1947 33.793 45.862V59.1378C33.793 59.8051 34.3326 60.3447 34.9999 60.3447C35.6671 60.3447 36.2068 59.8051 36.2068 59.1378V45.862C36.2068 45.1947 35.6671 44.6551 34.9999 44.6551Z" fill="#383838"/>
<path d="M34.9999 9.65507C34.3326 9.65507 33.793 10.1947 33.793 10.862V24.1378C33.793 24.8051 34.3326 25.3447 34.9999 25.3447C35.6671 25.3447 36.2068 24.8051 36.2068 24.1378V10.862C36.2068 10.1947 35.6671 9.65507 34.9999 9.65507Z" fill="#383838"/>
<path d="M59.138 33.7932H45.8622C45.1949 33.7932 44.6553 34.3329 44.6553 35.0001C44.6553 35.6674 45.1949 36.207 45.8622 36.207H59.138C59.8053 36.207 60.3449 35.6674 60.3449 35.0001C60.3449 34.3329 59.8053 33.7932 59.138 33.7932Z" fill="#383838"/>
<path d="M24.138 33.7932H10.8622C10.1949 33.7932 9.65527 34.3329 9.65527 35.0001C9.65527 35.6674 10.1949 36.207 10.8622 36.207H24.138C24.8053 36.207 25.3449 35.6674 25.3449 35.0001C25.3449 34.3329 24.8053 33.7932 24.138 33.7932Z" fill="#383838"/>
</svg>
